<?xml version="1.0" encoding="utf-8" standalone="no"?>
<!DOCTYPE svg PUBLIC "-//W3C//DTD SVG 1.1//EN"
  "http://www.w3.org/Graphics/SVG/1.1/DTD/svg11.dtd">
<svg xmlns:xlink="http://www.w3.org/1999/xlink" width="576pt" height="396pt" viewBox="0 0 576 396" xmlns="http://www.w3.org/2000/svg" version="1.1">
 <metadata>
  <rdf:RDF xmlns:dc="http://purl.org/dc/elements/1.1/" xmlns:cc="http://creativecommons.org/ns#" xmlns:rdf="http://www.w3.org/1999/02/22-rdf-syntax-ns#">
   <cc:Work>
    <dc:type rdf:resource="http://purl.org/dc/dcmitype/StillImage"/>
    <dc:date>2024-11-24T10:34:57.842513</dc:date>
    <dc:format>image/svg+xml</dc:format>
    <dc:creator>
     <cc:Agent>
      <dc:title>Matplotlib v3.9.1, https://matplotlib.org/</dc:title>
     </cc:Agent>
    </dc:creator>
   </cc:Work>
  </rdf:RDF>
 </metadata>
 <defs>
  <style type="text/css">*{stroke-linejoin: round; stroke-linecap: butt}</style>
 </defs>
 <g id="figure_1">
  <g id="patch_1">
   <path d="M 0 396 
L 576 396 
L 576 0 
L 0 0 
z
" style="fill: #ffffff"/>
  </g>
  <g id="axes_1">
   <g id="patch_2">
    <path d="M 102.657703 377.144083 
L 473.342297 377.144083 
L 473.342297 6.459489 
L 102.657703 6.459489 
z
" style="fill: #eaeaf2"/>
   </g>
   <g id="matplotlib.axis_1">
    <g id="xtick_1">
     <g id="line2d_1">
      <path d="M 102.657703 377.144083 
L 102.657703 6.459489 
" clip-path="url(#pd7c639076a)" style="fill: none; stroke: #ffffff; stroke-linecap: round"/>
     </g>
     <g id="line2d_2"/>
     <g id="text_1">
      <!-- $\mathdefault{−2.0}$ -->
      <g style="fill: #262626" transform="translate(92.426174 391.062582) scale(0.1 -0.1)">
       <defs>
        <path id="CMSY10-0" d="M 4218 1472 
C 4326 1472 4442 1472 4442 1600 
C 4442 1728 4326 1728 4218 1728 
L 755 1728 
C 646 1728 531 1728 531 1600 
C 531 1472 646 1472 755 1472 
L 4218 1472 
z
" transform="scale(0.015625)"/>
        <path id="NimbusRomNo9L-Regu-32" d="M 3040 875 
L 2957 907 
C 2720 544 2637 486 2349 486 
L 819 486 
L 1894 1609 
C 2464 2202 2714 2687 2714 3185 
C 2714 3823 2195 4313 1530 4313 
C 1178 4313 845 4173 608 3918 
C 403 3700 307 3496 198 3043 
L 333 3011 
C 589 3636 819 3840 1261 3840 
C 1798 3840 2163 3476 2163 2940 
C 2163 2443 1869 1850 1331 1282 
L 192 77 
L 192 0 
L 2688 0 
L 3040 875 
z
" transform="scale(0.015625)"/>
        <path id="CMMI10-3a" d="M 1229 338 
C 1229 522 1075 675 890 675 
C 704 675 550 522 550 338 
C 550 153 704 0 890 0 
C 1075 0 1229 153 1229 338 
z
" transform="scale(0.015625)"/>
        <path id="NimbusRomNo9L-Regu-30" d="M 1626 4352 
C 1274 4352 1005 4244 768 4020 
C 397 3661 154 2925 154 2176 
C 154 1479 365 730 666 372 
C 902 90 1229 -64 1600 -64 
C 1926 -64 2202 45 2432 269 
C 2803 621 3046 1364 3046 2138 
C 3046 3450 2464 4352 1626 4352 
z
M 1606 4186 
C 2144 4186 2432 3463 2432 2125 
C 2432 788 2150 103 1600 103 
C 1050 103 768 788 768 2119 
C 768 3476 1056 4186 1606 4186 
z
" transform="scale(0.015625)"/>
       </defs>
       <use xlink:href="#CMSY10-0" transform="scale(0.996264)"/>
       <use xlink:href="#NimbusRomNo9L-Regu-32" transform="translate(77.408707 0) scale(0.996264)"/>
       <use xlink:href="#CMMI10-3a" transform="translate(127.221908 0) scale(0.996264)"/>
       <use xlink:href="#NimbusRomNo9L-Regu-30" transform="translate(154.817414 0) scale(0.996264)"/>
      </g>
     </g>
    </g>
    <g id="xtick_2">
     <g id="line2d_3">
      <path d="M 148.993277 377.144083 
L 148.993277 6.459489 
" clip-path="url(#pd7c639076a)" style="fill: none; stroke: #ffffff; stroke-linecap: round"/>
     </g>
     <g id="line2d_4"/>
     <g id="text_2">
      <!-- $\mathdefault{−1.5}$ -->
      <g style="fill: #262626" transform="translate(138.761748 391.062582) scale(0.1 -0.1)">
       <defs>
        <path id="NimbusRomNo9L-Regu-31" d="M 1862 4339 
L 710 3757 
L 710 3667 
C 787 3699 858 3725 883 3738 
C 998 3783 1107 3808 1171 3808 
C 1306 3808 1363 3711 1363 3505 
L 1363 592 
C 1363 379 1312 232 1210 173 
C 1114 116 1024 96 755 96 
L 755 0 
L 2522 0 
L 2522 96 
C 2016 96 1914 160 1914 470 
L 1914 4327 
L 1862 4339 
z
" transform="scale(0.015625)"/>
        <path id="NimbusRomNo9L-Regu-35" d="M 1158 3776 
L 2413 3776 
C 2515 3776 2541 3789 2560 3834 
L 2803 4403 
L 2746 4448 
C 2650 4314 2586 4282 2451 4282 
L 1114 4282 
L 416 2759 
C 410 2746 410 2740 410 2727 
C 410 2695 435 2676 486 2676 
C 691 2676 947 2631 1210 2547 
C 1946 2309 2285 1910 2285 1274 
C 2285 656 1894 173 1395 173 
C 1267 173 1158 218 966 360 
C 762 508 614 572 480 572 
C 294 572 205 495 205 334 
C 205 90 506 -64 986 -64 
C 1523 -64 1984 110 2304 438 
C 2598 728 2733 1094 2733 1583 
C 2733 2046 2611 2342 2291 2663 
C 2010 2947 1645 3094 890 3229 
L 1158 3776 
z
" transform="scale(0.015625)"/>
       </defs>
       <use xlink:href="#CMSY10-0" transform="scale(0.996264)"/>
       <use xlink:href="#NimbusRomNo9L-Regu-31" transform="translate(77.408707 0) scale(0.996264)"/>
       <use xlink:href="#CMMI10-3a" transform="translate(127.221908 0) scale(0.996264)"/>
       <use xlink:href="#NimbusRomNo9L-Regu-35" transform="translate(154.817414 0) scale(0.996264)"/>
      </g>
     </g>
    </g>
    <g id="xtick_3">
     <g id="line2d_5">
      <path d="M 195.328851 377.144083 
L 195.328851 6.459489 
" clip-path="url(#pd7c639076a)" style="fill: none; stroke: #ffffff; stroke-linecap: round"/>
     </g>
     <g id="line2d_6"/>
     <g id="text_3">
      <!-- $\mathdefault{−1.0}$ -->
      <g style="fill: #262626" transform="translate(185.097322 391.062582) scale(0.1 -0.1)">
       <use xlink:href="#CMSY10-0" transform="scale(0.996264)"/>
       <use xlink:href="#NimbusRomNo9L-Regu-31" transform="translate(77.408707 0) scale(0.996264)"/>
       <use xlink:href="#CMMI10-3a" transform="translate(127.221908 0) scale(0.996264)"/>
       <use xlink:href="#NimbusRomNo9L-Regu-30" transform="translate(154.817414 0) scale(0.996264)"/>
      </g>
     </g>
    </g>
    <g id="xtick_4">
     <g id="line2d_7">
      <path d="M 241.664426 377.144083 
L 241.664426 6.459489 
" clip-path="url(#pd7c639076a)" style="fill: none; stroke: #ffffff; stroke-linecap: round"/>
     </g>
     <g id="line2d_8"/>
     <g id="text_4">
      <!-- $\mathdefault{−0.5}$ -->
      <g style="fill: #262626" transform="translate(231.432897 391.062582) scale(0.1 -0.1)">
       <use xlink:href="#CMSY10-0" transform="scale(0.996264)"/>
       <use xlink:href="#NimbusRomNo9L-Regu-30" transform="translate(77.408707 0) scale(0.996264)"/>
       <use xlink:href="#CMMI10-3a" transform="translate(127.221908 0) scale(0.996264)"/>
       <use xlink:href="#NimbusRomNo9L-Regu-35" transform="translate(154.817414 0) scale(0.996264)"/>
      </g>
     </g>
    </g>
    <g id="xtick_5">
     <g id="line2d_9">
      <path d="M 288 377.144083 
L 288 6.459489 
" clip-path="url(#pd7c639076a)" style="fill: none; stroke: #ffffff; stroke-linecap: round"/>
     </g>
     <g id="line2d_10"/>
     <g id="text_5">
      <!-- $\mathdefault{0.0}$ -->
      <g style="fill: #262626" transform="translate(281.638905 391.062582) scale(0.1 -0.1)">
       <use xlink:href="#NimbusRomNo9L-Regu-30" transform="scale(0.996264)"/>
       <use xlink:href="#CMMI10-3a" transform="translate(49.8132 0) scale(0.996264)"/>
       <use xlink:href="#NimbusRomNo9L-Regu-30" transform="translate(77.408707 0) scale(0.996264)"/>
      </g>
     </g>
    </g>
    <g id="xtick_6">
     <g id="line2d_11">
      <path d="M 334.335574 377.144083 
L 334.335574 6.459489 
" clip-path="url(#pd7c639076a)" style="fill: none; stroke: #ffffff; stroke-linecap: round"/>
     </g>
     <g id="line2d_12"/>
     <g id="text_6">
      <!-- $\mathdefault{0.5}$ -->
      <g style="fill: #262626" transform="translate(327.97448 391.062582) scale(0.1 -0.1)">
       <use xlink:href="#NimbusRomNo9L-Regu-30" transform="scale(0.996264)"/>
       <use xlink:href="#CMMI10-3a" transform="translate(49.8132 0) scale(0.996264)"/>
       <use xlink:href="#NimbusRomNo9L-Regu-35" transform="translate(77.408707 0) scale(0.996264)"/>
      </g>
     </g>
    </g>
    <g id="xtick_7">
     <g id="line2d_13">
      <path d="M 380.671149 377.144083 
L 380.671149 6.459489 
" clip-path="url(#pd7c639076a)" style="fill: none; stroke: #ffffff; stroke-linecap: round"/>
     </g>
     <g id="line2d_14"/>
     <g id="text_7">
      <!-- $\mathdefault{1.0}$ -->
      <g style="fill: #262626" transform="translate(374.310054 391.062582) scale(0.1 -0.1)">
       <use xlink:href="#NimbusRomNo9L-Regu-31" transform="scale(0.996264)"/>
       <use xlink:href="#CMMI10-3a" transform="translate(49.8132 0) scale(0.996264)"/>
       <use xlink:href="#NimbusRomNo9L-Regu-30" transform="translate(77.408707 0) scale(0.996264)"/>
      </g>
     </g>
    </g>
    <g id="xtick_8">
     <g id="line2d_15">
      <path d="M 427.006723 377.144083 
L 427.006723 6.459489 
" clip-path="url(#pd7c639076a)" style="fill: none; stroke: #ffffff; stroke-linecap: round"/>
     </g>
     <g id="line2d_16"/>
     <g id="text_8">
      <!-- $\mathdefault{1.5}$ -->
      <g style="fill: #262626" transform="translate(420.645628 391.062582) scale(0.1 -0.1)">
       <use xlink:href="#NimbusRomNo9L-Regu-31" transform="scale(0.996264)"/>
       <use xlink:href="#CMMI10-3a" transform="translate(49.8132 0) scale(0.996264)"/>
       <use xlink:href="#NimbusRomNo9L-Regu-35" transform="translate(77.408707 0) scale(0.996264)"/>
      </g>
     </g>
    </g>
    <g id="xtick_9">
     <g id="line2d_17">
      <path d="M 473.342297 377.144083 
L 473.342297 6.459489 
" clip-path="url(#pd7c639076a)" style="fill: none; stroke: #ffffff; stroke-linecap: round"/>
     </g>
     <g id="line2d_18"/>
     <g id="text_9">
      <!-- $\mathdefault{2.0}$ -->
      <g style="fill: #262626" transform="translate(466.981202 391.062582) scale(0.1 -0.1)">
       <use xlink:href="#NimbusRomNo9L-Regu-32" transform="scale(0.996264)"/>
       <use xlink:href="#CMMI10-3a" transform="translate(49.8132 0) scale(0.996264)"/>
       <use xlink:href="#NimbusRomNo9L-Regu-30" transform="translate(77.408707 0) scale(0.996264)"/>
      </g>
     </g>
    </g>
   </g>
   <g id="matplotlib.axis_2">
    <g id="ytick_1">
     <g id="line2d_19">
      <path d="M 102.657703 377.144083 
L 473.342297 377.144083 
" clip-path="url(#pd7c639076a)" style="fill: none; stroke: #ffffff; stroke-linecap: round"/>
     </g>
     <g id="line2d_20"/>
     <g id="text_10">
      <!-- $\mathdefault{−2.0}$ -->
      <g style="fill: #262626" transform="translate(75.194644 380.603332) scale(0.1 -0.1)">
       <use xlink:href="#CMSY10-0" transform="scale(0.996264)"/>
       <use xlink:href="#NimbusRomNo9L-Regu-32" transform="translate(77.408707 0) scale(0.996264)"/>
       <use xlink:href="#CMMI10-3a" transform="translate(127.221908 0) scale(0.996264)"/>
       <use xlink:href="#NimbusRomNo9L-Regu-30" transform="translate(154.817414 0) scale(0.996264)"/>
      </g>
     </g>
    </g>
    <g id="ytick_2">
     <g id="line2d_21">
      <path d="M 102.657703 330.808509 
L 473.342297 330.808509 
" clip-path="url(#pd7c639076a)" style="fill: none; stroke: #ffffff; stroke-linecap: round"/>
     </g>
     <g id="line2d_22"/>
     <g id="text_11">
      <!-- $\mathdefault{−1.5}$ -->
      <g style="fill: #262626" transform="translate(75.194644 334.267758) scale(0.1 -0.1)">
       <use xlink:href="#CMSY10-0" transform="scale(0.996264)"/>
       <use xlink:href="#NimbusRomNo9L-Regu-31" transform="translate(77.408707 0) scale(0.996264)"/>
       <use xlink:href="#CMMI10-3a" transform="translate(127.221908 0) scale(0.996264)"/>
       <use xlink:href="#NimbusRomNo9L-Regu-35" transform="translate(154.817414 0) scale(0.996264)"/>
      </g>
     </g>
    </g>
    <g id="ytick_3">
     <g id="line2d_23">
      <path d="M 102.657703 284.472935 
L 473.342297 284.472935 
" clip-path="url(#pd7c639076a)" style="fill: none; stroke: #ffffff; stroke-linecap: round"/>
     </g>
     <g id="line2d_24"/>
     <g id="text_12">
      <!-- $\mathdefault{−1.0}$ -->
      <g style="fill: #262626" transform="translate(75.194644 287.932184) scale(0.1 -0.1)">
       <use xlink:href="#CMSY10-0" transform="scale(0.996264)"/>
       <use xlink:href="#NimbusRomNo9L-Regu-31" transform="translate(77.408707 0) scale(0.996264)"/>
       <use xlink:href="#CMMI10-3a" transform="translate(127.221908 0) scale(0.996264)"/>
       <use xlink:href="#NimbusRomNo9L-Regu-30" transform="translate(154.817414 0) scale(0.996264)"/>
      </g>
     </g>
    </g>
    <g id="ytick_4">
     <g id="line2d_25">
      <path d="M 102.657703 238.137361 
L 473.342297 238.137361 
" clip-path="url(#pd7c639076a)" style="fill: none; stroke: #ffffff; stroke-linecap: round"/>
     </g>
     <g id="line2d_26"/>
     <g id="text_13">
      <!-- $\mathdefault{−0.5}$ -->
      <g style="fill: #262626" transform="translate(75.194644 241.59661) scale(0.1 -0.1)">
       <use xlink:href="#CMSY10-0" transform="scale(0.996264)"/>
       <use xlink:href="#NimbusRomNo9L-Regu-30" transform="translate(77.408707 0) scale(0.996264)"/>
       <use xlink:href="#CMMI10-3a" transform="translate(127.221908 0) scale(0.996264)"/>
       <use xlink:href="#NimbusRomNo9L-Regu-35" transform="translate(154.817414 0) scale(0.996264)"/>
      </g>
     </g>
    </g>
    <g id="ytick_5">
     <g id="line2d_27">
      <path d="M 102.657703 191.801786 
L 473.342297 191.801786 
" clip-path="url(#pd7c639076a)" style="fill: none; stroke: #ffffff; stroke-linecap: round"/>
     </g>
     <g id="line2d_28"/>
     <g id="text_14">
      <!-- $\mathdefault{0.0}$ -->
      <g style="fill: #262626" transform="translate(82.935514 195.261035) scale(0.1 -0.1)">
       <use xlink:href="#NimbusRomNo9L-Regu-30" transform="scale(0.996264)"/>
       <use xlink:href="#CMMI10-3a" transform="translate(49.8132 0) scale(0.996264)"/>
       <use xlink:href="#NimbusRomNo9L-Regu-30" transform="translate(77.408707 0) scale(0.996264)"/>
      </g>
     </g>
    </g>
    <g id="ytick_6">
     <g id="line2d_29">
      <path d="M 102.657703 145.466212 
L 473.342297 145.466212 
" clip-path="url(#pd7c639076a)" style="fill: none; stroke: #ffffff; stroke-linecap: round"/>
     </g>
     <g id="line2d_30"/>
     <g id="text_15">
      <!-- $\mathdefault{0.5}$ -->
      <g style="fill: #262626" transform="translate(82.935514 148.925461) scale(0.1 -0.1)">
       <use xlink:href="#NimbusRomNo9L-Regu-30" transform="scale(0.996264)"/>
       <use xlink:href="#CMMI10-3a" transform="translate(49.8132 0) scale(0.996264)"/>
       <use xlink:href="#NimbusRomNo9L-Regu-35" transform="translate(77.408707 0) scale(0.996264)"/>
      </g>
     </g>
    </g>
    <g id="ytick_7">
     <g id="line2d_31">
      <path d="M 102.657703 99.130638 
L 473.342297 99.130638 
" clip-path="url(#pd7c639076a)" style="fill: none; stroke: #ffffff; stroke-linecap: round"/>
     </g>
     <g id="line2d_32"/>
     <g id="text_16">
      <!-- $\mathdefault{1.0}$ -->
      <g style="fill: #262626" transform="translate(82.935514 102.589887) scale(0.1 -0.1)">
       <use xlink:href="#NimbusRomNo9L-Regu-31" transform="scale(0.996264)"/>
       <use xlink:href="#CMMI10-3a" transform="translate(49.8132 0) scale(0.996264)"/>
       <use xlink:href="#NimbusRomNo9L-Regu-30" transform="translate(77.408707 0) scale(0.996264)"/>
      </g>
     </g>
    </g>
    <g id="ytick_8">
     <g id="line2d_33">
      <path d="M 102.657703 52.795063 
L 473.342297 52.795063 
" clip-path="url(#pd7c639076a)" style="fill: none; stroke: #ffffff; stroke-linecap: round"/>
     </g>
     <g id="line2d_34"/>
     <g id="text_17">
      <!-- $\mathdefault{1.5}$ -->
      <g style="fill: #262626" transform="translate(82.935514 56.254313) scale(0.1 -0.1)">
       <use xlink:href="#NimbusRomNo9L-Regu-31" transform="scale(0.996264)"/>
       <use xlink:href="#CMMI10-3a" transform="translate(49.8132 0) scale(0.996264)"/>
       <use xlink:href="#NimbusRomNo9L-Regu-35" transform="translate(77.408707 0) scale(0.996264)"/>
      </g>
     </g>
    </g>
    <g id="ytick_9">
     <g id="line2d_35">
      <path d="M 102.657703 6.459489 
L 473.342297 6.459489 
" clip-path="url(#pd7c639076a)" style="fill: none; stroke: #ffffff; stroke-linecap: round"/>
     </g>
     <g id="line2d_36"/>
     <g id="text_18">
      <!-- $\mathdefault{2.0}$ -->
      <g style="fill: #262626" transform="translate(82.935514 9.918738) scale(0.1 -0.1)">
       <use xlink:href="#NimbusRomNo9L-Regu-32" transform="scale(0.996264)"/>
       <use xlink:href="#CMMI10-3a" transform="translate(49.8132 0) scale(0.996264)"/>
       <use xlink:href="#NimbusRomNo9L-Regu-30" transform="translate(77.408707 0) scale(0.996264)"/>
      </g>
     </g>
    </g>
   </g>
   <g id="patch_3">
    <path d="M 193.104315 154.656275 
L 191.827108 148.403223 
L 192.26096 141.914154 
L 194.731564 137.50192 
L 198.029498 135.979632 
L 200.64178 134.723565 
L 201.108888 131.943219 
L 201.564479 128.615788 
L 203.011358 126.065262 
L 204.461382 123.584511 
L 204.584232 120.974661 
L 201.869531 119.658734 
L 201.9485 119.450195 
L 204.619989 118.85908 
L 208.264448 119.024459 
L 211.184176 118.213603 
L 214.056216 116.544865 
L 217.190268 115.711296 
L 221.970393 113.852078 
L 227.244013 110.704683 
L 233.123431 107.24645 
L 239.141722 103.123195 
L 246.908321 100.092929 
L 255.763597 98.722749 
L 265.110488 97.751017 
L 274.105034 97.229834 
L 282.163309 98.818913 
L 289.264049 102.378454 
L 295.08048 106.514515 
L 301.466351 109.811004 
L 307.196907 112.302156 
L 314.763568 115.870733 
L 322.71748 120.423501 
L 331.031017 125.183448 
L 336.997 130.331854 
L 340.836681 135.341863 
L 343.441723 139.882401 
L 345.461938 143.62192 
L 347.73646 147.423018 
L 350.149298 151.424316 
L 354.245071 156.226451 
L 360.150131 162.006503 
L 364.438463 166.870994 
L 366.441237 170.323728 
L 367.211306 172.23986 
L 370.305455 174.670741 
L 375.035623 179.896053 
L 377.778435 185.150591 
L 380.045506 187.87728 
L 383.700749 189.11627 
L 386.129933 189.709456 
L 388.163369 190.245484 
L 390.979681 192.769488 
L 393.176218 193.891969 
L 395.548084 193.80022 
L 396.566356 194.378977 
L 398.412715 195.621572 
L 401.693834 198.329118 
L 404.001425 202.021756 
L 404.237904 205.458861 
L 403.473473 209.313809 
L 402.234239 211.136716 
L 399.453819 214.639416 
L 397.521526 218.37023 
L 394.549674 221.242542 
L 391.159896 224.28327 
L 387.8806 227.093592 
L 383.915179 230.208681 
L 380.273996 232.469559 
L 376.406773 233.573112 
L 371.158901 235.568737 
L 365.639385 238.29205 
L 361.230678 242.150128 
L 358.664405 244.987188 
L 355.239247 247.371917 
L 350.97444 249.429207 
L 347.673894 252.000232 
L 344.709188 253.529262 
L 341.282047 257.072024 
L 338.493167 262.0323 
L 335.181736 266.954516 
L 330.493129 271.84905 
L 325.843292 276.623747 
L 321.578012 278.035389 
L 317.315381 277.793267 
L 312.646939 278.891239 
L 308.411719 280.841698 
L 304.683087 282.05213 
L 301.144264 283.310378 
L 298.291588 284.686961 
L 295.091394 285.181331 
L 292.887037 284.902792 
L 288.322718 286.259674 
L 282.118408 287.49403 
L 276.996278 288.036267 
L 271.154724 287.618117 
L 265.085442 284.524514 
L 257.011359 282.429988 
L 248.696399 279.957693 
L 241.656669 275.283129 
L 235.633153 268.586548 
L 231.041068 261.7738 
L 227.705297 255.079685 
L 224.693257 251.134444 
L 221.407685 247.398139 
L 217.318295 241.503959 
L 214.101956 235.03509 
L 210.639173 230.134125 
L 205.912686 223.696106 
L 201.79185 214.014601 
L 200.529655 206.234958 
L 200.739577 201.636781 
L 200.677715 197.732022 
L 201.655558 191.91488 
L 201.908766 186.277419 
L 200.582017 181.030032 
L 199.118382 176.674472 
L 198.743232 174.441106 
L 199.702246 174.122549 
L 200.708754 175.603184 
L 201.476736 175.220933 
L 199.478247 173.921715 
L 197.183693 171.994352 
L 194.937775 170.021687 
L 193.117869 168.521154 
L 193.773269 167.079956 
L 194.274429 163.374765 
L 194.210114 158.499453 
L 193.104315 154.656275 
" style="fill: #00ffff; stroke: #000000; stroke-width: 0.5; stroke-linejoin: miter"/>
   </g>
   <g id="patch_4">
    <path d="M 285.475022 52.763202 
L 149.802944 161.082844 
L 274.669671 317.480409 
L 410.341748 209.160768 
L 285.475022 52.763202 
" style="fill: none; stroke-dasharray: 1.92,0.48,0.3,0.48; stroke-dashoffset: 0; stroke: #ff0000; stroke-width: 0.3; stroke-linejoin: miter"/>
   </g>
   <g id="line2d_37">
    <path d="M 102.657703 191.801786 
L 473.342297 191.801786 
" clip-path="url(#pd7c639076a)" style="fill: none; stroke-dasharray: 3.7,1.6; stroke-dashoffset: 0; stroke: #0000ff"/>
   </g>
   <g id="line2d_38">
    <path d="M 288 377.144083 
L 288 6.459489 
" clip-path="url(#pd7c639076a)" style="fill: none; stroke-dasharray: 3.7,1.6; stroke-dashoffset: 0; stroke: #0000ff"/>
   </g>
   <g id="patch_5">
    <path d="M 102.657703 377.144083 
L 102.657703 6.459489 
" style="fill: none"/>
   </g>
   <g id="patch_6">
    <path d="M 473.342297 377.144083 
L 473.342297 6.459489 
" style="fill: none"/>
   </g>
   <g id="patch_7">
    <path d="M 102.657703 377.144083 
L 473.342297 377.144083 
" style="fill: none"/>
   </g>
   <g id="patch_8">
    <path d="M 102.657703 6.459489 
L 473.342297 6.459489 
" style="fill: none"/>
   </g>
  </g>
 </g>
 <defs>
  <clipPath id="pd7c639076a">
   <rect x="102.657703" y="6.459489" width="370.684594" height="370.684594"/>
  </clipPath>
 </defs>
</svg>
