<?xml version="1.0" encoding="utf-8" standalone="no"?>
<!DOCTYPE svg PUBLIC "-//W3C//DTD SVG 1.1//EN"
  "http://www.w3.org/Graphics/SVG/1.1/DTD/svg11.dtd">
<svg xmlns:xlink="http://www.w3.org/1999/xlink" width="360pt" height="360pt" viewBox="0 0 360 360" xmlns="http://www.w3.org/2000/svg" version="1.1">
 <metadata>
  <rdf:RDF xmlns:dc="http://purl.org/dc/elements/1.1/" xmlns:cc="http://creativecommons.org/ns#" xmlns:rdf="http://www.w3.org/1999/02/22-rdf-syntax-ns#">
   <cc:Work>
    <dc:type rdf:resource="http://purl.org/dc/dcmitype/StillImage"/>
    <dc:date>2024-11-22T17:08:05.826273</dc:date>
    <dc:format>image/svg+xml</dc:format>
    <dc:creator>
     <cc:Agent>
      <dc:title>Matplotlib v3.9.1, https://matplotlib.org/</dc:title>
     </cc:Agent>
    </dc:creator>
   </cc:Work>
  </rdf:RDF>
 </metadata>
 <defs>
  <style type="text/css">*{stroke-linejoin: round; stroke-linecap: butt}</style>
 </defs>
 <g id="figure_1">
  <g id="patch_1">
   <path d="M 0 360 
L 360 360 
L 360 0 
L 0 0 
z
" style="fill: #ffffff"/>
  </g>
  <g id="axes_1">
   <g id="patch_2">
    <path d="M 44.619595 323.196387 
L 348.35497 323.196387 
L 348.35497 19.461012 
L 44.619595 19.461012 
z
" style="fill: #eaeaf2"/>
   </g>
   <g id="matplotlib.axis_1">
    <g id="xtick_1">
     <g id="line2d_1">
      <path d="M 44.619595 323.196387 
L 44.619595 19.461012 
" clip-path="url(#pd3e209322a)" style="fill: none; stroke: #ffffff; stroke-linecap: round"/>
     </g>
     <g id="line2d_2"/>
     <g id="text_1">
      <!-- $\mathdefault{0.0}$ -->
      <g style="fill: #262626" transform="translate(38.2585 337.114886) scale(0.1 -0.1)">
       <defs>
        <path id="NimbusRomNo9L-Regu-30" d="M 1626 4352 
C 1274 4352 1005 4244 768 4020 
C 397 3661 154 2925 154 2176 
C 154 1479 365 730 666 372 
C 902 90 1229 -64 1600 -64 
C 1926 -64 2202 45 2432 269 
C 2803 621 3046 1364 3046 2138 
C 3046 3450 2464 4352 1626 4352 
z
M 1606 4186 
C 2144 4186 2432 3463 2432 2125 
C 2432 788 2150 103 1600 103 
C 1050 103 768 788 768 2119 
C 768 3476 1056 4186 1606 4186 
z
" transform="scale(0.015625)"/>
        <path id="CMMI10-3a" d="M 1229 338 
C 1229 522 1075 675 890 675 
C 704 675 550 522 550 338 
C 550 153 704 0 890 0 
C 1075 0 1229 153 1229 338 
z
" transform="scale(0.015625)"/>
       </defs>
       <use xlink:href="#NimbusRomNo9L-Regu-30" transform="scale(0.996264)"/>
       <use xlink:href="#CMMI10-3a" transform="translate(49.8132 0) scale(0.996264)"/>
       <use xlink:href="#NimbusRomNo9L-Regu-30" transform="translate(77.408707 0) scale(0.996264)"/>
      </g>
     </g>
    </g>
    <g id="xtick_2">
     <g id="line2d_3">
      <path d="M 105.36667 323.196387 
L 105.36667 19.461012 
" clip-path="url(#pd3e209322a)" style="fill: none; stroke: #ffffff; stroke-linecap: round"/>
     </g>
     <g id="line2d_4"/>
     <g id="text_2">
      <!-- $\mathdefault{0.2}$ -->
      <g style="fill: #262626" transform="translate(99.005575 337.114886) scale(0.1 -0.1)">
       <defs>
        <path id="NimbusRomNo9L-Regu-32" d="M 3040 875 
L 2957 907 
C 2720 544 2637 486 2349 486 
L 819 486 
L 1894 1609 
C 2464 2202 2714 2687 2714 3185 
C 2714 3823 2195 4313 1530 4313 
C 1178 4313 845 4173 608 3918 
C 403 3700 307 3496 198 3043 
L 333 3011 
C 589 3636 819 3840 1261 3840 
C 1798 3840 2163 3476 2163 2940 
C 2163 2443 1869 1850 1331 1282 
L 192 77 
L 192 0 
L 2688 0 
L 3040 875 
z
" transform="scale(0.015625)"/>
       </defs>
       <use xlink:href="#NimbusRomNo9L-Regu-30" transform="scale(0.996264)"/>
       <use xlink:href="#CMMI10-3a" transform="translate(49.8132 0) scale(0.996264)"/>
       <use xlink:href="#NimbusRomNo9L-Regu-32" transform="translate(77.408707 0) scale(0.996264)"/>
      </g>
     </g>
    </g>
    <g id="xtick_3">
     <g id="line2d_5">
      <path d="M 166.113745 323.196387 
L 166.113745 19.461012 
" clip-path="url(#pd3e209322a)" style="fill: none; stroke: #ffffff; stroke-linecap: round"/>
     </g>
     <g id="line2d_6"/>
     <g id="text_3">
      <!-- $\mathdefault{0.4}$ -->
      <g style="fill: #262626" transform="translate(159.75265 337.114886) scale(0.1 -0.1)">
       <defs>
        <path id="NimbusRomNo9L-Regu-34" d="M 3021 1497 
L 2368 1497 
L 2368 4352 
L 2086 4352 
L 77 1497 
L 77 1088 
L 1875 1088 
L 1875 32 
L 2368 32 
L 2368 1088 
L 3021 1088 
L 3021 1497 
z
M 1869 1497 
L 333 1497 
L 1869 3698 
L 1869 1497 
z
" transform="scale(0.015625)"/>
       </defs>
       <use xlink:href="#NimbusRomNo9L-Regu-30" transform="scale(0.996264)"/>
       <use xlink:href="#CMMI10-3a" transform="translate(49.8132 0) scale(0.996264)"/>
       <use xlink:href="#NimbusRomNo9L-Regu-34" transform="translate(77.408707 0) scale(0.996264)"/>
      </g>
     </g>
    </g>
    <g id="xtick_4">
     <g id="line2d_7">
      <path d="M 226.86082 323.196387 
L 226.86082 19.461012 
" clip-path="url(#pd3e209322a)" style="fill: none; stroke: #ffffff; stroke-linecap: round"/>
     </g>
     <g id="line2d_8"/>
     <g id="text_4">
      <!-- $\mathdefault{0.6}$ -->
      <g style="fill: #262626" transform="translate(220.499725 337.114886) scale(0.1 -0.1)">
       <defs>
        <path id="NimbusRomNo9L-Regu-36" d="M 2854 4391 
C 2125 4327 1754 4205 1286 3879 
C 595 3386 218 2656 218 1802 
C 218 1248 390 688 666 370 
C 909 89 1254 -64 1651 -64 
C 2445 -64 2995 541 2995 1421 
C 2995 2236 2528 2752 1792 2752 
C 1510 2752 1376 2707 973 2464 
C 1146 3431 1862 4122 2867 4288 
L 2854 4391 
z
M 1549 2458 
C 2099 2458 2419 2000 2419 1204 
C 2419 504 2170 116 1722 116 
C 1158 116 813 714 813 1700 
C 813 2025 864 2203 992 2299 
C 1126 2400 1325 2458 1549 2458 
z
" transform="scale(0.015625)"/>
       </defs>
       <use xlink:href="#NimbusRomNo9L-Regu-30" transform="scale(0.996264)"/>
       <use xlink:href="#CMMI10-3a" transform="translate(49.8132 0) scale(0.996264)"/>
       <use xlink:href="#NimbusRomNo9L-Regu-36" transform="translate(77.408707 0) scale(0.996264)"/>
      </g>
     </g>
    </g>
    <g id="xtick_5">
     <g id="line2d_9">
      <path d="M 287.607895 323.196387 
L 287.607895 19.461012 
" clip-path="url(#pd3e209322a)" style="fill: none; stroke: #ffffff; stroke-linecap: round"/>
     </g>
     <g id="line2d_10"/>
     <g id="text_5">
      <!-- $\mathdefault{0.8}$ -->
      <g style="fill: #262626" transform="translate(281.246801 337.114886) scale(0.1 -0.1)">
       <defs>
        <path id="NimbusRomNo9L-Regu-38" d="M 1856 2400 
C 2490 2740 2714 3008 2714 3444 
C 2714 3968 2253 4352 1613 4352 
C 915 4352 397 3924 397 3341 
C 397 2925 518 2740 1190 2151 
C 499 1626 358 1428 358 992 
C 358 372 864 -64 1587 -64 
C 2355 -64 2848 359 2848 1018 
C 2848 1511 2630 1824 1856 2400 
z
M 1741 1741 
C 2208 1408 2362 1178 2362 820 
C 2362 404 2074 116 1658 116 
C 1171 116 845 487 845 1044 
C 845 1453 986 1722 1357 2023 
L 1741 1741 
z
M 1670 2516 
C 1101 2887 870 3181 870 3540 
C 870 3911 1158 4173 1562 4173 
C 1997 4173 2272 3892 2272 3450 
C 2272 3085 2093 2797 1728 2554 
C 1696 2535 1696 2535 1670 2516 
z
" transform="scale(0.015625)"/>
       </defs>
       <use xlink:href="#NimbusRomNo9L-Regu-30" transform="scale(0.996264)"/>
       <use xlink:href="#CMMI10-3a" transform="translate(49.8132 0) scale(0.996264)"/>
       <use xlink:href="#NimbusRomNo9L-Regu-38" transform="translate(77.408707 0) scale(0.996264)"/>
      </g>
     </g>
    </g>
    <g id="xtick_6">
     <g id="line2d_11">
      <path d="M 348.35497 323.196387 
L 348.35497 19.461012 
" clip-path="url(#pd3e209322a)" style="fill: none; stroke: #ffffff; stroke-linecap: round"/>
     </g>
     <g id="line2d_12"/>
     <g id="text_6">
      <!-- $\mathdefault{1.0}$ -->
      <g style="fill: #262626" transform="translate(341.993876 337.114886) scale(0.1 -0.1)">
       <defs>
        <path id="NimbusRomNo9L-Regu-31" d="M 1862 4339 
L 710 3757 
L 710 3667 
C 787 3699 858 3725 883 3738 
C 998 3783 1107 3808 1171 3808 
C 1306 3808 1363 3711 1363 3505 
L 1363 592 
C 1363 379 1312 232 1210 173 
C 1114 116 1024 96 755 96 
L 755 0 
L 2522 0 
L 2522 96 
C 2016 96 1914 160 1914 470 
L 1914 4327 
L 1862 4339 
z
" transform="scale(0.015625)"/>
       </defs>
       <use xlink:href="#NimbusRomNo9L-Regu-31" transform="scale(0.996264)"/>
       <use xlink:href="#CMMI10-3a" transform="translate(49.8132 0) scale(0.996264)"/>
       <use xlink:href="#NimbusRomNo9L-Regu-30" transform="translate(77.408707 0) scale(0.996264)"/>
      </g>
     </g>
    </g>
    <g id="text_7">
     <!-- Gravel size $d (m)$ -->
     <g style="fill: #262626" transform="translate(149.505019 353.512836) scale(0.14 -0.14)">
      <defs>
       <path id="CMSS17-47" d="M 3610 1856 
L 2336 1856 
L 2336 1461 
L 3123 1461 
L 3123 471 
C 2874 401 2618 350 2362 350 
C 1466 350 934 1301 934 2200 
C 934 3095 1491 4032 2362 4032 
C 2854 4032 3130 3881 3469 3627 
L 3552 4134 
C 3130 4351 2867 4440 2387 4440 
C 1146 4440 397 3324 397 2182 
C 397 1090 1152 -64 2349 -64 
C 2797 -64 3213 51 3610 248 
L 3610 1856 
z
" transform="scale(0.015625)"/>
       <path id="CMSS17-72" d="M 954 1363 
C 954 1965 1395 2368 1958 2368 
L 1958 2789 
C 1549 2789 1165 2585 934 2253 
L 934 2758 
L 480 2758 
L 480 0 
L 954 0 
L 954 1363 
z
" transform="scale(0.015625)"/>
       <path id="CMSS17-61" d="M 2406 1791 
C 2406 2392 1978 2808 1402 2808 
C 1120 2808 813 2757 461 2553 
L 499 2135 
C 659 2248 934 2432 1395 2432 
C 1722 2432 1920 2180 1920 1782 
L 1920 1536 
C 896 1536 256 1238 256 726 
C 256 461 416 -64 947 -64 
C 1043 -64 1562 -64 1933 217 
L 1933 -19 
L 2406 -19 
L 2406 1791 
z
M 1920 816 
C 1920 701 1920 548 1728 434 
C 1562 325 1350 325 1261 325 
C 941 325 723 511 723 744 
C 723 1211 1722 1211 1920 1211 
L 1920 816 
z
" transform="scale(0.015625)"/>
       <path id="CMSS17-76" d="M 2675 2752 
L 2176 2752 
L 1747 1556 
C 1613 1165 1421 627 1389 352 
L 1382 352 
C 1370 468 1318 634 1286 749 
C 1248 890 1197 1056 1158 1172 
L 595 2752 
L 83 2752 
L 1094 0 
L 1664 0 
L 2675 2752 
z
" transform="scale(0.015625)"/>
       <path id="CMSS17-65" d="M 2502 1377 
C 2502 1590 2490 2003 2285 2345 
C 2061 2713 1696 2816 1421 2816 
C 755 2816 192 2188 192 1375 
C 192 582 774 -64 1510 -64 
C 1798 -64 2150 19 2470 248 
C 2470 274 2458 414 2451 420 
C 2451 433 2432 630 2432 656 
C 2125 407 1773 325 1517 325 
C 1107 325 666 667 646 1377 
L 2502 1377 
z
M 698 1728 
C 781 2084 1062 2421 1421 2421 
C 1517 2421 1965 2421 2080 1728 
L 698 1728 
z
" transform="scale(0.015625)"/>
       <path id="CMSS17-6c" d="M 947 4416 
L 474 4416 
L 474 0 
L 947 0 
L 947 4416 
z
" transform="scale(0.015625)"/>
       <path id="CMSS17-73" d="M 2061 2627 
C 1683 2807 1389 2807 1197 2807 
C 742 2807 198 2648 198 2003 
C 198 1359 902 1218 1094 1179 
C 1389 1122 1715 1058 1715 740 
C 1715 337 1254 337 1171 337 
C 915 337 563 407 243 638 
L 166 210 
C 531 0 883 -64 1178 -64 
C 1965 -64 2163 416 2163 781 
C 2163 1094 1984 1305 1862 1401 
C 1651 1568 1574 1587 1050 1696 
C 960 1709 646 1779 646 2066 
C 646 2432 1050 2432 1139 2432 
C 1555 2432 1811 2303 1984 2208 
L 2061 2627 
z
" transform="scale(0.015625)"/>
       <path id="CMSS17-69" d="M 979 4183 
L 442 4183 
L 442 3648 
L 979 3648 
L 979 4183 
z
M 947 2739 
L 474 2739 
L 474 0 
L 947 0 
L 947 2739 
z
" transform="scale(0.015625)"/>
       <path id="CMSS17-7a" d="M 2400 2502 
L 2400 2750 
L 250 2750 
L 250 2368 
L 1069 2368 
C 1146 2368 1222 2368 1299 2368 
L 1747 2368 
L 166 261 
L 166 0 
L 2419 0 
L 2419 395 
L 1549 395 
C 1472 395 1395 395 1318 395 
L 826 395 
L 2400 2502 
z
" transform="scale(0.015625)"/>
       <path id="NimbusRomNo9L-ReguItal-64" d="M 2963 714 
C 2618 319 2547 261 2438 261 
C 2374 261 2323 319 2323 389 
C 2323 479 2528 1257 2739 1959 
C 2912 2546 3046 3057 3373 4333 
L 3341 4365 
C 3002 4295 2771 4256 2362 4218 
L 2362 4103 
C 2714 4103 2758 4084 2758 3948 
C 2758 3865 2752 3827 2662 3499 
L 2381 2446 
C 2330 2714 2214 2816 1965 2816 
C 1133 2816 96 1619 96 662 
C 96 209 352 -64 768 -64 
C 1203 -64 1485 140 1920 777 
C 1850 457 1837 362 1837 218 
C 1837 49 1946 -64 2106 -64 
C 2374 -64 2707 193 3040 650 
L 2963 714 
z
M 1990 2663 
C 2182 2663 2278 2541 2278 2311 
C 2278 1341 1613 242 1024 242 
C 806 242 653 414 653 662 
C 653 1189 973 1926 1395 2371 
C 1574 2555 1811 2675 1990 2663 
z
" transform="scale(0.015625)"/>
       <path id="CMR10-28" d="M 2118 -1536 
C 2118 -1517 2118 -1504 2010 -1395 
C 1210 -584 1005 632 1005 1616 
C 1005 2735 1248 3855 2035 4658 
C 2118 4735 2118 4748 2118 4767 
C 2118 4812 2093 4832 2054 4832 
C 1990 4832 1414 4395 1037 3577 
C 710 2870 634 2156 634 1616 
C 634 1114 704 336 1056 -391 
C 1440 -1182 1990 -1600 2054 -1600 
C 2093 -1600 2118 -1581 2118 -1536 
z
" transform="scale(0.015625)"/>
       <path id="NimbusRomNo9L-ReguItal-6d" d="M 4410 756 
C 4346 680 4294 616 4275 591 
C 4096 362 3962 255 3866 255 
C 3814 255 3782 293 3782 357 
C 3782 389 3808 490 3846 643 
L 4282 2238 
C 4288 2264 4301 2378 4301 2416 
C 4301 2645 4141 2816 3923 2816 
C 3802 2816 3674 2772 3520 2677 
C 3206 2474 2944 2168 2502 1468 
C 2662 1952 2758 2314 2758 2435 
C 2758 2658 2611 2816 2394 2816 
C 2003 2816 1555 2397 966 1474 
L 1338 2803 
L 1318 2815 
C 960 2739 826 2713 294 2618 
L 294 2516 
L 454 2516 
C 621 2516 704 2472 704 2377 
C 704 2306 557 1728 326 921 
C 179 401 160 337 77 13 
L 557 13 
C 864 1023 960 1258 1178 1589 
C 1536 2129 1920 2484 2138 2484 
C 2221 2484 2266 2427 2266 2326 
C 2266 2268 2061 1499 1658 13 
L 2138 13 
C 2394 1004 2522 1322 2848 1773 
C 3162 2204 3482 2484 3667 2484 
C 3738 2484 3795 2420 3795 2351 
C 3795 2319 3782 2244 3750 2129 
L 3379 667 
C 3322 433 3296 311 3296 248 
C 3296 57 3386 -44 3552 -44 
C 3853 -44 4134 165 4474 635 
L 4506 680 
L 4410 756 
z
" transform="scale(0.015625)"/>
       <path id="CMR10-29" d="M 1850 1616 
C 1850 2118 1779 2896 1427 3622 
C 1043 4414 493 4832 429 4832 
C 390 4832 365 4806 365 4767 
C 365 4748 365 4735 486 4620 
C 1114 3983 1478 2960 1478 1616 
C 1478 516 1242 -617 448 -1427 
C 365 -1504 365 -1517 365 -1536 
C 365 -1575 390 -1600 429 -1600 
C 493 -1600 1069 -1163 1446 -346 
C 1773 362 1850 1075 1850 1616 
z
" transform="scale(0.015625)"/>
      </defs>
      <use xlink:href="#CMSS17-47" transform="scale(0.996264)"/>
      <use xlink:href="#CMSS17-72" transform="translate(62.458226 0) scale(0.996264)"/>
      <use xlink:href="#CMSS17-61" transform="translate(94.367998 0) scale(0.996264)"/>
      <use xlink:href="#CMSS17-76" transform="translate(139.289919 0) scale(0.996264)"/>
      <use xlink:href="#CMSS17-65" transform="translate(182.29006 0) scale(0.996264)"/>
      <use xlink:href="#CMSS17-6c" transform="translate(223.928882 0) scale(0.996264)"/>
      <use xlink:href="#CMSS17-73" transform="translate(277.338718 0) scale(0.996264)"/>
      <use xlink:href="#CMSS17-69" transform="translate(313.25226 0) scale(0.996264)"/>
      <use xlink:href="#CMSS17-7a" transform="translate(335.432983 0) scale(0.996264)"/>
      <use xlink:href="#CMSS17-65" transform="translate(376.110855 0) scale(0.996264)"/>
      <use xlink:href="#NimbusRomNo9L-ReguItal-64" transform="translate(448.97879 0) scale(0.996264)"/>
      <use xlink:href="#CMR10-28" transform="translate(503.971618 0) scale(0.996264)"/>
      <use xlink:href="#NimbusRomNo9L-ReguItal-6d" transform="translate(542.625463 0) scale(0.996264)"/>
      <use xlink:href="#CMR10-29" transform="translate(614.555448 0) scale(0.996264)"/>
     </g>
    </g>
   </g>
   <g id="matplotlib.axis_2">
    <g id="ytick_1">
     <g id="line2d_13">
      <path d="M 44.619595 276.077106 
L 348.35497 276.077106 
" clip-path="url(#pd3e209322a)" style="fill: none; stroke: #ffffff; stroke-linecap: round"/>
     </g>
     <g id="line2d_14"/>
     <g id="text_8">
      <!-- $\mathdefault{60}$ -->
      <g style="fill: #262626" transform="translate(27.656955 279.536355) scale(0.1 -0.1)">
       <use xlink:href="#NimbusRomNo9L-Regu-36" transform="scale(0.996264)"/>
       <use xlink:href="#NimbusRomNo9L-Regu-30" transform="translate(49.8132 0) scale(0.996264)"/>
      </g>
     </g>
    </g>
    <g id="ytick_2">
     <g id="line2d_15">
      <path d="M 44.619595 211.923082 
L 348.35497 211.923082 
" clip-path="url(#pd3e209322a)" style="fill: none; stroke: #ffffff; stroke-linecap: round"/>
     </g>
     <g id="line2d_16"/>
     <g id="text_9">
      <!-- $\mathdefault{70}$ -->
      <g style="fill: #262626" transform="translate(27.656955 215.382331) scale(0.1 -0.1)">
       <defs>
        <path id="NimbusRomNo9L-Regu-37" d="M 2874 4250 
L 506 4250 
L 128 3310 
L 237 3258 
C 512 3693 627 3776 979 3776 
L 2368 3776 
L 1101 -32 
L 1517 -32 
L 2874 4148 
L 2874 4250 
z
" transform="scale(0.015625)"/>
       </defs>
       <use xlink:href="#NimbusRomNo9L-Regu-37" transform="scale(0.996264)"/>
       <use xlink:href="#NimbusRomNo9L-Regu-30" transform="translate(49.8132 0) scale(0.996264)"/>
      </g>
     </g>
    </g>
    <g id="ytick_3">
     <g id="line2d_17">
      <path d="M 44.619595 147.769059 
L 348.35497 147.769059 
" clip-path="url(#pd3e209322a)" style="fill: none; stroke: #ffffff; stroke-linecap: round"/>
     </g>
     <g id="line2d_18"/>
     <g id="text_10">
      <!-- $\mathdefault{80}$ -->
      <g style="fill: #262626" transform="translate(27.656955 151.228308) scale(0.1 -0.1)">
       <use xlink:href="#NimbusRomNo9L-Regu-38" transform="scale(0.996264)"/>
       <use xlink:href="#NimbusRomNo9L-Regu-30" transform="translate(49.8132 0) scale(0.996264)"/>
      </g>
     </g>
    </g>
    <g id="ytick_4">
     <g id="line2d_19">
      <path d="M 44.619595 83.615036 
L 348.35497 83.615036 
" clip-path="url(#pd3e209322a)" style="fill: none; stroke: #ffffff; stroke-linecap: round"/>
     </g>
     <g id="line2d_20"/>
     <g id="text_11">
      <!-- $\mathdefault{90}$ -->
      <g style="fill: #262626" transform="translate(27.656955 87.074285) scale(0.1 -0.1)">
       <defs>
        <path id="NimbusRomNo9L-Regu-39" d="M 378 -123 
C 1094 -40 1446 82 1882 396 
C 2547 882 2938 1676 2938 2539 
C 2938 3593 2349 4339 1523 4339 
C 762 4339 192 3694 192 2832 
C 192 2053 653 1536 1344 1536 
C 1696 1536 1965 1638 2304 1900 
C 2042 856 1331 172 358 5 
L 378 -123 
z
M 2317 2290 
C 2317 2162 2291 2104 2221 2047 
C 2042 1894 1805 1811 1574 1811 
C 1088 1811 781 2290 781 3050 
C 781 3413 883 3796 1018 3963 
C 1126 4090 1286 4160 1472 4160 
C 2029 4160 2317 3611 2317 2539 
L 2317 2290 
z
" transform="scale(0.015625)"/>
       </defs>
       <use xlink:href="#NimbusRomNo9L-Regu-39" transform="scale(0.996264)"/>
       <use xlink:href="#NimbusRomNo9L-Regu-30" transform="translate(49.8132 0) scale(0.996264)"/>
      </g>
     </g>
    </g>
    <g id="ytick_5">
     <g id="line2d_21">
      <path d="M 44.619595 19.461012 
L 348.35497 19.461012 
" clip-path="url(#pd3e209322a)" style="fill: none; stroke: #ffffff; stroke-linecap: round"/>
     </g>
     <g id="line2d_22"/>
     <g id="text_12">
      <!-- $\mathdefault{100}$ -->
      <g style="fill: #262626" transform="translate(22.675635 22.920261) scale(0.1 -0.1)">
       <use xlink:href="#NimbusRomNo9L-Regu-31" transform="scale(0.996264)"/>
       <use xlink:href="#NimbusRomNo9L-Regu-30" transform="translate(49.8132 0) scale(0.996264)"/>
       <use xlink:href="#NimbusRomNo9L-Regu-30" transform="translate(99.626401 0) scale(0.996264)"/>
      </g>
     </g>
    </g>
    <g id="text_13">
     <!-- Cumulative percentage $P(\%)$ -->
     <g style="fill: #262626" transform="translate(15.188711 254.048203) rotate(-90) scale(0.14 -0.14)">
      <defs>
       <path id="CMSS17-43" d="M 3501 714 
C 3072 427 2874 344 2355 344 
C 1459 344 934 1303 934 2179 
C 934 3112 1472 4032 2381 4032 
C 2790 4032 3059 3918 3386 3715 
L 3475 4217 
C 3168 4370 2778 4440 2387 4440 
C 1158 4440 397 3316 397 2179 
C 397 927 1299 -64 2323 -64 
C 2874 -64 3066 -19 3539 280 
L 3501 714 
z
" transform="scale(0.015625)"/>
       <path id="CMSS17-75" d="M 2618 2739 
L 2131 2739 
L 2131 972 
C 2131 498 1786 306 1421 306 
C 998 306 960 447 960 709 
L 960 2739 
L 474 2739 
L 474 678 
C 474 179 646 -64 1088 -64 
C 1306 -64 1798 -13 2144 306 
L 2144 0 
L 2618 0 
L 2618 2739 
z
" transform="scale(0.015625)"/>
       <path id="CMSS17-6d" d="M 4288 1877 
C 4288 2308 4179 2816 3462 2816 
C 2982 2816 2694 2516 2566 2331 
C 2451 2670 2182 2816 1798 2816 
C 1363 2816 1088 2568 941 2389 
L 941 2758 
L 474 2758 
L 474 0 
L 960 0 
L 960 1559 
C 960 1939 1101 2428 1555 2428 
C 2138 2428 2138 2016 2138 1829 
L 2138 0 
L 2624 0 
L 2624 1559 
C 2624 1939 2765 2428 3219 2428 
C 3802 2428 3802 2016 3802 1829 
L 3802 0 
L 4288 0 
L 4288 1877 
z
" transform="scale(0.015625)"/>
       <path id="CMSS17-74" d="M 1069 2368 
L 1901 2368 
L 1901 2737 
L 1069 2737 
L 1069 3520 
L 614 3520 
L 614 2737 
L 109 2737 
L 109 2368 
L 602 2368 
L 602 749 
C 602 384 685 -64 1107 -64 
C 1427 -64 1722 25 2003 172 
L 1901 548 
C 1747 414 1562 337 1363 337 
C 1082 337 1069 696 1069 856 
L 1069 2368 
z
" transform="scale(0.015625)"/>
       <path id="CMSS17-70" d="M 966 333 
C 1178 129 1466 -5 1773 -5 
C 2368 -5 2880 603 2880 1412 
C 2880 2159 2496 2816 1946 2816 
C 1626 2816 1242 2702 954 2472 
L 954 2765 
L 480 2765 
L 480 -1216 
L 966 -1216 
L 966 333 
z
M 966 2100 
C 1018 2176 1235 2415 1587 2415 
C 2035 2415 2394 1960 2394 1412 
C 2394 787 1958 384 1530 384 
C 1402 384 1267 415 1139 523 
C 966 674 966 768 966 857 
L 966 2100 
z
" transform="scale(0.015625)"/>
       <path id="CMSS17-63" d="M 2464 2541 
C 2464 2585 2170 2714 2093 2739 
C 1882 2816 1613 2816 1542 2816 
C 710 2816 211 2093 211 1363 
C 211 595 768 -64 1517 -64 
C 1946 -64 2253 76 2502 242 
L 2464 664 
C 2189 453 1869 337 1523 337 
C 1024 337 698 774 698 1369 
C 698 1831 909 2414 1549 2414 
C 1901 2414 2099 2343 2394 2145 
L 2464 2541 
z
" transform="scale(0.015625)"/>
       <path id="CMSS17-6e" d="M 2618 1877 
C 2618 2283 2522 2816 1798 2816 
C 1389 2816 1120 2606 941 2389 
L 941 2758 
L 474 2758 
L 474 0 
L 960 0 
L 960 1559 
C 960 1964 1114 2428 1549 2428 
C 2112 2428 2131 2048 2131 1829 
L 2131 0 
L 2618 0 
L 2618 1877 
z
" transform="scale(0.015625)"/>
       <path id="CMSS17-67" d="M 2848 2808 
C 2483 2808 2170 2738 1914 2617 
C 1702 2777 1485 2808 1338 2808 
C 781 2808 358 2349 358 1814 
C 358 1468 550 1207 563 1195 
C 448 1035 384 863 384 672 
C 384 448 474 289 544 200 
C 211 -3 166 -314 166 -435 
C 166 -898 749 -1280 1498 -1280 
C 2253 -1280 2835 -898 2835 -428 
C 2835 448 1856 448 1587 448 
L 1069 448 
C 973 448 717 448 717 791 
C 717 921 774 1004 781 1010 
C 877 940 1075 832 1338 832 
C 1869 832 2310 1278 2310 1827 
C 2310 2132 2170 2355 2112 2432 
L 2131 2432 
C 2150 2432 2419 2432 2515 2432 
C 2720 2432 2739 2429 2918 2419 
L 2848 2808 
z
M 1338 1182 
C 1120 1182 813 1315 813 1823 
C 813 2375 1165 2464 1331 2464 
C 1549 2464 1856 2331 1856 1823 
C 1856 1271 1504 1182 1338 1182 
z
M 1581 -10 
C 1734 -10 2381 -10 2381 -442 
C 2381 -714 1984 -929 1504 -929 
C 1018 -929 621 -720 621 -435 
C 621 -403 621 -10 1062 -10 
L 1581 -10 
z
" transform="scale(0.015625)"/>
       <path id="NimbusRomNo9L-ReguItal-50" d="M 934 4057 
C 1299 4012 1389 3954 1389 3788 
C 1389 3697 1363 3562 1280 3274 
L 525 546 
C 410 160 365 121 0 70 
L 0 -32 
L 1568 -32 
L 1568 70 
C 1165 128 1133 147 1133 365 
C 1133 442 1146 505 1210 736 
L 1549 1971 
C 1709 1933 1875 1920 2138 1920 
C 2662 1920 3091 2029 3366 2228 
C 3686 2467 3872 2821 3872 3201 
C 3872 3818 3392 4159 2522 4159 
L 934 4159 
L 934 4057 
z
M 2061 3787 
C 2099 3923 2176 3968 2355 3968 
C 2605 3968 2848 3903 2976 3813 
C 3142 3696 3213 3504 3213 3201 
C 3213 2782 3066 2485 2784 2318 
C 2586 2207 2336 2156 1939 2156 
C 1830 2156 1779 2163 1606 2188 
L 2061 3787 
z
" transform="scale(0.015625)"/>
       <path id="NimbusRomNo9L-Regu-25" d="M 4282 2368 
C 3558 2368 2874 1622 2874 824 
C 2874 325 3181 0 3642 0 
C 3930 0 4166 102 4390 325 
C 4730 670 4941 1187 4941 1686 
C 4941 2120 4698 2368 4282 2368 
z
M 4326 2164 
C 4570 2164 4774 1934 4774 1654 
C 4774 1290 4614 856 4371 556 
C 4166 301 3981 192 3750 192 
C 3520 192 3360 357 3360 601 
C 3360 939 3539 1462 3776 1793 
C 3949 2048 4128 2164 4326 2164 
z
M 4058 4320 
L 3808 4320 
C 3462 4008 3206 3904 2810 3904 
C 2554 3904 2406 3946 2253 4064 
C 2086 4194 2003 4224 1805 4224 
C 1075 4224 390 3468 390 2662 
C 390 2217 730 1856 1146 1856 
C 1421 1856 1709 1984 1920 2209 
C 2253 2549 2458 3056 2458 3526 
C 2458 3615 2445 3693 2413 3808 
C 2528 3763 2643 3744 2829 3744 
C 3110 3744 3277 3788 3533 3931 
L 1286 -96 
L 1594 -96 
L 4058 4320 
z
M 2240 3829 
C 2278 3702 2298 3607 2298 3518 
C 2298 2802 1773 2073 1254 2073 
C 1030 2073 877 2231 877 2460 
C 877 2726 1005 3157 1178 3474 
C 1363 3816 1606 4032 1805 4032 
C 1837 4032 1850 4025 1888 3993 
C 1978 3911 2054 3879 2240 3829 
z
" transform="scale(0.015625)"/>
      </defs>
      <use xlink:href="#CMSS17-43" transform="scale(0.996264)"/>
      <use xlink:href="#CMSS17-75" transform="translate(59.855772 0) scale(0.996264)"/>
      <use xlink:href="#CMSS17-6d" transform="translate(108.060715 0) scale(0.996264)"/>
      <use xlink:href="#CMSS17-75" transform="translate(182.289969 0) scale(0.996264)"/>
      <use xlink:href="#CMSS17-6c" transform="translate(230.494912 0) scale(0.996264)"/>
      <use xlink:href="#CMSS17-61" transform="translate(252.675635 0) scale(0.996264)"/>
      <use xlink:href="#CMSS17-74" transform="translate(297.597556 0) scale(0.996264)"/>
      <use xlink:href="#CMSS17-69" transform="translate(331.429123 0) scale(0.996264)"/>
      <use xlink:href="#CMSS17-76" transform="translate(353.609846 0) scale(0.996264)"/>
      <use xlink:href="#CMSS17-65" transform="translate(396.609987 0) scale(0.996264)"/>
      <use xlink:href="#CMSS17-70" transform="translate(469.477922 0) scale(0.996264)"/>
      <use xlink:href="#CMSS17-65" transform="translate(520.285304 0) scale(0.996264)"/>
      <use xlink:href="#CMSS17-72" transform="translate(561.924126 0) scale(0.996264)"/>
      <use xlink:href="#CMSS17-63" transform="translate(593.833899 0) scale(0.996264)"/>
      <use xlink:href="#CMSS17-65" transform="translate(635.472721 0) scale(0.996264)"/>
      <use xlink:href="#CMSS17-6e" transform="translate(677.111543 0) scale(0.996264)"/>
      <use xlink:href="#CMSS17-74" transform="translate(725.316486 0) scale(0.996264)"/>
      <use xlink:href="#CMSS17-61" transform="translate(759.148053 0) scale(0.996264)"/>
      <use xlink:href="#CMSS17-67" transform="translate(804.069973 0) scale(0.996264)"/>
      <use xlink:href="#CMSS17-65" transform="translate(850.913597 0) scale(0.996264)"/>
      <use xlink:href="#NimbusRomNo9L-ReguItal-50" transform="translate(923.781532 0) scale(0.996264)"/>
      <use xlink:href="#CMR10-28" transform="translate(984.653162 0) scale(0.996264)"/>
      <use xlink:href="#NimbusRomNo9L-Regu-25" transform="translate(1023.307008 0) scale(0.996264)"/>
      <use xlink:href="#CMR10-29" transform="translate(1106.295438 0) scale(0.996264)"/>
     </g>
    </g>
   </g>
   <g id="PolyCollection_1">
    <path d="M 166.113745 661.001246 
L 166.113745 255.255576 
L 167.954566 252.193301 
L 169.795386 249.153795 
L 171.636206 246.136557 
L 173.477027 243.141105 
L 175.317847 240.166974 
L 177.158668 237.213715 
L 178.999488 234.280895 
L 180.840309 231.368094 
L 182.681129 228.474909 
L 184.52195 225.600948 
L 186.36277 222.745833 
L 188.203591 219.909199 
L 190.044411 217.090691 
L 191.885231 214.289966 
L 193.726052 211.506691 
L 195.566872 208.740544 
L 197.407693 205.991214 
L 199.248513 203.258396 
L 201.089334 200.541798 
L 202.930154 197.841133 
L 204.770975 195.156124 
L 206.611795 192.486502 
L 208.452616 189.832007 
L 210.293436 187.192383 
L 212.134256 184.567383 
L 213.975077 181.956767 
L 215.815897 179.3603 
L 217.656718 176.777757 
L 219.497538 174.208914 
L 221.338359 171.653556 
L 223.179179 169.111473 
L 225.02 166.58246 
L 226.86082 164.066318 
L 228.701641 161.562851 
L 230.542461 159.071871 
L 232.383281 156.593193 
L 234.224102 154.126635 
L 236.064922 151.672022 
L 237.905743 149.229182 
L 239.746563 146.797947 
L 241.587384 144.378153 
L 243.428204 141.969641 
L 245.269025 139.572254 
L 247.109845 137.185839 
L 248.950666 134.810246 
L 250.791486 132.445331 
L 252.632306 130.09095 
L 254.473127 127.746964 
L 256.313947 125.413236 
L 258.154768 123.089633 
L 259.995588 120.776024 
L 261.836409 118.472281 
L 263.677229 116.178279 
L 265.51805 113.893896 
L 267.35887 111.619012 
L 269.199691 109.353508 
L 271.040511 107.097271 
L 272.881331 104.850187 
L 274.722152 102.612145 
L 276.562972 100.383038 
L 278.403793 98.16276 
L 280.244613 95.951205 
L 282.085434 93.748272 
L 283.926254 91.553862 
L 285.767075 89.367876 
L 287.607895 87.190217 
L 289.448716 85.020791 
L 291.289536 82.859506 
L 293.130356 80.70627 
L 294.971177 78.560995 
L 296.811997 76.423593 
L 298.652818 74.293977 
L 300.493638 72.172063 
L 302.334459 70.057768 
L 304.175279 67.951011 
L 306.0161 65.851712 
L 307.85692 63.759791 
L 309.697741 61.675172 
L 311.538561 59.597779 
L 313.379381 57.527538 
L 315.220202 55.464374 
L 317.061022 53.408215 
L 318.901843 51.358992 
L 320.742663 49.316633 
L 322.583484 47.281072 
L 324.424304 45.252239 
L 326.265125 43.23007 
L 328.105945 41.214498 
L 329.946766 39.205459 
L 331.787586 37.202891 
L 333.628406 35.206731 
L 335.469227 33.216918 
L 337.310047 31.233393 
L 339.150868 29.256095 
L 340.991688 27.284966 
L 342.832509 25.31995 
L 344.673329 23.360989 
L 346.51415 21.408028 
L 348.35497 19.461012 
L 348.35497 661.001246 
L 348.35497 661.001246 
L 346.51415 661.001246 
L 344.673329 661.001246 
L 342.832509 661.001246 
L 340.991688 661.001246 
L 339.150868 661.001246 
L 337.310047 661.001246 
L 335.469227 661.001246 
L 333.628406 661.001246 
L 331.787586 661.001246 
L 329.946766 661.001246 
L 328.105945 661.001246 
L 326.265125 661.001246 
L 324.424304 661.001246 
L 322.583484 661.001246 
L 320.742663 661.001246 
L 318.901843 661.001246 
L 317.061022 661.001246 
L 315.220202 661.001246 
L 313.379381 661.001246 
L 311.538561 661.001246 
L 309.697741 661.001246 
L 307.85692 661.001246 
L 306.0161 661.001246 
L 304.175279 661.001246 
L 302.334459 661.001246 
L 300.493638 661.001246 
L 298.652818 661.001246 
L 296.811997 661.001246 
L 294.971177 661.001246 
L 293.130356 661.001246 
L 291.289536 661.001246 
L 289.448716 661.001246 
L 287.607895 661.001246 
L 285.767075 661.001246 
L 283.926254 661.001246 
L 282.085434 661.001246 
L 280.244613 661.001246 
L 278.403793 661.001246 
L 276.562972 661.001246 
L 274.722152 661.001246 
L 272.881331 661.001246 
L 271.040511 661.001246 
L 269.199691 661.001246 
L 267.35887 661.001246 
L 265.51805 661.001246 
L 263.677229 661.001246 
L 261.836409 661.001246 
L 259.995588 661.001246 
L 258.154768 661.001246 
L 256.313947 661.001246 
L 254.473127 661.001246 
L 252.632306 661.001246 
L 250.791486 661.001246 
L 248.950666 661.001246 
L 247.109845 661.001246 
L 245.269025 661.001246 
L 243.428204 661.001246 
L 241.587384 661.001246 
L 239.746563 661.001246 
L 237.905743 661.001246 
L 236.064922 661.001246 
L 234.224102 661.001246 
L 232.383281 661.001246 
L 230.542461 661.001246 
L 228.701641 661.001246 
L 226.86082 661.001246 
L 225.02 661.001246 
L 223.179179 661.001246 
L 221.338359 661.001246 
L 219.497538 661.001246 
L 217.656718 661.001246 
L 215.815897 661.001246 
L 213.975077 661.001246 
L 212.134256 661.001246 
L 210.293436 661.001246 
L 208.452616 661.001246 
L 206.611795 661.001246 
L 204.770975 661.001246 
L 202.930154 661.001246 
L 201.089334 661.001246 
L 199.248513 661.001246 
L 197.407693 661.001246 
L 195.566872 661.001246 
L 193.726052 661.001246 
L 191.885231 661.001246 
L 190.044411 661.001246 
L 188.203591 661.001246 
L 186.36277 661.001246 
L 184.52195 661.001246 
L 182.681129 661.001246 
L 180.840309 661.001246 
L 178.999488 661.001246 
L 177.158668 661.001246 
L 175.317847 661.001246 
L 173.477027 661.001246 
L 171.636206 661.001246 
L 169.795386 661.001246 
L 167.954566 661.001246 
L 166.113745 661.001246 
z
" clip-path="url(#pd3e209322a)" style="fill: #55a868; fill-opacity: 0.2; stroke: #55a868; stroke-opacity: 0.2; stroke-width: 0.3"/>
   </g>
   <g id="line2d_23">
    <path d="M 166.113745 173.650208 
L 167.954566 171.446623 
L 169.795386 169.265943 
L 171.636206 167.107596 
L 173.477027 164.971037 
L 175.317847 162.855737 
L 177.158668 160.761191 
L 178.999488 158.68691 
L 180.840309 156.632426 
L 182.681129 154.597285 
L 184.52195 152.581051 
L 186.36277 150.583304 
L 188.203591 148.603636 
L 190.044411 146.641655 
L 191.885231 144.696983 
L 193.726052 142.769253 
L 195.566872 140.858111 
L 197.407693 138.963215 
L 199.248513 137.084234 
L 201.089334 135.220846 
L 202.930154 133.372741 
L 204.770975 131.539618 
L 206.611795 129.721186 
L 208.452616 127.917161 
L 210.293436 126.12727 
L 212.134256 124.351247 
L 213.975077 122.588834 
L 215.815897 120.83978 
L 217.656718 119.103841 
L 219.497538 117.380783 
L 221.338359 115.670374 
L 223.179179 113.972391 
L 225.02 112.286619 
L 226.86082 110.612845 
L 228.701641 108.950864 
L 230.542461 107.300477 
L 232.383281 105.661488 
L 234.224102 104.03371 
L 236.064922 102.416957 
L 237.905743 100.811049 
L 239.746563 99.215812 
L 241.587384 97.631075 
L 243.428204 96.056672 
L 245.269025 94.492441 
L 247.109845 92.938223 
L 248.950666 91.393865 
L 250.791486 89.859215 
L 252.632306 88.334127 
L 254.473127 86.818457 
L 256.313947 85.312066 
L 258.154768 83.814817 
L 259.995588 82.326575 
L 261.836409 80.847211 
L 263.677229 79.376597 
L 265.51805 77.914609 
L 267.35887 76.461124 
L 269.199691 75.016023 
L 271.040511 73.579191 
L 272.881331 72.150512 
L 274.722152 70.729876 
L 276.562972 69.317174 
L 278.403793 67.912298 
L 280.244613 66.515144 
L 282.085434 65.125611 
L 283.926254 63.743597 
L 285.767075 62.369005 
L 287.607895 61.001738 
L 289.448716 59.641703 
L 291.289536 58.288807 
L 293.130356 56.942961 
L 294.971177 55.604075 
L 296.811997 54.272062 
L 298.652818 52.946839 
L 300.493638 51.62832 
L 302.334459 50.316425 
L 304.175279 49.011073 
L 306.0161 47.712185 
L 307.85692 46.419685 
L 309.697741 45.133496 
L 311.538561 43.853545 
L 313.379381 42.579758 
L 315.220202 41.312063 
L 317.061022 40.050391 
L 318.901843 38.794672 
L 320.742663 37.544839 
L 322.583484 36.300824 
L 324.424304 35.062564 
L 326.265125 33.829993 
L 328.105945 32.603048 
L 329.946766 31.381667 
L 331.787586 30.165791 
L 333.628406 28.955357 
L 335.469227 27.750309 
L 337.310047 26.550588 
L 339.150868 25.356137 
L 340.991688 24.1669 
L 342.832509 22.982823 
L 344.673329 21.803851 
L 346.51415 20.629932 
L 348.35497 19.461012 
" clip-path="url(#pd3e209322a)" style="fill: none; stroke: #4c72b0; stroke-width: 2; stroke-linecap: round"/>
   </g>
   <g id="line2d_24">
    <path d="M 166.113745 255.255576 
L 167.954566 252.193301 
L 169.795386 249.153795 
L 171.636206 246.136557 
L 173.477027 243.141105 
L 175.317847 240.166974 
L 177.158668 237.213715 
L 178.999488 234.280895 
L 180.840309 231.368094 
L 182.681129 228.474909 
L 184.52195 225.600948 
L 186.36277 222.745833 
L 188.203591 219.909199 
L 190.044411 217.090691 
L 191.885231 214.289966 
L 193.726052 211.506691 
L 195.566872 208.740544 
L 197.407693 205.991214 
L 199.248513 203.258396 
L 201.089334 200.541798 
L 202.930154 197.841133 
L 204.770975 195.156124 
L 206.611795 192.486502 
L 208.452616 189.832007 
L 210.293436 187.192383 
L 212.134256 184.567383 
L 213.975077 181.956767 
L 215.815897 179.3603 
L 217.656718 176.777757 
L 219.497538 174.208914 
L 221.338359 171.653556 
L 223.179179 169.111473 
L 225.02 166.58246 
L 226.86082 164.066318 
L 228.701641 161.562851 
L 230.542461 159.071871 
L 232.383281 156.593193 
L 234.224102 154.126635 
L 236.064922 151.672022 
L 237.905743 149.229182 
L 239.746563 146.797947 
L 241.587384 144.378153 
L 243.428204 141.969641 
L 245.269025 139.572254 
L 247.109845 137.185839 
L 248.950666 134.810246 
L 250.791486 132.445331 
L 252.632306 130.09095 
L 254.473127 127.746964 
L 256.313947 125.413236 
L 258.154768 123.089633 
L 259.995588 120.776024 
L 261.836409 118.472281 
L 263.677229 116.178279 
L 265.51805 113.893896 
L 267.35887 111.619012 
L 269.199691 109.353508 
L 271.040511 107.097271 
L 272.881331 104.850187 
L 274.722152 102.612145 
L 276.562972 100.383038 
L 278.403793 98.16276 
L 280.244613 95.951205 
L 282.085434 93.748272 
L 283.926254 91.553862 
L 285.767075 89.367876 
L 287.607895 87.190217 
L 289.448716 85.020791 
L 291.289536 82.859506 
L 293.130356 80.70627 
L 294.971177 78.560995 
L 296.811997 76.423593 
L 298.652818 74.293977 
L 300.493638 72.172063 
L 302.334459 70.057768 
L 304.175279 67.951011 
L 306.0161 65.851712 
L 307.85692 63.759791 
L 309.697741 61.675172 
L 311.538561 59.597779 
L 313.379381 57.527538 
L 315.220202 55.464374 
L 317.061022 53.408215 
L 318.901843 51.358992 
L 320.742663 49.316633 
L 322.583484 47.281072 
L 324.424304 45.252239 
L 326.265125 43.23007 
L 328.105945 41.214498 
L 329.946766 39.205459 
L 331.787586 37.202891 
L 333.628406 35.206731 
L 335.469227 33.216918 
L 337.310047 31.233393 
L 339.150868 29.256095 
L 340.991688 27.284966 
L 342.832509 25.31995 
L 344.673329 23.360989 
L 346.51415 21.408028 
L 348.35497 19.461012 
" clip-path="url(#pd3e209322a)" style="fill: none; stroke: #55a868; stroke-width: 3; stroke-linecap: round"/>
   </g>
   <g id="line2d_25">
    <path d="M 166.113745 323.196387 
L 167.954566 319.621698 
L 169.795386 316.06298 
L 171.636206 312.519928 
L 173.477027 308.992248 
L 175.317847 305.479655 
L 177.158668 301.981873 
L 178.999488 298.498635 
L 180.840309 295.029683 
L 182.681129 291.574766 
L 184.52195 288.133642 
L 186.36277 284.706075 
L 188.203591 281.291837 
L 190.044411 277.890705 
L 191.885231 274.502465 
L 193.726052 271.126908 
L 195.566872 267.76383 
L 197.407693 264.413034 
L 199.248513 261.074327 
L 201.089334 257.747523 
L 202.930154 254.432441 
L 204.770975 251.128903 
L 206.611795 247.836738 
L 208.452616 244.555776 
L 210.293436 241.285856 
L 212.134256 238.026818 
L 213.975077 234.778506 
L 215.815897 231.54077 
L 217.656718 228.313461 
L 219.497538 225.096436 
L 221.338359 221.889555 
L 223.179179 218.692679 
L 225.02 215.505676 
L 226.86082 212.328414 
L 228.701641 209.160765 
L 230.542461 206.002606 
L 232.383281 202.853813 
L 234.224102 199.714268 
L 236.064922 196.583855 
L 237.905743 193.462458 
L 239.746563 190.349967 
L 241.587384 187.246273 
L 243.428204 184.151269 
L 245.269025 181.06485 
L 247.109845 177.986915 
L 248.950666 174.917362 
L 250.791486 171.856095 
L 252.632306 168.803016 
L 254.473127 165.758032 
L 256.313947 162.721051 
L 258.154768 159.691983 
L 259.995588 156.670738 
L 261.836409 153.65723 
L 263.677229 150.651374 
L 265.51805 147.653086 
L 267.35887 144.662285 
L 269.199691 141.67889 
L 271.040511 138.702822 
L 272.881331 135.734004 
L 274.722152 132.772361 
L 276.562972 129.817816 
L 278.403793 126.870298 
L 280.244613 123.929735 
L 282.085434 120.996055 
L 283.926254 118.069191 
L 285.767075 115.149072 
L 287.607895 112.235634 
L 289.448716 109.328809 
L 291.289536 106.428534 
L 293.130356 103.534745 
L 294.971177 100.647379 
L 296.811997 97.766376 
L 298.652818 94.891675 
L 300.493638 92.023216 
L 302.334459 89.160941 
L 304.175279 86.304794 
L 306.0161 83.454717 
L 307.85692 80.610655 
L 309.697741 77.772553 
L 311.538561 74.940358 
L 313.379381 72.114017 
L 315.220202 69.293477 
L 317.061022 66.478688 
L 318.901843 63.669598 
L 320.742663 60.866159 
L 322.583484 58.068321 
L 324.424304 55.276037 
L 326.265125 52.489258 
L 328.105945 49.707938 
L 329.946766 46.93203 
L 331.787586 44.161491 
L 333.628406 41.396274 
L 335.469227 38.636336 
L 337.310047 35.881634 
L 339.150868 33.132125 
L 340.991688 30.387765 
L 342.832509 27.648515 
L 344.673329 24.914333 
L 346.51415 22.185179 
L 348.35497 19.461012 
" clip-path="url(#pd3e209322a)" style="fill: none; stroke: #c44e52; stroke-width: 2; stroke-linecap: round"/>
   </g>
   <g id="LineCollection_1">
    <path d="M 166.113745 361 
L 166.113745 255.255576 
" clip-path="url(#pd3e209322a)" style="fill: none; stroke-dasharray: 1.75,2.8875; stroke-dashoffset: 0; stroke: #55a868; stroke-width: 1.75"/>
    <path d="M 226.86082 361 
L 226.86082 164.066318 
" clip-path="url(#pd3e209322a)" style="fill: none; stroke-dasharray: 1.75,2.8875; stroke-dashoffset: 0; stroke: #55a868; stroke-width: 1.75"/>
    <path d="M 348.35497 361 
L 348.35497 19.461012 
" clip-path="url(#pd3e209322a)" style="fill: none; stroke-dasharray: 1.75,2.8875; stroke-dashoffset: 0; stroke: #55a868; stroke-width: 1.75"/>
   </g>
   <g id="line2d_26">
    <defs>
     <path id="m14a2d26b97" d="M 0 3.5 
C 0.928211 3.5 1.81853 3.131218 2.474874 2.474874 
C 3.131218 1.81853 3.5 0.928211 3.5 0 
C 3.5 -0.928211 3.131218 -1.81853 2.474874 -2.474874 
C 1.81853 -3.131218 0.928211 -3.5 0 -3.5 
C -0.928211 -3.5 -1.81853 -3.131218 -2.474874 -2.474874 
C -3.131218 -1.81853 -3.5 -0.928211 -3.5 0 
C -3.5 0.928211 -3.131218 1.81853 -2.474874 2.474874 
C -1.81853 3.131218 -0.928211 3.5 0 3.5 
z
"/>
    </defs>
    <g clip-path="url(#pd3e209322a)">
     <use xlink:href="#m14a2d26b97" x="166.113745" y="255.255576" style="fill: #55a868"/>
     <use xlink:href="#m14a2d26b97" x="226.86082" y="164.066318" style="fill: #55a868"/>
     <use xlink:href="#m14a2d26b97" x="348.35497" y="19.461012" style="fill: #55a868"/>
    </g>
   </g>
   <g id="line2d_27">
    <path clip-path="url(#pd3e209322a)" style="fill: none; stroke: #8172b2; stroke-width: 1.75; stroke-linecap: round"/>
   </g>
   <g id="patch_3">
    <path d="M 44.619595 323.196387 
L 44.619595 19.461012 
" style="fill: none"/>
   </g>
   <g id="patch_4">
    <path d="M 348.35497 323.196387 
L 348.35497 19.461012 
" style="fill: none"/>
   </g>
   <g id="patch_5">
    <path d="M 44.619595 323.196387 
L 348.35497 323.196387 
" style="fill: none"/>
   </g>
   <g id="patch_6">
    <path d="M 44.619595 19.461012 
L 348.35497 19.461012 
" style="fill: none"/>
   </g>
   <g id="text_14">
    <!-- Fuller's grading curve: $P(d) = 100(d/d_{max})^{n}$ -->
    <g style="fill: #262626" transform="translate(70.503826 13.461012) scale(0.14 -0.14)">
     <defs>
      <path id="CMSS17-46" d="M 2918 1984 
L 2918 2373 
L 1101 2373 
L 1101 3968 
L 1882 3968 
C 1958 3968 2035 3968 2112 3968 
L 3168 3968 
L 3168 4375 
L 563 4375 
L 563 -32 
L 1101 -32 
L 1101 1984 
L 2918 1984 
z
" transform="scale(0.015625)"/>
      <path id="CMSS17-27" d="M 1088 3910 
L 1088 4413 
L 576 4413 
L 576 3904 
L 736 3904 
L 570 3104 
L 826 3104 
L 1088 3910 
z
" transform="scale(0.015625)"/>
      <path id="CMSS17-64" d="M 2611 4416 
L 2138 4416 
L 2138 2438 
C 1939 2603 1613 2756 1254 2756 
C 672 2756 211 2131 211 1347 
C 211 562 666 -64 1235 -64 
C 1677 -64 1971 172 2125 306 
L 2125 -13 
L 2611 -13 
L 2611 4416 
z
M 2125 836 
C 2125 747 2125 653 1926 482 
C 1798 375 1645 325 1498 325 
C 1152 325 698 576 698 1340 
C 698 2134 1210 2368 1562 2368 
C 1798 2368 1990 2254 2125 2065 
L 2125 836 
z
" transform="scale(0.015625)"/>
      <path id="CMSS17-3a" d="M 1088 2749 
L 576 2749 
L 576 2240 
L 1088 2240 
L 1088 2749 
z
M 576 510 
L 576 0 
L 1088 0 
L 1088 510 
L 576 510 
z
" transform="scale(0.015625)"/>
      <path id="CMR10-3d" d="M 4397 2048 
C 4493 2048 4614 2048 4614 2177 
C 4614 2305 4493 2305 4403 2305 
L 570 2305 
C 480 2305 358 2305 358 2177 
C 358 2048 480 2048 576 2048 
L 4397 2048 
z
M 4403 832 
C 4493 832 4614 832 4614 961 
C 4614 1089 4493 1089 4397 1089 
L 576 1089 
C 480 1089 358 1089 358 961 
C 358 832 480 832 570 832 
L 4403 832 
z
" transform="scale(0.015625)"/>
      <path id="CMMI10-3d" d="M 2810 4526 
C 2842 4609 2842 4634 2842 4641 
C 2842 4711 2784 4768 2714 4768 
C 2669 4768 2624 4749 2605 4711 
L 384 -1358 
C 352 -1440 352 -1466 352 -1472 
C 352 -1542 410 -1600 480 -1600 
C 563 -1600 582 -1555 621 -1447 
L 2810 4526 
z
" transform="scale(0.015625)"/>
      <path id="NimbusRomNo9L-ReguItal-61" d="M 2970 708 
C 2874 612 2835 580 2790 529 
C 2598 332 2515 268 2458 268 
C 2406 268 2368 306 2368 351 
C 2368 479 2637 1568 2938 2663 
C 2957 2727 2963 2740 2976 2797 
L 2931 2816 
L 2541 2772 
L 2522 2753 
L 2451 2447 
C 2400 2682 2214 2816 1939 2816 
C 1094 2816 109 1650 109 644 
C 109 197 352 -64 762 -64 
C 1210 -64 1485 147 2048 937 
C 1920 437 1901 353 1901 199 
C 1901 13 1978 -64 2157 -64 
C 2413 -64 2573 58 3046 644 
L 2970 708 
z
M 1978 2670 
C 2195 2670 2336 2517 2336 2293 
C 2336 1757 2016 1002 1574 530 
C 1421 357 1203 249 1018 249 
C 794 249 646 433 646 726 
C 646 1069 890 1723 1165 2117 
C 1421 2486 1722 2689 1978 2670 
z
" transform="scale(0.015625)"/>
      <path id="NimbusRomNo9L-ReguItal-78" d="M 2573 714 
C 2522 656 2490 618 2432 541 
C 2285 351 2208 287 2138 287 
C 2042 287 1984 370 1939 548 
C 1926 599 1920 637 1914 656 
C 1754 1299 1683 1592 1683 1688 
C 1965 2179 2195 2459 2310 2459 
C 2349 2459 2400 2440 2464 2408 
C 2541 2363 2586 2350 2637 2350 
C 2771 2350 2861 2446 2861 2580 
C 2861 2714 2752 2816 2598 2816 
C 2317 2816 2074 2586 1632 1905 
L 1562 2255 
C 1472 2689 1402 2816 1229 2816 
C 1088 2816 870 2759 480 2631 
L 410 2606 
L 435 2510 
C 678 2567 736 2580 794 2580 
C 954 2580 992 2523 1082 2140 
L 1267 1357 
L 742 612 
C 614 421 486 306 416 306 
C 378 306 314 325 250 364 
C 166 408 96 428 45 428 
C -77 428 -173 332 -173 204 
C -173 38 -45 -64 147 -64 
C 346 -64 422 -7 742 382 
C 915 586 1050 759 1318 1128 
L 1510 363 
C 1594 38 1677 -64 1882 -64 
C 2125 -64 2291 89 2662 663 
L 2573 714 
z
" transform="scale(0.015625)"/>
      <path id="NimbusRomNo9L-ReguItal-6e" d="M 2944 739 
L 2810 572 
C 2624 335 2509 232 2419 232 
C 2368 232 2317 283 2317 334 
C 2317 380 2317 380 2406 738 
L 2771 2060 
C 2803 2194 2829 2335 2829 2425 
C 2829 2656 2656 2816 2406 2816 
C 1997 2816 1594 2432 934 1406 
L 1363 2803 
L 1344 2815 
C 998 2745 864 2720 307 2618 
L 307 2510 
C 634 2510 717 2472 717 2343 
C 717 2304 710 2266 704 2234 
L 90 -12 
L 570 -12 
C 870 1002 928 1144 1210 1580 
C 1594 2169 1920 2491 2157 2491 
C 2253 2491 2310 2420 2310 2304 
C 2310 2228 2272 2016 2221 1817 
L 1939 758 
C 1856 431 1837 341 1837 277 
C 1837 33 1926 -69 2138 -69 
C 2426 -69 2592 66 3034 656 
L 2944 739 
z
" transform="scale(0.015625)"/>
     </defs>
     <use xlink:href="#CMSS17-46" transform="scale(0.996264)"/>
     <use xlink:href="#CMSS17-75" transform="translate(50.687105 0) scale(0.996264)"/>
     <use xlink:href="#CMSS17-6c" transform="translate(98.892048 0) scale(0.996264)"/>
     <use xlink:href="#CMSS17-6c" transform="translate(121.072772 0) scale(0.996264)"/>
     <use xlink:href="#CMSS17-65" transform="translate(143.253495 0) scale(0.996264)"/>
     <use xlink:href="#CMSS17-72" transform="translate(184.892317 0) scale(0.996264)"/>
     <use xlink:href="#CMSS17-27" transform="translate(216.802089 0) scale(0.996264)"/>
     <use xlink:href="#CMSS17-73" transform="translate(242.826294 0) scale(0.996264)"/>
     <use xlink:href="#CMSS17-67" transform="translate(309.968949 0) scale(0.996264)"/>
     <use xlink:href="#CMSS17-72" transform="translate(356.812572 0) scale(0.996264)"/>
     <use xlink:href="#CMSS17-61" transform="translate(388.722345 0) scale(0.996264)"/>
     <use xlink:href="#CMSS17-64" transform="translate(433.644266 0) scale(0.996264)"/>
     <use xlink:href="#CMSS17-69" transform="translate(481.849209 0) scale(0.996264)"/>
     <use xlink:href="#CMSS17-6e" transform="translate(504.029932 0) scale(0.996264)"/>
     <use xlink:href="#CMSS17-67" transform="translate(552.234875 0) scale(0.996264)"/>
     <use xlink:href="#CMSS17-63" transform="translate(630.307611 0) scale(0.996264)"/>
     <use xlink:href="#CMSS17-75" transform="translate(671.946433 0) scale(0.996264)"/>
     <use xlink:href="#CMSS17-72" transform="translate(720.151376 0) scale(0.996264)"/>
     <use xlink:href="#CMSS17-76" transform="translate(752.061149 0) scale(0.996264)"/>
     <use xlink:href="#CMSS17-65" transform="translate(795.061291 0) scale(0.996264)"/>
     <use xlink:href="#CMSS17-3a" transform="translate(836.700113 0) scale(0.996264)"/>
     <use xlink:href="#NimbusRomNo9L-ReguItal-50" transform="translate(904.363124 0) scale(0.996264)"/>
     <use xlink:href="#CMR10-28" transform="translate(965.234755 0) scale(0.996264)"/>
     <use xlink:href="#NimbusRomNo9L-ReguItal-64" transform="translate(1003.888601 0) scale(0.996264)"/>
     <use xlink:href="#CMR10-29" transform="translate(1058.881429 0) scale(0.996264)"/>
     <use xlink:href="#CMR10-3d" transform="translate(1119.67442 0) scale(0.996264)"/>
     <use xlink:href="#NimbusRomNo9L-Regu-31" transform="translate(1219.222274 0) scale(0.996264)"/>
     <use xlink:href="#NimbusRomNo9L-Regu-30" transform="translate(1269.035474 0) scale(0.996264)"/>
     <use xlink:href="#NimbusRomNo9L-Regu-30" transform="translate(1318.848675 0) scale(0.996264)"/>
     <use xlink:href="#CMR10-28" transform="translate(1368.661875 0) scale(0.996264)"/>
     <use xlink:href="#NimbusRomNo9L-ReguItal-64" transform="translate(1407.315721 0) scale(0.996264)"/>
     <use xlink:href="#CMMI10-3d" transform="translate(1462.308549 0) scale(0.996264)"/>
     <use xlink:href="#NimbusRomNo9L-ReguItal-64" transform="translate(1512.121749 0) scale(0.996264)"/>
     <use xlink:href="#NimbusRomNo9L-ReguItal-6d" transform="translate(1561.93495 -14.943915) scale(0.737241)"/>
     <use xlink:href="#NimbusRomNo9L-ReguItal-61" transform="translate(1615.163535 -14.943915) scale(0.737241)"/>
     <use xlink:href="#NimbusRomNo9L-ReguItal-78" transform="translate(1652.025577 -14.943915) scale(0.737241)"/>
     <use xlink:href="#CMR10-29" transform="translate(1685.477205 0) scale(0.996264)"/>
     <use xlink:href="#NimbusRomNo9L-ReguItal-6e" transform="translate(1724.131051 36.163231) scale(0.737241)"/>
    </g>
   </g>
   <g id="legend_1">
    <g id="line2d_28">
     <path d="M 55.419595 34.461012 
L 67.419595 34.461012 
L 79.419595 34.461012 
" style="fill: none; stroke: #4c72b0; stroke-width: 2; stroke-linecap: round"/>
    </g>
    <g id="text_15">
     <!-- n = 0.3 -->
     <g style="fill: #262626" transform="translate(89.019595 38.661012) scale(0.12 -0.12)">
      <defs>
       <path id="CMSS17-3d" d="M 4147 2017 
C 4243 2017 4339 2017 4339 2125 
C 4339 2240 4230 2240 4122 2240 
L 550 2240 
C 442 2240 333 2240 333 2125 
C 333 2017 429 2017 525 2017 
L 4147 2017 
z
M 4122 896 
C 4230 896 4339 896 4339 1011 
C 4339 1119 4243 1119 4147 1119 
L 525 1119 
C 429 1119 333 1119 333 1011 
C 333 896 442 896 550 896 
L 4122 896 
z
" transform="scale(0.015625)"/>
       <path id="CMSS17-30" d="M 2758 2044 
C 2758 2405 2752 3077 2490 3596 
C 2227 4096 1805 4229 1504 4229 
C 1069 4229 698 3975 506 3570 
C 301 3146 243 2709 243 2044 
C 243 1589 262 1031 493 543 
C 755 5 1197 -128 1498 -128 
C 1894 -128 2278 81 2496 518 
C 2720 974 2758 1474 2758 2044 
z
M 1498 261 
C 1011 261 864 811 819 995 
C 742 1310 730 1614 730 2114 
C 730 2506 730 2948 851 3297 
C 998 3701 1254 3840 1498 3840 
C 1971 3840 2125 3372 2176 3208 
C 2272 2873 2272 2481 2272 2114 
C 2272 1526 2272 261 1498 261 
z
" transform="scale(0.015625)"/>
       <path id="CMSS17-2e" d="M 1088 510 
L 576 510 
L 576 0 
L 1088 0 
L 1088 510 
z
" transform="scale(0.015625)"/>
       <path id="CMSS17-33" d="M 1005 2025 
L 1440 2025 
C 2042 2025 2214 1507 2214 1146 
C 2214 653 1933 267 1472 267 
C 1114 267 608 444 320 912 
C 275 691 275 678 250 526 
C 550 88 1037 -128 1485 -128 
C 2214 -128 2752 473 2752 1138 
C 2752 1638 2400 2057 1920 2215 
C 2304 2424 2586 2816 2586 3273 
C 2586 3805 2093 4229 1491 4229 
C 941 4229 512 3892 333 3530 
C 378 3468 493 3284 550 3189 
C 691 3562 1056 3840 1485 3840 
C 1843 3840 2080 3607 2080 3271 
C 2080 2923 1856 2543 1478 2455 
C 1453 2455 1056 2417 1005 2411 
L 1005 2025 
z
" transform="scale(0.015625)"/>
      </defs>
      <use xlink:href="#CMSS17-6e" transform="scale(0.996264)"/>
      <use xlink:href="#CMSS17-3d" transform="translate(79.434056 0) scale(0.996264)"/>
      <use xlink:href="#CMSS17-30" transform="translate(183.531103 0) scale(0.996264)"/>
      <use xlink:href="#CMSS17-2e" transform="translate(230.374727 0) scale(0.996264)"/>
      <use xlink:href="#CMSS17-33" transform="translate(256.398932 0) scale(0.996264)"/>
     </g>
    </g>
    <g id="line2d_29">
     <path d="M 55.419595 51.185608 
L 67.419595 51.185608 
L 79.419595 51.185608 
" style="fill: none; stroke: #55a868; stroke-width: 3; stroke-linecap: round"/>
    </g>
    <g id="text_16">
     <!-- n = 0.5 -->
     <g style="fill: #262626" transform="translate(89.019595 55.385608) scale(0.12 -0.12)">
      <defs>
       <path id="CMSS17-35" d="M 934 3752 
L 2502 3752 
L 2502 4160 
L 467 4160 
L 467 1781 
L 896 1781 
C 1011 2046 1248 2240 1555 2240 
C 1843 2240 2163 1989 2163 1266 
C 2163 493 1709 267 1376 267 
C 966 267 589 512 422 851 
L 218 499 
C 512 49 992 -128 1376 -128 
C 2118 -128 2701 497 2701 1253 
C 2701 2030 2182 2629 1562 2629 
C 1338 2629 1120 2553 934 2399 
L 934 3752 
z
" transform="scale(0.015625)"/>
      </defs>
      <use xlink:href="#CMSS17-6e" transform="scale(0.996264)"/>
      <use xlink:href="#CMSS17-3d" transform="translate(79.434056 0) scale(0.996264)"/>
      <use xlink:href="#CMSS17-30" transform="translate(183.531103 0) scale(0.996264)"/>
      <use xlink:href="#CMSS17-2e" transform="translate(230.374727 0) scale(0.996264)"/>
      <use xlink:href="#CMSS17-35" transform="translate(256.398932 0) scale(0.996264)"/>
     </g>
    </g>
    <g id="line2d_30">
     <path d="M 55.419595 67.910204 
L 67.419595 67.910204 
L 79.419595 67.910204 
" style="fill: none; stroke: #c44e52; stroke-width: 2; stroke-linecap: round"/>
    </g>
    <g id="text_17">
     <!-- n = 0.7 -->
     <g style="fill: #262626" transform="translate(89.019595 72.110204) scale(0.12 -0.12)">
      <defs>
       <path id="CMSS17-37" d="M 1389 3776 
C 1466 3776 1542 3776 1619 3776 
L 2355 3776 
C 1440 2711 915 1365 915 -32 
L 1427 -32 
C 1427 1323 1875 2696 2752 3795 
L 2752 4209 
L 250 4209 
L 250 3776 
L 1389 3776 
z
" transform="scale(0.015625)"/>
      </defs>
      <use xlink:href="#CMSS17-6e" transform="scale(0.996264)"/>
      <use xlink:href="#CMSS17-3d" transform="translate(79.434056 0) scale(0.996264)"/>
      <use xlink:href="#CMSS17-30" transform="translate(183.531103 0) scale(0.996264)"/>
      <use xlink:href="#CMSS17-2e" transform="translate(230.374727 0) scale(0.996264)"/>
      <use xlink:href="#CMSS17-37" transform="translate(256.398932 0) scale(0.996264)"/>
     </g>
    </g>
   </g>
  </g>
 </g>
 <defs>
  <clipPath id="pd3e209322a">
   <rect x="44.619595" y="19.461012" width="303.735375" height="303.735375"/>
  </clipPath>
 </defs>
</svg>
