<?xml version="1.0" encoding="utf-8" standalone="no"?>
<!DOCTYPE svg PUBLIC "-//W3C//DTD SVG 1.1//EN"
  "http://www.w3.org/Graphics/SVG/1.1/DTD/svg11.dtd">
<svg xmlns:xlink="http://www.w3.org/1999/xlink" width="864pt" height="288pt" viewBox="0 0 864 288" xmlns="http://www.w3.org/2000/svg" version="1.1">
 <metadata>
  <rdf:RDF xmlns:dc="http://purl.org/dc/elements/1.1/" xmlns:cc="http://creativecommons.org/ns#" xmlns:rdf="http://www.w3.org/1999/02/22-rdf-syntax-ns#">
   <cc:Work>
    <dc:type rdf:resource="http://purl.org/dc/dcmitype/StillImage"/>
    <dc:date>2024-11-08T14:28:53.973767</dc:date>
    <dc:format>image/svg+xml</dc:format>
    <dc:creator>
     <cc:Agent>
      <dc:title>Matplotlib v3.9.1, https://matplotlib.org/</dc:title>
     </cc:Agent>
    </dc:creator>
   </cc:Work>
  </rdf:RDF>
 </metadata>
 <defs>
  <style type="text/css">*{stroke-linejoin: round; stroke-linecap: butt}</style>
 </defs>
 <g id="figure_1">
  <g id="patch_1">
   <path d="M 0 288 
L 864 288 
L 864 0 
L 0 0 
L 0 288 
z
" style="fill: none"/>
  </g>
  <g id="axes_1">
   <g id="patch_2">
    <path d="M 37.467427 263.126725 
L 275.720878 263.126725 
L 275.720878 24.873275 
L 37.467427 24.873275 
L 37.467427 263.126725 
z
" style="fill: none"/>
   </g>
   <g id="patch_3">
    <path d="M 119.780313 227.99274 
L 118.350649 225.848245 
L 116.206154 224.418581 
L 98.335358 223.703749 
L 94.761199 222.274086 
L 89.042544 221.559254 
L 79.034899 220.844422 
L 76.890403 220.12959 
L 74.031076 216.555431 
L 73.316244 213.696104 
L 71.88658 210.836776 
L 71.171748 207.977449 
L 71.171748 205.118122 
L 70.456917 201.543963 
L 69.027253 197.969803 
L 69.027253 195.110476 
L 69.742085 191.536317 
L 68.312421 189.391821 
L 67.597589 186.532494 
L 66.167926 182.243503 
L 65.453094 179.384176 
L 64.02343 176.524848 
L 61.878935 174.380353 
L 59.734439 172.950689 
L 50.441625 170.806194 
L 49.011962 168.661698 
L 48.29713 164.372707 
L 50.441625 161.51338 
L 51.156457 155.794725 
L 51.156457 150.790902 
L 51.871289 142.21292 
L 54.015784 139.353593 
L 55.445448 136.494266 
L 57.589944 133.634938 
L 61.164103 130.060779 
L 62.593766 127.916284 
L 63.308598 125.771788 
L 66.882757 121.482797 
L 70.456917 116.478974 
L 72.601412 113.619647 
L 75.460739 109.330656 
L 76.890403 107.186161 
L 83.32389 93.604356 
L 83.32389 87.885701 
L 84.038721 85.026374 
L 85.468385 82.167046 
L 89.042544 77.163224 
L 91.18704 75.018728 
L 94.761199 72.874233 
L 104.768845 65.725914 
L 108.343004 64.296251 
L 111.917163 66.440746 
L 117.635818 65.725914 
L 119.780313 64.296251 
L 128.358295 63.581419 
L 131.217622 62.151755 
L 134.791782 61.436923 
L 138.365941 60.00726 
L 142.654932 60.00726 
L 145.514259 60.722091 
L 148.373586 62.866587 
L 150.518082 63.581419 
L 154.092241 65.725914 
L 156.951568 66.440746 
L 162.670223 72.874233 
L 166.244382 76.448392 
L 169.818541 79.307719 
L 171.248205 82.167046 
L 174.107532 84.311542 
L 176.96686 85.026374 
L 179.111355 86.456037 
L 182.685514 87.170869 
L 187.689337 88.600533 
L 193.407992 90.745028 
L 200.55631 97.178515 
L 204.130469 97.893347 
L 206.274965 99.32301 
L 209.849124 100.752674 
L 213.423283 103.612001 
L 215.567779 105.756497 
L 219.85677 109.330656 
L 227.71992 114.334479 
L 234.153406 115.764143 
L 238.442397 116.478974 
L 241.301725 118.62347 
L 244.161052 120.053134 
L 247.735211 122.912461 
L 250.594539 123.627293 
L 253.453866 125.056956 
L 256.313193 126.48662 
L 261.317016 130.775611 
L 262.74668 133.634938 
L 264.176343 135.779434 
L 264.891175 140.068425 
L 263.461512 142.21292 
L 261.317016 146.501911 
L 259.887352 150.790902 
L 257.742857 155.079893 
L 256.313193 158.654053 
L 252.739034 164.372707 
L 250.594539 167.946866 
L 247.735211 168.661698 
L 244.875884 170.091362 
L 240.586893 170.806194 
L 238.442397 173.665521 
L 237.012734 175.095185 
L 229.864415 175.810017 
L 224.145761 180.099008 
L 221.286433 180.813839 
L 216.282611 182.243503 
L 202.700806 182.958335 
L 199.841478 185.10283 
L 190.548665 187.962158 
L 182.685514 188.67699 
L 179.826187 190.821485 
L 179.111355 192.965981 
L 173.392701 197.969803 
L 169.10371 200.829131 
L 162.670223 207.977449 
L 161.955391 210.121945 
L 152.662577 218.699927 
L 149.088418 220.12959 
L 146.229091 221.559254 
L 142.654932 222.274086 
L 139.795604 223.703749 
L 133.362118 224.418581 
L 128.358295 226.563077 
L 125.498968 227.99274 
L 119.780313 227.99274 
" style="fill: #00ffff; stroke: #000000; stroke-width: 0.5; stroke-linejoin: miter"/>
   </g>
   <g id="matplotlib.axis_1">
    <g id="xtick_1">
     <g id="line2d_1">
      <defs>
       <path id="m414f62b363" d="M 0 0 
L 0 3.5 
" style="stroke: #000000; stroke-width: 0.8"/>
      </defs>
      <g>
       <use xlink:href="#m414f62b363" x="37.802381" y="263.126725" style="stroke: #000000; stroke-width: 0.8"/>
      </g>
     </g>
     <g id="text_1">
      <!-- −150 -->
      <g transform="translate(24.068787 277.725163) scale(0.1 -0.1)">
       <defs>
        <path id="DejaVuSans-2212" d="M 678 2272 
L 4684 2272 
L 4684 1741 
L 678 1741 
L 678 2272 
z
" transform="scale(0.015625)"/>
        <path id="DejaVuSans-31" d="M 794 531 
L 1825 531 
L 1825 4091 
L 703 3866 
L 703 4441 
L 1819 4666 
L 2450 4666 
L 2450 531 
L 3481 531 
L 3481 0 
L 794 0 
L 794 531 
z
" transform="scale(0.015625)"/>
        <path id="DejaVuSans-35" d="M 691 4666 
L 3169 4666 
L 3169 4134 
L 1269 4134 
L 1269 2991 
Q 1406 3038 1543 3061 
Q 1681 3084 1819 3084 
Q 2600 3084 3056 2656 
Q 3513 2228 3513 1497 
Q 3513 744 3044 326 
Q 2575 -91 1722 -91 
Q 1428 -91 1123 -41 
Q 819 9 494 109 
L 494 744 
Q 775 591 1075 516 
Q 1375 441 1709 441 
Q 2250 441 2565 725 
Q 2881 1009 2881 1497 
Q 2881 1984 2565 2268 
Q 2250 2553 1709 2553 
Q 1456 2553 1204 2497 
Q 953 2441 691 2322 
L 691 4666 
z
" transform="scale(0.015625)"/>
        <path id="DejaVuSans-30" d="M 2034 4250 
Q 1547 4250 1301 3770 
Q 1056 3291 1056 2328 
Q 1056 1369 1301 889 
Q 1547 409 2034 409 
Q 2525 409 2770 889 
Q 3016 1369 3016 2328 
Q 3016 3291 2770 3770 
Q 2525 4250 2034 4250 
z
M 2034 4750 
Q 2819 4750 3233 4129 
Q 3647 3509 3647 2328 
Q 3647 1150 3233 529 
Q 2819 -91 2034 -91 
Q 1250 -91 836 529 
Q 422 1150 422 2328 
Q 422 3509 836 4129 
Q 1250 4750 2034 4750 
z
" transform="scale(0.015625)"/>
       </defs>
       <use xlink:href="#DejaVuSans-2212"/>
       <use xlink:href="#DejaVuSans-31" x="83.789062"/>
       <use xlink:href="#DejaVuSans-35" x="147.412109"/>
       <use xlink:href="#DejaVuSans-30" x="211.035156"/>
      </g>
     </g>
    </g>
    <g id="xtick_2">
     <g id="line2d_2">
      <g>
       <use xlink:href="#m414f62b363" x="73.543972" y="263.126725" style="stroke: #000000; stroke-width: 0.8"/>
      </g>
     </g>
     <g id="text_2">
      <!-- −100 -->
      <g transform="translate(59.810378 277.725163) scale(0.1 -0.1)">
       <use xlink:href="#DejaVuSans-2212"/>
       <use xlink:href="#DejaVuSans-31" x="83.789062"/>
       <use xlink:href="#DejaVuSans-30" x="147.412109"/>
       <use xlink:href="#DejaVuSans-30" x="211.035156"/>
      </g>
     </g>
    </g>
    <g id="xtick_3">
     <g id="line2d_3">
      <g>
       <use xlink:href="#m414f62b363" x="109.285564" y="263.126725" style="stroke: #000000; stroke-width: 0.8"/>
      </g>
     </g>
     <g id="text_3">
      <!-- −50 -->
      <g transform="translate(98.73322 277.725163) scale(0.1 -0.1)">
       <use xlink:href="#DejaVuSans-2212"/>
       <use xlink:href="#DejaVuSans-35" x="83.789062"/>
       <use xlink:href="#DejaVuSans-30" x="147.412109"/>
      </g>
     </g>
    </g>
    <g id="xtick_4">
     <g id="line2d_4">
      <g>
       <use xlink:href="#m414f62b363" x="145.027156" y="263.126725" style="stroke: #000000; stroke-width: 0.8"/>
      </g>
     </g>
     <g id="text_4">
      <!-- 0 -->
      <g transform="translate(141.845906 277.725163) scale(0.1 -0.1)">
       <use xlink:href="#DejaVuSans-30"/>
      </g>
     </g>
    </g>
    <g id="xtick_5">
     <g id="line2d_5">
      <g>
       <use xlink:href="#m414f62b363" x="180.768747" y="263.126725" style="stroke: #000000; stroke-width: 0.8"/>
      </g>
     </g>
     <g id="text_5">
      <!-- 50 -->
      <g transform="translate(174.406247 277.725163) scale(0.1 -0.1)">
       <use xlink:href="#DejaVuSans-35"/>
       <use xlink:href="#DejaVuSans-30" x="63.623047"/>
      </g>
     </g>
    </g>
    <g id="xtick_6">
     <g id="line2d_6">
      <g>
       <use xlink:href="#m414f62b363" x="216.510339" y="263.126725" style="stroke: #000000; stroke-width: 0.8"/>
      </g>
     </g>
     <g id="text_6">
      <!-- 100 -->
      <g transform="translate(206.966589 277.725163) scale(0.1 -0.1)">
       <use xlink:href="#DejaVuSans-31"/>
       <use xlink:href="#DejaVuSans-30" x="63.623047"/>
       <use xlink:href="#DejaVuSans-30" x="127.246094"/>
      </g>
     </g>
    </g>
    <g id="xtick_7">
     <g id="line2d_7">
      <g>
       <use xlink:href="#m414f62b363" x="252.251931" y="263.126725" style="stroke: #000000; stroke-width: 0.8"/>
      </g>
     </g>
     <g id="text_7">
      <!-- 150 -->
      <g transform="translate(242.708181 277.725163) scale(0.1 -0.1)">
       <use xlink:href="#DejaVuSans-31"/>
       <use xlink:href="#DejaVuSans-35" x="63.623047"/>
       <use xlink:href="#DejaVuSans-30" x="127.246094"/>
      </g>
     </g>
    </g>
   </g>
   <g id="matplotlib.axis_2">
    <g id="ytick_1">
     <g id="line2d_8">
      <defs>
       <path id="m8f1197a011" d="M 0 0 
L -3.5 0 
" style="stroke: #000000; stroke-width: 0.8"/>
      </defs>
      <g>
       <use xlink:href="#m8f1197a011" x="37.467427" y="252.260495" style="stroke: #000000; stroke-width: 0.8"/>
      </g>
     </g>
     <g id="text_8">
      <!-- −150 -->
      <g transform="translate(3.00024 256.059714) scale(0.1 -0.1)">
       <use xlink:href="#DejaVuSans-2212"/>
       <use xlink:href="#DejaVuSans-31" x="83.789062"/>
       <use xlink:href="#DejaVuSans-35" x="147.412109"/>
       <use xlink:href="#DejaVuSans-30" x="211.035156"/>
      </g>
     </g>
    </g>
    <g id="ytick_2">
     <g id="line2d_9">
      <g>
       <use xlink:href="#m8f1197a011" x="37.467427" y="216.518903" style="stroke: #000000; stroke-width: 0.8"/>
      </g>
     </g>
     <g id="text_9">
      <!-- −100 -->
      <g transform="translate(3.00024 220.318122) scale(0.1 -0.1)">
       <use xlink:href="#DejaVuSans-2212"/>
       <use xlink:href="#DejaVuSans-31" x="83.789062"/>
       <use xlink:href="#DejaVuSans-30" x="147.412109"/>
       <use xlink:href="#DejaVuSans-30" x="211.035156"/>
      </g>
     </g>
    </g>
    <g id="ytick_3">
     <g id="line2d_10">
      <g>
       <use xlink:href="#m8f1197a011" x="37.467427" y="180.777312" style="stroke: #000000; stroke-width: 0.8"/>
      </g>
     </g>
     <g id="text_10">
      <!-- −50 -->
      <g transform="translate(9.36274 184.57653) scale(0.1 -0.1)">
       <use xlink:href="#DejaVuSans-2212"/>
       <use xlink:href="#DejaVuSans-35" x="83.789062"/>
       <use xlink:href="#DejaVuSans-30" x="147.412109"/>
      </g>
     </g>
    </g>
    <g id="ytick_4">
     <g id="line2d_11">
      <g>
       <use xlink:href="#m8f1197a011" x="37.467427" y="145.03572" style="stroke: #000000; stroke-width: 0.8"/>
      </g>
     </g>
     <g id="text_11">
      <!-- 0 -->
      <g transform="translate(24.104927 148.834939) scale(0.1 -0.1)">
       <use xlink:href="#DejaVuSans-30"/>
      </g>
     </g>
    </g>
    <g id="ytick_5">
     <g id="line2d_12">
      <g>
       <use xlink:href="#m8f1197a011" x="37.467427" y="109.294128" style="stroke: #000000; stroke-width: 0.8"/>
      </g>
     </g>
     <g id="text_12">
      <!-- 50 -->
      <g transform="translate(17.742427 113.093347) scale(0.1 -0.1)">
       <use xlink:href="#DejaVuSans-35"/>
       <use xlink:href="#DejaVuSans-30" x="63.623047"/>
      </g>
     </g>
    </g>
    <g id="ytick_6">
     <g id="line2d_13">
      <g>
       <use xlink:href="#m8f1197a011" x="37.467427" y="73.552537" style="stroke: #000000; stroke-width: 0.8"/>
      </g>
     </g>
     <g id="text_13">
      <!-- 100 -->
      <g transform="translate(11.379927 77.351755) scale(0.1 -0.1)">
       <use xlink:href="#DejaVuSans-31"/>
       <use xlink:href="#DejaVuSans-30" x="63.623047"/>
       <use xlink:href="#DejaVuSans-30" x="127.246094"/>
      </g>
     </g>
    </g>
    <g id="ytick_7">
     <g id="line2d_14">
      <g>
       <use xlink:href="#m8f1197a011" x="37.467427" y="37.810945" style="stroke: #000000; stroke-width: 0.8"/>
      </g>
     </g>
     <g id="text_14">
      <!-- 150 -->
      <g transform="translate(11.379927 41.610164) scale(0.1 -0.1)">
       <use xlink:href="#DejaVuSans-31"/>
       <use xlink:href="#DejaVuSans-35" x="63.623047"/>
       <use xlink:href="#DejaVuSans-30" x="127.246094"/>
      </g>
     </g>
    </g>
   </g>
   <g id="patch_4">
    <path d="M 37.467427 263.126725 
L 37.467427 24.873275 
" style="fill: none; stroke: #000000; stroke-width: 0.8; stroke-linejoin: miter; stroke-linecap: square"/>
   </g>
   <g id="patch_5">
    <path d="M 275.720878 263.126725 
L 275.720878 24.873275 
" style="fill: none; stroke: #000000; stroke-width: 0.8; stroke-linejoin: miter; stroke-linecap: square"/>
   </g>
   <g id="patch_6">
    <path d="M 37.467427 263.126725 
L 275.720878 263.126725 
" style="fill: none; stroke: #000000; stroke-width: 0.8; stroke-linejoin: miter; stroke-linecap: square"/>
   </g>
   <g id="patch_7">
    <path d="M 37.467427 24.873275 
L 275.720878 24.873275 
" style="fill: none; stroke: #000000; stroke-width: 0.8; stroke-linejoin: miter; stroke-linecap: square"/>
   </g>
  </g>
  <g id="axes_2">
   <g id="patch_8">
    <path d="M 320.533858 263.126725 
L 558.787308 263.126725 
L 558.787308 24.873275 
L 320.533858 24.873275 
L 320.533858 263.126725 
z
" style="fill: none"/>
   </g>
   <g id="patch_9">
    <path d="M 439.830062 263.126725 
L 441.185893 263.126725 
L 441.185893 256.046346 
L 439.830062 256.046346 
z
" clip-path="url(#pa3d1dd2a93)" style="fill: #1f77b4"/>
   </g>
   <g id="patch_10">
    <path d="M 441.524851 263.126725 
L 442.880682 263.126725 
L 442.880682 229.131714 
L 441.524851 229.131714 
z
" clip-path="url(#pa3d1dd2a93)" style="fill: #1f77b4"/>
   </g>
   <g id="patch_11">
    <path d="M 443.21964 263.126725 
L 444.575471 263.126725 
L 444.575471 237.126521 
L 443.21964 237.126521 
z
" clip-path="url(#pa3d1dd2a93)" style="fill: #1f77b4"/>
   </g>
   <g id="patch_12">
    <path d="M 444.914429 263.126725 
L 446.27026 263.126725 
L 446.27026 251.769527 
L 444.914429 251.769527 
z
" clip-path="url(#pa3d1dd2a93)" style="fill: #1f77b4"/>
   </g>
   <g id="patch_13">
    <path d="M 446.609218 263.126725 
L 447.965049 263.126725 
L 447.965049 261.529004 
L 446.609218 261.529004 
z
" clip-path="url(#pa3d1dd2a93)" style="fill: #1f77b4"/>
   </g>
   <g id="patch_14">
    <path d="M 448.304007 263.126725 
L 449.659838 263.126725 
L 449.659838 262.024281 
L 448.304007 262.024281 
z
" clip-path="url(#pa3d1dd2a93)" style="fill: #1f77b4"/>
   </g>
   <g id="patch_15">
    <path d="M 449.998796 263.126725 
L 451.354627 263.126725 
L 451.354627 258.212633 
L 449.998796 258.212633 
z
" clip-path="url(#pa3d1dd2a93)" style="fill: #1f77b4"/>
   </g>
   <g id="patch_16">
    <path d="M 451.693585 263.126725 
L 453.049416 263.126725 
L 453.049416 258.800534 
L 451.693585 258.800534 
z
" clip-path="url(#pa3d1dd2a93)" style="fill: #1f77b4"/>
   </g>
   <g id="patch_17">
    <path d="M 453.388374 263.126725 
L 454.744206 263.126725 
L 454.744206 261.628931 
L 453.388374 261.628931 
z
" clip-path="url(#pa3d1dd2a93)" style="fill: #1f77b4"/>
   </g>
   <g id="patch_18">
    <path d="M 455.083163 263.126725 
L 456.438995 263.126725 
L 456.438995 261.154843 
L 455.083163 261.154843 
z
" clip-path="url(#pa3d1dd2a93)" style="fill: #1f77b4"/>
   </g>
   <g id="patch_19">
    <path d="M 456.777952 263.126725 
L 458.133784 263.126725 
L 458.133784 261.467821 
L 456.777952 261.467821 
z
" clip-path="url(#pa3d1dd2a93)" style="fill: #1f77b4"/>
   </g>
   <g id="patch_20">
    <path d="M 458.472742 263.126725 
L 459.828573 263.126725 
L 459.828573 262.810415 
L 458.472742 262.810415 
z
" clip-path="url(#pa3d1dd2a93)" style="fill: #1f77b4"/>
   </g>
   <g id="patch_21">
    <path d="M 460.167531 263.126725 
L 461.523362 263.126725 
L 461.523362 261.878021 
L 460.167531 261.878021 
z
" clip-path="url(#pa3d1dd2a93)" style="fill: #1f77b4"/>
   </g>
   <g id="patch_22">
    <path d="M 461.86232 263.126725 
L 463.218151 263.126725 
L 463.218151 262.393665 
L 461.86232 262.393665 
z
" clip-path="url(#pa3d1dd2a93)" style="fill: #1f77b4"/>
   </g>
   <g id="patch_23">
    <path d="M 463.557109 263.126725 
L 464.91294 263.126725 
L 464.91294 261.47134 
L 463.557109 261.47134 
z
" clip-path="url(#pa3d1dd2a93)" style="fill: #1f77b4"/>
   </g>
   <g id="patch_24">
    <path d="M 465.251898 263.126725 
L 466.607729 263.126725 
L 466.607729 262.733589 
L 465.251898 262.733589 
z
" clip-path="url(#pa3d1dd2a93)" style="fill: #1f77b4"/>
   </g>
   <g id="patch_25">
    <path d="M 466.946687 263.126725 
L 468.302518 263.126725 
L 468.302518 261.727523 
L 466.946687 261.727523 
z
" clip-path="url(#pa3d1dd2a93)" style="fill: #1f77b4"/>
   </g>
   <g id="patch_26">
    <path d="M 468.641476 263.126725 
L 469.997307 263.126725 
L 469.997307 262.667608 
L 468.641476 262.667608 
z
" clip-path="url(#pa3d1dd2a93)" style="fill: #1f77b4"/>
   </g>
   <g id="patch_27">
    <path d="M 470.336265 263.126725 
L 471.692096 263.126725 
L 471.692096 262.693802 
L 470.336265 262.693802 
z
" clip-path="url(#pa3d1dd2a93)" style="fill: #1f77b4"/>
   </g>
   <g id="patch_28">
    <path d="M 472.031054 263.126725 
L 473.386886 263.126725 
L 473.386886 261.324115 
L 472.031054 261.324115 
z
" clip-path="url(#pa3d1dd2a93)" style="fill: #1f77b4"/>
   </g>
   <g id="patch_29">
    <path d="M 473.725843 263.126725 
L 475.081675 263.126725 
L 475.081675 262.801449 
L 473.725843 262.801449 
z
" clip-path="url(#pa3d1dd2a93)" style="fill: #1f77b4"/>
   </g>
   <g id="patch_30">
    <path d="M 475.420632 263.126725 
L 476.776464 263.126725 
L 476.776464 262.983585 
L 475.420632 262.983585 
z
" clip-path="url(#pa3d1dd2a93)" style="fill: #1f77b4"/>
   </g>
   <g id="patch_31">
    <path d="M 477.115422 263.126725 
L 478.471253 263.126725 
L 478.471253 262.6033 
L 477.115422 262.6033 
z
" clip-path="url(#pa3d1dd2a93)" style="fill: #1f77b4"/>
   </g>
   <g id="patch_32">
    <path d="M 478.810211 263.126725 
L 480.166042 263.126725 
L 480.166042 262.811149 
L 478.810211 262.811149 
z
" clip-path="url(#pa3d1dd2a93)" style="fill: #1f77b4"/>
   </g>
   <g id="patch_33">
    <path d="M 480.505 263.126725 
L 481.860831 263.126725 
L 481.860831 262.505506 
L 480.505 262.505506 
z
" clip-path="url(#pa3d1dd2a93)" style="fill: #1f77b4"/>
   </g>
   <g id="patch_34">
    <path d="M 482.199789 263.126725 
L 483.55562 263.126725 
L 483.55562 262.728225 
L 482.199789 262.728225 
z
" clip-path="url(#pa3d1dd2a93)" style="fill: #1f77b4"/>
   </g>
   <g id="patch_35">
    <path d="M 483.894578 263.126725 
L 485.250409 263.126725 
L 485.250409 262.900218 
L 483.894578 262.900218 
z
" clip-path="url(#pa3d1dd2a93)" style="fill: #1f77b4"/>
   </g>
   <g id="patch_36">
    <path d="M 485.589367 263.126725 
L 486.945198 263.126725 
L 486.945198 262.902973 
L 485.589367 262.902973 
z
" clip-path="url(#pa3d1dd2a93)" style="fill: #1f77b4"/>
   </g>
   <g id="patch_37">
    <path d="M 487.284156 263.126725 
L 488.639987 263.126725 
L 488.639987 262.569496 
L 487.284156 262.569496 
z
" clip-path="url(#pa3d1dd2a93)" style="fill: #1f77b4"/>
   </g>
   <g id="patch_38">
    <path d="M 488.978945 263.126725 
L 490.334776 263.126725 
L 490.334776 262.991745 
L 488.978945 262.991745 
z
" clip-path="url(#pa3d1dd2a93)" style="fill: #1f77b4"/>
   </g>
   <g id="patch_39">
    <path d="M 490.673734 263.126725 
L 492.029566 263.126725 
L 492.029566 262.905827 
L 490.673734 262.905827 
z
" clip-path="url(#pa3d1dd2a93)" style="fill: #1f77b4"/>
   </g>
   <g id="patch_40">
    <path d="M 492.368523 263.126725 
L 493.724355 263.126725 
L 493.724355 262.604655 
L 492.368523 262.604655 
z
" clip-path="url(#pa3d1dd2a93)" style="fill: #1f77b4"/>
   </g>
   <g id="patch_41">
    <path d="M 494.063312 263.126725 
L 495.419144 263.126725 
L 495.419144 262.495905 
L 494.063312 262.495905 
z
" clip-path="url(#pa3d1dd2a93)" style="fill: #1f77b4"/>
   </g>
   <g id="patch_42">
    <path d="M 495.758101 263.126725 
L 497.113933 263.126725 
L 497.113933 262.819397 
L 495.758101 262.819397 
z
" clip-path="url(#pa3d1dd2a93)" style="fill: #1f77b4"/>
   </g>
   <g id="patch_43">
    <path d="M 497.452891 263.126725 
L 498.808722 263.126725 
L 498.808722 262.701376 
L 497.452891 262.701376 
z
" clip-path="url(#pa3d1dd2a93)" style="fill: #1f77b4"/>
   </g>
   <g id="patch_44">
    <path d="M 499.14768 263.126725 
L 500.503511 263.126725 
L 500.503511 262.297168 
L 499.14768 262.297168 
z
" clip-path="url(#pa3d1dd2a93)" style="fill: #1f77b4"/>
   </g>
   <g id="patch_45">
    <path d="M 500.842469 263.126725 
L 502.1983 263.126725 
L 502.1983 262.5212 
L 500.842469 262.5212 
z
" clip-path="url(#pa3d1dd2a93)" style="fill: #1f77b4"/>
   </g>
   <g id="patch_46">
    <path d="M 502.537258 263.126725 
L 503.893089 263.126725 
L 503.893089 262.643359 
L 502.537258 262.643359 
z
" clip-path="url(#pa3d1dd2a93)" style="fill: #1f77b4"/>
   </g>
   <g id="patch_47">
    <path d="M 504.232047 263.126725 
L 505.587878 263.126725 
L 505.587878 262.504332 
L 504.232047 262.504332 
z
" clip-path="url(#pa3d1dd2a93)" style="fill: #1f77b4"/>
   </g>
   <g id="patch_48">
    <path d="M 505.926836 263.126725 
L 507.282667 263.126725 
L 507.282667 262.568936 
L 505.926836 262.568936 
z
" clip-path="url(#pa3d1dd2a93)" style="fill: #1f77b4"/>
   </g>
   <g id="patch_49">
    <path d="M 507.621625 263.126725 
L 508.977456 263.126725 
L 508.977456 262.893534 
L 507.621625 262.893534 
z
" clip-path="url(#pa3d1dd2a93)" style="fill: #1f77b4"/>
   </g>
   <g id="patch_50">
    <path d="M 509.316414 263.126725 
L 510.672245 263.126725 
L 510.672245 262.726027 
L 509.316414 262.726027 
z
" clip-path="url(#pa3d1dd2a93)" style="fill: #1f77b4"/>
   </g>
   <g id="patch_51">
    <path d="M 511.011203 263.126725 
L 512.367035 263.126725 
L 512.367035 262.639974 
L 511.011203 262.639974 
z
" clip-path="url(#pa3d1dd2a93)" style="fill: #1f77b4"/>
   </g>
   <g id="patch_52">
    <path d="M 512.705992 263.126725 
L 514.061824 263.126725 
L 514.061824 262.630069 
L 512.705992 262.630069 
z
" clip-path="url(#pa3d1dd2a93)" style="fill: #1f77b4"/>
   </g>
   <g id="patch_53">
    <path d="M 514.400781 263.126725 
L 515.756613 263.126725 
L 515.756613 262.719859 
L 514.400781 262.719859 
z
" clip-path="url(#pa3d1dd2a93)" style="fill: #1f77b4"/>
   </g>
   <g id="patch_54">
    <path d="M 516.095571 263.126725 
L 517.451402 263.126725 
L 517.451402 262.983448 
L 516.095571 262.983448 
z
" clip-path="url(#pa3d1dd2a93)" style="fill: #1f77b4"/>
   </g>
   <g id="patch_55">
    <path d="M 517.79036 263.126725 
L 519.146191 263.126725 
L 519.146191 262.664968 
L 517.79036 262.664968 
z
" clip-path="url(#pa3d1dd2a93)" style="fill: #1f77b4"/>
   </g>
   <g id="patch_56">
    <path d="M 519.485149 263.126725 
L 520.84098 263.126725 
L 520.84098 262.689409 
L 519.485149 262.689409 
z
" clip-path="url(#pa3d1dd2a93)" style="fill: #1f77b4"/>
   </g>
   <g id="patch_57">
    <path d="M 521.179938 263.126725 
L 522.535769 263.126725 
L 522.535769 262.532376 
L 521.179938 262.532376 
z
" clip-path="url(#pa3d1dd2a93)" style="fill: #1f77b4"/>
   </g>
   <g id="patch_58">
    <path d="M 522.874727 263.126725 
L 524.230558 263.126725 
L 524.230558 262.649573 
L 522.874727 262.649573 
z
" clip-path="url(#pa3d1dd2a93)" style="fill: #1f77b4"/>
   </g>
   <g id="patch_59">
    <path d="M 524.569516 263.126725 
L 525.925347 263.126725 
L 525.925347 262.985283 
L 524.569516 262.985283 
z
" clip-path="url(#pa3d1dd2a93)" style="fill: #1f77b4"/>
   </g>
   <g id="patch_60">
    <path d="M 526.264305 263.126725 
L 527.620136 263.126725 
L 527.620136 262.779351 
L 526.264305 262.779351 
z
" clip-path="url(#pa3d1dd2a93)" style="fill: #1f77b4"/>
   </g>
   <g id="patch_61">
    <path d="M 527.959094 263.126725 
L 529.314925 263.126725 
L 529.314925 262.849236 
L 527.959094 262.849236 
z
" clip-path="url(#pa3d1dd2a93)" style="fill: #1f77b4"/>
   </g>
   <g id="patch_62">
    <path d="M 529.653883 263.126725 
L 531.009715 263.126725 
L 531.009715 262.8354 
L 529.653883 262.8354 
z
" clip-path="url(#pa3d1dd2a93)" style="fill: #1f77b4"/>
   </g>
   <g id="patch_63">
    <path d="M 531.348672 263.126725 
L 532.704504 263.126725 
L 532.704504 262.900544 
L 531.348672 262.900544 
z
" clip-path="url(#pa3d1dd2a93)" style="fill: #1f77b4"/>
   </g>
   <g id="patch_64">
    <path d="M 533.043461 263.126725 
L 534.399293 263.126725 
L 534.399293 262.475201 
L 533.043461 262.475201 
z
" clip-path="url(#pa3d1dd2a93)" style="fill: #1f77b4"/>
   </g>
   <g id="patch_65">
    <path d="M 534.738251 263.126725 
L 536.094082 263.126725 
L 536.094082 262.826008 
L 534.738251 262.826008 
z
" clip-path="url(#pa3d1dd2a93)" style="fill: #1f77b4"/>
   </g>
   <g id="patch_66">
    <path d="M 536.43304 263.126725 
L 537.788871 263.126725 
L 537.788871 262.97182 
L 536.43304 262.97182 
z
" clip-path="url(#pa3d1dd2a93)" style="fill: #1f77b4"/>
   </g>
   <g id="patch_67">
    <path d="M 538.127829 263.126725 
L 539.48366 263.126725 
L 539.48366 263.080572 
L 538.127829 263.080572 
z
" clip-path="url(#pa3d1dd2a93)" style="fill: #1f77b4"/>
   </g>
   <g id="patch_68">
    <path d="M 539.822618 263.126725 
L 541.178449 263.126725 
L 541.178449 263.068252 
L 539.822618 263.068252 
z
" clip-path="url(#pa3d1dd2a93)" style="fill: #1f77b4"/>
   </g>
   <g id="patch_69">
    <path d="M 541.517407 263.126725 
L 542.873238 263.126725 
L 542.873238 262.91267 
L 541.517407 262.91267 
z
" clip-path="url(#pa3d1dd2a93)" style="fill: #1f77b4"/>
   </g>
   <g id="patch_70">
    <path d="M 543.212196 263.126725 
L 544.568027 263.126725 
L 544.568027 262.708345 
L 543.212196 262.708345 
z
" clip-path="url(#pa3d1dd2a93)" style="fill: #1f77b4"/>
   </g>
   <g id="patch_71">
    <path d="M 544.906985 263.126725 
L 546.262816 263.126725 
L 546.262816 262.820291 
L 544.906985 262.820291 
z
" clip-path="url(#pa3d1dd2a93)" style="fill: #1f77b4"/>
   </g>
   <g id="patch_72">
    <path d="M 546.601774 263.126725 
L 547.957605 263.126725 
L 547.957605 262.523938 
L 546.601774 262.523938 
z
" clip-path="url(#pa3d1dd2a93)" style="fill: #1f77b4"/>
   </g>
   <g id="patch_73">
    <path d="M 331.36356 263.126725 
L 332.719391 263.126725 
L 332.719391 263.037778 
L 331.36356 263.037778 
z
" clip-path="url(#pa3d1dd2a93)" style="fill: #1f77b4"/>
   </g>
   <g id="patch_74">
    <path d="M 333.058349 263.126725 
L 334.41418 263.126725 
L 334.41418 263.022529 
L 333.058349 263.022529 
z
" clip-path="url(#pa3d1dd2a93)" style="fill: #1f77b4"/>
   </g>
   <g id="patch_75">
    <path d="M 334.753138 263.126725 
L 336.108969 263.126725 
L 336.108969 262.638123 
L 334.753138 262.638123 
z
" clip-path="url(#pa3d1dd2a93)" style="fill: #1f77b4"/>
   </g>
   <g id="patch_76">
    <path d="M 336.447927 263.126725 
L 337.803758 263.126725 
L 337.803758 262.688098 
L 336.447927 262.688098 
z
" clip-path="url(#pa3d1dd2a93)" style="fill: #1f77b4"/>
   </g>
   <g id="patch_77">
    <path d="M 338.142716 263.126725 
L 339.498548 263.126725 
L 339.498548 262.583162 
L 338.142716 262.583162 
z
" clip-path="url(#pa3d1dd2a93)" style="fill: #1f77b4"/>
   </g>
   <g id="patch_78">
    <path d="M 339.837505 263.126725 
L 341.193337 263.126725 
L 341.193337 262.9364 
L 339.837505 262.9364 
z
" clip-path="url(#pa3d1dd2a93)" style="fill: #1f77b4"/>
   </g>
   <g id="patch_79">
    <path d="M 341.532294 263.126725 
L 342.888126 263.126725 
L 342.888126 262.728829 
L 341.532294 262.728829 
z
" clip-path="url(#pa3d1dd2a93)" style="fill: #1f77b4"/>
   </g>
   <g id="patch_80">
    <path d="M 343.227084 263.126725 
L 344.582915 263.126725 
L 344.582915 262.807936 
L 343.227084 262.807936 
z
" clip-path="url(#pa3d1dd2a93)" style="fill: #1f77b4"/>
   </g>
   <g id="patch_81">
    <path d="M 344.921873 263.126725 
L 346.277704 263.126725 
L 346.277704 262.996121 
L 344.921873 262.996121 
z
" clip-path="url(#pa3d1dd2a93)" style="fill: #1f77b4"/>
   </g>
   <g id="patch_82">
    <path d="M 346.616662 263.126725 
L 347.972493 263.126725 
L 347.972493 263.085926 
L 346.616662 263.085926 
z
" clip-path="url(#pa3d1dd2a93)" style="fill: #1f77b4"/>
   </g>
   <g id="patch_83">
    <path d="M 348.311451 263.126725 
L 349.667282 263.126725 
L 349.667282 262.556706 
L 348.311451 262.556706 
z
" clip-path="url(#pa3d1dd2a93)" style="fill: #1f77b4"/>
   </g>
   <g id="patch_84">
    <path d="M 350.00624 263.126725 
L 351.362071 263.126725 
L 351.362071 262.795881 
L 350.00624 262.795881 
z
" clip-path="url(#pa3d1dd2a93)" style="fill: #1f77b4"/>
   </g>
   <g id="patch_85">
    <path d="M 351.701029 263.126725 
L 353.05686 263.126725 
L 353.05686 263.091315 
L 351.701029 263.091315 
z
" clip-path="url(#pa3d1dd2a93)" style="fill: #1f77b4"/>
   </g>
   <g id="patch_86">
    <path d="M 353.395818 263.126725 
L 354.751649 263.126725 
L 354.751649 262.884774 
L 353.395818 262.884774 
z
" clip-path="url(#pa3d1dd2a93)" style="fill: #1f77b4"/>
   </g>
   <g id="patch_87">
    <path d="M 355.090607 263.126725 
L 356.446438 263.126725 
L 356.446438 262.745342 
L 355.090607 262.745342 
z
" clip-path="url(#pa3d1dd2a93)" style="fill: #1f77b4"/>
   </g>
   <g id="patch_88">
    <path d="M 356.785396 263.126725 
L 358.141227 263.126725 
L 358.141227 262.496955 
L 356.785396 262.496955 
z
" clip-path="url(#pa3d1dd2a93)" style="fill: #1f77b4"/>
   </g>
   <g id="patch_89">
    <path d="M 358.480185 263.126725 
L 359.836017 263.126725 
L 359.836017 262.572946 
L 358.480185 262.572946 
z
" clip-path="url(#pa3d1dd2a93)" style="fill: #1f77b4"/>
   </g>
   <g id="patch_90">
    <path d="M 360.174974 263.126725 
L 361.530806 263.126725 
L 361.530806 262.832585 
L 360.174974 262.832585 
z
" clip-path="url(#pa3d1dd2a93)" style="fill: #1f77b4"/>
   </g>
   <g id="patch_91">
    <path d="M 361.869763 263.126725 
L 363.225595 263.126725 
L 363.225595 262.985955 
L 361.869763 262.985955 
z
" clip-path="url(#pa3d1dd2a93)" style="fill: #1f77b4"/>
   </g>
   <g id="patch_92">
    <path d="M 363.564553 263.126725 
L 364.920384 263.126725 
L 364.920384 263.073065 
L 363.564553 263.073065 
z
" clip-path="url(#pa3d1dd2a93)" style="fill: #1f77b4"/>
   </g>
   <g id="patch_93">
    <path d="M 365.259342 263.126725 
L 366.615173 263.126725 
L 366.615173 262.770915 
L 365.259342 262.770915 
z
" clip-path="url(#pa3d1dd2a93)" style="fill: #1f77b4"/>
   </g>
   <g id="patch_94">
    <path d="M 366.954131 263.126725 
L 368.309962 263.126725 
L 368.309962 262.593219 
L 366.954131 262.593219 
z
" clip-path="url(#pa3d1dd2a93)" style="fill: #1f77b4"/>
   </g>
   <g id="patch_95">
    <path d="M 368.64892 263.126725 
L 370.004751 263.126725 
L 370.004751 262.653963 
L 368.64892 262.653963 
z
" clip-path="url(#pa3d1dd2a93)" style="fill: #1f77b4"/>
   </g>
   <g id="patch_96">
    <path d="M 370.343709 263.126725 
L 371.69954 263.126725 
L 371.69954 262.666953 
L 370.343709 262.666953 
z
" clip-path="url(#pa3d1dd2a93)" style="fill: #1f77b4"/>
   </g>
   <g id="patch_97">
    <path d="M 372.038498 263.126725 
L 373.394329 263.126725 
L 373.394329 262.930815 
L 372.038498 262.930815 
z
" clip-path="url(#pa3d1dd2a93)" style="fill: #1f77b4"/>
   </g>
   <g id="patch_98">
    <path d="M 373.733287 263.126725 
L 375.089118 263.126725 
L 375.089118 262.86772 
L 373.733287 262.86772 
z
" clip-path="url(#pa3d1dd2a93)" style="fill: #1f77b4"/>
   </g>
   <g id="patch_99">
    <path d="M 375.428076 263.126725 
L 376.783907 263.126725 
L 376.783907 263.101933 
L 375.428076 263.101933 
z
" clip-path="url(#pa3d1dd2a93)" style="fill: #1f77b4"/>
   </g>
   <g id="patch_100">
    <path d="M 377.122865 263.126725 
L 378.478697 263.126725 
L 378.478697 262.429456 
L 377.122865 262.429456 
z
" clip-path="url(#pa3d1dd2a93)" style="fill: #1f77b4"/>
   </g>
   <g id="patch_101">
    <path d="M 378.817654 263.126725 
L 380.173486 263.126725 
L 380.173486 262.650608 
L 378.817654 262.650608 
z
" clip-path="url(#pa3d1dd2a93)" style="fill: #1f77b4"/>
   </g>
   <g id="patch_102">
    <path d="M 380.512443 263.126725 
L 381.868275 263.126725 
L 381.868275 262.486534 
L 380.512443 262.486534 
z
" clip-path="url(#pa3d1dd2a93)" style="fill: #1f77b4"/>
   </g>
   <g id="patch_103">
    <path d="M 382.207233 263.126725 
L 383.563064 263.126725 
L 383.563064 262.547084 
L 382.207233 262.547084 
z
" clip-path="url(#pa3d1dd2a93)" style="fill: #1f77b4"/>
   </g>
   <g id="patch_104">
    <path d="M 383.902022 263.126725 
L 385.257853 263.126725 
L 385.257853 262.628909 
L 383.902022 262.628909 
z
" clip-path="url(#pa3d1dd2a93)" style="fill: #1f77b4"/>
   </g>
   <g id="patch_105">
    <path d="M 385.596811 263.126725 
L 386.952642 263.126725 
L 386.952642 262.696654 
L 385.596811 262.696654 
z
" clip-path="url(#pa3d1dd2a93)" style="fill: #1f77b4"/>
   </g>
   <g id="patch_106">
    <path d="M 387.2916 263.126725 
L 388.647431 263.126725 
L 388.647431 262.958273 
L 387.2916 262.958273 
z
" clip-path="url(#pa3d1dd2a93)" style="fill: #1f77b4"/>
   </g>
   <g id="patch_107">
    <path d="M 388.986389 263.126725 
L 390.34222 263.126725 
L 390.34222 262.506162 
L 388.986389 262.506162 
z
" clip-path="url(#pa3d1dd2a93)" style="fill: #1f77b4"/>
   </g>
   <g id="patch_108">
    <path d="M 390.681178 263.126725 
L 392.037009 263.126725 
L 392.037009 262.89372 
L 390.681178 262.89372 
z
" clip-path="url(#pa3d1dd2a93)" style="fill: #1f77b4"/>
   </g>
   <g id="patch_109">
    <path d="M 392.375967 263.126725 
L 393.731798 263.126725 
L 393.731798 262.723589 
L 392.375967 262.723589 
z
" clip-path="url(#pa3d1dd2a93)" style="fill: #1f77b4"/>
   </g>
   <g id="patch_110">
    <path d="M 394.070756 263.126725 
L 395.426587 263.126725 
L 395.426587 262.68211 
L 394.070756 262.68211 
z
" clip-path="url(#pa3d1dd2a93)" style="fill: #1f77b4"/>
   </g>
   <g id="patch_111">
    <path d="M 395.765545 263.126725 
L 397.121377 263.126725 
L 397.121377 262.615436 
L 395.765545 262.615436 
z
" clip-path="url(#pa3d1dd2a93)" style="fill: #1f77b4"/>
   </g>
   <g id="patch_112">
    <path d="M 397.460334 263.126725 
L 398.816166 263.126725 
L 398.816166 262.534555 
L 397.460334 262.534555 
z
" clip-path="url(#pa3d1dd2a93)" style="fill: #1f77b4"/>
   </g>
   <g id="patch_113">
    <path d="M 399.155123 263.126725 
L 400.510955 263.126725 
L 400.510955 262.568297 
L 399.155123 262.568297 
z
" clip-path="url(#pa3d1dd2a93)" style="fill: #1f77b4"/>
   </g>
   <g id="patch_114">
    <path d="M 400.849913 263.126725 
L 402.205744 263.126725 
L 402.205744 262.625609 
L 400.849913 262.625609 
z
" clip-path="url(#pa3d1dd2a93)" style="fill: #1f77b4"/>
   </g>
   <g id="patch_115">
    <path d="M 402.544702 263.126725 
L 403.900533 263.126725 
L 403.900533 262.506269 
L 402.544702 262.506269 
z
" clip-path="url(#pa3d1dd2a93)" style="fill: #1f77b4"/>
   </g>
   <g id="patch_116">
    <path d="M 404.239491 263.126725 
L 405.595322 263.126725 
L 405.595322 262.696718 
L 404.239491 262.696718 
z
" clip-path="url(#pa3d1dd2a93)" style="fill: #1f77b4"/>
   </g>
   <g id="patch_117">
    <path d="M 405.93428 263.126725 
L 407.290111 263.126725 
L 407.290111 262.628805 
L 405.93428 262.628805 
z
" clip-path="url(#pa3d1dd2a93)" style="fill: #1f77b4"/>
   </g>
   <g id="patch_118">
    <path d="M 407.629069 263.126725 
L 408.9849 263.126725 
L 408.9849 262.594866 
L 407.629069 262.594866 
z
" clip-path="url(#pa3d1dd2a93)" style="fill: #1f77b4"/>
   </g>
   <g id="patch_119">
    <path d="M 409.323858 263.126725 
L 410.679689 263.126725 
L 410.679689 262.499654 
L 409.323858 262.499654 
z
" clip-path="url(#pa3d1dd2a93)" style="fill: #1f77b4"/>
   </g>
   <g id="patch_120">
    <path d="M 411.018647 263.126725 
L 412.374478 263.126725 
L 412.374478 262.53537 
L 411.018647 262.53537 
z
" clip-path="url(#pa3d1dd2a93)" style="fill: #1f77b4"/>
   </g>
   <g id="patch_121">
    <path d="M 412.713436 263.126725 
L 414.069267 263.126725 
L 414.069267 262.202592 
L 412.713436 262.202592 
z
" clip-path="url(#pa3d1dd2a93)" style="fill: #1f77b4"/>
   </g>
   <g id="patch_122">
    <path d="M 414.408225 263.126725 
L 415.764057 263.126725 
L 415.764057 261.930032 
L 414.408225 261.930032 
z
" clip-path="url(#pa3d1dd2a93)" style="fill: #1f77b4"/>
   </g>
   <g id="patch_123">
    <path d="M 416.103014 263.126725 
L 417.458846 263.126725 
L 417.458846 262.656704 
L 416.103014 262.656704 
z
" clip-path="url(#pa3d1dd2a93)" style="fill: #1f77b4"/>
   </g>
   <g id="patch_124">
    <path d="M 417.797803 263.126725 
L 419.153635 263.126725 
L 419.153635 262.741522 
L 417.797803 262.741522 
z
" clip-path="url(#pa3d1dd2a93)" style="fill: #1f77b4"/>
   </g>
   <g id="patch_125">
    <path d="M 419.492593 263.126725 
L 420.848424 263.126725 
L 420.848424 260.737227 
L 419.492593 260.737227 
z
" clip-path="url(#pa3d1dd2a93)" style="fill: #1f77b4"/>
   </g>
   <g id="patch_126">
    <path d="M 421.187382 263.126725 
L 422.543213 263.126725 
L 422.543213 261.880888 
L 421.187382 261.880888 
z
" clip-path="url(#pa3d1dd2a93)" style="fill: #1f77b4"/>
   </g>
   <g id="patch_127">
    <path d="M 422.882171 263.126725 
L 424.238002 263.126725 
L 424.238002 262.108956 
L 422.882171 262.108956 
z
" clip-path="url(#pa3d1dd2a93)" style="fill: #1f77b4"/>
   </g>
   <g id="patch_128">
    <path d="M 424.57696 263.126725 
L 425.932791 263.126725 
L 425.932791 260.772879 
L 424.57696 260.772879 
z
" clip-path="url(#pa3d1dd2a93)" style="fill: #1f77b4"/>
   </g>
   <g id="patch_129">
    <path d="M 426.271749 263.126725 
L 427.62758 263.126725 
L 427.62758 261.227508 
L 426.271749 261.227508 
z
" clip-path="url(#pa3d1dd2a93)" style="fill: #1f77b4"/>
   </g>
   <g id="patch_130">
    <path d="M 427.966538 263.126725 
L 429.322369 263.126725 
L 429.322369 260.08106 
L 427.966538 260.08106 
z
" clip-path="url(#pa3d1dd2a93)" style="fill: #1f77b4"/>
   </g>
   <g id="patch_131">
    <path d="M 429.661327 263.126725 
L 431.017158 263.126725 
L 431.017158 259.022289 
L 429.661327 259.022289 
z
" clip-path="url(#pa3d1dd2a93)" style="fill: #1f77b4"/>
   </g>
   <g id="patch_132">
    <path d="M 431.356116 263.126725 
L 432.711947 263.126725 
L 432.711947 259.015472 
L 431.356116 259.015472 
z
" clip-path="url(#pa3d1dd2a93)" style="fill: #1f77b4"/>
   </g>
   <g id="patch_133">
    <path d="M 433.050905 263.126725 
L 434.406736 263.126725 
L 434.406736 253.525019 
L 433.050905 253.525019 
z
" clip-path="url(#pa3d1dd2a93)" style="fill: #1f77b4"/>
   </g>
   <g id="patch_134">
    <path d="M 434.745694 263.126725 
L 436.101526 263.126725 
L 436.101526 256.64571 
L 434.745694 256.64571 
z
" clip-path="url(#pa3d1dd2a93)" style="fill: #1f77b4"/>
   </g>
   <g id="patch_135">
    <path d="M 436.440483 263.126725 
L 437.796315 263.126725 
L 437.796315 257.774527 
L 436.440483 257.774527 
z
" clip-path="url(#pa3d1dd2a93)" style="fill: #1f77b4"/>
   </g>
   <g id="patch_136">
    <path d="M 438.135272 263.126725 
L 439.491104 263.126725 
L 439.491104 36.218677 
L 438.135272 36.218677 
z
" clip-path="url(#pa3d1dd2a93)" style="fill: #1f77b4"/>
   </g>
   <g id="matplotlib.axis_3">
    <g id="xtick_8">
     <g id="line2d_15">
      <g>
       <use xlink:href="#m414f62b363" x="355.768523" y="263.126725" style="stroke: #000000; stroke-width: 0.8"/>
      </g>
     </g>
     <g id="text_15">
      <!-- −50 -->
      <g transform="translate(345.216179 277.725163) scale(0.1 -0.1)">
       <use xlink:href="#DejaVuSans-2212"/>
       <use xlink:href="#DejaVuSans-35" x="83.789062"/>
       <use xlink:href="#DejaVuSans-30" x="147.412109"/>
      </g>
     </g>
    </g>
    <g id="xtick_9">
     <g id="line2d_16">
      <g>
       <use xlink:href="#m414f62b363" x="398.13825" y="263.126725" style="stroke: #000000; stroke-width: 0.8"/>
      </g>
     </g>
     <g id="text_16">
      <!-- −25 -->
      <g transform="translate(387.585906 277.725163) scale(0.1 -0.1)">
       <defs>
        <path id="DejaVuSans-32" d="M 1228 531 
L 3431 531 
L 3431 0 
L 469 0 
L 469 531 
Q 828 903 1448 1529 
Q 2069 2156 2228 2338 
Q 2531 2678 2651 2914 
Q 2772 3150 2772 3378 
Q 2772 3750 2511 3984 
Q 2250 4219 1831 4219 
Q 1534 4219 1204 4116 
Q 875 4013 500 3803 
L 500 4441 
Q 881 4594 1212 4672 
Q 1544 4750 1819 4750 
Q 2544 4750 2975 4387 
Q 3406 4025 3406 3419 
Q 3406 3131 3298 2873 
Q 3191 2616 2906 2266 
Q 2828 2175 2409 1742 
Q 1991 1309 1228 531 
z
" transform="scale(0.015625)"/>
       </defs>
       <use xlink:href="#DejaVuSans-2212"/>
       <use xlink:href="#DejaVuSans-32" x="83.789062"/>
       <use xlink:href="#DejaVuSans-35" x="147.412109"/>
      </g>
     </g>
    </g>
    <g id="xtick_10">
     <g id="line2d_17">
      <g>
       <use xlink:href="#m414f62b363" x="440.507977" y="263.126725" style="stroke: #000000; stroke-width: 0.8"/>
      </g>
     </g>
     <g id="text_17">
      <!-- 0 -->
      <g transform="translate(437.326727 277.725163) scale(0.1 -0.1)">
       <use xlink:href="#DejaVuSans-30"/>
      </g>
     </g>
    </g>
    <g id="xtick_11">
     <g id="line2d_18">
      <g>
       <use xlink:href="#m414f62b363" x="482.877704" y="263.126725" style="stroke: #000000; stroke-width: 0.8"/>
      </g>
     </g>
     <g id="text_18">
      <!-- 25 -->
      <g transform="translate(476.515204 277.725163) scale(0.1 -0.1)">
       <use xlink:href="#DejaVuSans-32"/>
       <use xlink:href="#DejaVuSans-35" x="63.623047"/>
      </g>
     </g>
    </g>
    <g id="xtick_12">
     <g id="line2d_19">
      <g>
       <use xlink:href="#m414f62b363" x="525.247432" y="263.126725" style="stroke: #000000; stroke-width: 0.8"/>
      </g>
     </g>
     <g id="text_19">
      <!-- 50 -->
      <g transform="translate(518.884932 277.725163) scale(0.1 -0.1)">
       <use xlink:href="#DejaVuSans-35"/>
       <use xlink:href="#DejaVuSans-30" x="63.623047"/>
      </g>
     </g>
    </g>
   </g>
   <g id="matplotlib.axis_4">
    <g id="ytick_8">
     <g id="line2d_20">
      <g>
       <use xlink:href="#m8f1197a011" x="320.533858" y="263.126725" style="stroke: #000000; stroke-width: 0.8"/>
      </g>
     </g>
     <g id="text_20">
      <!-- 0 -->
      <g transform="translate(307.171358 266.925944) scale(0.1 -0.1)">
       <use xlink:href="#DejaVuSans-30"/>
      </g>
     </g>
    </g>
    <g id="ytick_9">
     <g id="line2d_21">
      <g>
       <use xlink:href="#m8f1197a011" x="320.533858" y="233.881007" style="stroke: #000000; stroke-width: 0.8"/>
      </g>
     </g>
     <g id="text_21">
      <!-- 2000 -->
      <g transform="translate(288.083858 237.680226) scale(0.1 -0.1)">
       <use xlink:href="#DejaVuSans-32"/>
       <use xlink:href="#DejaVuSans-30" x="63.623047"/>
       <use xlink:href="#DejaVuSans-30" x="127.246094"/>
       <use xlink:href="#DejaVuSans-30" x="190.869141"/>
      </g>
     </g>
    </g>
    <g id="ytick_10">
     <g id="line2d_22">
      <g>
       <use xlink:href="#m8f1197a011" x="320.533858" y="204.635289" style="stroke: #000000; stroke-width: 0.8"/>
      </g>
     </g>
     <g id="text_22">
      <!-- 4000 -->
      <g transform="translate(288.083858 208.434508) scale(0.1 -0.1)">
       <defs>
        <path id="DejaVuSans-34" d="M 2419 4116 
L 825 1625 
L 2419 1625 
L 2419 4116 
z
M 2253 4666 
L 3047 4666 
L 3047 1625 
L 3713 1625 
L 3713 1100 
L 3047 1100 
L 3047 0 
L 2419 0 
L 2419 1100 
L 313 1100 
L 313 1709 
L 2253 4666 
z
" transform="scale(0.015625)"/>
       </defs>
       <use xlink:href="#DejaVuSans-34"/>
       <use xlink:href="#DejaVuSans-30" x="63.623047"/>
       <use xlink:href="#DejaVuSans-30" x="127.246094"/>
       <use xlink:href="#DejaVuSans-30" x="190.869141"/>
      </g>
     </g>
    </g>
    <g id="ytick_11">
     <g id="line2d_23">
      <g>
       <use xlink:href="#m8f1197a011" x="320.533858" y="175.389571" style="stroke: #000000; stroke-width: 0.8"/>
      </g>
     </g>
     <g id="text_23">
      <!-- 6000 -->
      <g transform="translate(288.083858 179.18879) scale(0.1 -0.1)">
       <defs>
        <path id="DejaVuSans-36" d="M 2113 2584 
Q 1688 2584 1439 2293 
Q 1191 2003 1191 1497 
Q 1191 994 1439 701 
Q 1688 409 2113 409 
Q 2538 409 2786 701 
Q 3034 994 3034 1497 
Q 3034 2003 2786 2293 
Q 2538 2584 2113 2584 
z
M 3366 4563 
L 3366 3988 
Q 3128 4100 2886 4159 
Q 2644 4219 2406 4219 
Q 1781 4219 1451 3797 
Q 1122 3375 1075 2522 
Q 1259 2794 1537 2939 
Q 1816 3084 2150 3084 
Q 2853 3084 3261 2657 
Q 3669 2231 3669 1497 
Q 3669 778 3244 343 
Q 2819 -91 2113 -91 
Q 1303 -91 875 529 
Q 447 1150 447 2328 
Q 447 3434 972 4092 
Q 1497 4750 2381 4750 
Q 2619 4750 2861 4703 
Q 3103 4656 3366 4563 
z
" transform="scale(0.015625)"/>
       </defs>
       <use xlink:href="#DejaVuSans-36"/>
       <use xlink:href="#DejaVuSans-30" x="63.623047"/>
       <use xlink:href="#DejaVuSans-30" x="127.246094"/>
       <use xlink:href="#DejaVuSans-30" x="190.869141"/>
      </g>
     </g>
    </g>
    <g id="ytick_12">
     <g id="line2d_24">
      <g>
       <use xlink:href="#m8f1197a011" x="320.533858" y="146.143853" style="stroke: #000000; stroke-width: 0.8"/>
      </g>
     </g>
     <g id="text_24">
      <!-- 8000 -->
      <g transform="translate(288.083858 149.943072) scale(0.1 -0.1)">
       <defs>
        <path id="DejaVuSans-38" d="M 2034 2216 
Q 1584 2216 1326 1975 
Q 1069 1734 1069 1313 
Q 1069 891 1326 650 
Q 1584 409 2034 409 
Q 2484 409 2743 651 
Q 3003 894 3003 1313 
Q 3003 1734 2745 1975 
Q 2488 2216 2034 2216 
z
M 1403 2484 
Q 997 2584 770 2862 
Q 544 3141 544 3541 
Q 544 4100 942 4425 
Q 1341 4750 2034 4750 
Q 2731 4750 3128 4425 
Q 3525 4100 3525 3541 
Q 3525 3141 3298 2862 
Q 3072 2584 2669 2484 
Q 3125 2378 3379 2068 
Q 3634 1759 3634 1313 
Q 3634 634 3220 271 
Q 2806 -91 2034 -91 
Q 1263 -91 848 271 
Q 434 634 434 1313 
Q 434 1759 690 2068 
Q 947 2378 1403 2484 
z
M 1172 3481 
Q 1172 3119 1398 2916 
Q 1625 2713 2034 2713 
Q 2441 2713 2670 2916 
Q 2900 3119 2900 3481 
Q 2900 3844 2670 4047 
Q 2441 4250 2034 4250 
Q 1625 4250 1398 4047 
Q 1172 3844 1172 3481 
z
" transform="scale(0.015625)"/>
       </defs>
       <use xlink:href="#DejaVuSans-38"/>
       <use xlink:href="#DejaVuSans-30" x="63.623047"/>
       <use xlink:href="#DejaVuSans-30" x="127.246094"/>
       <use xlink:href="#DejaVuSans-30" x="190.869141"/>
      </g>
     </g>
    </g>
    <g id="ytick_13">
     <g id="line2d_25">
      <g>
       <use xlink:href="#m8f1197a011" x="320.533858" y="116.898135" style="stroke: #000000; stroke-width: 0.8"/>
      </g>
     </g>
     <g id="text_25">
      <!-- 10000 -->
      <g transform="translate(281.721358 120.697354) scale(0.1 -0.1)">
       <use xlink:href="#DejaVuSans-31"/>
       <use xlink:href="#DejaVuSans-30" x="63.623047"/>
       <use xlink:href="#DejaVuSans-30" x="127.246094"/>
       <use xlink:href="#DejaVuSans-30" x="190.869141"/>
       <use xlink:href="#DejaVuSans-30" x="254.492188"/>
      </g>
     </g>
    </g>
    <g id="ytick_14">
     <g id="line2d_26">
      <g>
       <use xlink:href="#m8f1197a011" x="320.533858" y="87.652417" style="stroke: #000000; stroke-width: 0.8"/>
      </g>
     </g>
     <g id="text_26">
      <!-- 12000 -->
      <g transform="translate(281.721358 91.451636) scale(0.1 -0.1)">
       <use xlink:href="#DejaVuSans-31"/>
       <use xlink:href="#DejaVuSans-32" x="63.623047"/>
       <use xlink:href="#DejaVuSans-30" x="127.246094"/>
       <use xlink:href="#DejaVuSans-30" x="190.869141"/>
       <use xlink:href="#DejaVuSans-30" x="254.492188"/>
      </g>
     </g>
    </g>
    <g id="ytick_15">
     <g id="line2d_27">
      <g>
       <use xlink:href="#m8f1197a011" x="320.533858" y="58.406699" style="stroke: #000000; stroke-width: 0.8"/>
      </g>
     </g>
     <g id="text_27">
      <!-- 14000 -->
      <g transform="translate(281.721358 62.205918) scale(0.1 -0.1)">
       <use xlink:href="#DejaVuSans-31"/>
       <use xlink:href="#DejaVuSans-34" x="63.623047"/>
       <use xlink:href="#DejaVuSans-30" x="127.246094"/>
       <use xlink:href="#DejaVuSans-30" x="190.869141"/>
       <use xlink:href="#DejaVuSans-30" x="254.492188"/>
      </g>
     </g>
    </g>
    <g id="ytick_16">
     <g id="line2d_28">
      <g>
       <use xlink:href="#m8f1197a011" x="320.533858" y="29.160981" style="stroke: #000000; stroke-width: 0.8"/>
      </g>
     </g>
     <g id="text_28">
      <!-- 16000 -->
      <g transform="translate(281.721358 32.9602) scale(0.1 -0.1)">
       <use xlink:href="#DejaVuSans-31"/>
       <use xlink:href="#DejaVuSans-36" x="63.623047"/>
       <use xlink:href="#DejaVuSans-30" x="127.246094"/>
       <use xlink:href="#DejaVuSans-30" x="190.869141"/>
       <use xlink:href="#DejaVuSans-30" x="254.492188"/>
      </g>
     </g>
    </g>
   </g>
   <g id="patch_137">
    <path d="M 320.533858 263.126725 
L 320.533858 24.873275 
" style="fill: none; stroke: #000000; stroke-width: 0.8; stroke-linejoin: miter; stroke-linecap: square"/>
   </g>
   <g id="patch_138">
    <path d="M 558.787308 263.126725 
L 558.787308 24.873275 
" style="fill: none; stroke: #000000; stroke-width: 0.8; stroke-linejoin: miter; stroke-linecap: square"/>
   </g>
   <g id="patch_139">
    <path d="M 320.533858 263.126725 
L 558.787308 263.126725 
" style="fill: none; stroke: #000000; stroke-width: 0.8; stroke-linejoin: miter; stroke-linecap: square"/>
   </g>
   <g id="patch_140">
    <path d="M 320.533858 24.873275 
L 558.787308 24.873275 
" style="fill: none; stroke: #000000; stroke-width: 0.8; stroke-linejoin: miter; stroke-linecap: square"/>
   </g>
  </g>
  <g id="axes_3">
   <g id="patch_141">
    <path d="M 611.979975 263.126725 
L 850.233425 263.126725 
L 850.233425 24.873275 
L 611.979975 24.873275 
L 611.979975 263.126725 
z
" style="fill: none"/>
   </g>
   <g id="matplotlib.axis_5">
    <g id="xtick_13">
     <g id="line2d_29">
      <g>
       <use xlink:href="#m414f62b363" x="621.278892" y="263.126725" style="stroke: #000000; stroke-width: 0.8"/>
      </g>
     </g>
     <g id="text_29">
      <!-- −20000 -->
      <g transform="translate(601.182798 277.725163) scale(0.1 -0.1)">
       <use xlink:href="#DejaVuSans-2212"/>
       <use xlink:href="#DejaVuSans-32" x="83.789062"/>
       <use xlink:href="#DejaVuSans-30" x="147.412109"/>
       <use xlink:href="#DejaVuSans-30" x="211.035156"/>
       <use xlink:href="#DejaVuSans-30" x="274.658203"/>
       <use xlink:href="#DejaVuSans-30" x="338.28125"/>
      </g>
     </g>
    </g>
    <g id="xtick_14">
     <g id="line2d_30">
      <g>
       <use xlink:href="#m414f62b363" x="685.247718" y="263.126725" style="stroke: #000000; stroke-width: 0.8"/>
      </g>
     </g>
     <g id="text_30">
      <!-- −10000 -->
      <g transform="translate(665.151624 277.725163) scale(0.1 -0.1)">
       <use xlink:href="#DejaVuSans-2212"/>
       <use xlink:href="#DejaVuSans-31" x="83.789062"/>
       <use xlink:href="#DejaVuSans-30" x="147.412109"/>
       <use xlink:href="#DejaVuSans-30" x="211.035156"/>
       <use xlink:href="#DejaVuSans-30" x="274.658203"/>
       <use xlink:href="#DejaVuSans-30" x="338.28125"/>
      </g>
     </g>
    </g>
    <g id="xtick_15">
     <g id="line2d_31">
      <g>
       <use xlink:href="#m414f62b363" x="749.216544" y="263.126725" style="stroke: #000000; stroke-width: 0.8"/>
      </g>
     </g>
     <g id="text_31">
      <!-- 0 -->
      <g transform="translate(746.035294 277.725163) scale(0.1 -0.1)">
       <use xlink:href="#DejaVuSans-30"/>
      </g>
     </g>
    </g>
    <g id="xtick_16">
     <g id="line2d_32">
      <g>
       <use xlink:href="#m414f62b363" x="813.18537" y="263.126725" style="stroke: #000000; stroke-width: 0.8"/>
      </g>
     </g>
     <g id="text_32">
      <!-- 10000 -->
      <g transform="translate(797.27912 277.725163) scale(0.1 -0.1)">
       <use xlink:href="#DejaVuSans-31"/>
       <use xlink:href="#DejaVuSans-30" x="63.623047"/>
       <use xlink:href="#DejaVuSans-30" x="127.246094"/>
       <use xlink:href="#DejaVuSans-30" x="190.869141"/>
       <use xlink:href="#DejaVuSans-30" x="254.492188"/>
      </g>
     </g>
    </g>
   </g>
   <g id="matplotlib.axis_6">
    <g id="ytick_17">
     <g id="line2d_33">
      <g>
       <use xlink:href="#m8f1197a011" x="611.979975" y="250.890307" style="stroke: #000000; stroke-width: 0.8"/>
      </g>
     </g>
     <g id="text_33">
      <!-- −15000 -->
      <g transform="translate(564.787788 254.689525) scale(0.1 -0.1)">
       <use xlink:href="#DejaVuSans-2212"/>
       <use xlink:href="#DejaVuSans-31" x="83.789062"/>
       <use xlink:href="#DejaVuSans-35" x="147.412109"/>
       <use xlink:href="#DejaVuSans-30" x="211.035156"/>
       <use xlink:href="#DejaVuSans-30" x="274.658203"/>
       <use xlink:href="#DejaVuSans-30" x="338.28125"/>
      </g>
     </g>
    </g>
    <g id="ytick_18">
     <g id="line2d_34">
      <g>
       <use xlink:href="#m8f1197a011" x="611.979975" y="218.905894" style="stroke: #000000; stroke-width: 0.8"/>
      </g>
     </g>
     <g id="text_34">
      <!-- −10000 -->
      <g transform="translate(564.787788 222.705112) scale(0.1 -0.1)">
       <use xlink:href="#DejaVuSans-2212"/>
       <use xlink:href="#DejaVuSans-31" x="83.789062"/>
       <use xlink:href="#DejaVuSans-30" x="147.412109"/>
       <use xlink:href="#DejaVuSans-30" x="211.035156"/>
       <use xlink:href="#DejaVuSans-30" x="274.658203"/>
       <use xlink:href="#DejaVuSans-30" x="338.28125"/>
      </g>
     </g>
    </g>
    <g id="ytick_19">
     <g id="line2d_35">
      <g>
       <use xlink:href="#m8f1197a011" x="611.979975" y="186.921481" style="stroke: #000000; stroke-width: 0.8"/>
      </g>
     </g>
     <g id="text_35">
      <!-- −5000 -->
      <g transform="translate(571.150288 190.720699) scale(0.1 -0.1)">
       <use xlink:href="#DejaVuSans-2212"/>
       <use xlink:href="#DejaVuSans-35" x="83.789062"/>
       <use xlink:href="#DejaVuSans-30" x="147.412109"/>
       <use xlink:href="#DejaVuSans-30" x="211.035156"/>
       <use xlink:href="#DejaVuSans-30" x="274.658203"/>
      </g>
     </g>
    </g>
    <g id="ytick_20">
     <g id="line2d_36">
      <g>
       <use xlink:href="#m8f1197a011" x="611.979975" y="154.937068" style="stroke: #000000; stroke-width: 0.8"/>
      </g>
     </g>
     <g id="text_36">
      <!-- 0 -->
      <g transform="translate(598.617475 158.736286) scale(0.1 -0.1)">
       <use xlink:href="#DejaVuSans-30"/>
      </g>
     </g>
    </g>
    <g id="ytick_21">
     <g id="line2d_37">
      <g>
       <use xlink:href="#m8f1197a011" x="611.979975" y="122.952655" style="stroke: #000000; stroke-width: 0.8"/>
      </g>
     </g>
     <g id="text_37">
      <!-- 5000 -->
      <g transform="translate(579.529975 126.751873) scale(0.1 -0.1)">
       <use xlink:href="#DejaVuSans-35"/>
       <use xlink:href="#DejaVuSans-30" x="63.623047"/>
       <use xlink:href="#DejaVuSans-30" x="127.246094"/>
       <use xlink:href="#DejaVuSans-30" x="190.869141"/>
      </g>
     </g>
    </g>
    <g id="ytick_22">
     <g id="line2d_38">
      <g>
       <use xlink:href="#m8f1197a011" x="611.979975" y="90.968242" style="stroke: #000000; stroke-width: 0.8"/>
      </g>
     </g>
     <g id="text_38">
      <!-- 10000 -->
      <g transform="translate(573.167475 94.76746) scale(0.1 -0.1)">
       <use xlink:href="#DejaVuSans-31"/>
       <use xlink:href="#DejaVuSans-30" x="63.623047"/>
       <use xlink:href="#DejaVuSans-30" x="127.246094"/>
       <use xlink:href="#DejaVuSans-30" x="190.869141"/>
       <use xlink:href="#DejaVuSans-30" x="254.492188"/>
      </g>
     </g>
    </g>
    <g id="ytick_23">
     <g id="line2d_39">
      <g>
       <use xlink:href="#m8f1197a011" x="611.979975" y="58.983829" style="stroke: #000000; stroke-width: 0.8"/>
      </g>
     </g>
     <g id="text_39">
      <!-- 15000 -->
      <g transform="translate(573.167475 62.783047) scale(0.1 -0.1)">
       <use xlink:href="#DejaVuSans-31"/>
       <use xlink:href="#DejaVuSans-35" x="63.623047"/>
       <use xlink:href="#DejaVuSans-30" x="127.246094"/>
       <use xlink:href="#DejaVuSans-30" x="190.869141"/>
       <use xlink:href="#DejaVuSans-30" x="254.492188"/>
      </g>
     </g>
    </g>
    <g id="ytick_24">
     <g id="line2d_40">
      <g>
       <use xlink:href="#m8f1197a011" x="611.979975" y="26.999416" style="stroke: #000000; stroke-width: 0.8"/>
      </g>
     </g>
     <g id="text_40">
      <!-- 20000 -->
      <g transform="translate(573.167475 30.798634) scale(0.1 -0.1)">
       <use xlink:href="#DejaVuSans-32"/>
       <use xlink:href="#DejaVuSans-30" x="63.623047"/>
       <use xlink:href="#DejaVuSans-30" x="127.246094"/>
       <use xlink:href="#DejaVuSans-30" x="190.869141"/>
       <use xlink:href="#DejaVuSans-30" x="254.492188"/>
      </g>
     </g>
    </g>
   </g>
   <g id="line2d_41">
    <path d="M 807.013611 225.222682 
L 801.771985 223.611059 
L 793.747534 225.558606 
L 791.200497 237.628056 
L 787.800303 237.419408 
L 786.455072 239.689435 
L 781.232775 244.373007 
L 776.42429 244.590699 
L 772.423942 245.549165 
L 767.06467 246.442542 
L 761.007367 244.229884 
L 756.360652 240.026806 
L 748.60756 243.573857 
L 739.241705 239.330116 
L 732.080348 238.194326 
L 724.506602 237.62012 
L 720.556212 236.505701 
L 713.333559 234.175531 
L 710.187915 232.029398 
L 704.263768 233.077164 
L 700.233728 228.628181 
L 696.343244 230.685653 
L 692.551912 233.895531 
L 693.6012 240.570798 
L 688.935617 242.124297 
L 687.581177 241.600807 
L 683.980399 237.366812 
L 674.531665 236.105249 
L 673.58015 236.688838 
L 664.403353 234.3253 
L 658.478724 231.924627 
L 656.127795 226.717977 
L 652.380071 226.700596 
L 642.768683 221.553159 
L 636.909493 216.504744 
L 632.872845 214.134641 
L 632.911574 207.593523 
L 629.345979 198.354805 
L 624.781637 192.523126 
L 628.265234 189.787647 
L 628.665426 185.886096 
L 622.809677 176.301353 
L 626.304543 175.181636 
L 627.976024 169.383409 
L 630.95273 167.611812 
L 627.568667 161.41765 
L 631.712576 157.929252 
L 633.327478 155.758442 
L 634.389121 149.04301 
L 640.585414 143.186785 
L 648.816181 139.662746 
L 652.022092 132.766549 
L 656.032431 128.595067 
L 659.250224 121.821261 
L 660.438614 119.879049 
L 664.936344 119.939983 
L 665.597238 116.46044 
L 669.320713 113.415836 
L 674.950444 110.751559 
L 678.660879 106.129681 
L 689.920207 101.217346 
L 695.710644 99.286177 
L 703.49854 94.922197 
L 708.981536 91.07337 
L 719.119357 88.539208 
L 724.32562 85.438216 
L 727.781642 85.93823 
L 731.874768 85.353004 
L 738.371395 82.894917 
L 739.946922 82.788906 
L 743.683194 81.859007 
L 749.847616 73.705106 
L 756.038408 67.748118 
L 759.408641 64.204169 
L 768.323483 64.196701 
L 771.356607 61.594555 
L 777.35896 59.141474 
L 780.41164 56.387938 
L 788.579932 51.826393 
L 792.460198 47.844329 
L 795.292727 44.486099 
L 798.912476 41.557458 
L 804.780779 42.290643 
L 805.989074 43.591368 
L 812.155074 44.771217 
L 815.120762 46.785841 
L 814.750985 48.644772 
L 815.436163 54.503039 
L 820.289198 54.006146 
L 823.892404 52.722282 
L 825.210424 54.398271 
L 826.772602 59.114342 
L 828.094206 60.719817 
L 827.976351 65.578888 
L 830.404622 71.028301 
L 834.630067 74.75243 
L 834.520121 80.987329 
L 839.403723 85.641061 
L 835.835335 91.161952 
L 834.964246 95.544289 
L 833.867566 103.750198 
L 829.659246 109.279378 
L 829.554836 115.514363 
L 831.699543 119.028912 
L 832.070894 124.297115 
L 831.236672 128.081626 
L 831.524156 131.505798 
L 827.439553 137.616161 
L 826.611415 147.885898 
L 825.921153 153.36798 
L 826.7543 166.643984 
L 828.419063 176.609003 
L 827.045077 179.659231 
L 827.587865 180.381147 
L 830.316125 184.721752 
L 832.345115 188.338449 
L 835.548557 194.351821 
L 834.602526 197.687236 
L 836.330455 201.915619 
L 835.590064 204.826795 
L 831.76867 207.181835 
L 828.727594 211.839145 
L 823.156343 214.058815 
L 821.37975 215.438436 
L 817.661272 219.499724 
L 813.396231 220.73753 
L 813.396231 220.73753 
" clip-path="url(#p61aec62e61)" style="fill: none; stroke: #000000; stroke-width: 0.5; stroke-linecap: square"/>
   </g>
   <g id="patch_142">
    <path d="M 611.979975 263.126725 
L 611.979975 24.873275 
" style="fill: none; stroke: #000000; stroke-width: 0.8; stroke-linejoin: miter; stroke-linecap: square"/>
   </g>
   <g id="patch_143">
    <path d="M 850.233425 263.126725 
L 850.233425 24.873275 
" style="fill: none; stroke: #000000; stroke-width: 0.8; stroke-linejoin: miter; stroke-linecap: square"/>
   </g>
   <g id="patch_144">
    <path d="M 611.979975 263.126725 
L 850.233425 263.126725 
" style="fill: none; stroke: #000000; stroke-width: 0.8; stroke-linejoin: miter; stroke-linecap: square"/>
   </g>
   <g id="patch_145">
    <path d="M 611.979975 24.873275 
L 850.233425 24.873275 
" style="fill: none; stroke: #000000; stroke-width: 0.8; stroke-linejoin: miter; stroke-linecap: square"/>
   </g>
  </g>
 </g>
 <defs>
  <clipPath id="pa3d1dd2a93">
   <rect x="320.533858" y="24.873275" width="238.25345" height="238.25345"/>
  </clipPath>
  <clipPath id="p61aec62e61">
   <rect x="611.979975" y="24.873275" width="238.25345" height="238.25345"/>
  </clipPath>
 </defs>
</svg>
