<?xml version="1.0" encoding="utf-8" standalone="no"?>
<!DOCTYPE svg PUBLIC "-//W3C//DTD SVG 1.1//EN"
  "http://www.w3.org/Graphics/SVG/1.1/DTD/svg11.dtd">
<svg xmlns:xlink="http://www.w3.org/1999/xlink" width="460.8pt" height="345.6pt" viewBox="0 0 460.8 345.6" xmlns="http://www.w3.org/2000/svg" version="1.1">
 <metadata>
  <rdf:RDF xmlns:dc="http://purl.org/dc/elements/1.1/" xmlns:cc="http://creativecommons.org/ns#" xmlns:rdf="http://www.w3.org/1999/02/22-rdf-syntax-ns#">
   <cc:Work>
    <dc:type rdf:resource="http://purl.org/dc/dcmitype/StillImage"/>
    <dc:date>2024-10-18T17:35:00.523264</dc:date>
    <dc:format>image/svg+xml</dc:format>
    <dc:creator>
     <cc:Agent>
      <dc:title>Matplotlib v3.9.1, https://matplotlib.org/</dc:title>
     </cc:Agent>
    </dc:creator>
   </cc:Work>
  </rdf:RDF>
 </metadata>
 <defs>
  <style type="text/css">*{stroke-linejoin: round; stroke-linecap: butt}</style>
 </defs>
 <g id="figure_1">
  <g id="patch_1">
   <path d="M 0 345.6 
L 460.8 345.6 
L 460.8 0 
L 0 0 
z
" style="fill: #ffffff"/>
  </g>
  <g id="axes_1">
   <g id="patch_2">
    <path d="M 33.68899 261.586244 
L 229.235854 261.586244 
L 229.235854 66.039381 
L 33.68899 66.039381 
z
" style="fill: #ffffff"/>
   </g>
   <g id="patch_3">
    <path d="M 154.672024 208.228421 
L 157.452712 208.325807 
L 162.180711 209.039809 
L 165.135649 209.118744 
L 167.511748 208.248014 
L 170.231189 207.849549 
L 173.55415 207.305334 
L 176.935902 206.393198 
L 180.520826 205.827083 
L 182.295689 204.966058 
L 183.950674 203.667508 
L 185.808242 202.711082 
L 186.937602 200.107773 
L 187.814527 197.617391 
L 188.056803 195.199338 
L 187.637972 193.145641 
L 186.36103 192.044302 
L 185.421023 188.847209 
L 185.427738 185.714057 
L 185.694701 182.233776 
L 184.785067 178.953129 
L 182.748848 175.565628 
L 180.686219 172.312384 
L 177.76256 169.368418 
L 175.560555 167.728142 
L 174.191653 166.209804 
L 172.609038 165.397456 
L 171.466417 165.133087 
L 170.152259 165.046331 
L 168.104459 164.448994 
L 168.0206 162.932644 
L 167.688552 161.340715 
L 166.68021 159.745656 
L 166.944324 157.870097 
L 167.003192 155.102086 
L 166.112976 152.944645 
L 165.785092 150.519558 
L 165.569922 148.163154 
L 165.194225 146.10296 
L 164.202123 143.685068 
L 161.897923 141.886475 
L 159.848517 140.09232 
L 158.230481 138.415377 
L 156.622196 135.984601 
L 155.664063 133.621915 
L 154.886854 131.253011 
L 153.444405 128.147223 
L 151.956553 125.015546 
L 150.755402 121.781096 
L 148.972457 119.051057 
L 146.600395 116.047046 
L 145.144579 113.295067 
L 141.557922 110.783696 
L 137.588324 108.806519 
L 134.717645 107.669735 
L 132.168681 106.703318 
L 129.454395 105.602182 
L 126.844062 104.326292 
L 123.062505 104.233475 
L 119.563763 106.038293 
L 117.378669 106.660799 
L 115.399683 107.98078 
L 112.706882 109.746426 
L 110.085281 111.151837 
L 107.328476 112.715781 
L 104.119848 114.850619 
L 102.135447 117.082422 
L 100.96354 119.22543 
L 100.010059 121.349524 
L 99.283983 122.778831 
L 98.803723 123.758633 
L 96.866567 123.910458 
L 95.225423 124.511142 
L 92.694809 125.707944 
L 89.861895 127.425418 
L 88.571855 129.032142 
L 88.746867 130.719438 
L 88.61345 132.544446 
L 88.197782 135.130741 
L 87.643717 137.539791 
L 86.37495 139.388449 
L 85.894137 141.93488 
L 85.840892 144.651111 
L 86.36173 146.700189 
L 85.471591 148.304226 
L 85.290998 150.707063 
L 85.979986 153.000182 
L 85.021679 156.536612 
L 83.915586 161.164318 
L 83.537125 164.015062 
L 83.786508 166.058308 
L 85.083669 168.274244 
L 86.611733 170.158565 
L 88.151163 172.471153 
L 87.865595 174.030609 
L 88.600696 176.700005 
L 89.486149 179.152213 
L 89.749978 180.707998 
L 91.061063 182.230322 
L 92.169455 183.55431 
L 93.779398 185.449261 
L 96.337007 187.392599 
L 98.239641 188.627539 
L 99.662575 190.216869 
L 98.80967 190.814992 
L 98.904405 192.578849 
L 99.604248 193.995642 
L 99.89994 194.854147 
L 100.590099 195.697371 
L 101.619599 198.533047 
L 102.437721 201.132442 
L 102.95799 202.287169 
L 104.549426 203.613132 
L 106.799936 204.737114 
L 109.228885 205.45992 
L 111.471244 206.189272 
L 114.700348 207.947944 
L 118.824455 208.171253 
L 122.537551 208.207142 
L 126.354455 207.581785 
L 130.161979 207.934006 
L 134.068618 208.129512 
L 138.034303 207.553012 
L 141.455909 207.219762 
L 144.017039 206.836082 
L 146.445548 206.618635 
L 149.080514 206.102682 
L 151.874534 206.682106 
L 154.672024 208.228421 
" style="fill: #00ffff; stroke: #000000; stroke-width: 2; stroke-linejoin: miter"/>
   </g>
   <g id="patch_4">
    <path d="M 125.118673 239.413737 
L 196.108597 196.644136 
L 135.366733 95.823454 
L 64.376809 138.593054 
L 125.118673 239.413737 
" style="fill: none; stroke-dasharray: 6.4,1.6,1,1.6; stroke-dashoffset: 0; stroke: #ff0000; stroke-linejoin: miter"/>
   </g>
   <g id="matplotlib.axis_1">
    <g id="xtick_1">
     <g id="line2d_1">
      <defs>
       <path id="m69178f27e7" d="M 0 0 
L 0 3.5 
" style="stroke: #000000; stroke-width: 0.8"/>
      </defs>
      <g>
       <use xlink:href="#m69178f27e7" x="33.68899" y="261.586244" style="stroke: #000000; stroke-width: 0.8"/>
      </g>
     </g>
     <g id="text_1">
      <!-- −2 -->
      <g transform="translate(26.848053 277.175619) scale(0.12 -0.12)">
       <defs>
        <path id="ArialMT-2212" d="M 3381 1997 
L 356 1997 
L 356 2522 
L 3381 2522 
L 3381 1997 
z
" transform="scale(0.015625)"/>
        <path id="ArialMT-32" d="M 3222 541 
L 3222 0 
L 194 0 
Q 188 203 259 391 
Q 375 700 629 1000 
Q 884 1300 1366 1694 
Q 2113 2306 2375 2664 
Q 2638 3022 2638 3341 
Q 2638 3675 2398 3904 
Q 2159 4134 1775 4134 
Q 1369 4134 1125 3890 
Q 881 3647 878 3216 
L 300 3275 
Q 359 3922 746 4261 
Q 1134 4600 1788 4600 
Q 2447 4600 2831 4234 
Q 3216 3869 3216 3328 
Q 3216 3053 3103 2787 
Q 2991 2522 2730 2228 
Q 2469 1934 1863 1422 
Q 1356 997 1212 845 
Q 1069 694 975 541 
L 3222 541 
z
" transform="scale(0.015625)"/>
       </defs>
       <use xlink:href="#ArialMT-2212"/>
       <use xlink:href="#ArialMT-32" x="58.398438"/>
      </g>
     </g>
    </g>
    <g id="xtick_2">
     <g id="line2d_2">
      <g>
       <use xlink:href="#m69178f27e7" x="82.575706" y="261.586244" style="stroke: #000000; stroke-width: 0.8"/>
      </g>
     </g>
     <g id="text_2">
      <!-- −1 -->
      <g transform="translate(75.734768 277.175619) scale(0.12 -0.12)">
       <defs>
        <path id="ArialMT-31" d="M 2384 0 
L 1822 0 
L 1822 3584 
Q 1619 3391 1289 3197 
Q 959 3003 697 2906 
L 697 3450 
Q 1169 3672 1522 3987 
Q 1875 4303 2022 4600 
L 2384 4600 
L 2384 0 
z
" transform="scale(0.015625)"/>
       </defs>
       <use xlink:href="#ArialMT-2212"/>
       <use xlink:href="#ArialMT-31" x="58.398438"/>
      </g>
     </g>
    </g>
    <g id="xtick_3">
     <g id="line2d_3">
      <g>
       <use xlink:href="#m69178f27e7" x="131.462422" y="261.586244" style="stroke: #000000; stroke-width: 0.8"/>
      </g>
     </g>
     <g id="text_3">
      <!-- 0 -->
      <g transform="translate(128.125859 277.175619) scale(0.12 -0.12)">
       <defs>
        <path id="ArialMT-30" d="M 266 2259 
Q 266 3072 433 3567 
Q 600 4063 929 4331 
Q 1259 4600 1759 4600 
Q 2128 4600 2406 4451 
Q 2684 4303 2865 4023 
Q 3047 3744 3150 3342 
Q 3253 2941 3253 2259 
Q 3253 1453 3087 958 
Q 2922 463 2592 192 
Q 2263 -78 1759 -78 
Q 1097 -78 719 397 
Q 266 969 266 2259 
z
M 844 2259 
Q 844 1131 1108 757 
Q 1372 384 1759 384 
Q 2147 384 2411 759 
Q 2675 1134 2675 2259 
Q 2675 3391 2411 3762 
Q 2147 4134 1753 4134 
Q 1366 4134 1134 3806 
Q 844 3388 844 2259 
z
" transform="scale(0.015625)"/>
       </defs>
       <use xlink:href="#ArialMT-30"/>
      </g>
     </g>
    </g>
    <g id="xtick_4">
     <g id="line2d_4">
      <g>
       <use xlink:href="#m69178f27e7" x="180.349138" y="261.586244" style="stroke: #000000; stroke-width: 0.8"/>
      </g>
     </g>
     <g id="text_4">
      <!-- 1 -->
      <g transform="translate(177.012575 277.175619) scale(0.12 -0.12)">
       <use xlink:href="#ArialMT-31"/>
      </g>
     </g>
    </g>
    <g id="xtick_5">
     <g id="line2d_5">
      <g>
       <use xlink:href="#m69178f27e7" x="229.235854" y="261.586244" style="stroke: #000000; stroke-width: 0.8"/>
      </g>
     </g>
     <g id="text_5">
      <!-- 2 -->
      <g transform="translate(225.899291 277.175619) scale(0.12 -0.12)">
       <use xlink:href="#ArialMT-32"/>
      </g>
     </g>
    </g>
   </g>
   <g id="matplotlib.axis_2">
    <g id="ytick_1">
     <g id="line2d_6">
      <defs>
       <path id="md5702ea698" d="M 0 0 
L -3.5 0 
" style="stroke: #000000; stroke-width: 0.8"/>
      </defs>
      <g>
       <use xlink:href="#md5702ea698" x="33.68899" y="261.586244" style="stroke: #000000; stroke-width: 0.8"/>
      </g>
     </g>
     <g id="text_6">
      <!-- −2.0 -->
      <g transform="translate(3.00024 265.880932) scale(0.12 -0.12)">
       <defs>
        <path id="ArialMT-2e" d="M 581 0 
L 581 641 
L 1222 641 
L 1222 0 
L 581 0 
z
" transform="scale(0.015625)"/>
       </defs>
       <use xlink:href="#ArialMT-2212"/>
       <use xlink:href="#ArialMT-32" x="58.398438"/>
       <use xlink:href="#ArialMT-2e" x="114.013672"/>
       <use xlink:href="#ArialMT-30" x="141.796875"/>
      </g>
     </g>
    </g>
    <g id="ytick_2">
     <g id="line2d_7">
      <g>
       <use xlink:href="#md5702ea698" x="33.68899" y="237.142886" style="stroke: #000000; stroke-width: 0.8"/>
      </g>
     </g>
     <g id="text_7">
      <!-- −1.5 -->
      <g transform="translate(3.00024 241.437574) scale(0.12 -0.12)">
       <defs>
        <path id="ArialMT-35" d="M 266 1200 
L 856 1250 
Q 922 819 1161 601 
Q 1400 384 1738 384 
Q 2144 384 2425 690 
Q 2706 997 2706 1503 
Q 2706 1984 2436 2262 
Q 2166 2541 1728 2541 
Q 1456 2541 1237 2417 
Q 1019 2294 894 2097 
L 366 2166 
L 809 4519 
L 3088 4519 
L 3088 3981 
L 1259 3981 
L 1013 2750 
Q 1425 3038 1878 3038 
Q 2478 3038 2890 2622 
Q 3303 2206 3303 1553 
Q 3303 931 2941 478 
Q 2500 -78 1738 -78 
Q 1113 -78 717 272 
Q 322 622 266 1200 
z
" transform="scale(0.015625)"/>
       </defs>
       <use xlink:href="#ArialMT-2212"/>
       <use xlink:href="#ArialMT-31" x="58.398438"/>
       <use xlink:href="#ArialMT-2e" x="114.013672"/>
       <use xlink:href="#ArialMT-35" x="141.796875"/>
      </g>
     </g>
    </g>
    <g id="ytick_3">
     <g id="line2d_8">
      <g>
       <use xlink:href="#md5702ea698" x="33.68899" y="212.699528" style="stroke: #000000; stroke-width: 0.8"/>
      </g>
     </g>
     <g id="text_8">
      <!-- −1.0 -->
      <g transform="translate(3.00024 216.994216) scale(0.12 -0.12)">
       <use xlink:href="#ArialMT-2212"/>
       <use xlink:href="#ArialMT-31" x="58.398438"/>
       <use xlink:href="#ArialMT-2e" x="114.013672"/>
       <use xlink:href="#ArialMT-30" x="141.796875"/>
      </g>
     </g>
    </g>
    <g id="ytick_4">
     <g id="line2d_9">
      <g>
       <use xlink:href="#md5702ea698" x="33.68899" y="188.25617" style="stroke: #000000; stroke-width: 0.8"/>
      </g>
     </g>
     <g id="text_9">
      <!-- −0.5 -->
      <g transform="translate(3.00024 192.550858) scale(0.12 -0.12)">
       <use xlink:href="#ArialMT-2212"/>
       <use xlink:href="#ArialMT-30" x="58.398438"/>
       <use xlink:href="#ArialMT-2e" x="114.013672"/>
       <use xlink:href="#ArialMT-35" x="141.796875"/>
      </g>
     </g>
    </g>
    <g id="ytick_5">
     <g id="line2d_10">
      <g>
       <use xlink:href="#md5702ea698" x="33.68899" y="163.812813" style="stroke: #000000; stroke-width: 0.8"/>
      </g>
     </g>
     <g id="text_10">
      <!-- 0.0 -->
      <g transform="translate(10.00899 168.1075) scale(0.12 -0.12)">
       <use xlink:href="#ArialMT-30"/>
       <use xlink:href="#ArialMT-2e" x="55.615234"/>
       <use xlink:href="#ArialMT-30" x="83.398438"/>
      </g>
     </g>
    </g>
    <g id="ytick_6">
     <g id="line2d_11">
      <g>
       <use xlink:href="#md5702ea698" x="33.68899" y="139.369455" style="stroke: #000000; stroke-width: 0.8"/>
      </g>
     </g>
     <g id="text_11">
      <!-- 0.5 -->
      <g transform="translate(10.00899 143.664142) scale(0.12 -0.12)">
       <use xlink:href="#ArialMT-30"/>
       <use xlink:href="#ArialMT-2e" x="55.615234"/>
       <use xlink:href="#ArialMT-35" x="83.398438"/>
      </g>
     </g>
    </g>
    <g id="ytick_7">
     <g id="line2d_12">
      <g>
       <use xlink:href="#md5702ea698" x="33.68899" y="114.926097" style="stroke: #000000; stroke-width: 0.8"/>
      </g>
     </g>
     <g id="text_12">
      <!-- 1.0 -->
      <g transform="translate(10.00899 119.220784) scale(0.12 -0.12)">
       <use xlink:href="#ArialMT-31"/>
       <use xlink:href="#ArialMT-2e" x="55.615234"/>
       <use xlink:href="#ArialMT-30" x="83.398438"/>
      </g>
     </g>
    </g>
    <g id="ytick_8">
     <g id="line2d_13">
      <g>
       <use xlink:href="#md5702ea698" x="33.68899" y="90.482739" style="stroke: #000000; stroke-width: 0.8"/>
      </g>
     </g>
     <g id="text_13">
      <!-- 1.5 -->
      <g transform="translate(10.00899 94.777426) scale(0.12 -0.12)">
       <use xlink:href="#ArialMT-31"/>
       <use xlink:href="#ArialMT-2e" x="55.615234"/>
       <use xlink:href="#ArialMT-35" x="83.398438"/>
      </g>
     </g>
    </g>
    <g id="ytick_9">
     <g id="line2d_14">
      <g>
       <use xlink:href="#md5702ea698" x="33.68899" y="66.039381" style="stroke: #000000; stroke-width: 0.8"/>
      </g>
     </g>
     <g id="text_14">
      <!-- 2.0 -->
      <g transform="translate(10.00899 70.334068) scale(0.12 -0.12)">
       <use xlink:href="#ArialMT-32"/>
       <use xlink:href="#ArialMT-2e" x="55.615234"/>
       <use xlink:href="#ArialMT-30" x="83.398438"/>
      </g>
     </g>
    </g>
   </g>
   <g id="line2d_15">
    <path d="M 33.68899 163.812813 
L 229.235854 163.812813 
" clip-path="url(#p22c1bd5345)" style="fill: none; stroke-dasharray: 3.7,1.6; stroke-dashoffset: 0; stroke: #0000ff"/>
   </g>
   <g id="line2d_16">
    <path d="M 131.462422 261.586244 
L 131.462422 66.039381 
" clip-path="url(#p22c1bd5345)" style="fill: none; stroke-dasharray: 3.7,1.6; stroke-dashoffset: 0; stroke: #0000ff"/>
   </g>
   <g id="patch_5">
    <path d="M 33.68899 261.586244 
L 33.68899 66.039381 
" style="fill: none; stroke: #000000; stroke-width: 0.8; stroke-linejoin: miter; stroke-linecap: square"/>
   </g>
   <g id="patch_6">
    <path d="M 229.235854 261.586244 
L 229.235854 66.039381 
" style="fill: none; stroke: #000000; stroke-width: 0.8; stroke-linejoin: miter; stroke-linecap: square"/>
   </g>
   <g id="patch_7">
    <path d="M 33.68899 261.586244 
L 229.235854 261.586244 
" style="fill: none; stroke: #000000; stroke-width: 0.8; stroke-linejoin: miter; stroke-linecap: square"/>
   </g>
   <g id="patch_8">
    <path d="M 33.68899 66.039381 
L 229.235854 66.039381 
" style="fill: none; stroke: #000000; stroke-width: 0.8; stroke-linejoin: miter; stroke-linecap: square"/>
   </g>
  </g>
  <g id="axes_2">
   <g id="patch_9">
    <path d="M 262.252896 324.625385 
L 457.79976 324.625385 
L 457.79976 3.00024 
L 262.252896 3.00024 
z
" style="fill: #ffffff"/>
   </g>
   <g id="patch_10">
    <path d="M 360.165428 324.625385 
L 361.278229 324.625385 
L 361.278229 324.625385 
L 360.165428 324.625385 
z
" clip-path="url(#p22e5f9ec5c)" style="fill: #1f77b4"/>
   </g>
   <g id="patch_11">
    <path d="M 361.556429 324.625385 
L 362.669229 324.625385 
L 362.669229 18.315723 
L 361.556429 18.315723 
z
" clip-path="url(#p22e5f9ec5c)" style="fill: #1f77b4"/>
   </g>
   <g id="patch_12">
    <path d="M 362.947429 324.625385 
L 364.06023 324.625385 
L 364.06023 324.625385 
L 362.947429 324.625385 
z
" clip-path="url(#p22e5f9ec5c)" style="fill: #1f77b4"/>
   </g>
   <g id="patch_13">
    <path d="M 364.33843 324.625385 
L 365.45123 324.625385 
L 365.45123 298.895373 
L 364.33843 298.895373 
z
" clip-path="url(#p22e5f9ec5c)" style="fill: #1f77b4"/>
   </g>
   <g id="patch_14">
    <path d="M 365.729431 324.625385 
L 366.842231 324.625385 
L 366.842231 310.152253 
L 365.729431 310.152253 
z
" clip-path="url(#p22e5f9ec5c)" style="fill: #1f77b4"/>
   </g>
   <g id="patch_15">
    <path d="M 367.120431 324.625385 
L 368.233232 324.625385 
L 368.233232 315.362581 
L 367.120431 315.362581 
z
" clip-path="url(#p22e5f9ec5c)" style="fill: #1f77b4"/>
   </g>
   <g id="patch_16">
    <path d="M 368.511432 324.625385 
L 369.624232 324.625385 
L 369.624232 318.192882 
L 368.511432 318.192882 
z
" clip-path="url(#p22e5f9ec5c)" style="fill: #1f77b4"/>
   </g>
   <g id="patch_17">
    <path d="M 369.902432 324.625385 
L 371.015233 324.625385 
L 371.015233 319.899465 
L 369.902432 319.899465 
z
" clip-path="url(#p22e5f9ec5c)" style="fill: #1f77b4"/>
   </g>
   <g id="patch_18">
    <path d="M 371.293433 324.625385 
L 372.406233 324.625385 
L 372.406233 321.007102 
L 371.293433 321.007102 
z
" clip-path="url(#p22e5f9ec5c)" style="fill: #1f77b4"/>
   </g>
   <g id="patch_19">
    <path d="M 372.684434 324.625385 
L 373.797234 324.625385 
L 373.797234 321.766495 
L 372.684434 321.766495 
z
" clip-path="url(#p22e5f9ec5c)" style="fill: #1f77b4"/>
   </g>
   <g id="patch_20">
    <path d="M 374.075434 324.625385 
L 375.188235 324.625385 
L 375.188235 322.309684 
L 374.075434 322.309684 
z
" clip-path="url(#p22e5f9ec5c)" style="fill: #1f77b4"/>
   </g>
   <g id="patch_21">
    <path d="M 375.466435 324.625385 
L 376.579235 324.625385 
L 376.579235 322.711582 
L 375.466435 322.711582 
z
" clip-path="url(#p22e5f9ec5c)" style="fill: #1f77b4"/>
   </g>
   <g id="patch_22">
    <path d="M 376.857435 324.625385 
L 377.970236 324.625385 
L 377.970236 323.017259 
L 376.857435 323.017259 
z
" clip-path="url(#p22e5f9ec5c)" style="fill: #1f77b4"/>
   </g>
   <g id="patch_23">
    <path d="M 378.248436 324.625385 
L 379.361236 324.625385 
L 379.361236 323.255148 
L 378.248436 323.255148 
z
" clip-path="url(#p22e5f9ec5c)" style="fill: #1f77b4"/>
   </g>
   <g id="patch_24">
    <path d="M 379.639437 324.625385 
L 380.752237 324.625385 
L 380.752237 323.443905 
L 379.639437 323.443905 
z
" clip-path="url(#p22e5f9ec5c)" style="fill: #1f77b4"/>
   </g>
   <g id="patch_25">
    <path d="M 381.030437 324.625385 
L 382.143238 324.625385 
L 382.143238 323.596185 
L 381.030437 323.596185 
z
" clip-path="url(#p22e5f9ec5c)" style="fill: #1f77b4"/>
   </g>
   <g id="patch_26">
    <path d="M 382.421438 324.625385 
L 383.534238 324.625385 
L 383.534238 323.430777 
L 382.421438 323.430777 
z
" clip-path="url(#p22e5f9ec5c)" style="fill: #1f77b4"/>
   </g>
   <g id="patch_27">
    <path d="M 383.812438 324.625385 
L 384.925239 324.625385 
L 384.925239 323.567186 
L 383.812438 323.567186 
z
" clip-path="url(#p22e5f9ec5c)" style="fill: #1f77b4"/>
   </g>
   <g id="patch_28">
    <path d="M 385.203439 324.625385 
L 386.316239 324.625385 
L 386.316239 323.681497 
L 385.203439 323.681497 
z
" clip-path="url(#p22e5f9ec5c)" style="fill: #1f77b4"/>
   </g>
   <g id="patch_29">
    <path d="M 386.59444 324.625385 
L 387.70724 324.625385 
L 387.70724 323.778239 
L 386.59444 323.778239 
z
" clip-path="url(#p22e5f9ec5c)" style="fill: #1f77b4"/>
   </g>
   <g id="patch_30">
    <path d="M 387.98544 324.625385 
L 389.098241 324.625385 
L 389.098241 323.860836 
L 387.98544 323.860836 
z
" clip-path="url(#p22e5f9ec5c)" style="fill: #1f77b4"/>
   </g>
   <g id="patch_31">
    <path d="M 389.376441 324.625385 
L 390.489241 324.625385 
L 390.489241 323.931917 
L 389.376441 323.931917 
z
" clip-path="url(#p22e5f9ec5c)" style="fill: #1f77b4"/>
   </g>
   <g id="patch_32">
    <path d="M 390.767441 324.625385 
L 391.880242 324.625385 
L 391.880242 323.993526 
L 390.767441 323.993526 
z
" clip-path="url(#p22e5f9ec5c)" style="fill: #1f77b4"/>
   </g>
   <g id="patch_33">
    <path d="M 392.158442 324.625385 
L 393.271242 324.625385 
L 393.271242 324.047276 
L 392.158442 324.047276 
z
" clip-path="url(#p22e5f9ec5c)" style="fill: #1f77b4"/>
   </g>
   <g id="patch_34">
    <path d="M 393.549442 324.625385 
L 394.662243 324.625385 
L 394.662243 324.094448 
L 393.549442 324.094448 
z
" clip-path="url(#p22e5f9ec5c)" style="fill: #1f77b4"/>
   </g>
   <g id="patch_35">
    <path d="M 394.940443 324.625385 
L 396.053244 324.625385 
L 396.053244 324.136074 
L 394.940443 324.136074 
z
" clip-path="url(#p22e5f9ec5c)" style="fill: #1f77b4"/>
   </g>
   <g id="patch_36">
    <path d="M 396.331444 324.625385 
L 397.444244 324.625385 
L 397.444244 324.172989 
L 396.331444 324.172989 
z
" clip-path="url(#p22e5f9ec5c)" style="fill: #1f77b4"/>
   </g>
   <g id="patch_37">
    <path d="M 397.722444 324.625385 
L 398.835245 324.625385 
L 398.835245 324.205879 
L 397.722444 324.205879 
z
" clip-path="url(#p22e5f9ec5c)" style="fill: #1f77b4"/>
   </g>
   <g id="patch_38">
    <path d="M 399.113445 324.625385 
L 400.226245 324.625385 
L 400.226245 324.235309 
L 399.113445 324.235309 
z
" clip-path="url(#p22e5f9ec5c)" style="fill: #1f77b4"/>
   </g>
   <g id="patch_39">
    <path d="M 400.504445 324.625385 
L 401.617246 324.625385 
L 401.617246 324.261747 
L 400.504445 324.261747 
z
" clip-path="url(#p22e5f9ec5c)" style="fill: #1f77b4"/>
   </g>
   <g id="patch_40">
    <path d="M 401.895446 324.625385 
L 403.008247 324.625385 
L 403.008247 324.285585 
L 401.895446 324.285585 
z
" clip-path="url(#p22e5f9ec5c)" style="fill: #1f77b4"/>
   </g>
   <g id="patch_41">
    <path d="M 403.286447 324.625385 
L 404.399247 324.625385 
L 404.399247 324.307154 
L 403.286447 324.307154 
z
" clip-path="url(#p22e5f9ec5c)" style="fill: #1f77b4"/>
   </g>
   <g id="patch_42">
    <path d="M 404.677447 324.625385 
L 405.790248 324.625385 
L 405.790248 324.326733 
L 404.677447 324.326733 
z
" clip-path="url(#p22e5f9ec5c)" style="fill: #1f77b4"/>
   </g>
   <g id="patch_43">
    <path d="M 406.068448 324.625385 
L 407.181248 324.625385 
L 407.181248 324.344559 
L 406.068448 324.344559 
z
" clip-path="url(#p22e5f9ec5c)" style="fill: #1f77b4"/>
   </g>
   <g id="patch_44">
    <path d="M 407.459448 324.625385 
L 408.572249 324.625385 
L 408.572249 324.360835 
L 407.459448 324.360835 
z
" clip-path="url(#p22e5f9ec5c)" style="fill: #1f77b4"/>
   </g>
   <g id="patch_45">
    <path d="M 408.850449 324.625385 
L 409.96325 324.625385 
L 409.96325 324.375736 
L 408.850449 324.375736 
z
" clip-path="url(#p22e5f9ec5c)" style="fill: #1f77b4"/>
   </g>
   <g id="patch_46">
    <path d="M 410.24145 324.625385 
L 411.35425 324.625385 
L 411.35425 324.389413 
L 410.24145 324.389413 
z
" clip-path="url(#p22e5f9ec5c)" style="fill: #1f77b4"/>
   </g>
   <g id="patch_47">
    <path d="M 411.63245 324.625385 
L 412.745251 324.625385 
L 412.745251 324.288444 
L 411.63245 324.288444 
z
" clip-path="url(#p22e5f9ec5c)" style="fill: #1f77b4"/>
   </g>
   <g id="patch_48">
    <path d="M 413.023451 324.625385 
L 414.136251 324.625385 
L 414.136251 324.305945 
L 413.023451 324.305945 
z
" clip-path="url(#p22e5f9ec5c)" style="fill: #1f77b4"/>
   </g>
   <g id="patch_49">
    <path d="M 414.414451 324.625385 
L 415.527252 324.625385 
L 415.527252 324.322116 
L 414.414451 324.322116 
z
" clip-path="url(#p22e5f9ec5c)" style="fill: #1f77b4"/>
   </g>
   <g id="patch_50">
    <path d="M 415.805452 324.625385 
L 416.918252 324.625385 
L 416.918252 324.33709 
L 415.805452 324.33709 
z
" clip-path="url(#p22e5f9ec5c)" style="fill: #1f77b4"/>
   </g>
   <g id="patch_51">
    <path d="M 417.196453 324.625385 
L 418.309253 324.625385 
L 418.309253 324.350982 
L 417.196453 324.350982 
z
" clip-path="url(#p22e5f9ec5c)" style="fill: #1f77b4"/>
   </g>
   <g id="patch_52">
    <path d="M 418.587453 324.625385 
L 419.700254 324.625385 
L 419.700254 324.363893 
L 418.587453 324.363893 
z
" clip-path="url(#p22e5f9ec5c)" style="fill: #1f77b4"/>
   </g>
   <g id="patch_53">
    <path d="M 419.978454 324.625385 
L 421.091254 324.625385 
L 421.091254 324.375914 
L 419.978454 324.375914 
z
" clip-path="url(#p22e5f9ec5c)" style="fill: #1f77b4"/>
   </g>
   <g id="patch_54">
    <path d="M 421.369454 324.625385 
L 422.482255 324.625385 
L 422.482255 324.387125 
L 421.369454 324.387125 
z
" clip-path="url(#p22e5f9ec5c)" style="fill: #1f77b4"/>
   </g>
   <g id="patch_55">
    <path d="M 422.760455 324.625385 
L 423.873255 324.625385 
L 423.873255 324.397596 
L 422.760455 324.397596 
z
" clip-path="url(#p22e5f9ec5c)" style="fill: #1f77b4"/>
   </g>
   <g id="patch_56">
    <path d="M 424.151456 324.625385 
L 425.264256 324.625385 
L 425.264256 324.407393 
L 424.151456 324.407393 
z
" clip-path="url(#p22e5f9ec5c)" style="fill: #1f77b4"/>
   </g>
   <g id="patch_57">
    <path d="M 425.542456 324.625385 
L 426.655257 324.625385 
L 426.655257 324.41657 
L 425.542456 324.41657 
z
" clip-path="url(#p22e5f9ec5c)" style="fill: #1f77b4"/>
   </g>
   <g id="patch_58">
    <path d="M 426.933457 324.625385 
L 428.046257 324.625385 
L 428.046257 324.42518 
L 426.933457 324.42518 
z
" clip-path="url(#p22e5f9ec5c)" style="fill: #1f77b4"/>
   </g>
   <g id="patch_59">
    <path d="M 428.324457 324.625385 
L 429.437258 324.625385 
L 429.437258 324.433268 
L 428.324457 324.433268 
z
" clip-path="url(#p22e5f9ec5c)" style="fill: #1f77b4"/>
   </g>
   <g id="patch_60">
    <path d="M 429.715458 324.625385 
L 430.828258 324.625385 
L 430.828258 324.440876 
L 429.715458 324.440876 
z
" clip-path="url(#p22e5f9ec5c)" style="fill: #1f77b4"/>
   </g>
   <g id="patch_61">
    <path d="M 431.106459 324.625385 
L 432.219259 324.625385 
L 432.219259 324.448041 
L 431.106459 324.448041 
z
" clip-path="url(#p22e5f9ec5c)" style="fill: #1f77b4"/>
   </g>
   <g id="patch_62">
    <path d="M 432.497459 324.625385 
L 433.61026 324.625385 
L 433.61026 324.454796 
L 432.497459 324.454796 
z
" clip-path="url(#p22e5f9ec5c)" style="fill: #1f77b4"/>
   </g>
   <g id="patch_63">
    <path d="M 433.88846 324.625385 
L 435.00126 324.625385 
L 435.00126 324.461173 
L 433.88846 324.461173 
z
" clip-path="url(#p22e5f9ec5c)" style="fill: #1f77b4"/>
   </g>
   <g id="patch_64">
    <path d="M 435.27946 324.625385 
L 436.392261 324.625385 
L 436.392261 324.467199 
L 435.27946 324.467199 
z
" clip-path="url(#p22e5f9ec5c)" style="fill: #1f77b4"/>
   </g>
   <g id="patch_65">
    <path d="M 436.670461 324.625385 
L 437.783261 324.625385 
L 437.783261 324.472898 
L 436.670461 324.472898 
z
" clip-path="url(#p22e5f9ec5c)" style="fill: #1f77b4"/>
   </g>
   <g id="patch_66">
    <path d="M 438.061462 324.625385 
L 439.174262 324.625385 
L 439.174262 324.478296 
L 438.061462 324.478296 
z
" clip-path="url(#p22e5f9ec5c)" style="fill: #1f77b4"/>
   </g>
   <g id="patch_67">
    <path d="M 439.452462 324.625385 
L 440.565263 324.625385 
L 440.565263 324.483412 
L 439.452462 324.483412 
z
" clip-path="url(#p22e5f9ec5c)" style="fill: #1f77b4"/>
   </g>
   <g id="patch_68">
    <path d="M 440.843463 324.625385 
L 441.956263 324.625385 
L 441.956263 324.488265 
L 440.843463 324.488265 
z
" clip-path="url(#p22e5f9ec5c)" style="fill: #1f77b4"/>
   </g>
   <g id="patch_69">
    <path d="M 442.234463 324.625385 
L 443.347264 324.625385 
L 443.347264 324.492874 
L 442.234463 324.492874 
z
" clip-path="url(#p22e5f9ec5c)" style="fill: #1f77b4"/>
   </g>
   <g id="patch_70">
    <path d="M 443.625464 324.625385 
L 444.738264 324.625385 
L 444.738264 324.497254 
L 443.625464 324.497254 
z
" clip-path="url(#p22e5f9ec5c)" style="fill: #1f77b4"/>
   </g>
   <g id="patch_71">
    <path d="M 445.016465 324.625385 
L 446.129265 324.625385 
L 446.129265 324.501421 
L 445.016465 324.501421 
z
" clip-path="url(#p22e5f9ec5c)" style="fill: #1f77b4"/>
   </g>
   <g id="patch_72">
    <path d="M 446.407465 324.625385 
L 447.520266 324.625385 
L 447.520266 324.505387 
L 446.407465 324.505387 
z
" clip-path="url(#p22e5f9ec5c)" style="fill: #1f77b4"/>
   </g>
   <g id="patch_73">
    <path d="M 447.798466 324.625385 
L 448.911266 324.625385 
L 448.911266 324.509166 
L 447.798466 324.509166 
z
" clip-path="url(#p22e5f9ec5c)" style="fill: #1f77b4"/>
   </g>
   <g id="patch_74">
    <path d="M 271.14139 324.625385 
L 272.254191 324.625385 
L 272.254191 324.625385 
L 271.14139 324.625385 
z
" clip-path="url(#p22e5f9ec5c)" style="fill: #1f77b4"/>
   </g>
   <g id="patch_75">
    <path d="M 272.532391 324.625385 
L 273.645191 324.625385 
L 273.645191 324.515364 
L 272.532391 324.515364 
z
" clip-path="url(#p22e5f9ec5c)" style="fill: #1f77b4"/>
   </g>
   <g id="patch_76">
    <path d="M 273.923391 324.625385 
L 275.036192 324.625385 
L 275.036192 324.511786 
L 273.923391 324.511786 
z
" clip-path="url(#p22e5f9ec5c)" style="fill: #1f77b4"/>
   </g>
   <g id="patch_77">
    <path d="M 275.314392 324.625385 
L 276.427192 324.625385 
L 276.427192 324.508031 
L 275.314392 324.508031 
z
" clip-path="url(#p22e5f9ec5c)" style="fill: #1f77b4"/>
   </g>
   <g id="patch_78">
    <path d="M 276.705392 324.625385 
L 277.818193 324.625385 
L 277.818193 324.504086 
L 276.705392 324.504086 
z
" clip-path="url(#p22e5f9ec5c)" style="fill: #1f77b4"/>
   </g>
   <g id="patch_79">
    <path d="M 278.096393 324.625385 
L 279.209194 324.625385 
L 279.209194 324.49994 
L 278.096393 324.49994 
z
" clip-path="url(#p22e5f9ec5c)" style="fill: #1f77b4"/>
   </g>
   <g id="patch_80">
    <path d="M 279.487394 324.625385 
L 280.600194 324.625385 
L 280.600194 324.495577 
L 279.487394 324.495577 
z
" clip-path="url(#p22e5f9ec5c)" style="fill: #1f77b4"/>
   </g>
   <g id="patch_81">
    <path d="M 280.878394 324.625385 
L 281.991195 324.625385 
L 281.991195 324.490982 
L 280.878394 324.490982 
z
" clip-path="url(#p22e5f9ec5c)" style="fill: #1f77b4"/>
   </g>
   <g id="patch_82">
    <path d="M 282.269395 324.625385 
L 283.382195 324.625385 
L 283.382195 324.486139 
L 282.269395 324.486139 
z
" clip-path="url(#p22e5f9ec5c)" style="fill: #1f77b4"/>
   </g>
   <g id="patch_83">
    <path d="M 283.660395 324.625385 
L 284.773196 324.625385 
L 284.773196 324.48103 
L 283.660395 324.48103 
z
" clip-path="url(#p22e5f9ec5c)" style="fill: #1f77b4"/>
   </g>
   <g id="patch_84">
    <path d="M 285.051396 324.625385 
L 286.164196 324.625385 
L 286.164196 324.475634 
L 285.051396 324.475634 
z
" clip-path="url(#p22e5f9ec5c)" style="fill: #1f77b4"/>
   </g>
   <g id="patch_85">
    <path d="M 286.442397 324.625385 
L 287.555197 324.625385 
L 287.555197 324.469929 
L 286.442397 324.469929 
z
" clip-path="url(#p22e5f9ec5c)" style="fill: #1f77b4"/>
   </g>
   <g id="patch_86">
    <path d="M 287.833397 324.625385 
L 288.946198 324.625385 
L 288.946198 324.463893 
L 287.833397 324.463893 
z
" clip-path="url(#p22e5f9ec5c)" style="fill: #1f77b4"/>
   </g>
   <g id="patch_87">
    <path d="M 289.224398 324.625385 
L 290.337198 324.625385 
L 290.337198 324.457498 
L 289.224398 324.457498 
z
" clip-path="url(#p22e5f9ec5c)" style="fill: #1f77b4"/>
   </g>
   <g id="patch_88">
    <path d="M 290.615398 324.625385 
L 291.728199 324.625385 
L 291.728199 324.450715 
L 290.615398 324.450715 
z
" clip-path="url(#p22e5f9ec5c)" style="fill: #1f77b4"/>
   </g>
   <g id="patch_89">
    <path d="M 292.006399 324.625385 
L 293.119199 324.625385 
L 293.119199 324.443513 
L 292.006399 324.443513 
z
" clip-path="url(#p22e5f9ec5c)" style="fill: #1f77b4"/>
   </g>
   <g id="patch_90">
    <path d="M 293.3974 324.625385 
L 294.5102 324.625385 
L 294.5102 324.435856 
L 293.3974 324.435856 
z
" clip-path="url(#p22e5f9ec5c)" style="fill: #1f77b4"/>
   </g>
   <g id="patch_91">
    <path d="M 294.7884 324.625385 
L 295.901201 324.625385 
L 295.901201 324.427705 
L 294.7884 324.427705 
z
" clip-path="url(#p22e5f9ec5c)" style="fill: #1f77b4"/>
   </g>
   <g id="patch_92">
    <path d="M 296.179401 324.625385 
L 297.292201 324.625385 
L 297.292201 324.419017 
L 296.179401 324.419017 
z
" clip-path="url(#p22e5f9ec5c)" style="fill: #1f77b4"/>
   </g>
   <g id="patch_93">
    <path d="M 297.570401 324.625385 
L 298.683202 324.625385 
L 298.683202 324.409743 
L 297.570401 324.409743 
z
" clip-path="url(#p22e5f9ec5c)" style="fill: #1f77b4"/>
   </g>
   <g id="patch_94">
    <path d="M 298.961402 324.625385 
L 300.074202 324.625385 
L 300.074202 324.39983 
L 298.961402 324.39983 
z
" clip-path="url(#p22e5f9ec5c)" style="fill: #1f77b4"/>
   </g>
   <g id="patch_95">
    <path d="M 300.352403 324.625385 
L 301.465203 324.625385 
L 301.465203 324.389217 
L 300.352403 324.389217 
z
" clip-path="url(#p22e5f9ec5c)" style="fill: #1f77b4"/>
   </g>
   <g id="patch_96">
    <path d="M 301.743403 324.625385 
L 302.856204 324.625385 
L 302.856204 324.377837 
L 301.743403 324.377837 
z
" clip-path="url(#p22e5f9ec5c)" style="fill: #1f77b4"/>
   </g>
   <g id="patch_97">
    <path d="M 303.134404 324.625385 
L 304.247204 324.625385 
L 304.247204 324.365614 
L 303.134404 324.365614 
z
" clip-path="url(#p22e5f9ec5c)" style="fill: #1f77b4"/>
   </g>
   <g id="patch_98">
    <path d="M 304.525404 324.625385 
L 305.638205 324.625385 
L 305.638205 324.352463 
L 304.525404 324.352463 
z
" clip-path="url(#p22e5f9ec5c)" style="fill: #1f77b4"/>
   </g>
   <g id="patch_99">
    <path d="M 305.916405 324.625385 
L 307.029205 324.625385 
L 307.029205 324.338288 
L 305.916405 324.338288 
z
" clip-path="url(#p22e5f9ec5c)" style="fill: #1f77b4"/>
   </g>
   <g id="patch_100">
    <path d="M 307.307406 324.625385 
L 308.420206 324.625385 
L 308.420206 324.322978 
L 307.307406 324.322978 
z
" clip-path="url(#p22e5f9ec5c)" style="fill: #1f77b4"/>
   </g>
   <g id="patch_101">
    <path d="M 308.698406 324.625385 
L 309.811207 324.625385 
L 309.811207 324.306411 
L 308.698406 324.306411 
z
" clip-path="url(#p22e5f9ec5c)" style="fill: #1f77b4"/>
   </g>
   <g id="patch_102">
    <path d="M 310.089407 324.625385 
L 311.202207 324.625385 
L 311.202207 324.288444 
L 310.089407 324.288444 
z
" clip-path="url(#p22e5f9ec5c)" style="fill: #1f77b4"/>
   </g>
   <g id="patch_103">
    <path d="M 311.480407 324.625385 
L 312.593208 324.625385 
L 312.593208 324.405967 
L 311.480407 324.405967 
z
" clip-path="url(#p22e5f9ec5c)" style="fill: #1f77b4"/>
   </g>
   <g id="patch_104">
    <path d="M 312.871408 324.625385 
L 313.984208 324.625385 
L 313.984208 324.392871 
L 312.871408 324.392871 
z
" clip-path="url(#p22e5f9ec5c)" style="fill: #1f77b4"/>
   </g>
   <g id="patch_105">
    <path d="M 314.262409 324.625385 
L 315.375209 324.625385 
L 315.375209 324.378565 
L 314.262409 324.378565 
z
" clip-path="url(#p22e5f9ec5c)" style="fill: #1f77b4"/>
   </g>
   <g id="patch_106">
    <path d="M 315.653409 324.625385 
L 316.76621 324.625385 
L 316.76621 324.362898 
L 315.653409 324.362898 
z
" clip-path="url(#p22e5f9ec5c)" style="fill: #1f77b4"/>
   </g>
   <g id="patch_107">
    <path d="M 317.04441 324.625385 
L 318.15721 324.625385 
L 318.15721 324.34569 
L 317.04441 324.34569 
z
" clip-path="url(#p22e5f9ec5c)" style="fill: #1f77b4"/>
   </g>
   <g id="patch_108">
    <path d="M 318.43541 324.625385 
L 319.548211 324.625385 
L 319.548211 324.326733 
L 318.43541 324.326733 
z
" clip-path="url(#p22e5f9ec5c)" style="fill: #1f77b4"/>
   </g>
   <g id="patch_109">
    <path d="M 319.826411 324.625385 
L 320.939211 324.625385 
L 320.939211 324.305781 
L 319.826411 324.305781 
z
" clip-path="url(#p22e5f9ec5c)" style="fill: #1f77b4"/>
   </g>
   <g id="patch_110">
    <path d="M 321.217412 324.625385 
L 322.330212 324.625385 
L 322.330212 324.282545 
L 321.217412 324.282545 
z
" clip-path="url(#p22e5f9ec5c)" style="fill: #1f77b4"/>
   </g>
   <g id="patch_111">
    <path d="M 322.608412 324.625385 
L 323.721213 324.625385 
L 323.721213 324.256679 
L 322.608412 324.256679 
z
" clip-path="url(#p22e5f9ec5c)" style="fill: #1f77b4"/>
   </g>
   <g id="patch_112">
    <path d="M 323.999413 324.625385 
L 325.112213 324.625385 
L 325.112213 324.227771 
L 323.999413 324.227771 
z
" clip-path="url(#p22e5f9ec5c)" style="fill: #1f77b4"/>
   </g>
   <g id="patch_113">
    <path d="M 325.390413 324.625385 
L 326.503214 324.625385 
L 326.503214 324.195326 
L 325.390413 324.195326 
z
" clip-path="url(#p22e5f9ec5c)" style="fill: #1f77b4"/>
   </g>
   <g id="patch_114">
    <path d="M 326.781414 324.625385 
L 327.894214 324.625385 
L 327.894214 324.158741 
L 326.781414 324.158741 
z
" clip-path="url(#p22e5f9ec5c)" style="fill: #1f77b4"/>
   </g>
   <g id="patch_115">
    <path d="M 328.172414 324.625385 
L 329.285215 324.625385 
L 329.285215 324.117282 
L 328.172414 324.117282 
z
" clip-path="url(#p22e5f9ec5c)" style="fill: #1f77b4"/>
   </g>
   <g id="patch_116">
    <path d="M 329.563415 324.625385 
L 330.676216 324.625385 
L 330.676216 324.070041 
L 329.563415 324.070041 
z
" clip-path="url(#p22e5f9ec5c)" style="fill: #1f77b4"/>
   </g>
   <g id="patch_117">
    <path d="M 330.954416 324.625385 
L 332.067216 324.625385 
L 332.067216 324.015891 
L 330.954416 324.015891 
z
" clip-path="url(#p22e5f9ec5c)" style="fill: #1f77b4"/>
   </g>
   <g id="patch_118">
    <path d="M 332.345416 324.625385 
L 333.458217 324.625385 
L 333.458217 323.953418 
L 332.345416 323.953418 
z
" clip-path="url(#p22e5f9ec5c)" style="fill: #1f77b4"/>
   </g>
   <g id="patch_119">
    <path d="M 333.736417 324.625385 
L 334.849217 324.625385 
L 334.849217 323.880823 
L 333.736417 323.880823 
z
" clip-path="url(#p22e5f9ec5c)" style="fill: #1f77b4"/>
   </g>
   <g id="patch_120">
    <path d="M 335.127417 324.625385 
L 336.240218 324.625385 
L 336.240218 323.795796 
L 335.127417 323.795796 
z
" clip-path="url(#p22e5f9ec5c)" style="fill: #1f77b4"/>
   </g>
   <g id="patch_121">
    <path d="M 336.518418 324.625385 
L 337.631219 324.625385 
L 337.631219 323.695327 
L 336.518418 323.695327 
z
" clip-path="url(#p22e5f9ec5c)" style="fill: #1f77b4"/>
   </g>
   <g id="patch_122">
    <path d="M 337.909419 324.625385 
L 339.022219 324.625385 
L 339.022219 323.575437 
L 337.909419 323.575437 
z
" clip-path="url(#p22e5f9ec5c)" style="fill: #1f77b4"/>
   </g>
   <g id="patch_123">
    <path d="M 339.300419 324.625385 
L 340.41322 324.625385 
L 340.41322 323.430777 
L 339.300419 323.430777 
z
" clip-path="url(#p22e5f9ec5c)" style="fill: #1f77b4"/>
   </g>
   <g id="patch_124">
    <path d="M 340.69142 324.625385 
L 341.80422 324.625385 
L 341.80422 324.100283 
L 340.69142 324.100283 
z
" clip-path="url(#p22e5f9ec5c)" style="fill: #1f77b4"/>
   </g>
   <g id="patch_125">
    <path d="M 342.08242 324.625385 
L 343.195221 324.625385 
L 343.195221 324.016391 
L 342.08242 324.016391 
z
" clip-path="url(#p22e5f9ec5c)" style="fill: #1f77b4"/>
   </g>
   <g id="patch_126">
    <path d="M 343.473421 324.625385 
L 344.586222 324.625385 
L 344.586222 323.910662 
L 343.473421 323.910662 
z
" clip-path="url(#p22e5f9ec5c)" style="fill: #1f77b4"/>
   </g>
   <g id="patch_127">
    <path d="M 344.864422 324.625385 
L 345.977222 324.625385 
L 345.977222 323.774806 
L 344.864422 323.774806 
z
" clip-path="url(#p22e5f9ec5c)" style="fill: #1f77b4"/>
   </g>
   <g id="patch_128">
    <path d="M 346.255422 324.625385 
L 347.368223 324.625385 
L 347.368223 323.596185 
L 346.255422 323.596185 
z
" clip-path="url(#p22e5f9ec5c)" style="fill: #1f77b4"/>
   </g>
   <g id="patch_129">
    <path d="M 347.646423 324.625385 
L 348.759223 324.625385 
L 348.759223 323.354767 
L 347.646423 323.354767 
z
" clip-path="url(#p22e5f9ec5c)" style="fill: #1f77b4"/>
   </g>
   <g id="patch_130">
    <path d="M 349.037423 324.625385 
L 350.150224 324.625385 
L 350.150224 323.017259 
L 349.037423 323.017259 
z
" clip-path="url(#p22e5f9ec5c)" style="fill: #1f77b4"/>
   </g>
   <g id="patch_131">
    <path d="M 350.428424 324.625385 
L 351.541224 324.625385 
L 351.541224 322.524976 
L 350.428424 322.524976 
z
" clip-path="url(#p22e5f9ec5c)" style="fill: #1f77b4"/>
   </g>
   <g id="patch_132">
    <path d="M 351.819425 324.625385 
L 352.932225 324.625385 
L 352.932225 321.766495 
L 351.819425 321.766495 
z
" clip-path="url(#p22e5f9ec5c)" style="fill: #1f77b4"/>
   </g>
   <g id="patch_133">
    <path d="M 353.210425 324.625385 
L 354.323226 324.625385 
L 354.323226 320.508583 
L 353.210425 320.508583 
z
" clip-path="url(#p22e5f9ec5c)" style="fill: #1f77b4"/>
   </g>
   <g id="patch_134">
    <path d="M 354.601426 324.625385 
L 355.714226 324.625385 
L 355.714226 318.192882 
L 354.601426 318.192882 
z
" clip-path="url(#p22e5f9ec5c)" style="fill: #1f77b4"/>
   </g>
   <g id="patch_135">
    <path d="M 355.992426 324.625385 
L 357.105227 324.625385 
L 357.105227 313.189824 
L 355.992426 313.189824 
z
" clip-path="url(#p22e5f9ec5c)" style="fill: #1f77b4"/>
   </g>
   <g id="patch_136">
    <path d="M 357.383427 324.625385 
L 358.496227 324.625385 
L 358.496227 298.895373 
L 357.383427 298.895373 
z
" clip-path="url(#p22e5f9ec5c)" style="fill: #1f77b4"/>
   </g>
   <g id="patch_137">
    <path d="M 358.774428 324.625385 
L 359.887228 324.625385 
L 359.887228 287.561916 
L 358.774428 287.561916 
z
" clip-path="url(#p22e5f9ec5c)" style="fill: #1f77b4"/>
   </g>
   <g id="matplotlib.axis_3">
    <g id="xtick_6">
     <g id="line2d_17">
      <g>
       <use xlink:href="#m69178f27e7" x="291.171799" y="324.625385" style="stroke: #000000; stroke-width: 0.8"/>
      </g>
     </g>
     <g id="text_15">
      <!-- −50 -->
      <g transform="translate(280.994299 340.21476) scale(0.12 -0.12)">
       <use xlink:href="#ArialMT-2212"/>
       <use xlink:href="#ArialMT-35" x="58.398438"/>
       <use xlink:href="#ArialMT-30" x="114.013672"/>
      </g>
     </g>
    </g>
    <g id="xtick_7">
     <g id="line2d_18">
      <g>
       <use xlink:href="#m69178f27e7" x="360.721828" y="324.625385" style="stroke: #000000; stroke-width: 0.8"/>
      </g>
     </g>
     <g id="text_16">
      <!-- 0 -->
      <g transform="translate(357.385266 340.21476) scale(0.12 -0.12)">
       <use xlink:href="#ArialMT-30"/>
      </g>
     </g>
    </g>
    <g id="xtick_8">
     <g id="line2d_19">
      <g>
       <use xlink:href="#m69178f27e7" x="430.271858" y="324.625385" style="stroke: #000000; stroke-width: 0.8"/>
      </g>
     </g>
     <g id="text_17">
      <!-- 50 -->
      <g transform="translate(423.598733 340.21476) scale(0.12 -0.12)">
       <use xlink:href="#ArialMT-35"/>
       <use xlink:href="#ArialMT-30" x="55.615234"/>
      </g>
     </g>
    </g>
   </g>
   <g id="matplotlib.axis_4">
    <g id="ytick_10">
     <g id="line2d_20">
      <g>
       <use xlink:href="#md5702ea698" x="262.252896" y="324.625385" style="stroke: #000000; stroke-width: 0.8"/>
      </g>
     </g>
     <g id="text_18">
      <!-- 0.0 -->
      <g transform="translate(238.572896 328.920072) scale(0.12 -0.12)">
       <use xlink:href="#ArialMT-30"/>
       <use xlink:href="#ArialMT-2e" x="55.615234"/>
       <use xlink:href="#ArialMT-30" x="83.398438"/>
      </g>
     </g>
    </g>
    <g id="ytick_11">
     <g id="line2d_21">
      <g>
       <use xlink:href="#md5702ea698" x="262.252896" y="263.363453" style="stroke: #000000; stroke-width: 0.8"/>
      </g>
     </g>
     <g id="text_19">
      <!-- 0.2 -->
      <g transform="translate(238.572896 267.65814) scale(0.12 -0.12)">
       <use xlink:href="#ArialMT-30"/>
       <use xlink:href="#ArialMT-2e" x="55.615234"/>
       <use xlink:href="#ArialMT-32" x="83.398438"/>
      </g>
     </g>
    </g>
    <g id="ytick_12">
     <g id="line2d_22">
      <g>
       <use xlink:href="#md5702ea698" x="262.252896" y="202.10152" style="stroke: #000000; stroke-width: 0.8"/>
      </g>
     </g>
     <g id="text_20">
      <!-- 0.4 -->
      <g transform="translate(238.572896 206.396208) scale(0.12 -0.12)">
       <defs>
        <path id="ArialMT-34" d="M 2069 0 
L 2069 1097 
L 81 1097 
L 81 1613 
L 2172 4581 
L 2631 4581 
L 2631 1613 
L 3250 1613 
L 3250 1097 
L 2631 1097 
L 2631 0 
L 2069 0 
z
M 2069 1613 
L 2069 3678 
L 634 1613 
L 2069 1613 
z
" transform="scale(0.015625)"/>
       </defs>
       <use xlink:href="#ArialMT-30"/>
       <use xlink:href="#ArialMT-2e" x="55.615234"/>
       <use xlink:href="#ArialMT-34" x="83.398438"/>
      </g>
     </g>
    </g>
    <g id="ytick_13">
     <g id="line2d_23">
      <g>
       <use xlink:href="#md5702ea698" x="262.252896" y="140.839588" style="stroke: #000000; stroke-width: 0.8"/>
      </g>
     </g>
     <g id="text_21">
      <!-- 0.6 -->
      <g transform="translate(238.572896 145.134275) scale(0.12 -0.12)">
       <defs>
        <path id="ArialMT-36" d="M 3184 3459 
L 2625 3416 
Q 2550 3747 2413 3897 
Q 2184 4138 1850 4138 
Q 1581 4138 1378 3988 
Q 1113 3794 959 3422 
Q 806 3050 800 2363 
Q 1003 2672 1297 2822 
Q 1591 2972 1913 2972 
Q 2475 2972 2870 2558 
Q 3266 2144 3266 1488 
Q 3266 1056 3080 686 
Q 2894 316 2569 119 
Q 2244 -78 1831 -78 
Q 1128 -78 684 439 
Q 241 956 241 2144 
Q 241 3472 731 4075 
Q 1159 4600 1884 4600 
Q 2425 4600 2770 4297 
Q 3116 3994 3184 3459 
z
M 888 1484 
Q 888 1194 1011 928 
Q 1134 663 1356 523 
Q 1578 384 1822 384 
Q 2178 384 2434 671 
Q 2691 959 2691 1453 
Q 2691 1928 2437 2201 
Q 2184 2475 1800 2475 
Q 1419 2475 1153 2201 
Q 888 1928 888 1484 
z
" transform="scale(0.015625)"/>
       </defs>
       <use xlink:href="#ArialMT-30"/>
       <use xlink:href="#ArialMT-2e" x="55.615234"/>
       <use xlink:href="#ArialMT-36" x="83.398438"/>
      </g>
     </g>
    </g>
    <g id="ytick_14">
     <g id="line2d_24">
      <g>
       <use xlink:href="#md5702ea698" x="262.252896" y="79.577655" style="stroke: #000000; stroke-width: 0.8"/>
      </g>
     </g>
     <g id="text_22">
      <!-- 0.8 -->
      <g transform="translate(238.572896 83.872343) scale(0.12 -0.12)">
       <defs>
        <path id="ArialMT-38" d="M 1131 2484 
Q 781 2613 612 2850 
Q 444 3088 444 3419 
Q 444 3919 803 4259 
Q 1163 4600 1759 4600 
Q 2359 4600 2725 4251 
Q 3091 3903 3091 3403 
Q 3091 3084 2923 2848 
Q 2756 2613 2416 2484 
Q 2838 2347 3058 2040 
Q 3278 1734 3278 1309 
Q 3278 722 2862 322 
Q 2447 -78 1769 -78 
Q 1091 -78 675 323 
Q 259 725 259 1325 
Q 259 1772 486 2073 
Q 713 2375 1131 2484 
z
M 1019 3438 
Q 1019 3113 1228 2906 
Q 1438 2700 1772 2700 
Q 2097 2700 2305 2904 
Q 2513 3109 2513 3406 
Q 2513 3716 2298 3927 
Q 2084 4138 1766 4138 
Q 1444 4138 1231 3931 
Q 1019 3725 1019 3438 
z
M 838 1322 
Q 838 1081 952 856 
Q 1066 631 1291 507 
Q 1516 384 1775 384 
Q 2178 384 2440 643 
Q 2703 903 2703 1303 
Q 2703 1709 2433 1975 
Q 2163 2241 1756 2241 
Q 1359 2241 1098 1978 
Q 838 1716 838 1322 
z
" transform="scale(0.015625)"/>
       </defs>
       <use xlink:href="#ArialMT-30"/>
       <use xlink:href="#ArialMT-2e" x="55.615234"/>
       <use xlink:href="#ArialMT-38" x="83.398438"/>
      </g>
     </g>
    </g>
    <g id="ytick_15">
     <g id="line2d_25">
      <g>
       <use xlink:href="#md5702ea698" x="262.252896" y="18.315723" style="stroke: #000000; stroke-width: 0.8"/>
      </g>
     </g>
     <g id="text_23">
      <!-- 1.0 -->
      <g transform="translate(238.572896 22.610411) scale(0.12 -0.12)">
       <use xlink:href="#ArialMT-31"/>
       <use xlink:href="#ArialMT-2e" x="55.615234"/>
       <use xlink:href="#ArialMT-30" x="83.398438"/>
      </g>
     </g>
    </g>
   </g>
   <g id="patch_138">
    <path d="M 262.252896 324.625385 
L 262.252896 3.00024 
" style="fill: none; stroke: #000000; stroke-width: 0.8; stroke-linejoin: miter; stroke-linecap: square"/>
   </g>
   <g id="patch_139">
    <path d="M 457.79976 324.625385 
L 457.79976 3.00024 
" style="fill: none; stroke: #000000; stroke-width: 0.8; stroke-linejoin: miter; stroke-linecap: square"/>
   </g>
   <g id="patch_140">
    <path d="M 262.252896 324.625385 
L 457.79976 324.625385 
" style="fill: none; stroke: #000000; stroke-width: 0.8; stroke-linejoin: miter; stroke-linecap: square"/>
   </g>
   <g id="patch_141">
    <path d="M 262.252896 3.00024 
L 457.79976 3.00024 
" style="fill: none; stroke: #000000; stroke-width: 0.8; stroke-linejoin: miter; stroke-linecap: square"/>
   </g>
  </g>
 </g>
 <defs>
  <clipPath id="p22c1bd5345">
   <rect x="33.68899" y="66.039381" width="195.546864" height="195.546864"/>
  </clipPath>
  <clipPath id="p22e5f9ec5c">
   <rect x="262.252896" y="3.00024" width="195.546864" height="321.625145"/>
  </clipPath>
 </defs>
</svg>
