<?xml version="1.0" encoding="utf-8" standalone="no"?>
<!DOCTYPE svg PUBLIC "-//W3C//DTD SVG 1.1//EN"
  "http://www.w3.org/Graphics/SVG/1.1/DTD/svg11.dtd">
<svg xmlns:xlink="http://www.w3.org/1999/xlink" width="864pt" height="288pt" viewBox="0 0 864 288" xmlns="http://www.w3.org/2000/svg" version="1.1">
 <metadata>
  <rdf:RDF xmlns:dc="http://purl.org/dc/elements/1.1/" xmlns:cc="http://creativecommons.org/ns#" xmlns:rdf="http://www.w3.org/1999/02/22-rdf-syntax-ns#">
   <cc:Work>
    <dc:type rdf:resource="http://purl.org/dc/dcmitype/StillImage"/>
    <dc:date>2024-11-08T11:37:24.990058</dc:date>
    <dc:format>image/svg+xml</dc:format>
    <dc:creator>
     <cc:Agent>
      <dc:title>Matplotlib v3.9.1, https://matplotlib.org/</dc:title>
     </cc:Agent>
    </dc:creator>
   </cc:Work>
  </rdf:RDF>
 </metadata>
 <defs>
  <style type="text/css">*{stroke-linejoin: round; stroke-linecap: butt}</style>
 </defs>
 <g id="figure_1">
  <g id="patch_1">
   <path d="M 0 288 
L 864 288 
L 864 0 
L 0 0 
L 0 288 
z
" style="fill: none"/>
  </g>
  <g id="axes_1">
   <g id="patch_2">
    <path d="M 22.722429 236.235839 
L 207.194108 236.235839 
L 207.194108 51.764161 
L 22.722429 51.764161 
L 22.722429 236.235839 
z
" style="fill: none"/>
   </g>
   <g id="patch_3">
    <path d="M 118.839762 219.718662 
L 115.048027 217.859881 
L 111.256075 215.823165 
L 107.473042 213.613421 
L 103.708042 211.235971 
L 99.970144 208.696545 
L 96.268355 206.001259 
L 92.61159 203.156606 
L 89.008661 200.16944 
L 85.468247 197.046957 
L 81.998877 193.796679 
L 78.608909 190.426436 
L 75.30651 186.944348 
L 72.099635 183.358804 
L 68.996011 179.678441 
L 66.003113 175.912125 
L 63.128153 172.06893 
L 60.378056 168.158114 
L 57.759448 164.1891 
L 55.278637 160.171448 
L 52.941599 156.114838 
L 50.753964 152.029042 
L 48.721004 147.923903 
L 46.847615 143.809312 
L 45.13831 139.695179 
L 43.597208 135.591418 
L 42.228021 131.507913 
L 41.034047 127.454503 
L 40.018163 123.440953 
L 39.182817 119.476931 
L 38.53002 115.571987 
L 38.061346 111.735529 
L 37.777923 107.976799 
L 37.680434 104.304852 
L 37.769114 100.728534 
L 38.04375 97.25646 
L 38.50368 93.896996 
L 39.147795 90.658235 
L 39.974545 87.547978 
L 40.981936 84.57372 
L 42.167544 81.742624 
L 43.52851 79.061512 
L 45.061557 76.536843 
L 46.762991 74.174698 
L 48.628714 71.980768 
L 50.654231 69.960339 
L 52.834661 68.118278 
L 55.164753 66.459023 
L 57.638892 64.986571 
L 60.251119 63.704469 
L 62.995141 62.615806 
L 65.864346 61.723204 
L 68.851822 61.028815 
L 71.950373 60.53431 
L 75.152534 60.240882 
L 78.45059 60.149237 
L 81.836597 60.259595 
L 85.302396 60.571692 
L 88.839639 61.084775 
L 92.439804 61.797607 
L 96.094218 62.708473 
L 99.794078 63.815177 
L 103.530469 65.115053 
L 107.294391 66.604969 
L 111.076775 68.281338 
L 114.868511 70.140119 
L 118.660462 72.176835 
L 122.443495 74.386579 
L 126.208495 76.764029 
L 129.946393 79.303455 
L 133.648183 81.998741 
L 137.304947 84.843394 
L 140.907876 87.83056 
L 144.44829 90.953043 
L 147.91766 94.203321 
L 151.307628 97.573564 
L 154.610027 101.055652 
L 157.816902 104.641196 
L 160.920527 108.321559 
L 163.913424 112.087875 
L 166.788384 115.93107 
L 169.538481 119.841886 
L 172.157089 123.8109 
L 174.637901 127.828552 
L 176.974939 131.885162 
L 179.162573 135.970958 
L 181.195533 140.076097 
L 183.068923 144.190688 
L 184.778227 148.304821 
L 186.319329 152.408582 
L 187.688517 156.492087 
L 188.88249 160.545497 
L 189.898374 164.559047 
L 190.73372 168.523069 
L 191.386517 172.428013 
L 191.855191 176.264471 
L 192.138614 180.023201 
L 192.236103 183.695148 
L 192.147423 187.271466 
L 191.872787 190.74354 
L 191.412858 194.103004 
L 190.768742 197.341765 
L 189.941993 200.452022 
L 188.934601 203.42628 
L 187.748994 206.257376 
L 186.388027 208.938488 
L 184.85498 211.463157 
L 183.153546 213.825302 
L 181.287823 216.019232 
L 179.262307 218.039661 
L 177.081876 219.881722 
L 174.751784 221.540977 
L 172.277645 223.013429 
L 169.665418 224.295531 
L 166.921397 225.384194 
L 164.052192 226.276796 
L 161.064715 226.971185 
L 157.966164 227.46569 
L 154.764003 227.759118 
L 151.465947 227.850763 
L 148.079941 227.740405 
L 144.614141 227.428308 
L 141.076898 226.915225 
L 137.476733 226.202393 
L 133.822319 225.291527 
L 130.12246 224.184823 
L 126.386069 222.884947 
L 122.622147 221.395031 
L 118.839762 219.718662 
" style="fill: #d3d3d3; stroke: #000000; stroke-width: 0.5; stroke-linejoin: miter"/>
   </g>
   <g id="matplotlib.axis_1">
    <g id="xtick_1">
     <g id="line2d_1">
      <defs>
       <path id="mf2e2c8d21a" d="M 0 0 
L 0 3.5 
" style="stroke: #000000; stroke-width: 0.8"/>
      </defs>
      <g>
       <use xlink:href="#mf2e2c8d21a" x="36.837855" y="236.235839" style="stroke: #000000; stroke-width: 0.8"/>
      </g>
     </g>
     <g id="text_1">
      <!-- $\mathdefault{−1}$ -->
      <g transform="translate(30.476761 249.990417) scale(0.1 -0.1)">
       <defs>
        <path id="CMSY10-0" d="M 4218 1472 
C 4326 1472 4442 1472 4442 1600 
C 4442 1728 4326 1728 4218 1728 
L 755 1728 
C 646 1728 531 1728 531 1600 
C 531 1472 646 1472 755 1472 
L 4218 1472 
z
" transform="scale(0.015625)"/>
        <path id="NimbusRomNo9L-Regu-31" d="M 1862 4339 
L 710 3757 
L 710 3667 
C 787 3699 858 3725 883 3738 
C 998 3783 1107 3808 1171 3808 
C 1306 3808 1363 3711 1363 3505 
L 1363 592 
C 1363 379 1312 232 1210 173 
C 1114 116 1024 96 755 96 
L 755 0 
L 2522 0 
L 2522 96 
C 2016 96 1914 160 1914 470 
L 1914 4327 
L 1862 4339 
z
" transform="scale(0.015625)"/>
       </defs>
       <use xlink:href="#CMSY10-0" transform="scale(0.996264)"/>
       <use xlink:href="#NimbusRomNo9L-Regu-31" transform="translate(77.408707 0) scale(0.996264)"/>
      </g>
     </g>
    </g>
    <g id="xtick_2">
     <g id="line2d_2">
      <g>
       <use xlink:href="#mf2e2c8d21a" x="114.958269" y="236.235839" style="stroke: #000000; stroke-width: 0.8"/>
      </g>
     </g>
     <g id="text_2">
      <!-- $\mathdefault{0}$ -->
      <g transform="translate(112.467609 249.990417) scale(0.1 -0.1)">
       <defs>
        <path id="NimbusRomNo9L-Regu-30" d="M 1626 4352 
C 1274 4352 1005 4244 768 4020 
C 397 3661 154 2925 154 2176 
C 154 1479 365 730 666 372 
C 902 90 1229 -64 1600 -64 
C 1926 -64 2202 45 2432 269 
C 2803 621 3046 1364 3046 2138 
C 3046 3450 2464 4352 1626 4352 
z
M 1606 4186 
C 2144 4186 2432 3463 2432 2125 
C 2432 788 2150 103 1600 103 
C 1050 103 768 788 768 2119 
C 768 3476 1056 4186 1606 4186 
z
" transform="scale(0.015625)"/>
       </defs>
       <use xlink:href="#NimbusRomNo9L-Regu-30" transform="scale(0.996264)"/>
      </g>
     </g>
    </g>
    <g id="xtick_3">
     <g id="line2d_3">
      <g>
       <use xlink:href="#mf2e2c8d21a" x="193.078682" y="236.235839" style="stroke: #000000; stroke-width: 0.8"/>
      </g>
     </g>
     <g id="text_3">
      <!-- $\mathdefault{1}$ -->
      <g transform="translate(190.588022 249.990417) scale(0.1 -0.1)">
       <use xlink:href="#NimbusRomNo9L-Regu-31" transform="scale(0.996264)"/>
      </g>
     </g>
    </g>
   </g>
   <g id="matplotlib.axis_2">
    <g id="ytick_1">
     <g id="line2d_4">
      <defs>
       <path id="md6ae1c167b" d="M 0 0 
L -3.5 0 
" style="stroke: #000000; stroke-width: 0.8"/>
      </defs>
      <g>
       <use xlink:href="#md6ae1c167b" x="22.722429" y="222.120414" style="stroke: #000000; stroke-width: 0.8"/>
      </g>
     </g>
     <g id="text_4">
      <!-- $\mathdefault{−1}$ -->
      <g transform="translate(3.00024 225.497702) scale(0.1 -0.1)">
       <use xlink:href="#CMSY10-0" transform="scale(0.996264)"/>
       <use xlink:href="#NimbusRomNo9L-Regu-31" transform="translate(77.408707 0) scale(0.996264)"/>
      </g>
     </g>
    </g>
    <g id="ytick_2">
     <g id="line2d_5">
      <g>
       <use xlink:href="#md6ae1c167b" x="22.722429" y="144" style="stroke: #000000; stroke-width: 0.8"/>
      </g>
     </g>
     <g id="text_5">
      <!-- $\mathdefault{0}$ -->
      <g transform="translate(10.741109 147.377289) scale(0.1 -0.1)">
       <use xlink:href="#NimbusRomNo9L-Regu-30" transform="scale(0.996264)"/>
      </g>
     </g>
    </g>
    <g id="ytick_3">
     <g id="line2d_6">
      <g>
       <use xlink:href="#md6ae1c167b" x="22.722429" y="65.879586" style="stroke: #000000; stroke-width: 0.8"/>
      </g>
     </g>
     <g id="text_6">
      <!-- $\mathdefault{1}$ -->
      <g transform="translate(10.741109 69.256875) scale(0.1 -0.1)">
       <use xlink:href="#NimbusRomNo9L-Regu-31" transform="scale(0.996264)"/>
      </g>
     </g>
    </g>
   </g>
   <g id="patch_4">
    <path d="M 22.722429 236.235839 
L 22.722429 51.764161 
" style="fill: none; stroke: #000000; stroke-width: 0.8; stroke-linejoin: miter; stroke-linecap: square"/>
   </g>
   <g id="patch_5">
    <path d="M 207.194108 236.235839 
L 207.194108 51.764161 
" style="fill: none; stroke: #000000; stroke-width: 0.8; stroke-linejoin: miter; stroke-linecap: square"/>
   </g>
   <g id="patch_6">
    <path d="M 22.722429 236.235839 
L 207.194108 236.235839 
" style="fill: none; stroke: #000000; stroke-width: 0.8; stroke-linejoin: miter; stroke-linecap: square"/>
   </g>
   <g id="patch_7">
    <path d="M 22.722429 51.764161 
L 207.194108 51.764161 
" style="fill: none; stroke: #000000; stroke-width: 0.8; stroke-linejoin: miter; stroke-linecap: square"/>
   </g>
   <g id="text_7">
    <!-- Stage-I $(A_{2})$ -->
    <g transform="translate(85.414023 45.764161) scale(0.12 -0.12)">
     <defs>
      <path id="NimbusRomNo9L-Regu-53" d="M 2861 4352 
L 2726 4352 
C 2701 4205 2630 4135 2522 4135 
C 2458 4135 2349 4160 2240 4212 
C 2003 4301 1766 4352 1562 4352 
C 1286 4352 1005 4244 794 4058 
C 570 3859 454 3590 454 3256 
C 454 2743 736 2385 1453 2006 
C 1914 1763 2246 1499 2406 1256 
C 2464 1173 2496 1038 2496 884 
C 2496 454 2176 160 1709 160 
C 1139 160 736 513 416 1296 
L 269 1296 
L 461 -64 
L 602 -64 
C 608 57 685 147 781 147 
C 851 147 960 122 1082 79 
C 1325 -14 1581 -64 1837 -64 
C 2573 -64 3142 442 3142 1101 
C 3142 1626 2790 2042 1946 2496 
C 1274 2868 1005 3149 1005 3495 
C 1005 3847 1274 4090 1670 4090 
C 1958 4090 2227 3968 2451 3738 
C 2650 3533 2739 3367 2842 2989 
L 3002 2989 
L 2861 4352 
z
" transform="scale(0.015625)"/>
      <path id="NimbusRomNo9L-Regu-74" d="M 1632 2880 
L 986 2880 
L 986 3622 
C 986 3686 979 3706 941 3706 
C 896 3648 858 3590 813 3526 
C 570 3174 294 2867 192 2841 
C 122 2794 83 2748 83 2715 
C 83 2695 90 2682 109 2682 
L 448 2682 
L 448 751 
C 448 212 640 -64 1018 -64 
C 1331 -64 1574 90 1786 423 
L 1702 493 
C 1568 333 1459 269 1318 269 
C 1082 269 986 443 986 847 
L 986 2682 
L 1632 2682 
L 1632 2880 
z
" transform="scale(0.015625)"/>
      <path id="NimbusRomNo9L-Regu-61" d="M 2829 423 
C 2720 333 2643 301 2547 301 
C 2400 301 2355 390 2355 672 
L 2355 1920 
C 2355 2253 2323 2438 2227 2592 
C 2086 2822 1811 2944 1434 2944 
C 832 2944 358 2630 358 2227 
C 358 2080 486 1952 634 1952 
C 787 1952 922 2080 922 2221 
C 922 2246 915 2278 909 2323 
C 896 2381 890 2432 890 2477 
C 890 2650 1094 2790 1350 2790 
C 1664 2790 1837 2605 1837 2259 
L 1837 1869 
C 851 1472 742 1421 467 1178 
C 326 1050 237 832 237 621 
C 237 218 518 -64 909 -64 
C 1190 -64 1453 70 1843 403 
C 1875 70 1990 -64 2253 -64 
C 2470 -64 2605 13 2829 256 
L 2829 423 
z
M 1837 783 
C 1837 584 1805 526 1670 449 
C 1517 359 1338 301 1203 301 
C 979 301 800 520 800 796 
L 800 822 
C 800 1201 1062 1433 1837 1715 
L 1837 783 
z
" transform="scale(0.015625)"/>
      <path id="NimbusRomNo9L-Regu-67" d="M 3008 2496 
L 3008 2746 
L 2515 2746 
C 2387 2746 2291 2763 2163 2802 
L 2022 2847 
C 1850 2903 1677 2931 1510 2931 
C 915 2931 442 2467 442 1881 
C 442 1476 614 1230 1037 1018 
C 915 906 800 799 762 768 
C 550 588 467 463 467 338 
C 467 206 544 131 806 6 
C 352 -329 179 -543 179 -781 
C 179 -1124 678 -1408 1286 -1408 
C 1766 -1408 2266 -1238 2598 -962 
C 2842 -759 2950 -548 2950 -299 
C 2950 108 2650 384 2176 384 
L 1350 384 
C 1011 384 851 443 851 548 
C 851 678 1062 908 1235 960 
C 1293 953 1338 947 1357 947 
C 1478 934 1562 928 1600 928 
C 1837 928 2093 1026 2291 1203 
C 2502 1387 2598 1617 2598 1945 
C 2598 2135 2566 2286 2477 2496 
L 3008 2496 
z
M 941 -13 
C 1152 -58 1664 -96 1978 -96 
C 2560 -96 2771 -180 2771 -414 
C 2771 -791 2285 -1043 1562 -1043 
C 998 -1043 627 -855 627 -570 
C 627 -420 672 -336 941 -13 
z
M 973 2145 
C 973 2526 1152 2752 1446 2752 
C 1645 2752 1811 2642 1914 2449 
C 2029 2223 2106 1927 2106 1675 
C 2106 1314 1920 1088 1626 1088 
C 1242 1088 973 1507 973 2126 
L 973 2145 
z
" transform="scale(0.015625)"/>
      <path id="NimbusRomNo9L-Regu-65" d="M 2611 1053 
C 2304 564 2029 378 1619 378 
C 1254 378 979 564 794 930 
C 678 1174 634 1386 621 1779 
L 2592 1779 
C 2541 2193 2477 2377 2317 2581 
C 2125 2811 1830 2944 1498 2944 
C 1178 2944 877 2829 634 2611 
C 333 2349 160 1894 160 1370 
C 160 486 621 -64 1357 -64 
C 1965 -64 2445 315 2714 1008 
L 2611 1053 
z
M 634 1984 
C 704 2479 922 2714 1312 2714 
C 1702 2714 1856 2535 1939 1984 
L 634 1984 
z
" transform="scale(0.015625)"/>
      <path id="NimbusRomNo9L-Regu-2d" d="M 250 1619 
L 250 1216 
L 1824 1216 
L 1824 1619 
L 250 1619 
z
" transform="scale(0.015625)"/>
      <path id="NimbusRomNo9L-Regu-49" d="M 736 689 
C 736 206 653 128 115 128 
L 115 0 
L 2016 0 
L 2016 128 
C 1491 128 1389 217 1389 688 
L 1389 3542 
C 1389 4012 1478 4096 2016 4096 
L 2016 4231 
L 115 4231 
L 115 4096 
C 659 4096 736 4026 736 3548 
L 736 689 
z
" transform="scale(0.015625)"/>
      <path id="CMR10-28" d="M 2118 -1536 
C 2118 -1517 2118 -1504 2010 -1395 
C 1210 -584 1005 632 1005 1616 
C 1005 2735 1248 3855 2035 4658 
C 2118 4735 2118 4748 2118 4767 
C 2118 4812 2093 4832 2054 4832 
C 1990 4832 1414 4395 1037 3577 
C 710 2870 634 2156 634 1616 
C 634 1114 704 336 1056 -391 
C 1440 -1182 1990 -1600 2054 -1600 
C 2093 -1600 2118 -1581 2118 -1536 
z
" transform="scale(0.015625)"/>
      <path id="NimbusRomNo9L-ReguItal-41" d="M 3610 134 
C 3245 166 3206 217 3123 682 
L 2522 4288 
L 2355 4288 
L 499 1103 
C -6 256 -70 185 -326 134 
L -326 32 
L 870 32 
L 870 134 
C 544 166 493 198 493 357 
C 493 478 512 536 621 753 
L 986 1472 
L 2394 1472 
L 2522 638 
C 2528 580 2534 523 2534 472 
C 2534 230 2445 173 2035 134 
L 2035 32 
L 3610 32 
L 3610 134 
z
M 1120 1702 
L 2080 3358 
L 2362 1702 
L 1120 1702 
z
" transform="scale(0.015625)"/>
      <path id="NimbusRomNo9L-Regu-32" d="M 3040 875 
L 2957 907 
C 2720 544 2637 486 2349 486 
L 819 486 
L 1894 1609 
C 2464 2202 2714 2687 2714 3185 
C 2714 3823 2195 4313 1530 4313 
C 1178 4313 845 4173 608 3918 
C 403 3700 307 3496 198 3043 
L 333 3011 
C 589 3636 819 3840 1261 3840 
C 1798 3840 2163 3476 2163 2940 
C 2163 2443 1869 1850 1331 1282 
L 192 77 
L 192 0 
L 2688 0 
L 3040 875 
z
" transform="scale(0.015625)"/>
      <path id="CMR10-29" d="M 1850 1616 
C 1850 2118 1779 2896 1427 3622 
C 1043 4414 493 4832 429 4832 
C 390 4832 365 4806 365 4767 
C 365 4748 365 4735 486 4620 
C 1114 3983 1478 2960 1478 1616 
C 1478 516 1242 -617 448 -1427 
C 365 -1504 365 -1517 365 -1536 
C 365 -1575 390 -1600 429 -1600 
C 493 -1600 1069 -1163 1446 -346 
C 1773 362 1850 1075 1850 1616 
z
" transform="scale(0.015625)"/>
     </defs>
     <use xlink:href="#NimbusRomNo9L-Regu-53" transform="scale(0.996264)"/>
     <use xlink:href="#NimbusRomNo9L-Regu-74" transform="translate(55.391677 0) scale(0.996264)"/>
     <use xlink:href="#NimbusRomNo9L-Regu-61" transform="translate(83.086847 0) scale(0.996264)"/>
     <use xlink:href="#NimbusRomNo9L-Regu-67" transform="translate(127.320415 0) scale(0.996264)"/>
     <use xlink:href="#NimbusRomNo9L-Regu-65" transform="translate(177.133616 0) scale(0.996264)"/>
     <use xlink:href="#NimbusRomNo9L-Regu-2d" transform="translate(221.367184 0) scale(0.996264)"/>
     <use xlink:href="#NimbusRomNo9L-Regu-49" transform="translate(254.542414 0) scale(0.996264)"/>
     <use xlink:href="#CMR10-28" transform="translate(312.624244 0) scale(0.996264)"/>
     <use xlink:href="#NimbusRomNo9L-ReguItal-41" transform="translate(351.27809 0) scale(0.996264)"/>
     <use xlink:href="#NimbusRomNo9L-Regu-32" transform="translate(412.149721 -15.050129) scale(0.737241)"/>
     <use xlink:href="#CMR10-29" transform="translate(449.509895 0) scale(0.996264)"/>
    </g>
   </g>
  </g>
  <g id="axes_2">
   <g id="patch_8">
    <path d="M 240.657647 236.235839 
L 425.129325 236.235839 
L 425.129325 51.764161 
L 240.657647 51.764161 
L 240.657647 236.235839 
z
" style="fill: none"/>
   </g>
   <g id="patch_9">
    <path d="M 341.832366 211.88195 
L 339.172358 207.146215 
L 336.541308 201.662793 
L 334.126609 195.610226 
L 332.063465 189.298159 
L 330.360903 183.122973 
L 328.879941 177.483451 
L 327.37789 172.68722 
L 325.60084 168.885272 
L 323.381713 166.060232 
L 320.696783 164.069547 
L 317.652576 162.719304 
L 314.409043 161.83108 
L 311.07748 161.269927 
L 307.646301 160.923956 
L 303.976205 160.653522 
L 299.873069 160.246582 
L 295.207527 159.416076 
L 290.024029 157.854554 
L 284.582728 155.330488 
L 279.306036 151.785035 
L 274.645369 147.381142 
L 270.922291 142.473659 
L 268.213078 137.502921 
L 266.328958 132.849705 
L 264.902794 128.709724 
L 263.545674 125.040608 
L 262.005487 121.604999 
L 260.258921 118.09263 
L 258.498649 114.270239 
L 257.025023 110.096173 
L 256.094287 105.751892 
L 255.793709 101.578304 
L 256.000066 97.945065 
L 256.438466 95.108015 
L 256.812313 93.11272 
L 256.943456 91.780467 
L 256.858483 90.777657 
L 256.783233 89.736186 
L 257.04999 88.375086 
L 257.960727 86.578148 
L 259.667504 84.404591 
L 262.120714 82.038525 
L 265.103268 79.705407 
L 268.33006 77.591353 
L 271.56485 75.793166 
L 274.702769 74.30944 
L 277.786077 73.06526 
L 280.953231 71.952533 
L 284.351002 70.867692 
L 288.053149 69.735817 
L 292.022027 68.519678 
L 296.126569 67.218524 
L 300.203193 65.862516 
L 304.128038 64.505921 
L 307.866881 63.21895 
L 311.482517 62.077326 
L 315.100458 61.150771 
L 318.852033 60.494586 
L 322.821395 60.149237 
L 327.017529 60.14979 
L 331.378226 60.540988 
L 335.797994 61.388422 
L 340.163022 62.775362 
L 344.376834 64.78035 
L 348.368441 67.440719 
L 352.085365 70.716864 
L 355.481406 74.475779 
L 358.510085 78.506898 
L 361.129845 82.570024 
L 363.319544 86.460001 
L 365.096558 90.06313 
L 366.52785 93.381554 
L 367.726908 96.514343 
L 368.834868 99.60235 
L 369.989866 102.759702 
L 371.292769 106.020394 
L 372.779008 109.32115 
L 374.405565 112.524931 
L 376.059531 115.471497 
L 377.590193 118.030885 
L 378.860374 120.137428 
L 379.805493 121.794504 
L 380.482463 123.056462 
L 381.088379 124.005304 
L 381.933789 124.739682 
L 383.368059 125.382893 
L 385.672076 126.101079 
L 388.949991 127.112035 
L 393.059157 128.665874 
L 397.610519 130.992104 
L 402.05025 134.227253 
L 405.804021 138.352688 
L 408.43924 143.174573 
L 409.789225 148.363938 
L 409.993263 153.549883 
L 409.435465 158.434249 
L 408.602853 162.883734 
L 407.913994 166.962251 
L 407.580868 170.890041 
L 407.553184 174.946514 
L 407.561507 179.357 
L 407.236915 184.208985 
L 406.256681 189.428661 
L 404.458984 194.820833 
L 401.886776 200.14762 
L 398.752861 205.206802 
L 395.350533 209.875333 
L 391.952651 214.104179 
L 388.740149 217.876501 
L 385.781533 221.159051 
L 383.058847 223.877985 
L 380.515758 225.935099 
L 378.098606 227.257028 
L 375.771871 227.850763 
L 373.508229 227.833781 
L 371.269083 227.418756 
L 368.995771 226.855116 
L 366.622768 226.351088 
L 364.108059 226.00953 
L 361.46235 225.803964 
L 358.756303 225.601675 
L 356.095715 225.218706 
L 353.572823 224.478381 
L 351.21759 223.247019 
L 348.976378 221.436135 
L 346.733642 218.980693 
L 344.370397 215.816811 
L 341.832366 211.88195 
" style="fill: #d3d3d3; stroke: #000000; stroke-width: 0.5; stroke-linejoin: miter"/>
   </g>
   <g id="matplotlib.axis_3">
    <g id="xtick_4">
     <g id="line2d_7">
      <g>
       <use xlink:href="#mf2e2c8d21a" x="264.745383" y="236.235839" style="stroke: #000000; stroke-width: 0.8"/>
      </g>
     </g>
     <g id="text_8">
      <!-- $\mathdefault{−1.0}$ -->
      <g transform="translate(254.513854 249.990417) scale(0.1 -0.1)">
       <defs>
        <path id="CMMI10-3a" d="M 1229 338 
C 1229 522 1075 675 890 675 
C 704 675 550 522 550 338 
C 550 153 704 0 890 0 
C 1075 0 1229 153 1229 338 
z
" transform="scale(0.015625)"/>
       </defs>
       <use xlink:href="#CMSY10-0" transform="scale(0.996264)"/>
       <use xlink:href="#NimbusRomNo9L-Regu-31" transform="translate(77.408707 0) scale(0.996264)"/>
       <use xlink:href="#CMMI10-3a" transform="translate(127.221908 0) scale(0.996264)"/>
       <use xlink:href="#NimbusRomNo9L-Regu-30" transform="translate(154.817414 0) scale(0.996264)"/>
      </g>
     </g>
    </g>
    <g id="xtick_5">
     <g id="line2d_8">
      <g>
       <use xlink:href="#mf2e2c8d21a" x="300.283406" y="236.235839" style="stroke: #000000; stroke-width: 0.8"/>
      </g>
     </g>
     <g id="text_9">
      <!-- $\mathdefault{−0.5}$ -->
      <g transform="translate(290.051876 249.990417) scale(0.1 -0.1)">
       <defs>
        <path id="NimbusRomNo9L-Regu-35" d="M 1158 3776 
L 2413 3776 
C 2515 3776 2541 3789 2560 3834 
L 2803 4403 
L 2746 4448 
C 2650 4314 2586 4282 2451 4282 
L 1114 4282 
L 416 2759 
C 410 2746 410 2740 410 2727 
C 410 2695 435 2676 486 2676 
C 691 2676 947 2631 1210 2547 
C 1946 2309 2285 1910 2285 1274 
C 2285 656 1894 173 1395 173 
C 1267 173 1158 218 966 360 
C 762 508 614 572 480 572 
C 294 572 205 495 205 334 
C 205 90 506 -64 986 -64 
C 1523 -64 1984 110 2304 438 
C 2598 728 2733 1094 2733 1583 
C 2733 2046 2611 2342 2291 2663 
C 2010 2947 1645 3094 890 3229 
L 1158 3776 
z
" transform="scale(0.015625)"/>
       </defs>
       <use xlink:href="#CMSY10-0" transform="scale(0.996264)"/>
       <use xlink:href="#NimbusRomNo9L-Regu-30" transform="translate(77.408707 0) scale(0.996264)"/>
       <use xlink:href="#CMMI10-3a" transform="translate(127.221908 0) scale(0.996264)"/>
       <use xlink:href="#NimbusRomNo9L-Regu-35" transform="translate(154.817414 0) scale(0.996264)"/>
      </g>
     </g>
    </g>
    <g id="xtick_6">
     <g id="line2d_9">
      <g>
       <use xlink:href="#mf2e2c8d21a" x="335.821428" y="236.235839" style="stroke: #000000; stroke-width: 0.8"/>
      </g>
     </g>
     <g id="text_10">
      <!-- $\mathdefault{0.0}$ -->
      <g transform="translate(329.460333 249.990417) scale(0.1 -0.1)">
       <use xlink:href="#NimbusRomNo9L-Regu-30" transform="scale(0.996264)"/>
       <use xlink:href="#CMMI10-3a" transform="translate(49.8132 0) scale(0.996264)"/>
       <use xlink:href="#NimbusRomNo9L-Regu-30" transform="translate(77.408707 0) scale(0.996264)"/>
      </g>
     </g>
    </g>
    <g id="xtick_7">
     <g id="line2d_10">
      <g>
       <use xlink:href="#mf2e2c8d21a" x="371.35945" y="236.235839" style="stroke: #000000; stroke-width: 0.8"/>
      </g>
     </g>
     <g id="text_11">
      <!-- $\mathdefault{0.5}$ -->
      <g transform="translate(364.998355 249.990417) scale(0.1 -0.1)">
       <use xlink:href="#NimbusRomNo9L-Regu-30" transform="scale(0.996264)"/>
       <use xlink:href="#CMMI10-3a" transform="translate(49.8132 0) scale(0.996264)"/>
       <use xlink:href="#NimbusRomNo9L-Regu-35" transform="translate(77.408707 0) scale(0.996264)"/>
      </g>
     </g>
    </g>
    <g id="xtick_8">
     <g id="line2d_11">
      <g>
       <use xlink:href="#mf2e2c8d21a" x="406.897472" y="236.235839" style="stroke: #000000; stroke-width: 0.8"/>
      </g>
     </g>
     <g id="text_12">
      <!-- $\mathdefault{1.0}$ -->
      <g transform="translate(400.536377 249.990417) scale(0.1 -0.1)">
       <use xlink:href="#NimbusRomNo9L-Regu-31" transform="scale(0.996264)"/>
       <use xlink:href="#CMMI10-3a" transform="translate(49.8132 0) scale(0.996264)"/>
       <use xlink:href="#NimbusRomNo9L-Regu-30" transform="translate(77.408707 0) scale(0.996264)"/>
      </g>
     </g>
    </g>
   </g>
   <g id="matplotlib.axis_4">
    <g id="ytick_4">
     <g id="line2d_12">
      <g>
       <use xlink:href="#md6ae1c167b" x="240.657647" y="208.847843" style="stroke: #000000; stroke-width: 0.8"/>
      </g>
     </g>
     <g id="text_13">
      <!-- $\mathdefault{−1.0}$ -->
      <g transform="translate(213.194588 212.225132) scale(0.1 -0.1)">
       <use xlink:href="#CMSY10-0" transform="scale(0.996264)"/>
       <use xlink:href="#NimbusRomNo9L-Regu-31" transform="translate(77.408707 0) scale(0.996264)"/>
       <use xlink:href="#CMMI10-3a" transform="translate(127.221908 0) scale(0.996264)"/>
       <use xlink:href="#NimbusRomNo9L-Regu-30" transform="translate(154.817414 0) scale(0.996264)"/>
      </g>
     </g>
    </g>
    <g id="ytick_5">
     <g id="line2d_13">
      <g>
       <use xlink:href="#md6ae1c167b" x="240.657647" y="173.309821" style="stroke: #000000; stroke-width: 0.8"/>
      </g>
     </g>
     <g id="text_14">
      <!-- $\mathdefault{−0.5}$ -->
      <g transform="translate(213.194588 176.68711) scale(0.1 -0.1)">
       <use xlink:href="#CMSY10-0" transform="scale(0.996264)"/>
       <use xlink:href="#NimbusRomNo9L-Regu-30" transform="translate(77.408707 0) scale(0.996264)"/>
       <use xlink:href="#CMMI10-3a" transform="translate(127.221908 0) scale(0.996264)"/>
       <use xlink:href="#NimbusRomNo9L-Regu-35" transform="translate(154.817414 0) scale(0.996264)"/>
      </g>
     </g>
    </g>
    <g id="ytick_6">
     <g id="line2d_14">
      <g>
       <use xlink:href="#md6ae1c167b" x="240.657647" y="137.771799" style="stroke: #000000; stroke-width: 0.8"/>
      </g>
     </g>
     <g id="text_15">
      <!-- $\mathdefault{0.0}$ -->
      <g transform="translate(220.935457 141.149088) scale(0.1 -0.1)">
       <use xlink:href="#NimbusRomNo9L-Regu-30" transform="scale(0.996264)"/>
       <use xlink:href="#CMMI10-3a" transform="translate(49.8132 0) scale(0.996264)"/>
       <use xlink:href="#NimbusRomNo9L-Regu-30" transform="translate(77.408707 0) scale(0.996264)"/>
      </g>
     </g>
    </g>
    <g id="ytick_7">
     <g id="line2d_15">
      <g>
       <use xlink:href="#md6ae1c167b" x="240.657647" y="102.233777" style="stroke: #000000; stroke-width: 0.8"/>
      </g>
     </g>
     <g id="text_16">
      <!-- $\mathdefault{0.5}$ -->
      <g transform="translate(220.935457 105.611066) scale(0.1 -0.1)">
       <use xlink:href="#NimbusRomNo9L-Regu-30" transform="scale(0.996264)"/>
       <use xlink:href="#CMMI10-3a" transform="translate(49.8132 0) scale(0.996264)"/>
       <use xlink:href="#NimbusRomNo9L-Regu-35" transform="translate(77.408707 0) scale(0.996264)"/>
      </g>
     </g>
    </g>
    <g id="ytick_8">
     <g id="line2d_16">
      <g>
       <use xlink:href="#md6ae1c167b" x="240.657647" y="66.695755" style="stroke: #000000; stroke-width: 0.8"/>
      </g>
     </g>
     <g id="text_17">
      <!-- $\mathdefault{1.0}$ -->
      <g transform="translate(220.935457 70.073044) scale(0.1 -0.1)">
       <use xlink:href="#NimbusRomNo9L-Regu-31" transform="scale(0.996264)"/>
       <use xlink:href="#CMMI10-3a" transform="translate(49.8132 0) scale(0.996264)"/>
       <use xlink:href="#NimbusRomNo9L-Regu-30" transform="translate(77.408707 0) scale(0.996264)"/>
      </g>
     </g>
    </g>
   </g>
   <g id="patch_10">
    <path d="M 240.657647 236.235839 
L 240.657647 51.764161 
" style="fill: none; stroke: #000000; stroke-width: 0.8; stroke-linejoin: miter; stroke-linecap: square"/>
   </g>
   <g id="patch_11">
    <path d="M 425.129325 236.235839 
L 425.129325 51.764161 
" style="fill: none; stroke: #000000; stroke-width: 0.8; stroke-linejoin: miter; stroke-linecap: square"/>
   </g>
   <g id="patch_12">
    <path d="M 240.657647 236.235839 
L 425.129325 236.235839 
" style="fill: none; stroke: #000000; stroke-width: 0.8; stroke-linejoin: miter; stroke-linecap: square"/>
   </g>
   <g id="patch_13">
    <path d="M 240.657647 51.764161 
L 425.129325 51.764161 
" style="fill: none; stroke: #000000; stroke-width: 0.8; stroke-linejoin: miter; stroke-linecap: square"/>
   </g>
   <g id="text_18">
    <!-- Stage-II $(A_{3})$ -->
    <g transform="translate(301.358726 45.764161) scale(0.12 -0.12)">
     <defs>
      <path id="NimbusRomNo9L-Regu-33" d="M 979 2138 
C 1357 2138 1504 2125 1658 2068 
C 2054 1927 2304 1562 2304 1120 
C 2304 583 1939 167 1466 167 
C 1293 167 1165 212 928 365 
C 736 480 627 525 518 525 
C 371 525 275 436 275 301 
C 275 77 550 -64 998 -64 
C 1491 -64 1997 103 2298 365 
C 2598 628 2765 999 2765 1428 
C 2765 1754 2662 2055 2477 2253 
C 2349 2394 2227 2471 1946 2592 
C 2387 2893 2547 3130 2547 3476 
C 2547 3994 2138 4352 1549 4352 
C 1229 4352 947 4244 717 4039 
C 525 3866 429 3699 288 3315 
L 384 3290 
C 646 3757 934 3968 1338 3968 
C 1754 3968 2042 3687 2042 3284 
C 2042 3053 1946 2823 1786 2663 
C 1594 2471 1414 2375 979 2221 
L 979 2138 
z
" transform="scale(0.015625)"/>
     </defs>
     <use xlink:href="#NimbusRomNo9L-Regu-53" transform="scale(0.996264)"/>
     <use xlink:href="#NimbusRomNo9L-Regu-74" transform="translate(55.391677 0) scale(0.996264)"/>
     <use xlink:href="#NimbusRomNo9L-Regu-61" transform="translate(83.086847 0) scale(0.996264)"/>
     <use xlink:href="#NimbusRomNo9L-Regu-67" transform="translate(127.320415 0) scale(0.996264)"/>
     <use xlink:href="#NimbusRomNo9L-Regu-65" transform="translate(177.133616 0) scale(0.996264)"/>
     <use xlink:href="#NimbusRomNo9L-Regu-2d" transform="translate(221.367184 0) scale(0.996264)"/>
     <use xlink:href="#NimbusRomNo9L-Regu-49" transform="translate(254.542414 0) scale(0.996264)"/>
     <use xlink:href="#NimbusRomNo9L-Regu-49" transform="translate(287.717644 0) scale(0.996264)"/>
     <use xlink:href="#CMR10-28" transform="translate(345.799474 0) scale(0.996264)"/>
     <use xlink:href="#NimbusRomNo9L-ReguItal-41" transform="translate(384.45332 0) scale(0.996264)"/>
     <use xlink:href="#NimbusRomNo9L-Regu-33" transform="translate(445.32495 -15.050129) scale(0.737241)"/>
     <use xlink:href="#CMR10-29" transform="translate(482.685124 0) scale(0.996264)"/>
    </g>
   </g>
  </g>
  <g id="axes_3">
   <g id="patch_14">
    <path d="M 458.592864 236.235839 
L 643.064543 236.235839 
L 643.064543 51.764161 
L 458.592864 51.764161 
L 458.592864 236.235839 
z
" style="fill: none"/>
   </g>
   <g id="patch_15">
    <path d="M 561.11092 212.534681 
L 557.6147 205.952973 
L 554.290628 200.554124 
L 552.183299 195.642354 
L 551.473151 189.317594 
L 550.23524 182.703113 
L 547.360335 177.549952 
L 544.425076 173.489658 
L 543.275312 169.517779 
L 542.709213 165.928556 
L 540.686233 163.512904 
L 537.254683 162.326944 
L 533.549701 162.091958 
L 529.585623 161.865791 
L 525.127033 161.007683 
L 521.276608 160.106831 
L 518.421353 160.23503 
L 515.349181 160.48778 
L 510.668925 158.729151 
L 504.132366 155.048613 
L 497.427473 150.913442 
L 492.599341 146.84077 
L 489.896897 142.731568 
L 487.596323 138.775613 
L 484.616068 134.320771 
L 482.838122 128.686414 
L 483.104943 123.680041 
L 483.11577 121.357032 
L 480.862585 119.849882 
L 477.369804 115.814193 
L 474.619854 109.76493 
L 473.057308 104.93662 
L 473.300775 101.790677 
L 475.683887 98.917463 
L 478.336459 96.05089 
L 478.672646 94.023982 
L 476.40299 92.512552 
L 473.69143 90.964116 
L 472.793608 89.701465 
L 474.647845 88.610935 
L 478.347115 86.983426 
L 481.463434 84.958777 
L 482.729394 82.933894 
L 483.847947 80.803926 
L 486.411344 78.519931 
L 489.523283 76.528476 
L 492.375964 74.774111 
L 496.127494 72.70419 
L 500.977271 71.13553 
L 505.221136 71.479626 
L 507.905508 72.384114 
L 510.428505 70.945837 
L 513.864245 67.233424 
L 517.738036 64.623982 
L 522.160702 64.425422 
L 527.481155 64.554686 
L 532.083805 63.223713 
L 534.5725 61.859487 
L 536.690645 61.476519 
L 540.578997 60.930742 
L 545.794556 60.149237 
L 550.27277 60.882963 
L 553.911156 62.913956 
L 558.292154 64.247498 
L 563.579999 64.851984 
L 568.266705 66.998921 
L 571.231738 71.150999 
L 573.230874 75.41239 
L 575.668158 79.189556 
L 578.752753 83.484843 
L 581.944914 88.063956 
L 584.540126 91.193039 
L 586.150368 92.919507 
L 586.72837 95.261471 
L 586.782609 98.973688 
L 587.429359 103.435199 
L 589.124032 108.12394 
L 590.913564 111.975416 
L 592.689975 113.655044 
L 595.069268 113.952109 
L 597.298535 115.67987 
L 598.011507 119.715829 
L 597.476134 123.554684 
L 597.647402 124.972709 
L 599.071933 124.797771 
L 600.435665 124.88969 
L 601.530375 125.499689 
L 604.00627 125.954678 
L 608.133663 126.584459 
L 612.497423 128.422939 
L 616.120357 131.689189 
L 619.551383 135.476988 
L 622.993578 139.037399 
L 625.839711 142.954581 
L 627.648527 148.004396 
L 628.597647 153.658858 
L 628.863798 158.884926 
L 628.170609 163.254178 
L 626.644195 166.879329 
L 625.039344 170.37067 
L 624.17888 174.446831 
L 624.325146 179.493762 
L 625.031166 184.894117 
L 625.536955 190.126586 
L 624.656357 195.084194 
L 621.545467 199.627012 
L 616.932781 203.892396 
L 612.255349 208.612608 
L 608.551234 214.044647 
L 606.117946 218.83802 
L 604.371567 221.909779 
L 602.602689 223.874094 
L 600.349872 225.338709 
L 597.295972 226.216462 
L 593.834857 226.610392 
L 590.822069 227.254787 
L 588.655047 227.850763 
L 586.996862 227.52618 
L 585.218861 226.284382 
L 583.079552 225.232802 
L 580.653243 225.02654 
L 578.150338 225.337459 
L 575.057109 225.612687 
L 571.394742 224.565001 
L 568.278956 222.061404 
L 566.779318 219.871488 
L 565.839825 219.105185 
L 564.050069 217.417339 
L 561.11092 212.534681 
" style="fill: #d3d3d3; stroke: #000000; stroke-width: 0.5; stroke-linejoin: miter"/>
   </g>
   <g id="matplotlib.axis_5">
    <g id="xtick_9">
     <g id="line2d_17">
      <g>
       <use xlink:href="#mf2e2c8d21a" x="483.792587" y="236.235839" style="stroke: #000000; stroke-width: 0.8"/>
      </g>
     </g>
     <g id="text_19">
      <!-- $\mathdefault{−1.0}$ -->
      <g transform="translate(473.561058 249.990417) scale(0.1 -0.1)">
       <use xlink:href="#CMSY10-0" transform="scale(0.996264)"/>
       <use xlink:href="#NimbusRomNo9L-Regu-31" transform="translate(77.408707 0) scale(0.996264)"/>
       <use xlink:href="#CMMI10-3a" transform="translate(127.221908 0) scale(0.996264)"/>
       <use xlink:href="#NimbusRomNo9L-Regu-30" transform="translate(154.817414 0) scale(0.996264)"/>
      </g>
     </g>
    </g>
    <g id="xtick_10">
     <g id="line2d_18">
      <g>
       <use xlink:href="#mf2e2c8d21a" x="519.124442" y="236.235839" style="stroke: #000000; stroke-width: 0.8"/>
      </g>
     </g>
     <g id="text_20">
      <!-- $\mathdefault{−0.5}$ -->
      <g transform="translate(508.892913 249.990417) scale(0.1 -0.1)">
       <use xlink:href="#CMSY10-0" transform="scale(0.996264)"/>
       <use xlink:href="#NimbusRomNo9L-Regu-30" transform="translate(77.408707 0) scale(0.996264)"/>
       <use xlink:href="#CMMI10-3a" transform="translate(127.221908 0) scale(0.996264)"/>
       <use xlink:href="#NimbusRomNo9L-Regu-35" transform="translate(154.817414 0) scale(0.996264)"/>
      </g>
     </g>
    </g>
    <g id="xtick_11">
     <g id="line2d_19">
      <g>
       <use xlink:href="#mf2e2c8d21a" x="554.456296" y="236.235839" style="stroke: #000000; stroke-width: 0.8"/>
      </g>
     </g>
     <g id="text_21">
      <!-- $\mathdefault{0.0}$ -->
      <g transform="translate(548.095202 249.990417) scale(0.1 -0.1)">
       <use xlink:href="#NimbusRomNo9L-Regu-30" transform="scale(0.996264)"/>
       <use xlink:href="#CMMI10-3a" transform="translate(49.8132 0) scale(0.996264)"/>
       <use xlink:href="#NimbusRomNo9L-Regu-30" transform="translate(77.408707 0) scale(0.996264)"/>
      </g>
     </g>
    </g>
    <g id="xtick_12">
     <g id="line2d_20">
      <g>
       <use xlink:href="#mf2e2c8d21a" x="589.788151" y="236.235839" style="stroke: #000000; stroke-width: 0.8"/>
      </g>
     </g>
     <g id="text_22">
      <!-- $\mathdefault{0.5}$ -->
      <g transform="translate(583.427056 249.990417) scale(0.1 -0.1)">
       <use xlink:href="#NimbusRomNo9L-Regu-30" transform="scale(0.996264)"/>
       <use xlink:href="#CMMI10-3a" transform="translate(49.8132 0) scale(0.996264)"/>
       <use xlink:href="#NimbusRomNo9L-Regu-35" transform="translate(77.408707 0) scale(0.996264)"/>
      </g>
     </g>
    </g>
    <g id="xtick_13">
     <g id="line2d_21">
      <g>
       <use xlink:href="#mf2e2c8d21a" x="625.120005" y="236.235839" style="stroke: #000000; stroke-width: 0.8"/>
      </g>
     </g>
     <g id="text_23">
      <!-- $\mathdefault{1.0}$ -->
      <g transform="translate(618.758911 249.990417) scale(0.1 -0.1)">
       <use xlink:href="#NimbusRomNo9L-Regu-31" transform="scale(0.996264)"/>
       <use xlink:href="#CMMI10-3a" transform="translate(49.8132 0) scale(0.996264)"/>
       <use xlink:href="#NimbusRomNo9L-Regu-30" transform="translate(77.408707 0) scale(0.996264)"/>
      </g>
     </g>
    </g>
   </g>
   <g id="matplotlib.axis_6">
    <g id="ytick_9">
     <g id="line2d_22">
      <g>
       <use xlink:href="#md6ae1c167b" x="458.592864" y="208.668403" style="stroke: #000000; stroke-width: 0.8"/>
      </g>
     </g>
     <g id="text_24">
      <!-- $\mathdefault{−1.0}$ -->
      <g transform="translate(431.129805 212.045692) scale(0.1 -0.1)">
       <use xlink:href="#CMSY10-0" transform="scale(0.996264)"/>
       <use xlink:href="#NimbusRomNo9L-Regu-31" transform="translate(77.408707 0) scale(0.996264)"/>
       <use xlink:href="#CMMI10-3a" transform="translate(127.221908 0) scale(0.996264)"/>
       <use xlink:href="#NimbusRomNo9L-Regu-30" transform="translate(154.817414 0) scale(0.996264)"/>
      </g>
     </g>
    </g>
    <g id="ytick_10">
     <g id="line2d_23">
      <g>
       <use xlink:href="#md6ae1c167b" x="458.592864" y="173.336548" style="stroke: #000000; stroke-width: 0.8"/>
      </g>
     </g>
     <g id="text_25">
      <!-- $\mathdefault{−0.5}$ -->
      <g transform="translate(431.129805 176.713837) scale(0.1 -0.1)">
       <use xlink:href="#CMSY10-0" transform="scale(0.996264)"/>
       <use xlink:href="#NimbusRomNo9L-Regu-30" transform="translate(77.408707 0) scale(0.996264)"/>
       <use xlink:href="#CMMI10-3a" transform="translate(127.221908 0) scale(0.996264)"/>
       <use xlink:href="#NimbusRomNo9L-Regu-35" transform="translate(154.817414 0) scale(0.996264)"/>
      </g>
     </g>
    </g>
    <g id="ytick_11">
     <g id="line2d_24">
      <g>
       <use xlink:href="#md6ae1c167b" x="458.592864" y="138.004694" style="stroke: #000000; stroke-width: 0.8"/>
      </g>
     </g>
     <g id="text_26">
      <!-- $\mathdefault{0.0}$ -->
      <g transform="translate(438.870675 141.381983) scale(0.1 -0.1)">
       <use xlink:href="#NimbusRomNo9L-Regu-30" transform="scale(0.996264)"/>
       <use xlink:href="#CMMI10-3a" transform="translate(49.8132 0) scale(0.996264)"/>
       <use xlink:href="#NimbusRomNo9L-Regu-30" transform="translate(77.408707 0) scale(0.996264)"/>
      </g>
     </g>
    </g>
    <g id="ytick_12">
     <g id="line2d_25">
      <g>
       <use xlink:href="#md6ae1c167b" x="458.592864" y="102.672839" style="stroke: #000000; stroke-width: 0.8"/>
      </g>
     </g>
     <g id="text_27">
      <!-- $\mathdefault{0.5}$ -->
      <g transform="translate(438.870675 106.050128) scale(0.1 -0.1)">
       <use xlink:href="#NimbusRomNo9L-Regu-30" transform="scale(0.996264)"/>
       <use xlink:href="#CMMI10-3a" transform="translate(49.8132 0) scale(0.996264)"/>
       <use xlink:href="#NimbusRomNo9L-Regu-35" transform="translate(77.408707 0) scale(0.996264)"/>
      </g>
     </g>
    </g>
    <g id="ytick_13">
     <g id="line2d_26">
      <g>
       <use xlink:href="#md6ae1c167b" x="458.592864" y="67.340985" style="stroke: #000000; stroke-width: 0.8"/>
      </g>
     </g>
     <g id="text_28">
      <!-- $\mathdefault{1.0}$ -->
      <g transform="translate(438.870675 70.718274) scale(0.1 -0.1)">
       <use xlink:href="#NimbusRomNo9L-Regu-31" transform="scale(0.996264)"/>
       <use xlink:href="#CMMI10-3a" transform="translate(49.8132 0) scale(0.996264)"/>
       <use xlink:href="#NimbusRomNo9L-Regu-30" transform="translate(77.408707 0) scale(0.996264)"/>
      </g>
     </g>
    </g>
   </g>
   <g id="patch_16">
    <path d="M 458.592864 236.235839 
L 458.592864 51.764161 
" style="fill: none; stroke: #000000; stroke-width: 0.8; stroke-linejoin: miter; stroke-linecap: square"/>
   </g>
   <g id="patch_17">
    <path d="M 643.064543 236.235839 
L 643.064543 51.764161 
" style="fill: none; stroke: #000000; stroke-width: 0.8; stroke-linejoin: miter; stroke-linecap: square"/>
   </g>
   <g id="patch_18">
    <path d="M 458.592864 236.235839 
L 643.064543 236.235839 
" style="fill: none; stroke: #000000; stroke-width: 0.8; stroke-linejoin: miter; stroke-linecap: square"/>
   </g>
   <g id="patch_19">
    <path d="M 458.592864 51.764161 
L 643.064543 51.764161 
" style="fill: none; stroke: #000000; stroke-width: 0.8; stroke-linejoin: miter; stroke-linecap: square"/>
   </g>
   <g id="text_29">
    <!-- Stage-III $(A_{16})$ -->
    <g transform="translate(515.061836 45.764161) scale(0.12 -0.12)">
     <defs>
      <path id="NimbusRomNo9L-Regu-36" d="M 2854 4391 
C 2125 4327 1754 4205 1286 3879 
C 595 3386 218 2656 218 1802 
C 218 1248 390 688 666 370 
C 909 89 1254 -64 1651 -64 
C 2445 -64 2995 541 2995 1421 
C 2995 2236 2528 2752 1792 2752 
C 1510 2752 1376 2707 973 2464 
C 1146 3431 1862 4122 2867 4288 
L 2854 4391 
z
M 1549 2458 
C 2099 2458 2419 2000 2419 1204 
C 2419 504 2170 116 1722 116 
C 1158 116 813 714 813 1700 
C 813 2025 864 2203 992 2299 
C 1126 2400 1325 2458 1549 2458 
z
" transform="scale(0.015625)"/>
     </defs>
     <use xlink:href="#NimbusRomNo9L-Regu-53" transform="scale(0.996264)"/>
     <use xlink:href="#NimbusRomNo9L-Regu-74" transform="translate(55.391677 0) scale(0.996264)"/>
     <use xlink:href="#NimbusRomNo9L-Regu-61" transform="translate(83.086847 0) scale(0.996264)"/>
     <use xlink:href="#NimbusRomNo9L-Regu-67" transform="translate(127.320415 0) scale(0.996264)"/>
     <use xlink:href="#NimbusRomNo9L-Regu-65" transform="translate(177.133616 0) scale(0.996264)"/>
     <use xlink:href="#NimbusRomNo9L-Regu-2d" transform="translate(221.367184 0) scale(0.996264)"/>
     <use xlink:href="#NimbusRomNo9L-Regu-49" transform="translate(254.542414 0) scale(0.996264)"/>
     <use xlink:href="#NimbusRomNo9L-Regu-49" transform="translate(287.717644 0) scale(0.996264)"/>
     <use xlink:href="#NimbusRomNo9L-Regu-49" transform="translate(320.892874 0) scale(0.996264)"/>
     <use xlink:href="#CMR10-28" transform="translate(378.974704 0) scale(0.996264)"/>
     <use xlink:href="#NimbusRomNo9L-ReguItal-41" transform="translate(417.628549 0) scale(0.996264)"/>
     <use xlink:href="#NimbusRomNo9L-Regu-31" transform="translate(478.50018 -16.081844) scale(0.737241)"/>
     <use xlink:href="#NimbusRomNo9L-Regu-36" transform="translate(515.362222 -16.081844) scale(0.737241)"/>
     <use xlink:href="#CMR10-29" transform="translate(552.722396 0) scale(0.996264)"/>
    </g>
   </g>
  </g>
  <g id="axes_4">
   <g id="patch_20">
    <path d="M 676.528081 236.235839 
L 860.99976 236.235839 
L 860.99976 51.764161 
L 676.528081 51.764161 
L 676.528081 236.235839 
z
" style="fill: none"/>
   </g>
   <g id="patch_21">
    <path d="M 779.016404 212.478678 
L 775.565827 205.973754 
L 772.236373 200.548543 
L 770.109702 195.610103 
L 769.390406 189.318126 
L 768.200914 182.694573 
L 765.283546 177.527833 
L 762.345992 173.483788 
L 761.217537 169.484997 
L 760.658875 165.950784 
L 758.596429 163.452045 
L 755.191977 162.344637 
L 751.494828 162.061593 
L 747.508664 161.855544 
L 743.059227 160.991078 
L 739.198085 160.080015 
L 736.368735 160.242447 
L 733.281451 160.453657 
L 728.559755 158.711611 
L 722.10354 155.038753 
L 715.355337 150.913717 
L 710.474624 146.778157 
L 707.879421 142.749651 
L 705.500526 138.759962 
L 702.536291 134.270812 
L 700.760573 128.681458 
L 701.046579 123.67624 
L 701.036843 121.306139 
L 698.761637 119.844608 
L 695.32856 115.783344 
L 692.532318 109.760593 
L 690.963505 104.882436 
L 691.248453 101.791741 
L 693.594507 98.876953 
L 696.266072 96.040595 
L 696.590447 93.983889 
L 694.334044 92.484622 
L 691.613092 90.960286 
L 690.716741 89.659013 
L 692.564184 88.568964 
L 696.289961 86.99037 
L 699.369311 84.919018 
L 700.656708 82.887606 
L 701.794194 80.795465 
L 704.304954 78.500189 
L 707.464826 76.482084 
L 710.322393 74.740089 
L 714.008234 72.700724 
L 718.943235 71.10067 
L 723.1431 71.421108 
L 725.821244 72.38729 
L 728.355795 70.916681 
L 731.820275 67.189198 
L 735.645994 64.577388 
L 740.077173 64.451481 
L 745.456212 64.47526 
L 749.980236 63.195171 
L 752.512555 61.860458 
L 754.628636 61.429734 
L 758.515295 60.881449 
L 763.724689 60.149237 
L 768.192008 60.83761 
L 771.881948 62.884158 
L 776.195425 64.214124 
L 781.534066 64.833777 
L 786.192567 66.959098 
L 789.181998 71.122172 
L 791.174177 75.394303 
L 793.566577 79.144506 
L 796.746875 83.474393 
L 799.861885 88.034777 
L 802.449946 91.147759 
L 804.137717 92.921636 
L 804.657032 95.22528 
L 804.686375 98.933502 
L 805.418184 103.433309 
L 807.043962 108.09207 
L 808.840805 111.949718 
L 810.658524 113.630007 
L 812.988005 113.937045 
L 815.253286 115.659591 
L 815.948838 119.679217 
L 815.415671 123.543775 
L 815.593874 124.954667 
L 817.01394 124.775639 
L 818.369436 124.854975 
L 819.487834 125.487483 
L 821.931172 125.957971 
L 826.094213 126.519423 
L 830.429218 128.415374 
L 834.068653 131.710226 
L 837.498719 135.407121 
L 840.937122 139.016927 
L 843.786145 142.986279 
L 845.590386 147.952801 
L 846.552109 153.618139 
L 846.8111 158.91624 
L 846.096347 163.226883 
L 844.620226 166.836928 
L 842.969716 170.372599 
L 842.116382 174.457668 
L 842.287446 179.444848 
L 842.968111 184.887591 
L 843.489149 190.131872 
L 842.586676 195.076172 
L 839.506427 199.58179 
L 834.884704 203.914301 
L 830.168999 208.610927 
L 826.514478 214.003877 
L 824.078953 218.848541 
L 822.27664 221.9157 
L 820.558729 223.846302 
L 818.317599 225.339166 
L 815.205018 226.21276 
L 811.780502 226.610044 
L 808.782499 227.234419 
L 806.584955 227.850763 
L 804.920789 227.531132 
L 803.188288 226.260373 
L 800.998648 225.240086 
L 798.597712 225.006007 
L 796.093229 225.355984 
L 792.990985 225.57711 
L 789.328344 224.569306 
L 786.238415 222.075396 
L 784.68338 219.830049 
L 783.796373 219.109738 
L 782.000011 217.437995 
L 779.016404 212.478678 
" style="fill: #d3d3d3; stroke: #000000; stroke-width: 0.5; stroke-linejoin: miter"/>
   </g>
   <g id="matplotlib.axis_7">
    <g id="xtick_14">
     <g id="line2d_27">
      <g>
       <use xlink:href="#mf2e2c8d21a" x="701.717682" y="236.235839" style="stroke: #000000; stroke-width: 0.8"/>
      </g>
     </g>
     <g id="text_30">
      <!-- $\mathdefault{−1.0}$ -->
      <g transform="translate(691.486153 249.990417) scale(0.1 -0.1)">
       <use xlink:href="#CMSY10-0" transform="scale(0.996264)"/>
       <use xlink:href="#NimbusRomNo9L-Regu-31" transform="translate(77.408707 0) scale(0.996264)"/>
       <use xlink:href="#CMMI10-3a" transform="translate(127.221908 0) scale(0.996264)"/>
       <use xlink:href="#NimbusRomNo9L-Regu-30" transform="translate(154.817414 0) scale(0.996264)"/>
      </g>
     </g>
    </g>
    <g id="xtick_15">
     <g id="line2d_28">
      <g>
       <use xlink:href="#mf2e2c8d21a" x="737.054726" y="236.235839" style="stroke: #000000; stroke-width: 0.8"/>
      </g>
     </g>
     <g id="text_31">
      <!-- $\mathdefault{−0.5}$ -->
      <g transform="translate(726.823197 249.990417) scale(0.1 -0.1)">
       <use xlink:href="#CMSY10-0" transform="scale(0.996264)"/>
       <use xlink:href="#NimbusRomNo9L-Regu-30" transform="translate(77.408707 0) scale(0.996264)"/>
       <use xlink:href="#CMMI10-3a" transform="translate(127.221908 0) scale(0.996264)"/>
       <use xlink:href="#NimbusRomNo9L-Regu-35" transform="translate(154.817414 0) scale(0.996264)"/>
      </g>
     </g>
    </g>
    <g id="xtick_16">
     <g id="line2d_29">
      <g>
       <use xlink:href="#mf2e2c8d21a" x="772.39177" y="236.235839" style="stroke: #000000; stroke-width: 0.8"/>
      </g>
     </g>
     <g id="text_32">
      <!-- $\mathdefault{0.0}$ -->
      <g transform="translate(766.030675 249.990417) scale(0.1 -0.1)">
       <use xlink:href="#NimbusRomNo9L-Regu-30" transform="scale(0.996264)"/>
       <use xlink:href="#CMMI10-3a" transform="translate(49.8132 0) scale(0.996264)"/>
       <use xlink:href="#NimbusRomNo9L-Regu-30" transform="translate(77.408707 0) scale(0.996264)"/>
      </g>
     </g>
    </g>
    <g id="xtick_17">
     <g id="line2d_30">
      <g>
       <use xlink:href="#mf2e2c8d21a" x="807.728814" y="236.235839" style="stroke: #000000; stroke-width: 0.8"/>
      </g>
     </g>
     <g id="text_33">
      <!-- $\mathdefault{0.5}$ -->
      <g transform="translate(801.367719 249.990417) scale(0.1 -0.1)">
       <use xlink:href="#NimbusRomNo9L-Regu-30" transform="scale(0.996264)"/>
       <use xlink:href="#CMMI10-3a" transform="translate(49.8132 0) scale(0.996264)"/>
       <use xlink:href="#NimbusRomNo9L-Regu-35" transform="translate(77.408707 0) scale(0.996264)"/>
      </g>
     </g>
    </g>
    <g id="xtick_18">
     <g id="line2d_31">
      <g>
       <use xlink:href="#mf2e2c8d21a" x="843.065858" y="236.235839" style="stroke: #000000; stroke-width: 0.8"/>
      </g>
     </g>
     <g id="text_34">
      <!-- $\mathdefault{1.0}$ -->
      <g transform="translate(836.704763 249.990417) scale(0.1 -0.1)">
       <use xlink:href="#NimbusRomNo9L-Regu-31" transform="scale(0.996264)"/>
       <use xlink:href="#CMMI10-3a" transform="translate(49.8132 0) scale(0.996264)"/>
       <use xlink:href="#NimbusRomNo9L-Regu-30" transform="translate(77.408707 0) scale(0.996264)"/>
      </g>
     </g>
    </g>
   </g>
   <g id="matplotlib.axis_8">
    <g id="ytick_14">
     <g id="line2d_32">
      <g>
       <use xlink:href="#md6ae1c167b" x="676.528081" y="208.659618" style="stroke: #000000; stroke-width: 0.8"/>
      </g>
     </g>
     <g id="text_35">
      <!-- $\mathdefault{−1.0}$ -->
      <g transform="translate(649.065023 212.036907) scale(0.1 -0.1)">
       <use xlink:href="#CMSY10-0" transform="scale(0.996264)"/>
       <use xlink:href="#NimbusRomNo9L-Regu-31" transform="translate(77.408707 0) scale(0.996264)"/>
       <use xlink:href="#CMMI10-3a" transform="translate(127.221908 0) scale(0.996264)"/>
       <use xlink:href="#NimbusRomNo9L-Regu-30" transform="translate(154.817414 0) scale(0.996264)"/>
      </g>
     </g>
    </g>
    <g id="ytick_15">
     <g id="line2d_33">
      <g>
       <use xlink:href="#md6ae1c167b" x="676.528081" y="173.322574" style="stroke: #000000; stroke-width: 0.8"/>
      </g>
     </g>
     <g id="text_36">
      <!-- $\mathdefault{−0.5}$ -->
      <g transform="translate(649.065023 176.699863) scale(0.1 -0.1)">
       <use xlink:href="#CMSY10-0" transform="scale(0.996264)"/>
       <use xlink:href="#NimbusRomNo9L-Regu-30" transform="translate(77.408707 0) scale(0.996264)"/>
       <use xlink:href="#CMMI10-3a" transform="translate(127.221908 0) scale(0.996264)"/>
       <use xlink:href="#NimbusRomNo9L-Regu-35" transform="translate(154.817414 0) scale(0.996264)"/>
      </g>
     </g>
    </g>
    <g id="ytick_16">
     <g id="line2d_34">
      <g>
       <use xlink:href="#md6ae1c167b" x="676.528081" y="137.98553" style="stroke: #000000; stroke-width: 0.8"/>
      </g>
     </g>
     <g id="text_37">
      <!-- $\mathdefault{0.0}$ -->
      <g transform="translate(656.805892 141.362819) scale(0.1 -0.1)">
       <use xlink:href="#NimbusRomNo9L-Regu-30" transform="scale(0.996264)"/>
       <use xlink:href="#CMMI10-3a" transform="translate(49.8132 0) scale(0.996264)"/>
       <use xlink:href="#NimbusRomNo9L-Regu-30" transform="translate(77.408707 0) scale(0.996264)"/>
      </g>
     </g>
    </g>
    <g id="ytick_17">
     <g id="line2d_35">
      <g>
       <use xlink:href="#md6ae1c167b" x="676.528081" y="102.648486" style="stroke: #000000; stroke-width: 0.8"/>
      </g>
     </g>
     <g id="text_38">
      <!-- $\mathdefault{0.5}$ -->
      <g transform="translate(656.805892 106.025775) scale(0.1 -0.1)">
       <use xlink:href="#NimbusRomNo9L-Regu-30" transform="scale(0.996264)"/>
       <use xlink:href="#CMMI10-3a" transform="translate(49.8132 0) scale(0.996264)"/>
       <use xlink:href="#NimbusRomNo9L-Regu-35" transform="translate(77.408707 0) scale(0.996264)"/>
      </g>
     </g>
    </g>
    <g id="ytick_18">
     <g id="line2d_36">
      <g>
       <use xlink:href="#md6ae1c167b" x="676.528081" y="67.311442" style="stroke: #000000; stroke-width: 0.8"/>
      </g>
     </g>
     <g id="text_39">
      <!-- $\mathdefault{1.0}$ -->
      <g transform="translate(656.805892 70.688731) scale(0.1 -0.1)">
       <use xlink:href="#NimbusRomNo9L-Regu-31" transform="scale(0.996264)"/>
       <use xlink:href="#CMMI10-3a" transform="translate(49.8132 0) scale(0.996264)"/>
       <use xlink:href="#NimbusRomNo9L-Regu-30" transform="translate(77.408707 0) scale(0.996264)"/>
      </g>
     </g>
    </g>
   </g>
   <g id="patch_22">
    <path d="M 676.528081 236.235839 
L 676.528081 51.764161 
" style="fill: none; stroke: #000000; stroke-width: 0.8; stroke-linejoin: miter; stroke-linecap: square"/>
   </g>
   <g id="patch_23">
    <path d="M 860.99976 236.235839 
L 860.99976 51.764161 
" style="fill: none; stroke: #000000; stroke-width: 0.8; stroke-linejoin: miter; stroke-linecap: square"/>
   </g>
   <g id="patch_24">
    <path d="M 676.528081 236.235839 
L 860.99976 236.235839 
" style="fill: none; stroke: #000000; stroke-width: 0.8; stroke-linejoin: miter; stroke-linecap: square"/>
   </g>
   <g id="patch_25">
    <path d="M 676.528081 51.764161 
L 860.99976 51.764161 
" style="fill: none; stroke: #000000; stroke-width: 0.8; stroke-linejoin: miter; stroke-linecap: square"/>
   </g>
   <g id="text_40">
    <!-- Stage-IV $(A_{37})$ -->
    <g transform="translate(732.662287 45.764161) scale(0.12 -0.12)">
     <defs>
      <path id="NimbusRomNo9L-Regu-56" d="M 4461 4231 
L 3149 4231 
L 3149 4096 
C 3501 4096 3616 4026 3616 3846 
C 3616 3744 3571 3572 3494 3380 
L 2554 1033 
L 1587 3199 
C 1376 3667 1325 3814 1325 3910 
C 1325 4032 1414 4096 1619 4096 
C 1645 4096 1715 4096 1805 4109 
L 1805 4231 
L 102 4231 
L 102 4096 
C 416 4096 506 4007 781 3439 
L 2355 -64 
L 2451 -64 
L 3872 3521 
C 4083 4026 4154 4096 4461 4096 
L 4461 4231 
z
" transform="scale(0.015625)"/>
      <path id="NimbusRomNo9L-Regu-37" d="M 2874 4250 
L 506 4250 
L 128 3310 
L 237 3258 
C 512 3693 627 3776 979 3776 
L 2368 3776 
L 1101 -32 
L 1517 -32 
L 2874 4148 
L 2874 4250 
z
" transform="scale(0.015625)"/>
     </defs>
     <use xlink:href="#NimbusRomNo9L-Regu-53" transform="scale(0.996264)"/>
     <use xlink:href="#NimbusRomNo9L-Regu-74" transform="translate(55.391677 0) scale(0.996264)"/>
     <use xlink:href="#NimbusRomNo9L-Regu-61" transform="translate(83.086847 0) scale(0.996264)"/>
     <use xlink:href="#NimbusRomNo9L-Regu-67" transform="translate(127.320415 0) scale(0.996264)"/>
     <use xlink:href="#NimbusRomNo9L-Regu-65" transform="translate(177.133616 0) scale(0.996264)"/>
     <use xlink:href="#NimbusRomNo9L-Regu-2d" transform="translate(221.367184 0) scale(0.996264)"/>
     <use xlink:href="#NimbusRomNo9L-Regu-49" transform="translate(254.542414 0) scale(0.996264)"/>
     <use xlink:href="#NimbusRomNo9L-Regu-56" transform="translate(287.717644 0) scale(0.996264)"/>
     <use xlink:href="#CMR10-28" transform="translate(384.554229 0) scale(0.996264)"/>
     <use xlink:href="#NimbusRomNo9L-ReguItal-41" transform="translate(423.208075 0) scale(0.996264)"/>
     <use xlink:href="#NimbusRomNo9L-Regu-33" transform="translate(484.079705 -15.050129) scale(0.737241)"/>
     <use xlink:href="#NimbusRomNo9L-Regu-37" transform="translate(520.941747 -15.050129) scale(0.737241)"/>
     <use xlink:href="#CMR10-29" transform="translate(558.301921 0) scale(0.996264)"/>
    </g>
   </g>
  </g>
 </g>
</svg>
