<?xml version="1.0" encoding="utf-8" standalone="no"?>
<!DOCTYPE svg PUBLIC "-//W3C//DTD SVG 1.1//EN"
  "http://www.w3.org/Graphics/SVG/1.1/DTD/svg11.dtd">
<svg xmlns:xlink="http://www.w3.org/1999/xlink" width="432pt" height="360pt" viewBox="0 0 432 360" xmlns="http://www.w3.org/2000/svg" version="1.1">
 <metadata>
  <rdf:RDF xmlns:dc="http://purl.org/dc/elements/1.1/" xmlns:cc="http://creativecommons.org/ns#" xmlns:rdf="http://www.w3.org/1999/02/22-rdf-syntax-ns#">
   <cc:Work>
    <dc:type rdf:resource="http://purl.org/dc/dcmitype/StillImage"/>
    <dc:date>2024-08-12T15:05:44.307524</dc:date>
    <dc:format>image/svg+xml</dc:format>
    <dc:creator>
     <cc:Agent>
      <dc:title>Matplotlib v3.9.1, https://matplotlib.org/</dc:title>
     </cc:Agent>
    </dc:creator>
   </cc:Work>
  </rdf:RDF>
 </metadata>
 <defs>
  <style type="text/css">*{stroke-linejoin: round; stroke-linecap: butt}</style>
 </defs>
 <g id="figure_1">
  <g id="patch_1">
   <path d="M 0 360 
L 432 360 
L 432 0 
L 0 0 
L 0 360 
z
" style="fill: none"/>
  </g>
  <g id="axes_1">
   <g id="patch_2">
    <path d="M 82.8 320.4 
L 360 320.4 
L 360 43.2 
L 82.8 43.2 
L 82.8 320.4 
z
" style="fill: none"/>
   </g>
   <g id="patch_3">
    <path d="M 105.055731 337.004928 
L 106.18604 336.886314 
L 107.538767 336.465234 
L 108.53139 335.690069 
L 109.492228 335.076595 
L 110.39359 334.174346 
L 111.445191 333.244946 
L 112.408187 332.305436 
L 113.635161 331.624181 
L 114.889034 330.183708 
L 115.718998 328.845911 
L 116.787699 327.101986 
L 116.960826 324.635757 
L 116.689646 322.448762 
L 116.298723 320.22506 
L 115.313477 318.454568 
L 114.617542 317.249716 
L 114.084691 315.988714 
L 113.421964 315.094375 
L 112.961013 314.111468 
L 112.341136 312.765587 
L 111.60642 311.486831 
L 110.742827 310.287379 
L 110.089834 309.343457 
L 109.920962 308.049733 
L 109.237483 306.661404 
L 108.358535 305.688791 
L 107.53185 304.785248 
L 106.938841 303.807648 
L 105.95252 302.518404 
L 104.816559 301.50621 
L 104.004648 300.418521 
L 103.366733 299.365496 
L 102.567415 297.955177 
L 101.265634 296.717363 
L 99.921164 295.64959 
L 98.003849 294.835609 
L 96.050007 294.520125 
L 94.430708 294.204514 
L 92.879913 293.842015 
L 91.101945 293.622504 
L 89.374629 293.895463 
L 88.260347 294.516631 
L 87.324476 294.916625 
L 86.026096 295.288844 
L 84.809133 295.872798 
L 83.967563 296.359957 
L 82.933677 296.366004 
L 81.505502 296.527474 
L 80.425428 297.067396 
L 79.626916 297.722896 
L 78.982567 298.200013 
L 78.135904 298.257298 
L 76.749706 298.363553 
L 75.011597 298.859861 
L 73.370225 299.52502 
L 72.007782 300.156043 
L 70.611984 300.761426 
L 69.097771 301.742376 
L 68.089953 302.849326 
L 67.065798 303.606856 
L 65.381287 304.703267 
L 63.996456 306.453889 
L 63.407048 307.753568 
L 62.660598 308.549888 
L 61.780376 309.311748 
L 60.976498 309.963378 
L 60.276039 310.540156 
L 59.209396 311.101239 
L 57.767304 311.90791 
L 56.163003 313.077501 
L 54.92219 314.887259 
L 54.428372 316.460776 
L 54.153545 317.34476 
L 53.96836 317.748453 
L 53.144615 317.85332 
L 51.691473 318.735234 
L 50.811381 320.242914 
L 50.352529 321.798059 
L 50.271732 323.118847 
L 49.978229 323.53672 
L 48.9844 324.153977 
L 48.284951 325.433398 
L 47.881929 326.747872 
L 47.928698 328.258437 
L 48.383096 329.51349 
L 48.467232 330.814324 
L 48.695906 332.37605 
L 49.336519 333.881087 
L 50.380972 335.076265 
L 51.20187 335.752325 
L 51.980558 336.662942 
L 53.321203 337.590587 
L 54.540506 338.367537 
L 55.732852 339.383838 
L 57.266573 340.377481 
L 58.92071 341.168461 
L 60.347336 341.753727 
L 62.049451 342.354822 
L 63.942369 342.311541 
L 65.174657 342.681851 
L 67.155807 343.617143 
L 69.654384 344.040186 
L 72.151069 344.213319 
L 74.404594 344.147169 
L 76.589516 343.660593 
L 78.24164 342.947352 
L 79.957984 342.661408 
L 81.699075 341.984181 
L 83.362916 341.610943 
L 85.562961 341.174689 
L 87.385298 340.276969 
L 88.652149 339.401883 
L 89.754825 338.598506 
L 90.409605 337.907456 
L 90.9737 337.540323 
L 91.64979 337.136265 
L 92.442467 336.985242 
L 93.181875 337.007648 
L 94.073773 337.347754 
L 95.071976 337.652121 
L 96.272338 338.415 
L 97.875265 338.542236 
L 99.060503 338.202284 
L 100.069718 337.845094 
L 101.069464 337.979362 
L 102.705776 337.713679 
L 103.873382 337.142757 
L 105.055731 337.004928 
" style="fill: #ff0000; stroke: #000000; stroke-linejoin: miter"/>
   </g>
   <g id="patch_4">
    <path d="M -172.144269 337.004928 
L -171.01396 336.886314 
L -169.661233 336.465234 
L -168.66861 335.690069 
L -167.707772 335.076595 
L -166.80641 334.174346 
L -165.754809 333.244946 
L -164.791813 332.305436 
L -163.564839 331.624181 
L -162.310966 330.183708 
L -161.481002 328.845911 
L -160.412301 327.101986 
L -160.239174 324.635757 
L -160.510354 322.448762 
L -160.901277 320.22506 
L -161.886523 318.454568 
L -162.582458 317.249716 
L -163.115309 315.988714 
L -163.778036 315.094375 
L -164.238987 314.111468 
L -164.858864 312.765587 
L -165.59358 311.486831 
L -166.457173 310.287379 
L -167.110166 309.343457 
L -167.279038 308.049733 
L -167.962517 306.661404 
L -168.841465 305.688791 
L -169.66815 304.785248 
L -170.261159 303.807648 
L -171.24748 302.518404 
L -172.383441 301.50621 
L -173.195352 300.418521 
L -173.833267 299.365496 
L -174.632585 297.955177 
L -175.934366 296.717363 
L -177.278836 295.64959 
L -179.196151 294.835609 
L -181.149993 294.520125 
L -182.769292 294.204514 
L -184.320087 293.842015 
L -186.098055 293.622504 
L -187.825371 293.895463 
L -188.939653 294.516631 
L -189.875524 294.916625 
L -191.173904 295.288844 
L -192.390867 295.872798 
L -193.232437 296.359957 
L -194.266323 296.366004 
L -195.694498 296.527474 
L -196.774572 297.067396 
L -197.573084 297.722896 
L -198.217433 298.200013 
L -199.064096 298.257298 
L -200.450294 298.363553 
L -202.188403 298.859861 
L -203.829775 299.52502 
L -205.192218 300.156043 
L -206.588016 300.761426 
L -208.102229 301.742376 
L -209.110047 302.849326 
L -210.134202 303.606856 
L -211.818713 304.703267 
L -213.203544 306.453889 
L -213.792952 307.753568 
L -214.539402 308.549888 
L -215.419624 309.311748 
L -216.223502 309.963378 
L -216.923961 310.540156 
L -217.990604 311.101239 
L -219.432696 311.90791 
L -221.036997 313.077501 
L -222.27781 314.887259 
L -222.771628 316.460776 
L -223.046455 317.34476 
L -223.23164 317.748453 
L -224.055385 317.85332 
L -225.508527 318.735234 
L -226.388619 320.242914 
L -226.847471 321.798059 
L -226.928268 323.118847 
L -227.221771 323.53672 
L -228.2156 324.153977 
L -228.915049 325.433398 
L -229.318071 326.747872 
L -229.271302 328.258437 
L -228.816904 329.51349 
L -228.732768 330.814324 
L -228.504094 332.37605 
L -227.863481 333.881087 
L -226.819028 335.076265 
L -225.99813 335.752325 
L -225.219442 336.662942 
L -223.878797 337.590587 
L -222.659494 338.367537 
L -221.467148 339.383838 
L -219.933427 340.377481 
L -218.27929 341.168461 
L -216.852664 341.753727 
L -215.150549 342.354822 
L -213.257631 342.311541 
L -212.025343 342.681851 
L -210.044193 343.617143 
L -207.545616 344.040186 
L -205.048931 344.213319 
L -202.795406 344.147169 
L -200.610484 343.660593 
L -198.95836 342.947352 
L -197.242016 342.661408 
L -195.500925 341.984181 
L -193.837084 341.610943 
L -191.637039 341.174689 
L -189.814702 340.276969 
L -188.547851 339.401883 
L -187.445175 338.598506 
L -186.790395 337.907456 
L -186.2263 337.540323 
L -185.55021 337.136265 
L -184.757533 336.985242 
L -184.018125 337.007648 
L -183.126227 337.347754 
L -182.128024 337.652121 
L -180.927662 338.415 
L -179.324735 338.542236 
L -178.139497 338.202284 
L -177.130282 337.845094 
L -176.130536 337.979362 
L -174.494224 337.713679 
L -173.326618 337.142757 
L -172.144269 337.004928 
" style="fill: #ff0000; stroke: #000000; stroke-linejoin: miter"/>
   </g>
   <g id="patch_5">
    <path d="M 382.024298 336.817356 
L 383.154607 336.698742 
L 384.507334 336.277662 
L 385.499956 335.502496 
L 386.460794 334.889023 
L 387.362157 333.986774 
L 388.413757 333.057374 
L 389.376753 332.117863 
L 390.603727 331.436609 
L 391.8576 329.996136 
L 392.687565 328.658339 
L 393.756266 326.914414 
L 393.929392 324.448185 
L 393.658213 322.26119 
L 393.26729 320.037488 
L 392.282044 318.266996 
L 391.586109 317.062144 
L 391.053257 315.801142 
L 390.390531 314.906803 
L 389.929579 313.923896 
L 389.309703 312.578015 
L 388.574987 311.299259 
L 387.711394 310.099806 
L 387.058401 309.155884 
L 386.889528 307.862161 
L 386.206049 306.473832 
L 385.327102 305.501219 
L 384.500416 304.597676 
L 383.907408 303.620076 
L 382.921086 302.330832 
L 381.785126 301.318638 
L 380.973214 300.230949 
L 380.335299 299.177924 
L 379.535981 297.767605 
L 378.2342 296.529791 
L 376.889731 295.462018 
L 374.972416 294.648036 
L 373.018574 294.332553 
L 371.399275 294.016942 
L 369.84848 293.654443 
L 368.070512 293.434932 
L 366.343195 293.707891 
L 365.228914 294.329059 
L 364.293042 294.729053 
L 362.994663 295.101272 
L 361.7777 295.685226 
L 360.93613 296.172385 
L 359.902243 296.178432 
L 358.474068 296.339901 
L 357.393994 296.879823 
L 356.595482 297.535323 
L 355.951134 298.01244 
L 355.104471 298.069726 
L 353.718272 298.175981 
L 351.980164 298.672289 
L 350.338791 299.337447 
L 348.976349 299.968471 
L 347.580551 300.573854 
L 346.066337 301.554804 
L 345.058519 302.661753 
L 344.034365 303.419284 
L 342.349853 304.515695 
L 340.965023 306.266317 
L 340.375615 307.565995 
L 339.629165 308.362316 
L 338.748943 309.124176 
L 337.945065 309.775806 
L 337.244606 310.352583 
L 336.177962 310.913667 
L 334.73587 311.720338 
L 333.13157 312.889929 
L 331.890757 314.699687 
L 331.396938 316.273204 
L 331.122111 317.157188 
L 330.936926 317.560881 
L 330.113181 317.665748 
L 328.660039 318.547662 
L 327.779948 320.055342 
L 327.321096 321.610487 
L 327.240299 322.931275 
L 326.946796 323.349148 
L 325.952967 323.966405 
L 325.253518 325.245826 
L 324.850496 326.560299 
L 324.897264 328.070865 
L 325.351662 329.325918 
L 325.435799 330.626752 
L 325.664472 332.188478 
L 326.305086 333.693515 
L 327.349539 334.888693 
L 328.170437 335.564753 
L 328.949125 336.47537 
L 330.28977 337.403015 
L 331.509073 338.179965 
L 332.701418 339.196266 
L 334.23514 340.189909 
L 335.889277 340.980889 
L 337.315903 341.566154 
L 339.018017 342.16725 
L 340.910935 342.123969 
L 342.143224 342.494279 
L 344.124374 343.429571 
L 346.622951 343.852614 
L 349.119636 344.025747 
L 351.373161 343.959597 
L 353.558083 343.473021 
L 355.210207 342.75978 
L 356.926551 342.473836 
L 358.667641 341.796608 
L 360.331482 341.423371 
L 362.531527 340.987117 
L 364.353865 340.089397 
L 365.620716 339.214311 
L 366.723391 338.410934 
L 367.378172 337.719884 
L 367.942267 337.352751 
L 368.618356 336.948693 
L 369.411034 336.79767 
L 370.150441 336.820076 
L 371.042339 337.160182 
L 372.040543 337.464549 
L 373.240905 338.227428 
L 374.843831 338.354664 
L 376.029069 338.014712 
L 377.038285 337.657522 
L 378.038031 337.79179 
L 379.674342 337.526107 
L 380.841949 336.955185 
L 382.024298 336.817356 
" style="fill: #00bfbf; stroke: #000000; stroke-linejoin: miter"/>
   </g>
   <g id="patch_6">
    <path d="M 104.824298 59.617356 
L 105.954607 59.498742 
L 107.307334 59.077662 
L 108.299956 58.302496 
L 109.260794 57.689023 
L 110.162157 56.786774 
L 111.213757 55.857374 
L 112.176753 54.917863 
L 113.403727 54.236609 
L 114.6576 52.796136 
L 115.487565 51.458339 
L 116.556266 49.714414 
L 116.729392 47.248185 
L 116.458213 45.06119 
L 116.06729 42.837488 
L 115.082044 41.066996 
L 114.386109 39.862144 
L 113.853257 38.601142 
L 113.190531 37.706803 
L 112.729579 36.723896 
L 112.109703 35.378015 
L 111.374987 34.099259 
L 110.511394 32.899806 
L 109.858401 31.955884 
L 109.689528 30.662161 
L 109.006049 29.273832 
L 108.127102 28.301219 
L 107.300416 27.397676 
L 106.707408 26.420076 
L 105.721086 25.130832 
L 104.585126 24.118638 
L 103.773214 23.030949 
L 103.135299 21.977924 
L 102.335981 20.567605 
L 101.0342 19.329791 
L 99.689731 18.262018 
L 97.772416 17.448036 
L 95.818574 17.132553 
L 94.199275 16.816942 
L 92.64848 16.454443 
L 90.870512 16.234932 
L 89.143195 16.507891 
L 88.028914 17.129059 
L 87.093042 17.529053 
L 85.794663 17.901272 
L 84.5777 18.485226 
L 83.73613 18.972385 
L 82.702243 18.978432 
L 81.274068 19.139901 
L 80.193994 19.679823 
L 79.395482 20.335323 
L 78.751134 20.81244 
L 77.904471 20.869726 
L 76.518272 20.975981 
L 74.780164 21.472289 
L 73.138791 22.137447 
L 71.776349 22.768471 
L 70.380551 23.373854 
L 68.866337 24.354804 
L 67.858519 25.461753 
L 66.834365 26.219284 
L 65.149853 27.315695 
L 63.765023 29.066317 
L 63.175615 30.365995 
L 62.429165 31.162316 
L 61.548943 31.924176 
L 60.745065 32.575806 
L 60.044606 33.152583 
L 58.977962 33.713667 
L 57.53587 34.520338 
L 55.93157 35.689929 
L 54.690757 37.499687 
L 54.196938 39.073204 
L 53.922111 39.957188 
L 53.736926 40.360881 
L 52.913181 40.465748 
L 51.460039 41.347662 
L 50.579948 42.855342 
L 50.121096 44.410487 
L 50.040299 45.731275 
L 49.746796 46.149148 
L 48.752967 46.766405 
L 48.053518 48.045826 
L 47.650496 49.360299 
L 47.697264 50.870865 
L 48.151662 52.125918 
L 48.235799 53.426752 
L 48.464472 54.988478 
L 49.105086 56.493515 
L 50.149539 57.688693 
L 50.970437 58.364753 
L 51.749125 59.27537 
L 53.08977 60.203015 
L 54.309073 60.979965 
L 55.501418 61.996266 
L 57.03514 62.989909 
L 58.689277 63.780889 
L 60.115903 64.366154 
L 61.818017 64.96725 
L 63.710935 64.923969 
L 64.943224 65.294279 
L 66.924374 66.229571 
L 69.422951 66.652614 
L 71.919636 66.825747 
L 74.173161 66.759597 
L 76.358083 66.273021 
L 78.010207 65.55978 
L 79.726551 65.273836 
L 81.467641 64.596608 
L 83.131482 64.223371 
L 85.331527 63.787117 
L 87.153865 62.889397 
L 88.420716 62.014311 
L 89.523391 61.210934 
L 90.178172 60.519884 
L 90.742267 60.152751 
L 91.418356 59.748693 
L 92.211034 59.59767 
L 92.950441 59.620076 
L 93.842339 59.960182 
L 94.840543 60.264549 
L 96.040905 61.027428 
L 97.643831 61.154664 
L 98.829069 60.814712 
L 99.838285 60.457522 
L 100.838031 60.59179 
L 102.474342 60.326107 
L 103.641949 59.755185 
L 104.824298 59.617356 
" style="fill: #00bfbf; stroke: #000000; stroke-linejoin: miter"/>
   </g>
   <g id="patch_7">
    <path d="M 104.824298 614.017356 
L 105.954607 613.898742 
L 107.307334 613.477662 
L 108.299956 612.702496 
L 109.260794 612.089023 
L 110.162157 611.186774 
L 111.213757 610.257374 
L 112.176753 609.317863 
L 113.403727 608.636609 
L 114.6576 607.196136 
L 115.487565 605.858339 
L 116.556266 604.114414 
L 116.729392 601.648185 
L 116.458213 599.46119 
L 116.06729 597.237488 
L 115.082044 595.466996 
L 114.386109 594.262144 
L 113.853257 593.001142 
L 113.190531 592.106803 
L 112.729579 591.123896 
L 112.109703 589.778015 
L 111.374987 588.499259 
L 110.511394 587.299806 
L 109.858401 586.355884 
L 109.689528 585.062161 
L 109.006049 583.673832 
L 108.127102 582.701219 
L 107.300416 581.797676 
L 106.707408 580.820076 
L 105.721086 579.530832 
L 104.585126 578.518638 
L 103.773214 577.430949 
L 103.135299 576.377924 
L 102.335981 574.967605 
L 101.0342 573.729791 
L 99.689731 572.662018 
L 97.772416 571.848036 
L 95.818574 571.532553 
L 94.199275 571.216942 
L 92.64848 570.854443 
L 90.870512 570.634932 
L 89.143195 570.907891 
L 88.028914 571.529059 
L 87.093042 571.929053 
L 85.794663 572.301272 
L 84.5777 572.885226 
L 83.73613 573.372385 
L 82.702243 573.378432 
L 81.274068 573.539901 
L 80.193994 574.079823 
L 79.395482 574.735323 
L 78.751134 575.21244 
L 77.904471 575.269726 
L 76.518272 575.375981 
L 74.780164 575.872289 
L 73.138791 576.537447 
L 71.776349 577.168471 
L 70.380551 577.773854 
L 68.866337 578.754804 
L 67.858519 579.861753 
L 66.834365 580.619284 
L 65.149853 581.715695 
L 63.765023 583.466317 
L 63.175615 584.765995 
L 62.429165 585.562316 
L 61.548943 586.324176 
L 60.745065 586.975806 
L 60.044606 587.552583 
L 58.977962 588.113667 
L 57.53587 588.920338 
L 55.93157 590.089929 
L 54.690757 591.899687 
L 54.196938 593.473204 
L 53.922111 594.357188 
L 53.736926 594.760881 
L 52.913181 594.865748 
L 51.460039 595.747662 
L 50.579948 597.255342 
L 50.121096 598.810487 
L 50.040299 600.131275 
L 49.746796 600.549148 
L 48.752967 601.166405 
L 48.053518 602.445826 
L 47.650496 603.760299 
L 47.697264 605.270865 
L 48.151662 606.525918 
L 48.235799 607.826752 
L 48.464472 609.388478 
L 49.105086 610.893515 
L 50.149539 612.088693 
L 50.970437 612.764753 
L 51.749125 613.67537 
L 53.08977 614.603015 
L 54.309073 615.379965 
L 55.501418 616.396266 
L 57.03514 617.389909 
L 58.689277 618.180889 
L 60.115903 618.766154 
L 61.818017 619.36725 
L 63.710935 619.323969 
L 64.943224 619.694279 
L 66.924374 620.629571 
L 69.422951 621.052614 
L 71.919636 621.225747 
L 74.173161 621.159597 
L 76.358083 620.673021 
L 78.010207 619.95978 
L 79.726551 619.673836 
L 81.467641 618.996608 
L 83.131482 618.623371 
L 85.331527 618.187117 
L 87.153865 617.289397 
L 88.420716 616.414311 
L 89.523391 615.610934 
L 90.178172 614.919884 
L 90.742267 614.552751 
L 91.418356 614.148693 
L 92.211034 613.99767 
L 92.950441 614.020076 
L 93.842339 614.360182 
L 94.840543 614.664549 
L 96.040905 615.427428 
L 97.643831 615.554664 
L 98.829069 615.214712 
L 99.838285 614.857522 
L 100.838031 614.99179 
L 102.474342 614.726107 
L 103.641949 614.155185 
L 104.824298 614.017356 
" style="fill: #00bfbf; stroke: #000000; stroke-linejoin: miter"/>
   </g>
   <g id="patch_8">
    <path d="M 382.024298 59.617356 
L 383.154607 59.498742 
L 384.507334 59.077662 
L 385.499956 58.302496 
L 386.460794 57.689023 
L 387.362157 56.786774 
L 388.413757 55.857374 
L 389.376753 54.917863 
L 390.603727 54.236609 
L 391.8576 52.796136 
L 392.687565 51.458339 
L 393.756266 49.714414 
L 393.929392 47.248185 
L 393.658213 45.06119 
L 393.26729 42.837488 
L 392.282044 41.066996 
L 391.586109 39.862144 
L 391.053257 38.601142 
L 390.390531 37.706803 
L 389.929579 36.723896 
L 389.309703 35.378015 
L 388.574987 34.099259 
L 387.711394 32.899806 
L 387.058401 31.955884 
L 386.889528 30.662161 
L 386.206049 29.273832 
L 385.327102 28.301219 
L 384.500416 27.397676 
L 383.907408 26.420076 
L 382.921086 25.130832 
L 381.785126 24.118638 
L 380.973214 23.030949 
L 380.335299 21.977924 
L 379.535981 20.567605 
L 378.2342 19.329791 
L 376.889731 18.262018 
L 374.972416 17.448036 
L 373.018574 17.132553 
L 371.399275 16.816942 
L 369.84848 16.454443 
L 368.070512 16.234932 
L 366.343195 16.507891 
L 365.228914 17.129059 
L 364.293042 17.529053 
L 362.994663 17.901272 
L 361.7777 18.485226 
L 360.93613 18.972385 
L 359.902243 18.978432 
L 358.474068 19.139901 
L 357.393994 19.679823 
L 356.595482 20.335323 
L 355.951134 20.81244 
L 355.104471 20.869726 
L 353.718272 20.975981 
L 351.980164 21.472289 
L 350.338791 22.137447 
L 348.976349 22.768471 
L 347.580551 23.373854 
L 346.066337 24.354804 
L 345.058519 25.461753 
L 344.034365 26.219284 
L 342.349853 27.315695 
L 340.965023 29.066317 
L 340.375615 30.365995 
L 339.629165 31.162316 
L 338.748943 31.924176 
L 337.945065 32.575806 
L 337.244606 33.152583 
L 336.177962 33.713667 
L 334.73587 34.520338 
L 333.13157 35.689929 
L 331.890757 37.499687 
L 331.396938 39.073204 
L 331.122111 39.957188 
L 330.936926 40.360881 
L 330.113181 40.465748 
L 328.660039 41.347662 
L 327.779948 42.855342 
L 327.321096 44.410487 
L 327.240299 45.731275 
L 326.946796 46.149148 
L 325.952967 46.766405 
L 325.253518 48.045826 
L 324.850496 49.360299 
L 324.897264 50.870865 
L 325.351662 52.125918 
L 325.435799 53.426752 
L 325.664472 54.988478 
L 326.305086 56.493515 
L 327.349539 57.688693 
L 328.170437 58.364753 
L 328.949125 59.27537 
L 330.28977 60.203015 
L 331.509073 60.979965 
L 332.701418 61.996266 
L 334.23514 62.989909 
L 335.889277 63.780889 
L 337.315903 64.366154 
L 339.018017 64.96725 
L 340.910935 64.923969 
L 342.143224 65.294279 
L 344.124374 66.229571 
L 346.622951 66.652614 
L 349.119636 66.825747 
L 351.373161 66.759597 
L 353.558083 66.273021 
L 355.210207 65.55978 
L 356.926551 65.273836 
L 358.667641 64.596608 
L 360.331482 64.223371 
L 362.531527 63.787117 
L 364.353865 62.889397 
L 365.620716 62.014311 
L 366.723391 61.210934 
L 367.378172 60.519884 
L 367.942267 60.152751 
L 368.618356 59.748693 
L 369.411034 59.59767 
L 370.150441 59.620076 
L 371.042339 59.960182 
L 372.040543 60.264549 
L 373.240905 61.027428 
L 374.843831 61.154664 
L 376.029069 60.814712 
L 377.038285 60.457522 
L 378.038031 60.59179 
L 379.674342 60.326107 
L 380.841949 59.755185 
L 382.024298 59.617356 
" style="fill: #00bfbf; stroke: #000000; stroke-linejoin: miter"/>
   </g>
   <g id="matplotlib.axis_1">
    <g id="xtick_1">
     <g id="line2d_1">
      <path d="M 82.8 320.4 
L 82.8 43.2 
" clip-path="url(#pb62eedcc01)" style="fill: none; stroke-dasharray: 2.96,1.28; stroke-dashoffset: 0; stroke: #b0b0b0; stroke-width: 0.8"/>
     </g>
     <g id="line2d_2">
      <defs>
       <path id="m61ea15d1b2" d="M 0 0 
L 0 3.5 
" style="stroke: #000000; stroke-width: 0.8"/>
      </defs>
      <g>
       <use xlink:href="#m61ea15d1b2" x="82.8" y="320.4" style="stroke: #000000; stroke-width: 0.8"/>
      </g>
     </g>
     <g id="text_1">
      <!-- 0 -->
      <g transform="translate(79.61875 334.998438) scale(0.1 -0.1)">
       <defs>
        <path id="DejaVuSans-30" d="M 2034 4250 
Q 1547 4250 1301 3770 
Q 1056 3291 1056 2328 
Q 1056 1369 1301 889 
Q 1547 409 2034 409 
Q 2525 409 2770 889 
Q 3016 1369 3016 2328 
Q 3016 3291 2770 3770 
Q 2525 4250 2034 4250 
z
M 2034 4750 
Q 2819 4750 3233 4129 
Q 3647 3509 3647 2328 
Q 3647 1150 3233 529 
Q 2819 -91 2034 -91 
Q 1250 -91 836 529 
Q 422 1150 422 2328 
Q 422 3509 836 4129 
Q 1250 4750 2034 4750 
z
" transform="scale(0.015625)"/>
       </defs>
       <use xlink:href="#DejaVuSans-30"/>
      </g>
     </g>
    </g>
    <g id="xtick_2">
     <g id="line2d_3">
      <path d="M 110.52 320.4 
L 110.52 43.2 
" clip-path="url(#pb62eedcc01)" style="fill: none; stroke-dasharray: 2.96,1.28; stroke-dashoffset: 0; stroke: #b0b0b0; stroke-width: 0.8"/>
     </g>
     <g id="line2d_4">
      <g>
       <use xlink:href="#m61ea15d1b2" x="110.52" y="320.4" style="stroke: #000000; stroke-width: 0.8"/>
      </g>
     </g>
     <g id="text_2">
      <!-- 1 -->
      <g transform="translate(107.33875 334.998438) scale(0.1 -0.1)">
       <defs>
        <path id="DejaVuSans-31" d="M 794 531 
L 1825 531 
L 1825 4091 
L 703 3866 
L 703 4441 
L 1819 4666 
L 2450 4666 
L 2450 531 
L 3481 531 
L 3481 0 
L 794 0 
L 794 531 
z
" transform="scale(0.015625)"/>
       </defs>
       <use xlink:href="#DejaVuSans-31"/>
      </g>
     </g>
    </g>
    <g id="xtick_3">
     <g id="line2d_5">
      <path d="M 138.24 320.4 
L 138.24 43.2 
" clip-path="url(#pb62eedcc01)" style="fill: none; stroke-dasharray: 2.96,1.28; stroke-dashoffset: 0; stroke: #b0b0b0; stroke-width: 0.8"/>
     </g>
     <g id="line2d_6">
      <g>
       <use xlink:href="#m61ea15d1b2" x="138.24" y="320.4" style="stroke: #000000; stroke-width: 0.8"/>
      </g>
     </g>
     <g id="text_3">
      <!-- 2 -->
      <g transform="translate(135.05875 334.998438) scale(0.1 -0.1)">
       <defs>
        <path id="DejaVuSans-32" d="M 1228 531 
L 3431 531 
L 3431 0 
L 469 0 
L 469 531 
Q 828 903 1448 1529 
Q 2069 2156 2228 2338 
Q 2531 2678 2651 2914 
Q 2772 3150 2772 3378 
Q 2772 3750 2511 3984 
Q 2250 4219 1831 4219 
Q 1534 4219 1204 4116 
Q 875 4013 500 3803 
L 500 4441 
Q 881 4594 1212 4672 
Q 1544 4750 1819 4750 
Q 2544 4750 2975 4387 
Q 3406 4025 3406 3419 
Q 3406 3131 3298 2873 
Q 3191 2616 2906 2266 
Q 2828 2175 2409 1742 
Q 1991 1309 1228 531 
z
" transform="scale(0.015625)"/>
       </defs>
       <use xlink:href="#DejaVuSans-32"/>
      </g>
     </g>
    </g>
    <g id="xtick_4">
     <g id="line2d_7">
      <path d="M 165.96 320.4 
L 165.96 43.2 
" clip-path="url(#pb62eedcc01)" style="fill: none; stroke-dasharray: 2.96,1.28; stroke-dashoffset: 0; stroke: #b0b0b0; stroke-width: 0.8"/>
     </g>
     <g id="line2d_8">
      <g>
       <use xlink:href="#m61ea15d1b2" x="165.96" y="320.4" style="stroke: #000000; stroke-width: 0.8"/>
      </g>
     </g>
     <g id="text_4">
      <!-- 3 -->
      <g transform="translate(162.77875 334.998438) scale(0.1 -0.1)">
       <defs>
        <path id="DejaVuSans-33" d="M 2597 2516 
Q 3050 2419 3304 2112 
Q 3559 1806 3559 1356 
Q 3559 666 3084 287 
Q 2609 -91 1734 -91 
Q 1441 -91 1130 -33 
Q 819 25 488 141 
L 488 750 
Q 750 597 1062 519 
Q 1375 441 1716 441 
Q 2309 441 2620 675 
Q 2931 909 2931 1356 
Q 2931 1769 2642 2001 
Q 2353 2234 1838 2234 
L 1294 2234 
L 1294 2753 
L 1863 2753 
Q 2328 2753 2575 2939 
Q 2822 3125 2822 3475 
Q 2822 3834 2567 4026 
Q 2313 4219 1838 4219 
Q 1578 4219 1281 4162 
Q 984 4106 628 3988 
L 628 4550 
Q 988 4650 1302 4700 
Q 1616 4750 1894 4750 
Q 2613 4750 3031 4423 
Q 3450 4097 3450 3541 
Q 3450 3153 3228 2886 
Q 3006 2619 2597 2516 
z
" transform="scale(0.015625)"/>
       </defs>
       <use xlink:href="#DejaVuSans-33"/>
      </g>
     </g>
    </g>
    <g id="xtick_5">
     <g id="line2d_9">
      <path d="M 193.68 320.4 
L 193.68 43.2 
" clip-path="url(#pb62eedcc01)" style="fill: none; stroke-dasharray: 2.96,1.28; stroke-dashoffset: 0; stroke: #b0b0b0; stroke-width: 0.8"/>
     </g>
     <g id="line2d_10">
      <g>
       <use xlink:href="#m61ea15d1b2" x="193.68" y="320.4" style="stroke: #000000; stroke-width: 0.8"/>
      </g>
     </g>
     <g id="text_5">
      <!-- 4 -->
      <g transform="translate(190.49875 334.998438) scale(0.1 -0.1)">
       <defs>
        <path id="DejaVuSans-34" d="M 2419 4116 
L 825 1625 
L 2419 1625 
L 2419 4116 
z
M 2253 4666 
L 3047 4666 
L 3047 1625 
L 3713 1625 
L 3713 1100 
L 3047 1100 
L 3047 0 
L 2419 0 
L 2419 1100 
L 313 1100 
L 313 1709 
L 2253 4666 
z
" transform="scale(0.015625)"/>
       </defs>
       <use xlink:href="#DejaVuSans-34"/>
      </g>
     </g>
    </g>
    <g id="xtick_6">
     <g id="line2d_11">
      <path d="M 221.4 320.4 
L 221.4 43.2 
" clip-path="url(#pb62eedcc01)" style="fill: none; stroke-dasharray: 2.96,1.28; stroke-dashoffset: 0; stroke: #b0b0b0; stroke-width: 0.8"/>
     </g>
     <g id="line2d_12">
      <g>
       <use xlink:href="#m61ea15d1b2" x="221.4" y="320.4" style="stroke: #000000; stroke-width: 0.8"/>
      </g>
     </g>
     <g id="text_6">
      <!-- 5 -->
      <g transform="translate(218.21875 334.998438) scale(0.1 -0.1)">
       <defs>
        <path id="DejaVuSans-35" d="M 691 4666 
L 3169 4666 
L 3169 4134 
L 1269 4134 
L 1269 2991 
Q 1406 3038 1543 3061 
Q 1681 3084 1819 3084 
Q 2600 3084 3056 2656 
Q 3513 2228 3513 1497 
Q 3513 744 3044 326 
Q 2575 -91 1722 -91 
Q 1428 -91 1123 -41 
Q 819 9 494 109 
L 494 744 
Q 775 591 1075 516 
Q 1375 441 1709 441 
Q 2250 441 2565 725 
Q 2881 1009 2881 1497 
Q 2881 1984 2565 2268 
Q 2250 2553 1709 2553 
Q 1456 2553 1204 2497 
Q 953 2441 691 2322 
L 691 4666 
z
" transform="scale(0.015625)"/>
       </defs>
       <use xlink:href="#DejaVuSans-35"/>
      </g>
     </g>
    </g>
    <g id="xtick_7">
     <g id="line2d_13">
      <path d="M 249.12 320.4 
L 249.12 43.2 
" clip-path="url(#pb62eedcc01)" style="fill: none; stroke-dasharray: 2.96,1.28; stroke-dashoffset: 0; stroke: #b0b0b0; stroke-width: 0.8"/>
     </g>
     <g id="line2d_14">
      <g>
       <use xlink:href="#m61ea15d1b2" x="249.12" y="320.4" style="stroke: #000000; stroke-width: 0.8"/>
      </g>
     </g>
     <g id="text_7">
      <!-- 6 -->
      <g transform="translate(245.93875 334.998438) scale(0.1 -0.1)">
       <defs>
        <path id="DejaVuSans-36" d="M 2113 2584 
Q 1688 2584 1439 2293 
Q 1191 2003 1191 1497 
Q 1191 994 1439 701 
Q 1688 409 2113 409 
Q 2538 409 2786 701 
Q 3034 994 3034 1497 
Q 3034 2003 2786 2293 
Q 2538 2584 2113 2584 
z
M 3366 4563 
L 3366 3988 
Q 3128 4100 2886 4159 
Q 2644 4219 2406 4219 
Q 1781 4219 1451 3797 
Q 1122 3375 1075 2522 
Q 1259 2794 1537 2939 
Q 1816 3084 2150 3084 
Q 2853 3084 3261 2657 
Q 3669 2231 3669 1497 
Q 3669 778 3244 343 
Q 2819 -91 2113 -91 
Q 1303 -91 875 529 
Q 447 1150 447 2328 
Q 447 3434 972 4092 
Q 1497 4750 2381 4750 
Q 2619 4750 2861 4703 
Q 3103 4656 3366 4563 
z
" transform="scale(0.015625)"/>
       </defs>
       <use xlink:href="#DejaVuSans-36"/>
      </g>
     </g>
    </g>
    <g id="xtick_8">
     <g id="line2d_15">
      <path d="M 276.84 320.4 
L 276.84 43.2 
" clip-path="url(#pb62eedcc01)" style="fill: none; stroke-dasharray: 2.96,1.28; stroke-dashoffset: 0; stroke: #b0b0b0; stroke-width: 0.8"/>
     </g>
     <g id="line2d_16">
      <g>
       <use xlink:href="#m61ea15d1b2" x="276.84" y="320.4" style="stroke: #000000; stroke-width: 0.8"/>
      </g>
     </g>
     <g id="text_8">
      <!-- 7 -->
      <g transform="translate(273.65875 334.998438) scale(0.1 -0.1)">
       <defs>
        <path id="DejaVuSans-37" d="M 525 4666 
L 3525 4666 
L 3525 4397 
L 1831 0 
L 1172 0 
L 2766 4134 
L 525 4134 
L 525 4666 
z
" transform="scale(0.015625)"/>
       </defs>
       <use xlink:href="#DejaVuSans-37"/>
      </g>
     </g>
    </g>
    <g id="xtick_9">
     <g id="line2d_17">
      <path d="M 304.56 320.4 
L 304.56 43.2 
" clip-path="url(#pb62eedcc01)" style="fill: none; stroke-dasharray: 2.96,1.28; stroke-dashoffset: 0; stroke: #b0b0b0; stroke-width: 0.8"/>
     </g>
     <g id="line2d_18">
      <g>
       <use xlink:href="#m61ea15d1b2" x="304.56" y="320.4" style="stroke: #000000; stroke-width: 0.8"/>
      </g>
     </g>
     <g id="text_9">
      <!-- 8 -->
      <g transform="translate(301.37875 334.998438) scale(0.1 -0.1)">
       <defs>
        <path id="DejaVuSans-38" d="M 2034 2216 
Q 1584 2216 1326 1975 
Q 1069 1734 1069 1313 
Q 1069 891 1326 650 
Q 1584 409 2034 409 
Q 2484 409 2743 651 
Q 3003 894 3003 1313 
Q 3003 1734 2745 1975 
Q 2488 2216 2034 2216 
z
M 1403 2484 
Q 997 2584 770 2862 
Q 544 3141 544 3541 
Q 544 4100 942 4425 
Q 1341 4750 2034 4750 
Q 2731 4750 3128 4425 
Q 3525 4100 3525 3541 
Q 3525 3141 3298 2862 
Q 3072 2584 2669 2484 
Q 3125 2378 3379 2068 
Q 3634 1759 3634 1313 
Q 3634 634 3220 271 
Q 2806 -91 2034 -91 
Q 1263 -91 848 271 
Q 434 634 434 1313 
Q 434 1759 690 2068 
Q 947 2378 1403 2484 
z
M 1172 3481 
Q 1172 3119 1398 2916 
Q 1625 2713 2034 2713 
Q 2441 2713 2670 2916 
Q 2900 3119 2900 3481 
Q 2900 3844 2670 4047 
Q 2441 4250 2034 4250 
Q 1625 4250 1398 4047 
Q 1172 3844 1172 3481 
z
" transform="scale(0.015625)"/>
       </defs>
       <use xlink:href="#DejaVuSans-38"/>
      </g>
     </g>
    </g>
    <g id="xtick_10">
     <g id="line2d_19">
      <path d="M 332.28 320.4 
L 332.28 43.2 
" clip-path="url(#pb62eedcc01)" style="fill: none; stroke-dasharray: 2.96,1.28; stroke-dashoffset: 0; stroke: #b0b0b0; stroke-width: 0.8"/>
     </g>
     <g id="line2d_20">
      <g>
       <use xlink:href="#m61ea15d1b2" x="332.28" y="320.4" style="stroke: #000000; stroke-width: 0.8"/>
      </g>
     </g>
     <g id="text_10">
      <!-- 9 -->
      <g transform="translate(329.09875 334.998438) scale(0.1 -0.1)">
       <defs>
        <path id="DejaVuSans-39" d="M 703 97 
L 703 672 
Q 941 559 1184 500 
Q 1428 441 1663 441 
Q 2288 441 2617 861 
Q 2947 1281 2994 2138 
Q 2813 1869 2534 1725 
Q 2256 1581 1919 1581 
Q 1219 1581 811 2004 
Q 403 2428 403 3163 
Q 403 3881 828 4315 
Q 1253 4750 1959 4750 
Q 2769 4750 3195 4129 
Q 3622 3509 3622 2328 
Q 3622 1225 3098 567 
Q 2575 -91 1691 -91 
Q 1453 -91 1209 -44 
Q 966 3 703 97 
z
M 1959 2075 
Q 2384 2075 2632 2365 
Q 2881 2656 2881 3163 
Q 2881 3666 2632 3958 
Q 2384 4250 1959 4250 
Q 1534 4250 1286 3958 
Q 1038 3666 1038 3163 
Q 1038 2656 1286 2365 
Q 1534 2075 1959 2075 
z
" transform="scale(0.015625)"/>
       </defs>
       <use xlink:href="#DejaVuSans-39"/>
      </g>
     </g>
    </g>
    <g id="xtick_11">
     <g id="line2d_21">
      <path d="M 360 320.4 
L 360 43.2 
" clip-path="url(#pb62eedcc01)" style="fill: none; stroke-dasharray: 2.96,1.28; stroke-dashoffset: 0; stroke: #b0b0b0; stroke-width: 0.8"/>
     </g>
     <g id="line2d_22">
      <g>
       <use xlink:href="#m61ea15d1b2" x="360" y="320.4" style="stroke: #000000; stroke-width: 0.8"/>
      </g>
     </g>
     <g id="text_11">
      <!-- 10 -->
      <g transform="translate(353.6375 334.998438) scale(0.1 -0.1)">
       <use xlink:href="#DejaVuSans-31"/>
       <use xlink:href="#DejaVuSans-30" x="63.623047"/>
      </g>
     </g>
    </g>
    <g id="text_12">
     <!-- X (m) -->
     <g transform="translate(207.614062 348.676562) scale(0.1 -0.1)">
      <defs>
       <path id="DejaVuSans-58" d="M 403 4666 
L 1081 4666 
L 2241 2931 
L 3406 4666 
L 4084 4666 
L 2584 2425 
L 4184 0 
L 3506 0 
L 2194 1984 
L 872 0 
L 191 0 
L 1856 2491 
L 403 4666 
z
" transform="scale(0.015625)"/>
       <path id="DejaVuSans-20" transform="scale(0.015625)"/>
       <path id="DejaVuSans-28" d="M 1984 4856 
Q 1566 4138 1362 3434 
Q 1159 2731 1159 2009 
Q 1159 1288 1364 580 
Q 1569 -128 1984 -844 
L 1484 -844 
Q 1016 -109 783 600 
Q 550 1309 550 2009 
Q 550 2706 781 3412 
Q 1013 4119 1484 4856 
L 1984 4856 
z
" transform="scale(0.015625)"/>
       <path id="DejaVuSans-6d" d="M 3328 2828 
Q 3544 3216 3844 3400 
Q 4144 3584 4550 3584 
Q 5097 3584 5394 3201 
Q 5691 2819 5691 2113 
L 5691 0 
L 5113 0 
L 5113 2094 
Q 5113 2597 4934 2840 
Q 4756 3084 4391 3084 
Q 3944 3084 3684 2787 
Q 3425 2491 3425 1978 
L 3425 0 
L 2847 0 
L 2847 2094 
Q 2847 2600 2669 2842 
Q 2491 3084 2119 3084 
Q 1678 3084 1418 2786 
Q 1159 2488 1159 1978 
L 1159 0 
L 581 0 
L 581 3500 
L 1159 3500 
L 1159 2956 
Q 1356 3278 1631 3431 
Q 1906 3584 2284 3584 
Q 2666 3584 2933 3390 
Q 3200 3197 3328 2828 
z
" transform="scale(0.015625)"/>
       <path id="DejaVuSans-29" d="M 513 4856 
L 1013 4856 
Q 1481 4119 1714 3412 
Q 1947 2706 1947 2009 
Q 1947 1309 1714 600 
Q 1481 -109 1013 -844 
L 513 -844 
Q 928 -128 1133 580 
Q 1338 1288 1338 2009 
Q 1338 2731 1133 3434 
Q 928 4138 513 4856 
z
" transform="scale(0.015625)"/>
      </defs>
      <use xlink:href="#DejaVuSans-58"/>
      <use xlink:href="#DejaVuSans-20" x="68.505859"/>
      <use xlink:href="#DejaVuSans-28" x="100.292969"/>
      <use xlink:href="#DejaVuSans-6d" x="139.306641"/>
      <use xlink:href="#DejaVuSans-29" x="236.71875"/>
     </g>
    </g>
   </g>
   <g id="matplotlib.axis_2">
    <g id="ytick_1">
     <g id="line2d_23">
      <path d="M 82.8 320.4 
L 360 320.4 
" clip-path="url(#pb62eedcc01)" style="fill: none; stroke-dasharray: 2.96,1.28; stroke-dashoffset: 0; stroke: #b0b0b0; stroke-width: 0.8"/>
     </g>
     <g id="line2d_24">
      <defs>
       <path id="m80ab9fae27" d="M 0 0 
L -3.5 0 
" style="stroke: #000000; stroke-width: 0.8"/>
      </defs>
      <g>
       <use xlink:href="#m80ab9fae27" x="82.8" y="320.4" style="stroke: #000000; stroke-width: 0.8"/>
      </g>
     </g>
     <g id="text_13">
      <!-- 0 -->
      <g transform="translate(69.4375 324.199219) scale(0.1 -0.1)">
       <use xlink:href="#DejaVuSans-30"/>
      </g>
     </g>
    </g>
    <g id="ytick_2">
     <g id="line2d_25">
      <path d="M 82.8 292.68 
L 360 292.68 
" clip-path="url(#pb62eedcc01)" style="fill: none; stroke-dasharray: 2.96,1.28; stroke-dashoffset: 0; stroke: #b0b0b0; stroke-width: 0.8"/>
     </g>
     <g id="line2d_26">
      <g>
       <use xlink:href="#m80ab9fae27" x="82.8" y="292.68" style="stroke: #000000; stroke-width: 0.8"/>
      </g>
     </g>
     <g id="text_14">
      <!-- 1 -->
      <g transform="translate(69.4375 296.479219) scale(0.1 -0.1)">
       <use xlink:href="#DejaVuSans-31"/>
      </g>
     </g>
    </g>
    <g id="ytick_3">
     <g id="line2d_27">
      <path d="M 82.8 264.96 
L 360 264.96 
" clip-path="url(#pb62eedcc01)" style="fill: none; stroke-dasharray: 2.96,1.28; stroke-dashoffset: 0; stroke: #b0b0b0; stroke-width: 0.8"/>
     </g>
     <g id="line2d_28">
      <g>
       <use xlink:href="#m80ab9fae27" x="82.8" y="264.96" style="stroke: #000000; stroke-width: 0.8"/>
      </g>
     </g>
     <g id="text_15">
      <!-- 2 -->
      <g transform="translate(69.4375 268.759219) scale(0.1 -0.1)">
       <use xlink:href="#DejaVuSans-32"/>
      </g>
     </g>
    </g>
    <g id="ytick_4">
     <g id="line2d_29">
      <path d="M 82.8 237.24 
L 360 237.24 
" clip-path="url(#pb62eedcc01)" style="fill: none; stroke-dasharray: 2.96,1.28; stroke-dashoffset: 0; stroke: #b0b0b0; stroke-width: 0.8"/>
     </g>
     <g id="line2d_30">
      <g>
       <use xlink:href="#m80ab9fae27" x="82.8" y="237.24" style="stroke: #000000; stroke-width: 0.8"/>
      </g>
     </g>
     <g id="text_16">
      <!-- 3 -->
      <g transform="translate(69.4375 241.039219) scale(0.1 -0.1)">
       <use xlink:href="#DejaVuSans-33"/>
      </g>
     </g>
    </g>
    <g id="ytick_5">
     <g id="line2d_31">
      <path d="M 82.8 209.52 
L 360 209.52 
" clip-path="url(#pb62eedcc01)" style="fill: none; stroke-dasharray: 2.96,1.28; stroke-dashoffset: 0; stroke: #b0b0b0; stroke-width: 0.8"/>
     </g>
     <g id="line2d_32">
      <g>
       <use xlink:href="#m80ab9fae27" x="82.8" y="209.52" style="stroke: #000000; stroke-width: 0.8"/>
      </g>
     </g>
     <g id="text_17">
      <!-- 4 -->
      <g transform="translate(69.4375 213.319219) scale(0.1 -0.1)">
       <use xlink:href="#DejaVuSans-34"/>
      </g>
     </g>
    </g>
    <g id="ytick_6">
     <g id="line2d_33">
      <path d="M 82.8 181.8 
L 360 181.8 
" clip-path="url(#pb62eedcc01)" style="fill: none; stroke-dasharray: 2.96,1.28; stroke-dashoffset: 0; stroke: #b0b0b0; stroke-width: 0.8"/>
     </g>
     <g id="line2d_34">
      <g>
       <use xlink:href="#m80ab9fae27" x="82.8" y="181.8" style="stroke: #000000; stroke-width: 0.8"/>
      </g>
     </g>
     <g id="text_18">
      <!-- 5 -->
      <g transform="translate(69.4375 185.599219) scale(0.1 -0.1)">
       <use xlink:href="#DejaVuSans-35"/>
      </g>
     </g>
    </g>
    <g id="ytick_7">
     <g id="line2d_35">
      <path d="M 82.8 154.08 
L 360 154.08 
" clip-path="url(#pb62eedcc01)" style="fill: none; stroke-dasharray: 2.96,1.28; stroke-dashoffset: 0; stroke: #b0b0b0; stroke-width: 0.8"/>
     </g>
     <g id="line2d_36">
      <g>
       <use xlink:href="#m80ab9fae27" x="82.8" y="154.08" style="stroke: #000000; stroke-width: 0.8"/>
      </g>
     </g>
     <g id="text_19">
      <!-- 6 -->
      <g transform="translate(69.4375 157.879219) scale(0.1 -0.1)">
       <use xlink:href="#DejaVuSans-36"/>
      </g>
     </g>
    </g>
    <g id="ytick_8">
     <g id="line2d_37">
      <path d="M 82.8 126.36 
L 360 126.36 
" clip-path="url(#pb62eedcc01)" style="fill: none; stroke-dasharray: 2.96,1.28; stroke-dashoffset: 0; stroke: #b0b0b0; stroke-width: 0.8"/>
     </g>
     <g id="line2d_38">
      <g>
       <use xlink:href="#m80ab9fae27" x="82.8" y="126.36" style="stroke: #000000; stroke-width: 0.8"/>
      </g>
     </g>
     <g id="text_20">
      <!-- 7 -->
      <g transform="translate(69.4375 130.159219) scale(0.1 -0.1)">
       <use xlink:href="#DejaVuSans-37"/>
      </g>
     </g>
    </g>
    <g id="ytick_9">
     <g id="line2d_39">
      <path d="M 82.8 98.64 
L 360 98.64 
" clip-path="url(#pb62eedcc01)" style="fill: none; stroke-dasharray: 2.96,1.28; stroke-dashoffset: 0; stroke: #b0b0b0; stroke-width: 0.8"/>
     </g>
     <g id="line2d_40">
      <g>
       <use xlink:href="#m80ab9fae27" x="82.8" y="98.64" style="stroke: #000000; stroke-width: 0.8"/>
      </g>
     </g>
     <g id="text_21">
      <!-- 8 -->
      <g transform="translate(69.4375 102.439219) scale(0.1 -0.1)">
       <use xlink:href="#DejaVuSans-38"/>
      </g>
     </g>
    </g>
    <g id="ytick_10">
     <g id="line2d_41">
      <path d="M 82.8 70.92 
L 360 70.92 
" clip-path="url(#pb62eedcc01)" style="fill: none; stroke-dasharray: 2.96,1.28; stroke-dashoffset: 0; stroke: #b0b0b0; stroke-width: 0.8"/>
     </g>
     <g id="line2d_42">
      <g>
       <use xlink:href="#m80ab9fae27" x="82.8" y="70.92" style="stroke: #000000; stroke-width: 0.8"/>
      </g>
     </g>
     <g id="text_22">
      <!-- 9 -->
      <g transform="translate(69.4375 74.719219) scale(0.1 -0.1)">
       <use xlink:href="#DejaVuSans-39"/>
      </g>
     </g>
    </g>
    <g id="ytick_11">
     <g id="line2d_43">
      <path d="M 82.8 43.2 
L 360 43.2 
" clip-path="url(#pb62eedcc01)" style="fill: none; stroke-dasharray: 2.96,1.28; stroke-dashoffset: 0; stroke: #b0b0b0; stroke-width: 0.8"/>
     </g>
     <g id="line2d_44">
      <g>
       <use xlink:href="#m80ab9fae27" x="82.8" y="43.2" style="stroke: #000000; stroke-width: 0.8"/>
      </g>
     </g>
     <g id="text_23">
      <!-- 10 -->
      <g transform="translate(63.075 46.999219) scale(0.1 -0.1)">
       <use xlink:href="#DejaVuSans-31"/>
       <use xlink:href="#DejaVuSans-30" x="63.623047"/>
      </g>
     </g>
    </g>
    <g id="text_24">
     <!-- Y (m) -->
     <g transform="translate(56.995312 195.214844) rotate(-90) scale(0.1 -0.1)">
      <defs>
       <path id="DejaVuSans-59" d="M -13 4666 
L 666 4666 
L 1959 2747 
L 3244 4666 
L 3922 4666 
L 2272 2222 
L 2272 0 
L 1638 0 
L 1638 2222 
L -13 4666 
z
" transform="scale(0.015625)"/>
      </defs>
      <use xlink:href="#DejaVuSans-59"/>
      <use xlink:href="#DejaVuSans-20" x="61.083984"/>
      <use xlink:href="#DejaVuSans-28" x="92.871094"/>
      <use xlink:href="#DejaVuSans-6d" x="131.884766"/>
      <use xlink:href="#DejaVuSans-29" x="229.296875"/>
     </g>
    </g>
   </g>
   <g id="patch_9">
    <path d="M 82.8 320.4 
L 82.8 43.2 
" style="fill: none; stroke: #000000; stroke-width: 0.8; stroke-linejoin: miter; stroke-linecap: square"/>
   </g>
   <g id="patch_10">
    <path d="M 360 320.4 
L 360 43.2 
" style="fill: none; stroke: #000000; stroke-width: 0.8; stroke-linejoin: miter; stroke-linecap: square"/>
   </g>
   <g id="patch_11">
    <path d="M 82.8 320.4 
L 360 320.4 
" style="fill: none; stroke: #000000; stroke-width: 0.8; stroke-linejoin: miter; stroke-linecap: square"/>
   </g>
   <g id="patch_12">
    <path d="M 82.8 43.2 
L 360 43.2 
" style="fill: none; stroke: #000000; stroke-width: 0.8; stroke-linejoin: miter; stroke-linecap: square"/>
   </g>
  </g>
 </g>
 <defs>
  <clipPath id="pb62eedcc01">
   <rect x="82.8" y="43.2" width="277.2" height="277.2"/>
  </clipPath>
 </defs>
</svg>
