<?xml version="1.0" encoding="utf-8" standalone="no"?>
<!DOCTYPE svg PUBLIC "-//W3C//DTD SVG 1.1//EN"
  "http://www.w3.org/Graphics/SVG/1.1/DTD/svg11.dtd">
<svg xmlns:xlink="http://www.w3.org/1999/xlink" width="432pt" height="360pt" viewBox="0 0 432 360" xmlns="http://www.w3.org/2000/svg" version="1.1">
 <metadata>
  <rdf:RDF xmlns:dc="http://purl.org/dc/elements/1.1/" xmlns:cc="http://creativecommons.org/ns#" xmlns:rdf="http://www.w3.org/1999/02/22-rdf-syntax-ns#">
   <cc:Work>
    <dc:type rdf:resource="http://purl.org/dc/dcmitype/StillImage"/>
    <dc:date>2024-10-18T08:30:18.126659</dc:date>
    <dc:format>image/svg+xml</dc:format>
    <dc:creator>
     <cc:Agent>
      <dc:title>Matplotlib v3.9.1, https://matplotlib.org/</dc:title>
     </cc:Agent>
    </dc:creator>
   </cc:Work>
  </rdf:RDF>
 </metadata>
 <defs>
  <style type="text/css">*{stroke-linejoin: round; stroke-linecap: butt}</style>
 </defs>
 <g id="figure_1">
  <g id="patch_1">
   <path d="M 0 360 
L 432 360 
L 432 0 
L 0 0 
L 0 360 
z
" style="fill: none"/>
  </g>
  <g id="axes_1">
   <g id="patch_2">
    <path d="M 82.8 320.4 
L 360 320.4 
L 360 43.2 
L 82.8 43.2 
L 82.8 320.4 
z
" style="fill: none"/>
   </g>
   <g id="patch_3">
    <path d="M 56.887373 324.9291 
L 57.348478 326.09043 
L 58.121021 327.545557 
L 59.282136 328.525892 
L 59.909592 329.461712 
L 60.509957 330.252855 
L 60.700078 331.046897 
L 61.081578 332.264005 
L 61.773272 333.099998 
L 62.30047 333.498956 
L 62.382429 334.243409 
L 62.652555 335.806327 
L 63.494468 337.324288 
L 64.529116 338.641139 
L 65.670145 339.635191 
L 66.320876 340.20648 
L 66.718304 340.836193 
L 67.073603 341.666155 
L 67.592678 342.985455 
L 68.618078 344.28073 
L 69.850918 345.400549 
L 71.223576 346.490263 
L 72.496835 347.17018 
L 73.408345 347.494106 
L 74.009508 347.80916 
L 74.481437 348.492907 
L 75.313267 349.119094 
L 76.102363 349.677264 
L 77.356477 350.6096 
L 78.789652 350.915448 
L 79.603743 350.839913 
L 79.905101 351.001836 
L 80.183474 351.730488 
L 80.782593 352.357135 
L 81.518803 352.941841 
L 82.742662 353.690557 
L 84.324651 354.185499 
L 85.948256 354.364874 
L 87.72808 354.294869 
L 89.107713 353.896804 
L 90.246244 353.681776 
L 91.634982 353.132611 
L 93.065358 352.486918 
L 94.7329 351.546163 
L 96.280814 350.187543 
L 97.719382 348.684428 
L 98.96664 347.325472 
L 100.12279 345.861781 
L 101.143642 344.192043 
L 102.058952 342.287877 
L 102.716696 340.373129 
L 103.369251 338.213821 
L 103.991043 336.04492 
L 104.607373 333.685477 
L 104.572352 331.72449 
L 105.158022 330.017952 
L 105.481108 327.68693 
L 105.382642 325.692564 
L 105.331354 323.435277 
L 104.963571 320.855954 
L 104.133272 318.666438 
L 103.423711 316.909858 
L 102.390991 315.269496 
L 101.561551 314.71993 
L 101.516437 314.286056 
L 101.449423 313.514185 
L 101.427312 312.725461 
L 101.804085 311.885525 
L 102.100225 310.557004 
L 102.156014 309.417524 
L 102.769815 308.460668 
L 103.520491 307.175247 
L 103.808413 305.664116 
L 103.747834 304.27615 
L 103.601878 303.171843 
L 103.530692 302.111766 
L 103.406674 300.902376 
L 103.665917 299.663185 
L 103.787838 297.935831 
L 103.308873 296.421739 
L 102.614718 295.058807 
L 101.603306 294.341145 
L 100.944347 293.971958 
L 100.170689 293.245247 
L 99.254821 292.663856 
L 98.620814 292.297887 
L 98.093681 291.700136 
L 97.448261 291.016163 
L 96.639533 290.495034 
L 95.798026 290.554959 
L 95.372661 290.258499 
L 94.372405 289.447428 
L 93.068724 288.874944 
L 91.296471 288.237847 
L 89.267682 288.231534 
L 87.916195 288.636763 
L 86.726299 288.836057 
L 85.163292 289.122437 
L 83.577724 289.657148 
L 81.903438 290.507202 
L 80.510088 291.616519 
L 79.312202 292.246312 
L 78.068443 292.86547 
L 77.124189 293.468672 
L 75.974115 293.713863 
L 74.458459 294.180328 
L 73.057528 295.101329 
L 71.572631 296.061543 
L 69.97571 297.22469 
L 68.795156 298.361785 
L 67.698251 299.237133 
L 66.425616 299.849052 
L 64.764947 300.649025 
L 63.449602 302.272077 
L 62.80515 303.998825 
L 62.392046 305.132972 
L 61.424129 305.773236 
L 59.920937 306.946674 
L 58.587265 308.567004 
L 57.904989 310.122819 
L 57.300488 311.085802 
L 56.148615 312.595477 
L 55.462986 314.699983 
L 55.367124 316.844184 
L 55.44475 318.704253 
L 55.351628 320.894821 
L 56.192741 322.628117 
L 56.556907 323.528302 
L 56.887373 324.9291 
" style="fill: #ff0000; stroke: #000000; stroke-linejoin: miter"/>
   </g>
   <g id="patch_4">
    <path d="M -220.312627 324.9291 
L -219.851522 326.09043 
L -219.078979 327.545557 
L -217.917864 328.525892 
L -217.290408 329.461712 
L -216.690043 330.252855 
L -216.499922 331.046897 
L -216.118422 332.264005 
L -215.426728 333.099998 
L -214.89953 333.498956 
L -214.817571 334.243409 
L -214.547445 335.806327 
L -213.705532 337.324288 
L -212.670884 338.641139 
L -211.529855 339.635191 
L -210.879124 340.20648 
L -210.481696 340.836193 
L -210.126397 341.666155 
L -209.607322 342.985455 
L -208.581922 344.28073 
L -207.349082 345.400549 
L -205.976424 346.490263 
L -204.703165 347.17018 
L -203.791655 347.494106 
L -203.190492 347.80916 
L -202.718563 348.492907 
L -201.886733 349.119094 
L -201.097637 349.677264 
L -199.843523 350.6096 
L -198.410348 350.915448 
L -197.596257 350.839913 
L -197.294899 351.001836 
L -197.016526 351.730488 
L -196.417407 352.357135 
L -195.681197 352.941841 
L -194.457338 353.690557 
L -192.875349 354.185499 
L -191.251744 354.364874 
L -189.47192 354.294869 
L -188.092287 353.896804 
L -186.953756 353.681776 
L -185.565018 353.132611 
L -184.134642 352.486918 
L -182.4671 351.546163 
L -180.919186 350.187543 
L -179.480618 348.684428 
L -178.23336 347.325472 
L -177.07721 345.861781 
L -176.056358 344.192043 
L -175.141048 342.287877 
L -174.483304 340.373129 
L -173.830749 338.213821 
L -173.208957 336.04492 
L -172.592627 333.685477 
L -172.627648 331.72449 
L -172.041978 330.017952 
L -171.718892 327.68693 
L -171.817358 325.692564 
L -171.868646 323.435277 
L -172.236429 320.855954 
L -173.066728 318.666438 
L -173.776289 316.909858 
L -174.809009 315.269496 
L -175.638449 314.71993 
L -175.683563 314.286056 
L -175.750577 313.514185 
L -175.772688 312.725461 
L -175.395915 311.885525 
L -175.099775 310.557004 
L -175.043986 309.417524 
L -174.430185 308.460668 
L -173.679509 307.175247 
L -173.391587 305.664116 
L -173.452166 304.27615 
L -173.598122 303.171843 
L -173.669308 302.111766 
L -173.793326 300.902376 
L -173.534083 299.663185 
L -173.412162 297.935831 
L -173.891127 296.421739 
L -174.585282 295.058807 
L -175.596694 294.341145 
L -176.255653 293.971958 
L -177.029311 293.245247 
L -177.945179 292.663856 
L -178.579186 292.297887 
L -179.106319 291.700136 
L -179.751739 291.016163 
L -180.560467 290.495034 
L -181.401974 290.554959 
L -181.827339 290.258499 
L -182.827595 289.447428 
L -184.131276 288.874944 
L -185.903529 288.237847 
L -187.932318 288.231534 
L -189.283805 288.636763 
L -190.473701 288.836057 
L -192.036708 289.122437 
L -193.622276 289.657148 
L -195.296562 290.507202 
L -196.689912 291.616519 
L -197.887798 292.246312 
L -199.131557 292.86547 
L -200.075811 293.468672 
L -201.225885 293.713863 
L -202.741541 294.180328 
L -204.142472 295.101329 
L -205.627369 296.061543 
L -207.22429 297.22469 
L -208.404844 298.361785 
L -209.501749 299.237133 
L -210.774384 299.849052 
L -212.435053 300.649025 
L -213.750398 302.272077 
L -214.39485 303.998825 
L -214.807954 305.132972 
L -215.775871 305.773236 
L -217.279063 306.946674 
L -218.612735 308.567004 
L -219.295011 310.122819 
L -219.899512 311.085802 
L -221.051385 312.595477 
L -221.737014 314.699983 
L -221.832876 316.844184 
L -221.75525 318.704253 
L -221.848372 320.894821 
L -221.007259 322.628117 
L -220.643093 323.528302 
L -220.312627 324.9291 
" style="fill: #ff0000; stroke: #000000; stroke-linejoin: miter"/>
   </g>
   <g id="patch_5">
    <path d="M 334.102201 324.451108 
L 334.563306 325.612438 
L 335.33585 327.067565 
L 336.496964 328.0479 
L 337.12442 328.983721 
L 337.724786 329.774863 
L 337.914906 330.568905 
L 338.296406 331.786013 
L 338.9881 332.622006 
L 339.515298 333.020964 
L 339.597257 333.765417 
L 339.867383 335.328335 
L 340.709296 336.846297 
L 341.743944 338.163147 
L 342.884974 339.1572 
L 343.535704 339.728489 
L 343.933133 340.358201 
L 344.288431 341.188163 
L 344.807506 342.507463 
L 345.832906 343.802738 
L 347.065746 344.922557 
L 348.438405 346.012271 
L 349.711663 346.692188 
L 350.623173 347.016115 
L 351.224336 347.331169 
L 351.696265 348.014915 
L 352.528095 348.641103 
L 353.317191 349.199272 
L 354.571305 350.131608 
L 356.00448 350.437456 
L 356.818571 350.361921 
L 357.11993 350.523844 
L 357.398303 351.252496 
L 357.997421 351.879143 
L 358.733631 352.463849 
L 359.95749 353.212565 
L 361.539479 353.707508 
L 363.163085 353.886883 
L 364.942908 353.816877 
L 366.322541 353.418813 
L 367.461072 353.203784 
L 368.84981 352.654619 
L 370.280186 352.008926 
L 371.947729 351.068172 
L 373.495643 349.709551 
L 374.93421 348.206436 
L 376.181468 346.84748 
L 377.337618 345.383789 
L 378.35847 343.714051 
L 379.27378 341.809885 
L 379.931524 339.895137 
L 380.584079 337.73583 
L 381.205872 335.566928 
L 381.822201 333.207485 
L 381.78718 331.246498 
L 382.372851 329.53996 
L 382.695936 327.208938 
L 382.59747 325.214572 
L 382.546183 322.957286 
L 382.178399 320.377962 
L 381.3481 318.188446 
L 380.63854 316.431866 
L 379.605819 314.791504 
L 378.776379 314.241938 
L 378.731265 313.808065 
L 378.664251 313.036193 
L 378.64214 312.247469 
L 379.018913 311.407533 
L 379.315054 310.079012 
L 379.370842 308.939533 
L 379.984643 307.982676 
L 380.735319 306.697255 
L 381.023241 305.186125 
L 380.962662 303.798158 
L 380.816707 302.693851 
L 380.74552 301.633775 
L 380.621502 300.424384 
L 380.880745 299.185194 
L 381.002667 297.457839 
L 380.523701 295.943747 
L 379.829546 294.580816 
L 378.818134 293.863154 
L 378.159175 293.493967 
L 377.385517 292.767255 
L 376.469649 292.185864 
L 375.835642 291.819895 
L 375.30851 291.222145 
L 374.66309 290.538172 
L 373.854361 290.017042 
L 373.012854 290.076967 
L 372.58749 289.780507 
L 371.587233 288.969436 
L 370.283552 288.396953 
L 368.511299 287.759856 
L 366.48251 287.753542 
L 365.131023 288.158772 
L 363.941128 288.358065 
L 362.378121 288.644446 
L 360.792553 289.179156 
L 359.118266 290.02921 
L 357.724916 291.138527 
L 356.527031 291.76832 
L 355.283271 292.387478 
L 354.339017 292.99068 
L 353.188943 293.235872 
L 351.673287 293.702337 
L 350.272357 294.623338 
L 348.787459 295.583552 
L 347.190538 296.746698 
L 346.009985 297.883794 
L 344.91308 298.759141 
L 343.640445 299.37106 
L 341.979776 300.171034 
L 340.664431 301.794085 
L 340.019978 303.520833 
L 339.606875 304.654981 
L 338.638957 305.295244 
L 337.135765 306.468682 
L 335.802093 308.089012 
L 335.119817 309.644827 
L 334.515316 310.60781 
L 333.363443 312.117485 
L 332.677814 314.221991 
L 332.581952 316.366192 
L 332.659578 318.226261 
L 332.566456 320.41683 
L 333.407569 322.150126 
L 333.771735 323.05031 
L 334.102201 324.451108 
" style="fill: #00bfbf; stroke: #000000; stroke-linejoin: miter"/>
   </g>
   <g id="patch_6">
    <path d="M 56.902201 47.251108 
L 57.363306 48.412438 
L 58.13585 49.867565 
L 59.296964 50.8479 
L 59.92442 51.783721 
L 60.524786 52.574863 
L 60.714906 53.368905 
L 61.096406 54.586013 
L 61.7881 55.422006 
L 62.315298 55.820964 
L 62.397257 56.565417 
L 62.667383 58.128335 
L 63.509296 59.646297 
L 64.543944 60.963147 
L 65.684974 61.9572 
L 66.335704 62.528489 
L 66.733133 63.158201 
L 67.088431 63.988163 
L 67.607506 65.307463 
L 68.632906 66.602738 
L 69.865746 67.722557 
L 71.238405 68.812271 
L 72.511663 69.492188 
L 73.423173 69.816115 
L 74.024336 70.131169 
L 74.496265 70.814915 
L 75.328095 71.441103 
L 76.117191 71.999272 
L 77.371305 72.931608 
L 78.80448 73.237456 
L 79.618571 73.161921 
L 79.91993 73.323844 
L 80.198303 74.052496 
L 80.797421 74.679143 
L 81.533631 75.263849 
L 82.75749 76.012565 
L 84.339479 76.507508 
L 85.963085 76.686883 
L 87.742908 76.616877 
L 89.122541 76.218813 
L 90.261072 76.003784 
L 91.64981 75.454619 
L 93.080186 74.808926 
L 94.747729 73.868172 
L 96.295643 72.509551 
L 97.73421 71.006436 
L 98.981468 69.64748 
L 100.137618 68.183789 
L 101.15847 66.514051 
L 102.07378 64.609885 
L 102.731524 62.695137 
L 103.384079 60.53583 
L 104.005872 58.366928 
L 104.622201 56.007485 
L 104.58718 54.046498 
L 105.172851 52.33996 
L 105.495936 50.008938 
L 105.39747 48.014572 
L 105.346183 45.757286 
L 104.978399 43.177962 
L 104.1481 40.988446 
L 103.43854 39.231866 
L 102.405819 37.591504 
L 101.576379 37.041938 
L 101.531265 36.608065 
L 101.464251 35.836193 
L 101.44214 35.047469 
L 101.818913 34.207533 
L 102.115054 32.879012 
L 102.170842 31.739533 
L 102.784643 30.782676 
L 103.535319 29.497255 
L 103.823241 27.986125 
L 103.762662 26.598158 
L 103.616707 25.493851 
L 103.54552 24.433775 
L 103.421502 23.224384 
L 103.680745 21.985194 
L 103.802667 20.257839 
L 103.323701 18.743747 
L 102.629546 17.380816 
L 101.618134 16.663154 
L 100.959175 16.293967 
L 100.185517 15.567255 
L 99.269649 14.985864 
L 98.635642 14.619895 
L 98.10851 14.022145 
L 97.46309 13.338172 
L 96.654361 12.817042 
L 95.812854 12.876967 
L 95.38749 12.580507 
L 94.387233 11.769436 
L 93.083552 11.196953 
L 91.311299 10.559856 
L 89.28251 10.553542 
L 87.931023 10.958772 
L 86.741128 11.158065 
L 85.178121 11.444446 
L 83.592553 11.979156 
L 81.918266 12.82921 
L 80.524916 13.938527 
L 79.327031 14.56832 
L 78.083271 15.187478 
L 77.139017 15.79068 
L 75.988943 16.035872 
L 74.473287 16.502337 
L 73.072357 17.423338 
L 71.587459 18.383552 
L 69.990538 19.546698 
L 68.809985 20.683794 
L 67.71308 21.559141 
L 66.440445 22.17106 
L 64.779776 22.971034 
L 63.464431 24.594085 
L 62.819978 26.320833 
L 62.406875 27.454981 
L 61.438957 28.095244 
L 59.935765 29.268682 
L 58.602093 30.889012 
L 57.919817 32.444827 
L 57.315316 33.40781 
L 56.163443 34.917485 
L 55.477814 37.021991 
L 55.381952 39.166192 
L 55.459578 41.026261 
L 55.366456 43.21683 
L 56.207569 44.950126 
L 56.571735 45.85031 
L 56.902201 47.251108 
" style="fill: #00bfbf; stroke: #000000; stroke-linejoin: miter"/>
   </g>
   <g id="patch_7">
    <path d="M 56.902201 601.651108 
L 57.363306 602.812438 
L 58.13585 604.267565 
L 59.296964 605.2479 
L 59.92442 606.183721 
L 60.524786 606.974863 
L 60.714906 607.768905 
L 61.096406 608.986013 
L 61.7881 609.822006 
L 62.315298 610.220964 
L 62.397257 610.965417 
L 62.667383 612.528335 
L 63.509296 614.046297 
L 64.543944 615.363147 
L 65.684974 616.3572 
L 66.335704 616.928489 
L 66.733133 617.558201 
L 67.088431 618.388163 
L 67.607506 619.707463 
L 68.632906 621.002738 
L 69.865746 622.122557 
L 71.238405 623.212271 
L 72.511663 623.892188 
L 73.423173 624.216115 
L 74.024336 624.531169 
L 74.496265 625.214915 
L 75.328095 625.841103 
L 76.117191 626.399272 
L 77.371305 627.331608 
L 78.80448 627.637456 
L 79.618571 627.561921 
L 79.91993 627.723844 
L 80.198303 628.452496 
L 80.797421 629.079143 
L 81.533631 629.663849 
L 82.75749 630.412565 
L 84.339479 630.907508 
L 85.963085 631.086883 
L 87.742908 631.016877 
L 89.122541 630.618813 
L 90.261072 630.403784 
L 91.64981 629.854619 
L 93.080186 629.208926 
L 94.747729 628.268172 
L 96.295643 626.909551 
L 97.73421 625.406436 
L 98.981468 624.04748 
L 100.137618 622.583789 
L 101.15847 620.914051 
L 102.07378 619.009885 
L 102.731524 617.095137 
L 103.384079 614.93583 
L 104.005872 612.766928 
L 104.622201 610.407485 
L 104.58718 608.446498 
L 105.172851 606.73996 
L 105.495936 604.408938 
L 105.39747 602.414572 
L 105.346183 600.157286 
L 104.978399 597.577962 
L 104.1481 595.388446 
L 103.43854 593.631866 
L 102.405819 591.991504 
L 101.576379 591.441938 
L 101.531265 591.008065 
L 101.464251 590.236193 
L 101.44214 589.447469 
L 101.818913 588.607533 
L 102.115054 587.279012 
L 102.170842 586.139533 
L 102.784643 585.182676 
L 103.535319 583.897255 
L 103.823241 582.386125 
L 103.762662 580.998158 
L 103.616707 579.893851 
L 103.54552 578.833775 
L 103.421502 577.624384 
L 103.680745 576.385194 
L 103.802667 574.657839 
L 103.323701 573.143747 
L 102.629546 571.780816 
L 101.618134 571.063154 
L 100.959175 570.693967 
L 100.185517 569.967255 
L 99.269649 569.385864 
L 98.635642 569.019895 
L 98.10851 568.422145 
L 97.46309 567.738172 
L 96.654361 567.217042 
L 95.812854 567.276967 
L 95.38749 566.980507 
L 94.387233 566.169436 
L 93.083552 565.596953 
L 91.311299 564.959856 
L 89.28251 564.953542 
L 87.931023 565.358772 
L 86.741128 565.558065 
L 85.178121 565.844446 
L 83.592553 566.379156 
L 81.918266 567.22921 
L 80.524916 568.338527 
L 79.327031 568.96832 
L 78.083271 569.587478 
L 77.139017 570.19068 
L 75.988943 570.435872 
L 74.473287 570.902337 
L 73.072357 571.823338 
L 71.587459 572.783552 
L 69.990538 573.946698 
L 68.809985 575.083794 
L 67.71308 575.959141 
L 66.440445 576.57106 
L 64.779776 577.371034 
L 63.464431 578.994085 
L 62.819978 580.720833 
L 62.406875 581.854981 
L 61.438957 582.495244 
L 59.935765 583.668682 
L 58.602093 585.289012 
L 57.919817 586.844827 
L 57.315316 587.80781 
L 56.163443 589.317485 
L 55.477814 591.421991 
L 55.381952 593.566192 
L 55.459578 595.426261 
L 55.366456 597.61683 
L 56.207569 599.350126 
L 56.571735 600.25031 
L 56.902201 601.651108 
" style="fill: #00bfbf; stroke: #000000; stroke-linejoin: miter"/>
   </g>
   <g id="patch_8">
    <path d="M 334.102201 47.251108 
L 334.563306 48.412438 
L 335.33585 49.867565 
L 336.496964 50.8479 
L 337.12442 51.783721 
L 337.724786 52.574863 
L 337.914906 53.368905 
L 338.296406 54.586013 
L 338.9881 55.422006 
L 339.515298 55.820964 
L 339.597257 56.565417 
L 339.867383 58.128335 
L 340.709296 59.646297 
L 341.743944 60.963147 
L 342.884974 61.9572 
L 343.535704 62.528489 
L 343.933133 63.158201 
L 344.288431 63.988163 
L 344.807506 65.307463 
L 345.832906 66.602738 
L 347.065746 67.722557 
L 348.438405 68.812271 
L 349.711663 69.492188 
L 350.623173 69.816115 
L 351.224336 70.131169 
L 351.696265 70.814915 
L 352.528095 71.441103 
L 353.317191 71.999272 
L 354.571305 72.931608 
L 356.00448 73.237456 
L 356.818571 73.161921 
L 357.11993 73.323844 
L 357.398303 74.052496 
L 357.997421 74.679143 
L 358.733631 75.263849 
L 359.95749 76.012565 
L 361.539479 76.507508 
L 363.163085 76.686883 
L 364.942908 76.616877 
L 366.322541 76.218813 
L 367.461072 76.003784 
L 368.84981 75.454619 
L 370.280186 74.808926 
L 371.947729 73.868172 
L 373.495643 72.509551 
L 374.93421 71.006436 
L 376.181468 69.64748 
L 377.337618 68.183789 
L 378.35847 66.514051 
L 379.27378 64.609885 
L 379.931524 62.695137 
L 380.584079 60.53583 
L 381.205872 58.366928 
L 381.822201 56.007485 
L 381.78718 54.046498 
L 382.372851 52.33996 
L 382.695936 50.008938 
L 382.59747 48.014572 
L 382.546183 45.757286 
L 382.178399 43.177962 
L 381.3481 40.988446 
L 380.63854 39.231866 
L 379.605819 37.591504 
L 378.776379 37.041938 
L 378.731265 36.608065 
L 378.664251 35.836193 
L 378.64214 35.047469 
L 379.018913 34.207533 
L 379.315054 32.879012 
L 379.370842 31.739533 
L 379.984643 30.782676 
L 380.735319 29.497255 
L 381.023241 27.986125 
L 380.962662 26.598158 
L 380.816707 25.493851 
L 380.74552 24.433775 
L 380.621502 23.224384 
L 380.880745 21.985194 
L 381.002667 20.257839 
L 380.523701 18.743747 
L 379.829546 17.380816 
L 378.818134 16.663154 
L 378.159175 16.293967 
L 377.385517 15.567255 
L 376.469649 14.985864 
L 375.835642 14.619895 
L 375.30851 14.022145 
L 374.66309 13.338172 
L 373.854361 12.817042 
L 373.012854 12.876967 
L 372.58749 12.580507 
L 371.587233 11.769436 
L 370.283552 11.196953 
L 368.511299 10.559856 
L 366.48251 10.553542 
L 365.131023 10.958772 
L 363.941128 11.158065 
L 362.378121 11.444446 
L 360.792553 11.979156 
L 359.118266 12.82921 
L 357.724916 13.938527 
L 356.527031 14.56832 
L 355.283271 15.187478 
L 354.339017 15.79068 
L 353.188943 16.035872 
L 351.673287 16.502337 
L 350.272357 17.423338 
L 348.787459 18.383552 
L 347.190538 19.546698 
L 346.009985 20.683794 
L 344.91308 21.559141 
L 343.640445 22.17106 
L 341.979776 22.971034 
L 340.664431 24.594085 
L 340.019978 26.320833 
L 339.606875 27.454981 
L 338.638957 28.095244 
L 337.135765 29.268682 
L 335.802093 30.889012 
L 335.119817 32.444827 
L 334.515316 33.40781 
L 333.363443 34.917485 
L 332.677814 37.021991 
L 332.581952 39.166192 
L 332.659578 41.026261 
L 332.566456 43.21683 
L 333.407569 44.950126 
L 333.771735 45.85031 
L 334.102201 47.251108 
" style="fill: #00bfbf; stroke: #000000; stroke-linejoin: miter"/>
   </g>
   <g id="matplotlib.axis_1">
    <g id="xtick_1">
     <g id="line2d_1">
      <path d="M 82.8 320.4 
L 82.8 43.2 
" clip-path="url(#p42e4753647)" style="fill: none; stroke-dasharray: 2.96,1.28; stroke-dashoffset: 0; stroke: #b0b0b0; stroke-width: 0.8"/>
     </g>
     <g id="line2d_2">
      <defs>
       <path id="m754758579e" d="M 0 0 
L 0 3.5 
" style="stroke: #000000; stroke-width: 0.8"/>
      </defs>
      <g>
       <use xlink:href="#m754758579e" x="82.8" y="320.4" style="stroke: #000000; stroke-width: 0.8"/>
      </g>
     </g>
     <g id="text_1">
      <!-- 0 -->
      <g transform="translate(79.61875 334.998438) scale(0.1 -0.1)">
       <defs>
        <path id="DejaVuSans-30" d="M 2034 4250 
Q 1547 4250 1301 3770 
Q 1056 3291 1056 2328 
Q 1056 1369 1301 889 
Q 1547 409 2034 409 
Q 2525 409 2770 889 
Q 3016 1369 3016 2328 
Q 3016 3291 2770 3770 
Q 2525 4250 2034 4250 
z
M 2034 4750 
Q 2819 4750 3233 4129 
Q 3647 3509 3647 2328 
Q 3647 1150 3233 529 
Q 2819 -91 2034 -91 
Q 1250 -91 836 529 
Q 422 1150 422 2328 
Q 422 3509 836 4129 
Q 1250 4750 2034 4750 
z
" transform="scale(0.015625)"/>
       </defs>
       <use xlink:href="#DejaVuSans-30"/>
      </g>
     </g>
    </g>
    <g id="xtick_2">
     <g id="line2d_3">
      <path d="M 110.52 320.4 
L 110.52 43.2 
" clip-path="url(#p42e4753647)" style="fill: none; stroke-dasharray: 2.96,1.28; stroke-dashoffset: 0; stroke: #b0b0b0; stroke-width: 0.8"/>
     </g>
     <g id="line2d_4">
      <g>
       <use xlink:href="#m754758579e" x="110.52" y="320.4" style="stroke: #000000; stroke-width: 0.8"/>
      </g>
     </g>
     <g id="text_2">
      <!-- 1 -->
      <g transform="translate(107.33875 334.998438) scale(0.1 -0.1)">
       <defs>
        <path id="DejaVuSans-31" d="M 794 531 
L 1825 531 
L 1825 4091 
L 703 3866 
L 703 4441 
L 1819 4666 
L 2450 4666 
L 2450 531 
L 3481 531 
L 3481 0 
L 794 0 
L 794 531 
z
" transform="scale(0.015625)"/>
       </defs>
       <use xlink:href="#DejaVuSans-31"/>
      </g>
     </g>
    </g>
    <g id="xtick_3">
     <g id="line2d_5">
      <path d="M 138.24 320.4 
L 138.24 43.2 
" clip-path="url(#p42e4753647)" style="fill: none; stroke-dasharray: 2.96,1.28; stroke-dashoffset: 0; stroke: #b0b0b0; stroke-width: 0.8"/>
     </g>
     <g id="line2d_6">
      <g>
       <use xlink:href="#m754758579e" x="138.24" y="320.4" style="stroke: #000000; stroke-width: 0.8"/>
      </g>
     </g>
     <g id="text_3">
      <!-- 2 -->
      <g transform="translate(135.05875 334.998438) scale(0.1 -0.1)">
       <defs>
        <path id="DejaVuSans-32" d="M 1228 531 
L 3431 531 
L 3431 0 
L 469 0 
L 469 531 
Q 828 903 1448 1529 
Q 2069 2156 2228 2338 
Q 2531 2678 2651 2914 
Q 2772 3150 2772 3378 
Q 2772 3750 2511 3984 
Q 2250 4219 1831 4219 
Q 1534 4219 1204 4116 
Q 875 4013 500 3803 
L 500 4441 
Q 881 4594 1212 4672 
Q 1544 4750 1819 4750 
Q 2544 4750 2975 4387 
Q 3406 4025 3406 3419 
Q 3406 3131 3298 2873 
Q 3191 2616 2906 2266 
Q 2828 2175 2409 1742 
Q 1991 1309 1228 531 
z
" transform="scale(0.015625)"/>
       </defs>
       <use xlink:href="#DejaVuSans-32"/>
      </g>
     </g>
    </g>
    <g id="xtick_4">
     <g id="line2d_7">
      <path d="M 165.96 320.4 
L 165.96 43.2 
" clip-path="url(#p42e4753647)" style="fill: none; stroke-dasharray: 2.96,1.28; stroke-dashoffset: 0; stroke: #b0b0b0; stroke-width: 0.8"/>
     </g>
     <g id="line2d_8">
      <g>
       <use xlink:href="#m754758579e" x="165.96" y="320.4" style="stroke: #000000; stroke-width: 0.8"/>
      </g>
     </g>
     <g id="text_4">
      <!-- 3 -->
      <g transform="translate(162.77875 334.998438) scale(0.1 -0.1)">
       <defs>
        <path id="DejaVuSans-33" d="M 2597 2516 
Q 3050 2419 3304 2112 
Q 3559 1806 3559 1356 
Q 3559 666 3084 287 
Q 2609 -91 1734 -91 
Q 1441 -91 1130 -33 
Q 819 25 488 141 
L 488 750 
Q 750 597 1062 519 
Q 1375 441 1716 441 
Q 2309 441 2620 675 
Q 2931 909 2931 1356 
Q 2931 1769 2642 2001 
Q 2353 2234 1838 2234 
L 1294 2234 
L 1294 2753 
L 1863 2753 
Q 2328 2753 2575 2939 
Q 2822 3125 2822 3475 
Q 2822 3834 2567 4026 
Q 2313 4219 1838 4219 
Q 1578 4219 1281 4162 
Q 984 4106 628 3988 
L 628 4550 
Q 988 4650 1302 4700 
Q 1616 4750 1894 4750 
Q 2613 4750 3031 4423 
Q 3450 4097 3450 3541 
Q 3450 3153 3228 2886 
Q 3006 2619 2597 2516 
z
" transform="scale(0.015625)"/>
       </defs>
       <use xlink:href="#DejaVuSans-33"/>
      </g>
     </g>
    </g>
    <g id="xtick_5">
     <g id="line2d_9">
      <path d="M 193.68 320.4 
L 193.68 43.2 
" clip-path="url(#p42e4753647)" style="fill: none; stroke-dasharray: 2.96,1.28; stroke-dashoffset: 0; stroke: #b0b0b0; stroke-width: 0.8"/>
     </g>
     <g id="line2d_10">
      <g>
       <use xlink:href="#m754758579e" x="193.68" y="320.4" style="stroke: #000000; stroke-width: 0.8"/>
      </g>
     </g>
     <g id="text_5">
      <!-- 4 -->
      <g transform="translate(190.49875 334.998438) scale(0.1 -0.1)">
       <defs>
        <path id="DejaVuSans-34" d="M 2419 4116 
L 825 1625 
L 2419 1625 
L 2419 4116 
z
M 2253 4666 
L 3047 4666 
L 3047 1625 
L 3713 1625 
L 3713 1100 
L 3047 1100 
L 3047 0 
L 2419 0 
L 2419 1100 
L 313 1100 
L 313 1709 
L 2253 4666 
z
" transform="scale(0.015625)"/>
       </defs>
       <use xlink:href="#DejaVuSans-34"/>
      </g>
     </g>
    </g>
    <g id="xtick_6">
     <g id="line2d_11">
      <path d="M 221.4 320.4 
L 221.4 43.2 
" clip-path="url(#p42e4753647)" style="fill: none; stroke-dasharray: 2.96,1.28; stroke-dashoffset: 0; stroke: #b0b0b0; stroke-width: 0.8"/>
     </g>
     <g id="line2d_12">
      <g>
       <use xlink:href="#m754758579e" x="221.4" y="320.4" style="stroke: #000000; stroke-width: 0.8"/>
      </g>
     </g>
     <g id="text_6">
      <!-- 5 -->
      <g transform="translate(218.21875 334.998438) scale(0.1 -0.1)">
       <defs>
        <path id="DejaVuSans-35" d="M 691 4666 
L 3169 4666 
L 3169 4134 
L 1269 4134 
L 1269 2991 
Q 1406 3038 1543 3061 
Q 1681 3084 1819 3084 
Q 2600 3084 3056 2656 
Q 3513 2228 3513 1497 
Q 3513 744 3044 326 
Q 2575 -91 1722 -91 
Q 1428 -91 1123 -41 
Q 819 9 494 109 
L 494 744 
Q 775 591 1075 516 
Q 1375 441 1709 441 
Q 2250 441 2565 725 
Q 2881 1009 2881 1497 
Q 2881 1984 2565 2268 
Q 2250 2553 1709 2553 
Q 1456 2553 1204 2497 
Q 953 2441 691 2322 
L 691 4666 
z
" transform="scale(0.015625)"/>
       </defs>
       <use xlink:href="#DejaVuSans-35"/>
      </g>
     </g>
    </g>
    <g id="xtick_7">
     <g id="line2d_13">
      <path d="M 249.12 320.4 
L 249.12 43.2 
" clip-path="url(#p42e4753647)" style="fill: none; stroke-dasharray: 2.96,1.28; stroke-dashoffset: 0; stroke: #b0b0b0; stroke-width: 0.8"/>
     </g>
     <g id="line2d_14">
      <g>
       <use xlink:href="#m754758579e" x="249.12" y="320.4" style="stroke: #000000; stroke-width: 0.8"/>
      </g>
     </g>
     <g id="text_7">
      <!-- 6 -->
      <g transform="translate(245.93875 334.998438) scale(0.1 -0.1)">
       <defs>
        <path id="DejaVuSans-36" d="M 2113 2584 
Q 1688 2584 1439 2293 
Q 1191 2003 1191 1497 
Q 1191 994 1439 701 
Q 1688 409 2113 409 
Q 2538 409 2786 701 
Q 3034 994 3034 1497 
Q 3034 2003 2786 2293 
Q 2538 2584 2113 2584 
z
M 3366 4563 
L 3366 3988 
Q 3128 4100 2886 4159 
Q 2644 4219 2406 4219 
Q 1781 4219 1451 3797 
Q 1122 3375 1075 2522 
Q 1259 2794 1537 2939 
Q 1816 3084 2150 3084 
Q 2853 3084 3261 2657 
Q 3669 2231 3669 1497 
Q 3669 778 3244 343 
Q 2819 -91 2113 -91 
Q 1303 -91 875 529 
Q 447 1150 447 2328 
Q 447 3434 972 4092 
Q 1497 4750 2381 4750 
Q 2619 4750 2861 4703 
Q 3103 4656 3366 4563 
z
" transform="scale(0.015625)"/>
       </defs>
       <use xlink:href="#DejaVuSans-36"/>
      </g>
     </g>
    </g>
    <g id="xtick_8">
     <g id="line2d_15">
      <path d="M 276.84 320.4 
L 276.84 43.2 
" clip-path="url(#p42e4753647)" style="fill: none; stroke-dasharray: 2.96,1.28; stroke-dashoffset: 0; stroke: #b0b0b0; stroke-width: 0.8"/>
     </g>
     <g id="line2d_16">
      <g>
       <use xlink:href="#m754758579e" x="276.84" y="320.4" style="stroke: #000000; stroke-width: 0.8"/>
      </g>
     </g>
     <g id="text_8">
      <!-- 7 -->
      <g transform="translate(273.65875 334.998438) scale(0.1 -0.1)">
       <defs>
        <path id="DejaVuSans-37" d="M 525 4666 
L 3525 4666 
L 3525 4397 
L 1831 0 
L 1172 0 
L 2766 4134 
L 525 4134 
L 525 4666 
z
" transform="scale(0.015625)"/>
       </defs>
       <use xlink:href="#DejaVuSans-37"/>
      </g>
     </g>
    </g>
    <g id="xtick_9">
     <g id="line2d_17">
      <path d="M 304.56 320.4 
L 304.56 43.2 
" clip-path="url(#p42e4753647)" style="fill: none; stroke-dasharray: 2.96,1.28; stroke-dashoffset: 0; stroke: #b0b0b0; stroke-width: 0.8"/>
     </g>
     <g id="line2d_18">
      <g>
       <use xlink:href="#m754758579e" x="304.56" y="320.4" style="stroke: #000000; stroke-width: 0.8"/>
      </g>
     </g>
     <g id="text_9">
      <!-- 8 -->
      <g transform="translate(301.37875 334.998438) scale(0.1 -0.1)">
       <defs>
        <path id="DejaVuSans-38" d="M 2034 2216 
Q 1584 2216 1326 1975 
Q 1069 1734 1069 1313 
Q 1069 891 1326 650 
Q 1584 409 2034 409 
Q 2484 409 2743 651 
Q 3003 894 3003 1313 
Q 3003 1734 2745 1975 
Q 2488 2216 2034 2216 
z
M 1403 2484 
Q 997 2584 770 2862 
Q 544 3141 544 3541 
Q 544 4100 942 4425 
Q 1341 4750 2034 4750 
Q 2731 4750 3128 4425 
Q 3525 4100 3525 3541 
Q 3525 3141 3298 2862 
Q 3072 2584 2669 2484 
Q 3125 2378 3379 2068 
Q 3634 1759 3634 1313 
Q 3634 634 3220 271 
Q 2806 -91 2034 -91 
Q 1263 -91 848 271 
Q 434 634 434 1313 
Q 434 1759 690 2068 
Q 947 2378 1403 2484 
z
M 1172 3481 
Q 1172 3119 1398 2916 
Q 1625 2713 2034 2713 
Q 2441 2713 2670 2916 
Q 2900 3119 2900 3481 
Q 2900 3844 2670 4047 
Q 2441 4250 2034 4250 
Q 1625 4250 1398 4047 
Q 1172 3844 1172 3481 
z
" transform="scale(0.015625)"/>
       </defs>
       <use xlink:href="#DejaVuSans-38"/>
      </g>
     </g>
    </g>
    <g id="xtick_10">
     <g id="line2d_19">
      <path d="M 332.28 320.4 
L 332.28 43.2 
" clip-path="url(#p42e4753647)" style="fill: none; stroke-dasharray: 2.96,1.28; stroke-dashoffset: 0; stroke: #b0b0b0; stroke-width: 0.8"/>
     </g>
     <g id="line2d_20">
      <g>
       <use xlink:href="#m754758579e" x="332.28" y="320.4" style="stroke: #000000; stroke-width: 0.8"/>
      </g>
     </g>
     <g id="text_10">
      <!-- 9 -->
      <g transform="translate(329.09875 334.998438) scale(0.1 -0.1)">
       <defs>
        <path id="DejaVuSans-39" d="M 703 97 
L 703 672 
Q 941 559 1184 500 
Q 1428 441 1663 441 
Q 2288 441 2617 861 
Q 2947 1281 2994 2138 
Q 2813 1869 2534 1725 
Q 2256 1581 1919 1581 
Q 1219 1581 811 2004 
Q 403 2428 403 3163 
Q 403 3881 828 4315 
Q 1253 4750 1959 4750 
Q 2769 4750 3195 4129 
Q 3622 3509 3622 2328 
Q 3622 1225 3098 567 
Q 2575 -91 1691 -91 
Q 1453 -91 1209 -44 
Q 966 3 703 97 
z
M 1959 2075 
Q 2384 2075 2632 2365 
Q 2881 2656 2881 3163 
Q 2881 3666 2632 3958 
Q 2384 4250 1959 4250 
Q 1534 4250 1286 3958 
Q 1038 3666 1038 3163 
Q 1038 2656 1286 2365 
Q 1534 2075 1959 2075 
z
" transform="scale(0.015625)"/>
       </defs>
       <use xlink:href="#DejaVuSans-39"/>
      </g>
     </g>
    </g>
    <g id="xtick_11">
     <g id="line2d_21">
      <path d="M 360 320.4 
L 360 43.2 
" clip-path="url(#p42e4753647)" style="fill: none; stroke-dasharray: 2.96,1.28; stroke-dashoffset: 0; stroke: #b0b0b0; stroke-width: 0.8"/>
     </g>
     <g id="line2d_22">
      <g>
       <use xlink:href="#m754758579e" x="360" y="320.4" style="stroke: #000000; stroke-width: 0.8"/>
      </g>
     </g>
     <g id="text_11">
      <!-- 10 -->
      <g transform="translate(353.6375 334.998438) scale(0.1 -0.1)">
       <use xlink:href="#DejaVuSans-31"/>
       <use xlink:href="#DejaVuSans-30" x="63.623047"/>
      </g>
     </g>
    </g>
    <g id="text_12">
     <!-- X (m) -->
     <g transform="translate(207.614062 348.676562) scale(0.1 -0.1)">
      <defs>
       <path id="DejaVuSans-58" d="M 403 4666 
L 1081 4666 
L 2241 2931 
L 3406 4666 
L 4084 4666 
L 2584 2425 
L 4184 0 
L 3506 0 
L 2194 1984 
L 872 0 
L 191 0 
L 1856 2491 
L 403 4666 
z
" transform="scale(0.015625)"/>
       <path id="DejaVuSans-20" transform="scale(0.015625)"/>
       <path id="DejaVuSans-28" d="M 1984 4856 
Q 1566 4138 1362 3434 
Q 1159 2731 1159 2009 
Q 1159 1288 1364 580 
Q 1569 -128 1984 -844 
L 1484 -844 
Q 1016 -109 783 600 
Q 550 1309 550 2009 
Q 550 2706 781 3412 
Q 1013 4119 1484 4856 
L 1984 4856 
z
" transform="scale(0.015625)"/>
       <path id="DejaVuSans-6d" d="M 3328 2828 
Q 3544 3216 3844 3400 
Q 4144 3584 4550 3584 
Q 5097 3584 5394 3201 
Q 5691 2819 5691 2113 
L 5691 0 
L 5113 0 
L 5113 2094 
Q 5113 2597 4934 2840 
Q 4756 3084 4391 3084 
Q 3944 3084 3684 2787 
Q 3425 2491 3425 1978 
L 3425 0 
L 2847 0 
L 2847 2094 
Q 2847 2600 2669 2842 
Q 2491 3084 2119 3084 
Q 1678 3084 1418 2786 
Q 1159 2488 1159 1978 
L 1159 0 
L 581 0 
L 581 3500 
L 1159 3500 
L 1159 2956 
Q 1356 3278 1631 3431 
Q 1906 3584 2284 3584 
Q 2666 3584 2933 3390 
Q 3200 3197 3328 2828 
z
" transform="scale(0.015625)"/>
       <path id="DejaVuSans-29" d="M 513 4856 
L 1013 4856 
Q 1481 4119 1714 3412 
Q 1947 2706 1947 2009 
Q 1947 1309 1714 600 
Q 1481 -109 1013 -844 
L 513 -844 
Q 928 -128 1133 580 
Q 1338 1288 1338 2009 
Q 1338 2731 1133 3434 
Q 928 4138 513 4856 
z
" transform="scale(0.015625)"/>
      </defs>
      <use xlink:href="#DejaVuSans-58"/>
      <use xlink:href="#DejaVuSans-20" x="68.505859"/>
      <use xlink:href="#DejaVuSans-28" x="100.292969"/>
      <use xlink:href="#DejaVuSans-6d" x="139.306641"/>
      <use xlink:href="#DejaVuSans-29" x="236.71875"/>
     </g>
    </g>
   </g>
   <g id="matplotlib.axis_2">
    <g id="ytick_1">
     <g id="line2d_23">
      <path d="M 82.8 320.4 
L 360 320.4 
" clip-path="url(#p42e4753647)" style="fill: none; stroke-dasharray: 2.96,1.28; stroke-dashoffset: 0; stroke: #b0b0b0; stroke-width: 0.8"/>
     </g>
     <g id="line2d_24">
      <defs>
       <path id="m2e2ca77e2e" d="M 0 0 
L -3.5 0 
" style="stroke: #000000; stroke-width: 0.8"/>
      </defs>
      <g>
       <use xlink:href="#m2e2ca77e2e" x="82.8" y="320.4" style="stroke: #000000; stroke-width: 0.8"/>
      </g>
     </g>
     <g id="text_13">
      <!-- 0 -->
      <g transform="translate(69.4375 324.199219) scale(0.1 -0.1)">
       <use xlink:href="#DejaVuSans-30"/>
      </g>
     </g>
    </g>
    <g id="ytick_2">
     <g id="line2d_25">
      <path d="M 82.8 292.68 
L 360 292.68 
" clip-path="url(#p42e4753647)" style="fill: none; stroke-dasharray: 2.96,1.28; stroke-dashoffset: 0; stroke: #b0b0b0; stroke-width: 0.8"/>
     </g>
     <g id="line2d_26">
      <g>
       <use xlink:href="#m2e2ca77e2e" x="82.8" y="292.68" style="stroke: #000000; stroke-width: 0.8"/>
      </g>
     </g>
     <g id="text_14">
      <!-- 1 -->
      <g transform="translate(69.4375 296.479219) scale(0.1 -0.1)">
       <use xlink:href="#DejaVuSans-31"/>
      </g>
     </g>
    </g>
    <g id="ytick_3">
     <g id="line2d_27">
      <path d="M 82.8 264.96 
L 360 264.96 
" clip-path="url(#p42e4753647)" style="fill: none; stroke-dasharray: 2.96,1.28; stroke-dashoffset: 0; stroke: #b0b0b0; stroke-width: 0.8"/>
     </g>
     <g id="line2d_28">
      <g>
       <use xlink:href="#m2e2ca77e2e" x="82.8" y="264.96" style="stroke: #000000; stroke-width: 0.8"/>
      </g>
     </g>
     <g id="text_15">
      <!-- 2 -->
      <g transform="translate(69.4375 268.759219) scale(0.1 -0.1)">
       <use xlink:href="#DejaVuSans-32"/>
      </g>
     </g>
    </g>
    <g id="ytick_4">
     <g id="line2d_29">
      <path d="M 82.8 237.24 
L 360 237.24 
" clip-path="url(#p42e4753647)" style="fill: none; stroke-dasharray: 2.96,1.28; stroke-dashoffset: 0; stroke: #b0b0b0; stroke-width: 0.8"/>
     </g>
     <g id="line2d_30">
      <g>
       <use xlink:href="#m2e2ca77e2e" x="82.8" y="237.24" style="stroke: #000000; stroke-width: 0.8"/>
      </g>
     </g>
     <g id="text_16">
      <!-- 3 -->
      <g transform="translate(69.4375 241.039219) scale(0.1 -0.1)">
       <use xlink:href="#DejaVuSans-33"/>
      </g>
     </g>
    </g>
    <g id="ytick_5">
     <g id="line2d_31">
      <path d="M 82.8 209.52 
L 360 209.52 
" clip-path="url(#p42e4753647)" style="fill: none; stroke-dasharray: 2.96,1.28; stroke-dashoffset: 0; stroke: #b0b0b0; stroke-width: 0.8"/>
     </g>
     <g id="line2d_32">
      <g>
       <use xlink:href="#m2e2ca77e2e" x="82.8" y="209.52" style="stroke: #000000; stroke-width: 0.8"/>
      </g>
     </g>
     <g id="text_17">
      <!-- 4 -->
      <g transform="translate(69.4375 213.319219) scale(0.1 -0.1)">
       <use xlink:href="#DejaVuSans-34"/>
      </g>
     </g>
    </g>
    <g id="ytick_6">
     <g id="line2d_33">
      <path d="M 82.8 181.8 
L 360 181.8 
" clip-path="url(#p42e4753647)" style="fill: none; stroke-dasharray: 2.96,1.28; stroke-dashoffset: 0; stroke: #b0b0b0; stroke-width: 0.8"/>
     </g>
     <g id="line2d_34">
      <g>
       <use xlink:href="#m2e2ca77e2e" x="82.8" y="181.8" style="stroke: #000000; stroke-width: 0.8"/>
      </g>
     </g>
     <g id="text_18">
      <!-- 5 -->
      <g transform="translate(69.4375 185.599219) scale(0.1 -0.1)">
       <use xlink:href="#DejaVuSans-35"/>
      </g>
     </g>
    </g>
    <g id="ytick_7">
     <g id="line2d_35">
      <path d="M 82.8 154.08 
L 360 154.08 
" clip-path="url(#p42e4753647)" style="fill: none; stroke-dasharray: 2.96,1.28; stroke-dashoffset: 0; stroke: #b0b0b0; stroke-width: 0.8"/>
     </g>
     <g id="line2d_36">
      <g>
       <use xlink:href="#m2e2ca77e2e" x="82.8" y="154.08" style="stroke: #000000; stroke-width: 0.8"/>
      </g>
     </g>
     <g id="text_19">
      <!-- 6 -->
      <g transform="translate(69.4375 157.879219) scale(0.1 -0.1)">
       <use xlink:href="#DejaVuSans-36"/>
      </g>
     </g>
    </g>
    <g id="ytick_8">
     <g id="line2d_37">
      <path d="M 82.8 126.36 
L 360 126.36 
" clip-path="url(#p42e4753647)" style="fill: none; stroke-dasharray: 2.96,1.28; stroke-dashoffset: 0; stroke: #b0b0b0; stroke-width: 0.8"/>
     </g>
     <g id="line2d_38">
      <g>
       <use xlink:href="#m2e2ca77e2e" x="82.8" y="126.36" style="stroke: #000000; stroke-width: 0.8"/>
      </g>
     </g>
     <g id="text_20">
      <!-- 7 -->
      <g transform="translate(69.4375 130.159219) scale(0.1 -0.1)">
       <use xlink:href="#DejaVuSans-37"/>
      </g>
     </g>
    </g>
    <g id="ytick_9">
     <g id="line2d_39">
      <path d="M 82.8 98.64 
L 360 98.64 
" clip-path="url(#p42e4753647)" style="fill: none; stroke-dasharray: 2.96,1.28; stroke-dashoffset: 0; stroke: #b0b0b0; stroke-width: 0.8"/>
     </g>
     <g id="line2d_40">
      <g>
       <use xlink:href="#m2e2ca77e2e" x="82.8" y="98.64" style="stroke: #000000; stroke-width: 0.8"/>
      </g>
     </g>
     <g id="text_21">
      <!-- 8 -->
      <g transform="translate(69.4375 102.439219) scale(0.1 -0.1)">
       <use xlink:href="#DejaVuSans-38"/>
      </g>
     </g>
    </g>
    <g id="ytick_10">
     <g id="line2d_41">
      <path d="M 82.8 70.92 
L 360 70.92 
" clip-path="url(#p42e4753647)" style="fill: none; stroke-dasharray: 2.96,1.28; stroke-dashoffset: 0; stroke: #b0b0b0; stroke-width: 0.8"/>
     </g>
     <g id="line2d_42">
      <g>
       <use xlink:href="#m2e2ca77e2e" x="82.8" y="70.92" style="stroke: #000000; stroke-width: 0.8"/>
      </g>
     </g>
     <g id="text_22">
      <!-- 9 -->
      <g transform="translate(69.4375 74.719219) scale(0.1 -0.1)">
       <use xlink:href="#DejaVuSans-39"/>
      </g>
     </g>
    </g>
    <g id="ytick_11">
     <g id="line2d_43">
      <path d="M 82.8 43.2 
L 360 43.2 
" clip-path="url(#p42e4753647)" style="fill: none; stroke-dasharray: 2.96,1.28; stroke-dashoffset: 0; stroke: #b0b0b0; stroke-width: 0.8"/>
     </g>
     <g id="line2d_44">
      <g>
       <use xlink:href="#m2e2ca77e2e" x="82.8" y="43.2" style="stroke: #000000; stroke-width: 0.8"/>
      </g>
     </g>
     <g id="text_23">
      <!-- 10 -->
      <g transform="translate(63.075 46.999219) scale(0.1 -0.1)">
       <use xlink:href="#DejaVuSans-31"/>
       <use xlink:href="#DejaVuSans-30" x="63.623047"/>
      </g>
     </g>
    </g>
    <g id="text_24">
     <!-- Y (m) -->
     <g transform="translate(56.995312 195.214844) rotate(-90) scale(0.1 -0.1)">
      <defs>
       <path id="DejaVuSans-59" d="M -13 4666 
L 666 4666 
L 1959 2747 
L 3244 4666 
L 3922 4666 
L 2272 2222 
L 2272 0 
L 1638 0 
L 1638 2222 
L -13 4666 
z
" transform="scale(0.015625)"/>
      </defs>
      <use xlink:href="#DejaVuSans-59"/>
      <use xlink:href="#DejaVuSans-20" x="61.083984"/>
      <use xlink:href="#DejaVuSans-28" x="92.871094"/>
      <use xlink:href="#DejaVuSans-6d" x="131.884766"/>
      <use xlink:href="#DejaVuSans-29" x="229.296875"/>
     </g>
    </g>
   </g>
   <g id="patch_9">
    <path d="M 82.8 320.4 
L 82.8 43.2 
" style="fill: none; stroke: #000000; stroke-width: 0.8; stroke-linejoin: miter; stroke-linecap: square"/>
   </g>
   <g id="patch_10">
    <path d="M 360 320.4 
L 360 43.2 
" style="fill: none; stroke: #000000; stroke-width: 0.8; stroke-linejoin: miter; stroke-linecap: square"/>
   </g>
   <g id="patch_11">
    <path d="M 82.8 320.4 
L 360 320.4 
" style="fill: none; stroke: #000000; stroke-width: 0.8; stroke-linejoin: miter; stroke-linecap: square"/>
   </g>
   <g id="patch_12">
    <path d="M 82.8 43.2 
L 360 43.2 
" style="fill: none; stroke: #000000; stroke-width: 0.8; stroke-linejoin: miter; stroke-linecap: square"/>
   </g>
  </g>
 </g>
 <defs>
  <clipPath id="p42e4753647">
   <rect x="82.8" y="43.2" width="277.2" height="277.2"/>
  </clipPath>
 </defs>
</svg>
