<?xml version="1.0" encoding="utf-8" standalone="no"?>
<!DOCTYPE svg PUBLIC "-//W3C//DTD SVG 1.1//EN"
  "http://www.w3.org/Graphics/SVG/1.1/DTD/svg11.dtd">
<svg xmlns:xlink="http://www.w3.org/1999/xlink" width="432pt" height="360pt" viewBox="0 0 432 360" xmlns="http://www.w3.org/2000/svg" version="1.1">
 <metadata>
  <rdf:RDF xmlns:dc="http://purl.org/dc/elements/1.1/" xmlns:cc="http://creativecommons.org/ns#" xmlns:rdf="http://www.w3.org/1999/02/22-rdf-syntax-ns#">
   <cc:Work>
    <dc:type rdf:resource="http://purl.org/dc/dcmitype/StillImage"/>
    <dc:date>2024-08-12T10:16:21.557642</dc:date>
    <dc:format>image/svg+xml</dc:format>
    <dc:creator>
     <cc:Agent>
      <dc:title>Matplotlib v3.9.1, https://matplotlib.org/</dc:title>
     </cc:Agent>
    </dc:creator>
   </cc:Work>
  </rdf:RDF>
 </metadata>
 <defs>
  <style type="text/css">*{stroke-linejoin: round; stroke-linecap: butt}</style>
 </defs>
 <g id="figure_1">
  <g id="patch_1">
   <path d="M 0 360 
L 432 360 
L 432 0 
L 0 0 
L 0 360 
z
" style="fill: none"/>
  </g>
  <g id="axes_1">
   <g id="patch_2">
    <path d="M 82.8 320.4 
L 360 320.4 
L 360 43.2 
L 82.8 43.2 
L 82.8 320.4 
z
" style="fill: none"/>
   </g>
   <g id="patch_3">
    <path d="M 104.712895 302.821729 
L 104.91533 302.10546 
L 105.053538 300.832928 
L 104.727305 299.528556 
L 104.469832 298.304462 
L 104.038677 297.150957 
L 103.834179 296.027194 
L 103.671739 294.646457 
L 103.364786 293.488591 
L 102.915615 292.43088 
L 102.342037 291.425634 
L 101.761624 290.374575 
L 100.810136 289.105356 
L 99.244781 287.954006 
L 97.754392 287.099748 
L 96.032325 286.387101 
L 94.191767 286.505521 
L 92.833437 286.812328 
L 91.447352 287.289455 
L 90.285183 288.191543 
L 89.463651 288.767346 
L 88.451621 288.711765 
L 86.988329 288.71987 
L 85.294424 288.982003 
L 83.515767 289.6856 
L 82.332777 290.735574 
L 81.175308 291.555844 
L 79.5999 292.623312 
L 78.187381 293.883719 
L 76.953644 295.140103 
L 75.753052 296.142236 
L 74.189368 296.949718 
L 72.596675 298.21468 
L 71.507538 299.978188 
L 70.88249 301.433525 
L 69.965824 302.603697 
L 69.144527 303.879849 
L 67.853399 304.93162 
L 66.473295 306.498411 
L 65.733485 307.795105 
L 65.094483 308.812461 
L 64.285434 309.408172 
L 62.912808 310.139186 
L 61.578487 311.433947 
L 60.363824 313.064798 
L 59.168291 314.635223 
L 58.063996 316.360815 
L 57.363356 317.926245 
L 56.394626 319.363242 
L 55.639428 321.179658 
L 55.690011 323.182372 
L 56.282152 324.692472 
L 56.539746 325.76322 
L 56.728116 326.679672 
L 56.639532 327.444991 
L 56.259037 328.282902 
L 55.774808 329.309853 
L 55.941306 330.593468 
L 56.605478 331.436246 
L 56.868898 331.81873 
L 56.717683 332.639185 
L 57.064715 333.883662 
L 57.445432 334.844381 
L 57.683131 335.66139 
L 57.922823 336.451308 
L 58.399279 337.392925 
L 59.070146 338.234689 
L 60.135064 338.877534 
L 61.107804 339.072883 
L 61.457561 339.585026 
L 61.900804 340.557816 
L 62.684504 341.290168 
L 63.198532 342.003467 
L 63.994839 342.899168 
L 65.028971 343.269043 
L 65.936559 343.466539 
L 66.391139 343.957588 
L 67.048248 345.120903 
L 68.107695 346.095904 
L 69.103323 347.202314 
L 70.182504 348.232937 
L 71.281814 349.101258 
L 72.479253 349.950564 
L 74.022051 351.099028 
L 75.84592 351.900857 
L 77.779005 353.029512 
L 80.712193 353.993601 
L 83.581758 354.003282 
L 85.932098 353.366662 
L 87.840021 352.638044 
L 89.729923 351.766014 
L 91.131246 350.74568 
L 92.788154 350.022285 
L 94.805788 348.973845 
L 96.461207 347.634003 
L 97.744302 346.256149 
L 98.815042 344.661212 
L 99.243414 343.323121 
L 99.981018 342.267045 
L 100.67626 340.503087 
L 101.109839 339.012126 
L 101.704347 337.399793 
L 101.608703 335.728494 
L 101.418369 334.887313 
L 101.817092 334.327907 
L 102.208539 333.335288 
L 102.337699 332.136014 
L 102.392927 331.090975 
L 102.914532 330.332909 
L 103.822077 328.763307 
L 104.088344 326.930879 
L 104.252986 325.574142 
L 104.262229 324.514787 
L 104.714184 323.430683 
L 104.826702 321.74542 
L 104.757669 320.654457 
L 105.094838 319.009511 
L 104.982805 317.269699 
L 105.187155 315.690379 
L 104.929553 314.057902 
L 104.531195 312.914595 
L 104.276822 312.18395 
L 104.642513 311.67806 
L 105.129153 310.410965 
L 105.407586 308.815062 
L 105.572856 306.958826 
L 105.312532 305.283531 
L 105.002333 303.846623 
L 104.712895 302.821729 
" style="fill: #ff0000; stroke: #000000; stroke-linejoin: miter"/>
   </g>
   <g id="patch_4">
    <path d="M -172.487105 302.821729 
L -172.28467 302.10546 
L -172.146462 300.832928 
L -172.472695 299.528556 
L -172.730168 298.304462 
L -173.161323 297.150957 
L -173.365821 296.027194 
L -173.528261 294.646457 
L -173.835214 293.488591 
L -174.284385 292.43088 
L -174.857963 291.425634 
L -175.438376 290.374575 
L -176.389864 289.105356 
L -177.955219 287.954006 
L -179.445608 287.099748 
L -181.167675 286.387101 
L -183.008233 286.505521 
L -184.366563 286.812328 
L -185.752648 287.289455 
L -186.914817 288.191543 
L -187.736349 288.767346 
L -188.748379 288.711765 
L -190.211671 288.71987 
L -191.905576 288.982003 
L -193.684233 289.6856 
L -194.867223 290.735574 
L -196.024692 291.555844 
L -197.6001 292.623312 
L -199.012619 293.883719 
L -200.246356 295.140103 
L -201.446948 296.142236 
L -203.010632 296.949718 
L -204.603325 298.21468 
L -205.692462 299.978188 
L -206.31751 301.433525 
L -207.234176 302.603697 
L -208.055473 303.879849 
L -209.346601 304.93162 
L -210.726705 306.498411 
L -211.466515 307.795105 
L -212.105517 308.812461 
L -212.914566 309.408172 
L -214.287192 310.139186 
L -215.621513 311.433947 
L -216.836176 313.064798 
L -218.031709 314.635223 
L -219.136004 316.360815 
L -219.836644 317.926245 
L -220.805374 319.363242 
L -221.560572 321.179658 
L -221.509989 323.182372 
L -220.917848 324.692472 
L -220.660254 325.76322 
L -220.471884 326.679672 
L -220.560468 327.444991 
L -220.940963 328.282902 
L -221.425192 329.309853 
L -221.258694 330.593468 
L -220.594522 331.436246 
L -220.331102 331.81873 
L -220.482317 332.639185 
L -220.135285 333.883662 
L -219.754568 334.844381 
L -219.516869 335.66139 
L -219.277177 336.451308 
L -218.800721 337.392925 
L -218.129854 338.234689 
L -217.064936 338.877534 
L -216.092196 339.072883 
L -215.742439 339.585026 
L -215.299196 340.557816 
L -214.515496 341.290168 
L -214.001468 342.003467 
L -213.205161 342.899168 
L -212.171029 343.269043 
L -211.263441 343.466539 
L -210.808861 343.957588 
L -210.151752 345.120903 
L -209.092305 346.095904 
L -208.096677 347.202314 
L -207.017496 348.232937 
L -205.918186 349.101258 
L -204.720747 349.950564 
L -203.177949 351.099028 
L -201.35408 351.900857 
L -199.420995 353.029512 
L -196.487807 353.993601 
L -193.618242 354.003282 
L -191.267902 353.366662 
L -189.359979 352.638044 
L -187.470077 351.766014 
L -186.068754 350.74568 
L -184.411846 350.022285 
L -182.394212 348.973845 
L -180.738793 347.634003 
L -179.455698 346.256149 
L -178.384958 344.661212 
L -177.956586 343.323121 
L -177.218982 342.267045 
L -176.52374 340.503087 
L -176.090161 339.012126 
L -175.495653 337.399793 
L -175.591297 335.728494 
L -175.781631 334.887313 
L -175.382908 334.327907 
L -174.991461 333.335288 
L -174.862301 332.136014 
L -174.807073 331.090975 
L -174.285468 330.332909 
L -173.377923 328.763307 
L -173.111656 326.930879 
L -172.947014 325.574142 
L -172.937771 324.514787 
L -172.485816 323.430683 
L -172.373298 321.74542 
L -172.442331 320.654457 
L -172.105162 319.009511 
L -172.217195 317.269699 
L -172.012845 315.690379 
L -172.270447 314.057902 
L -172.668805 312.914595 
L -172.923178 312.18395 
L -172.557487 311.67806 
L -172.070847 310.410965 
L -171.792414 308.815062 
L -171.627144 306.958826 
L -171.887468 305.283531 
L -172.197667 303.846623 
L -172.487105 302.821729 
" style="fill: #ff0000; stroke: #000000; stroke-linejoin: miter"/>
   </g>
   <g id="patch_5">
    <path d="M 381.661443 302.084816 
L 381.863878 301.368548 
L 382.002086 300.096016 
L 381.675852 298.791644 
L 381.41838 297.567549 
L 380.987225 296.414044 
L 380.782727 295.290281 
L 380.620286 293.909545 
L 380.313333 292.751678 
L 379.864163 291.693967 
L 379.290585 290.688721 
L 378.710172 289.637662 
L 377.758683 288.368443 
L 376.193328 287.217094 
L 374.70294 286.362835 
L 372.980872 285.650188 
L 371.140315 285.768608 
L 369.781984 286.075415 
L 368.395899 286.552542 
L 367.23373 287.454631 
L 366.412199 288.030433 
L 365.400169 287.974852 
L 363.936877 287.982957 
L 362.242972 288.245091 
L 360.464315 288.948687 
L 359.281325 289.998661 
L 358.123856 290.818931 
L 356.548447 291.8864 
L 355.135929 293.146806 
L 353.902191 294.403191 
L 352.701599 295.405323 
L 351.137916 296.212806 
L 349.545222 297.477767 
L 348.456086 299.241275 
L 347.831038 300.696612 
L 346.914371 301.866785 
L 346.093074 303.142936 
L 344.801947 304.194708 
L 343.421842 305.761498 
L 342.682033 307.058192 
L 342.043031 308.075548 
L 341.233982 308.67126 
L 339.861356 309.402274 
L 338.527035 310.697035 
L 337.312372 312.327885 
L 336.116838 313.898311 
L 335.012544 315.623902 
L 334.311903 317.189332 
L 333.343174 318.62633 
L 332.587975 320.442745 
L 332.638558 322.445459 
L 333.2307 323.95556 
L 333.488294 325.026307 
L 333.676663 325.942759 
L 333.588079 326.708078 
L 333.207585 327.545989 
L 332.723356 328.57294 
L 332.889853 329.856555 
L 333.554026 330.699334 
L 333.817445 331.081817 
L 333.66623 331.902273 
L 334.013263 333.14675 
L 334.39398 334.107468 
L 334.631678 334.924478 
L 334.87137 335.714395 
L 335.347827 336.656012 
L 336.018693 337.497776 
L 337.083611 338.140621 
L 338.056352 338.33597 
L 338.406108 338.848113 
L 338.849351 339.820903 
L 339.633052 340.553255 
L 340.14708 341.266554 
L 340.943387 342.162256 
L 341.977519 342.53213 
L 342.885107 342.729627 
L 343.339687 343.220675 
L 343.996796 344.38399 
L 345.056243 345.358991 
L 346.051871 346.465402 
L 347.131052 347.496024 
L 348.230362 348.364346 
L 349.4278 349.213652 
L 350.970598 350.362115 
L 352.794468 351.163945 
L 354.727552 352.292599 
L 357.66074 353.256688 
L 360.530305 353.266369 
L 362.880646 352.629749 
L 364.788569 351.901132 
L 366.678471 351.029102 
L 368.079793 350.008767 
L 369.736701 349.285373 
L 371.754336 348.236932 
L 373.409755 346.89709 
L 374.692849 345.519236 
L 375.76359 343.924299 
L 376.191962 342.586208 
L 376.929566 341.530132 
L 377.624807 339.766174 
L 378.058386 338.275213 
L 378.652895 336.66288 
L 378.55725 334.991581 
L 378.366916 334.1504 
L 378.76564 333.590995 
L 379.157087 332.598375 
L 379.286246 331.399101 
L 379.341475 330.354063 
L 379.86308 329.595997 
L 380.770624 328.026395 
L 381.036891 326.193967 
L 381.201534 324.837229 
L 381.210777 323.777875 
L 381.662731 322.69377 
L 381.775249 321.008507 
L 381.706216 319.917545 
L 382.043385 318.272598 
L 381.931353 316.532786 
L 382.135702 314.953466 
L 381.878101 313.320989 
L 381.479743 312.177682 
L 381.22537 311.447037 
L 381.59106 310.941148 
L 382.0777 309.674052 
L 382.356134 308.078149 
L 382.521404 306.221913 
L 382.261079 304.546618 
L 381.95088 303.10971 
L 381.661443 302.084816 
" style="fill: #00bfbf; stroke: #000000; stroke-linejoin: miter"/>
   </g>
   <g id="patch_6">
    <path d="M 104.461443 24.884816 
L 104.663878 24.168548 
L 104.802086 22.896016 
L 104.475852 21.591644 
L 104.21838 20.367549 
L 103.787225 19.214044 
L 103.582727 18.090281 
L 103.420286 16.709545 
L 103.113333 15.551678 
L 102.664163 14.493967 
L 102.090585 13.488721 
L 101.510172 12.437662 
L 100.558683 11.168443 
L 98.993328 10.017094 
L 97.50294 9.162835 
L 95.780872 8.450188 
L 93.940315 8.568608 
L 92.581984 8.875415 
L 91.195899 9.352542 
L 90.03373 10.254631 
L 89.212199 10.830433 
L 88.200169 10.774852 
L 86.736877 10.782957 
L 85.042972 11.045091 
L 83.264315 11.748687 
L 82.081325 12.798661 
L 80.923856 13.618931 
L 79.348447 14.6864 
L 77.935929 15.946806 
L 76.702191 17.203191 
L 75.501599 18.205323 
L 73.937916 19.012806 
L 72.345222 20.277767 
L 71.256086 22.041275 
L 70.631038 23.496612 
L 69.714371 24.666785 
L 68.893074 25.942936 
L 67.601947 26.994708 
L 66.221842 28.561498 
L 65.482033 29.858192 
L 64.843031 30.875548 
L 64.033982 31.47126 
L 62.661356 32.202274 
L 61.327035 33.497035 
L 60.112372 35.127885 
L 58.916838 36.698311 
L 57.812544 38.423902 
L 57.111903 39.989332 
L 56.143174 41.42633 
L 55.387975 43.242745 
L 55.438558 45.245459 
L 56.0307 46.75556 
L 56.288294 47.826307 
L 56.476663 48.742759 
L 56.388079 49.508078 
L 56.007585 50.345989 
L 55.523356 51.37294 
L 55.689853 52.656555 
L 56.354026 53.499334 
L 56.617445 53.881817 
L 56.46623 54.702273 
L 56.813263 55.94675 
L 57.19398 56.907468 
L 57.431678 57.724478 
L 57.67137 58.514395 
L 58.147827 59.456012 
L 58.818693 60.297776 
L 59.883611 60.940621 
L 60.856352 61.13597 
L 61.206108 61.648113 
L 61.649351 62.620903 
L 62.433052 63.353255 
L 62.94708 64.066554 
L 63.743387 64.962256 
L 64.777519 65.33213 
L 65.685107 65.529627 
L 66.139687 66.020675 
L 66.796796 67.18399 
L 67.856243 68.158991 
L 68.851871 69.265402 
L 69.931052 70.296024 
L 71.030362 71.164346 
L 72.2278 72.013652 
L 73.770598 73.162115 
L 75.594468 73.963945 
L 77.527552 75.092599 
L 80.46074 76.056688 
L 83.330305 76.066369 
L 85.680646 75.429749 
L 87.588569 74.701132 
L 89.478471 73.829102 
L 90.879793 72.808767 
L 92.536701 72.085373 
L 94.554336 71.036932 
L 96.209755 69.69709 
L 97.492849 68.319236 
L 98.56359 66.724299 
L 98.991962 65.386208 
L 99.729566 64.330132 
L 100.424807 62.566174 
L 100.858386 61.075213 
L 101.452895 59.46288 
L 101.35725 57.791581 
L 101.166916 56.9504 
L 101.56564 56.390995 
L 101.957087 55.398375 
L 102.086246 54.199101 
L 102.141475 53.154063 
L 102.66308 52.395997 
L 103.570624 50.826395 
L 103.836891 48.993967 
L 104.001534 47.637229 
L 104.010777 46.577875 
L 104.462731 45.49377 
L 104.575249 43.808507 
L 104.506216 42.717545 
L 104.843385 41.072598 
L 104.731353 39.332786 
L 104.935702 37.753466 
L 104.678101 36.120989 
L 104.279743 34.977682 
L 104.02537 34.247037 
L 104.39106 33.741148 
L 104.8777 32.474052 
L 105.156134 30.878149 
L 105.321404 29.021913 
L 105.061079 27.346618 
L 104.75088 25.90971 
L 104.461443 24.884816 
" style="fill: #00bfbf; stroke: #000000; stroke-linejoin: miter"/>
   </g>
   <g id="patch_7">
    <path d="M 104.461443 579.284816 
L 104.663878 578.568548 
L 104.802086 577.296016 
L 104.475852 575.991644 
L 104.21838 574.767549 
L 103.787225 573.614044 
L 103.582727 572.490281 
L 103.420286 571.109545 
L 103.113333 569.951678 
L 102.664163 568.893967 
L 102.090585 567.888721 
L 101.510172 566.837662 
L 100.558683 565.568443 
L 98.993328 564.417094 
L 97.50294 563.562835 
L 95.780872 562.850188 
L 93.940315 562.968608 
L 92.581984 563.275415 
L 91.195899 563.752542 
L 90.03373 564.654631 
L 89.212199 565.230433 
L 88.200169 565.174852 
L 86.736877 565.182957 
L 85.042972 565.445091 
L 83.264315 566.148687 
L 82.081325 567.198661 
L 80.923856 568.018931 
L 79.348447 569.0864 
L 77.935929 570.346806 
L 76.702191 571.603191 
L 75.501599 572.605323 
L 73.937916 573.412806 
L 72.345222 574.677767 
L 71.256086 576.441275 
L 70.631038 577.896612 
L 69.714371 579.066785 
L 68.893074 580.342936 
L 67.601947 581.394708 
L 66.221842 582.961498 
L 65.482033 584.258192 
L 64.843031 585.275548 
L 64.033982 585.87126 
L 62.661356 586.602274 
L 61.327035 587.897035 
L 60.112372 589.527885 
L 58.916838 591.098311 
L 57.812544 592.823902 
L 57.111903 594.389332 
L 56.143174 595.82633 
L 55.387975 597.642745 
L 55.438558 599.645459 
L 56.0307 601.15556 
L 56.288294 602.226307 
L 56.476663 603.142759 
L 56.388079 603.908078 
L 56.007585 604.745989 
L 55.523356 605.77294 
L 55.689853 607.056555 
L 56.354026 607.899334 
L 56.617445 608.281817 
L 56.46623 609.102273 
L 56.813263 610.34675 
L 57.19398 611.307468 
L 57.431678 612.124478 
L 57.67137 612.914395 
L 58.147827 613.856012 
L 58.818693 614.697776 
L 59.883611 615.340621 
L 60.856352 615.53597 
L 61.206108 616.048113 
L 61.649351 617.020903 
L 62.433052 617.753255 
L 62.94708 618.466554 
L 63.743387 619.362256 
L 64.777519 619.73213 
L 65.685107 619.929627 
L 66.139687 620.420675 
L 66.796796 621.58399 
L 67.856243 622.558991 
L 68.851871 623.665402 
L 69.931052 624.696024 
L 71.030362 625.564346 
L 72.2278 626.413652 
L 73.770598 627.562115 
L 75.594468 628.363945 
L 77.527552 629.492599 
L 80.46074 630.456688 
L 83.330305 630.466369 
L 85.680646 629.829749 
L 87.588569 629.101132 
L 89.478471 628.229102 
L 90.879793 627.208767 
L 92.536701 626.485373 
L 94.554336 625.436932 
L 96.209755 624.09709 
L 97.492849 622.719236 
L 98.56359 621.124299 
L 98.991962 619.786208 
L 99.729566 618.730132 
L 100.424807 616.966174 
L 100.858386 615.475213 
L 101.452895 613.86288 
L 101.35725 612.191581 
L 101.166916 611.3504 
L 101.56564 610.790995 
L 101.957087 609.798375 
L 102.086246 608.599101 
L 102.141475 607.554063 
L 102.66308 606.795997 
L 103.570624 605.226395 
L 103.836891 603.393967 
L 104.001534 602.037229 
L 104.010777 600.977875 
L 104.462731 599.89377 
L 104.575249 598.208507 
L 104.506216 597.117545 
L 104.843385 595.472598 
L 104.731353 593.732786 
L 104.935702 592.153466 
L 104.678101 590.520989 
L 104.279743 589.377682 
L 104.02537 588.647037 
L 104.39106 588.141148 
L 104.8777 586.874052 
L 105.156134 585.278149 
L 105.321404 583.421913 
L 105.061079 581.746618 
L 104.75088 580.30971 
L 104.461443 579.284816 
" style="fill: #00bfbf; stroke: #000000; stroke-linejoin: miter"/>
   </g>
   <g id="patch_8">
    <path d="M 381.661443 24.884816 
L 381.863878 24.168548 
L 382.002086 22.896016 
L 381.675852 21.591644 
L 381.41838 20.367549 
L 380.987225 19.214044 
L 380.782727 18.090281 
L 380.620286 16.709545 
L 380.313333 15.551678 
L 379.864163 14.493967 
L 379.290585 13.488721 
L 378.710172 12.437662 
L 377.758683 11.168443 
L 376.193328 10.017094 
L 374.70294 9.162835 
L 372.980872 8.450188 
L 371.140315 8.568608 
L 369.781984 8.875415 
L 368.395899 9.352542 
L 367.23373 10.254631 
L 366.412199 10.830433 
L 365.400169 10.774852 
L 363.936877 10.782957 
L 362.242972 11.045091 
L 360.464315 11.748687 
L 359.281325 12.798661 
L 358.123856 13.618931 
L 356.548447 14.6864 
L 355.135929 15.946806 
L 353.902191 17.203191 
L 352.701599 18.205323 
L 351.137916 19.012806 
L 349.545222 20.277767 
L 348.456086 22.041275 
L 347.831038 23.496612 
L 346.914371 24.666785 
L 346.093074 25.942936 
L 344.801947 26.994708 
L 343.421842 28.561498 
L 342.682033 29.858192 
L 342.043031 30.875548 
L 341.233982 31.47126 
L 339.861356 32.202274 
L 338.527035 33.497035 
L 337.312372 35.127885 
L 336.116838 36.698311 
L 335.012544 38.423902 
L 334.311903 39.989332 
L 333.343174 41.42633 
L 332.587975 43.242745 
L 332.638558 45.245459 
L 333.2307 46.75556 
L 333.488294 47.826307 
L 333.676663 48.742759 
L 333.588079 49.508078 
L 333.207585 50.345989 
L 332.723356 51.37294 
L 332.889853 52.656555 
L 333.554026 53.499334 
L 333.817445 53.881817 
L 333.66623 54.702273 
L 334.013263 55.94675 
L 334.39398 56.907468 
L 334.631678 57.724478 
L 334.87137 58.514395 
L 335.347827 59.456012 
L 336.018693 60.297776 
L 337.083611 60.940621 
L 338.056352 61.13597 
L 338.406108 61.648113 
L 338.849351 62.620903 
L 339.633052 63.353255 
L 340.14708 64.066554 
L 340.943387 64.962256 
L 341.977519 65.33213 
L 342.885107 65.529627 
L 343.339687 66.020675 
L 343.996796 67.18399 
L 345.056243 68.158991 
L 346.051871 69.265402 
L 347.131052 70.296024 
L 348.230362 71.164346 
L 349.4278 72.013652 
L 350.970598 73.162115 
L 352.794468 73.963945 
L 354.727552 75.092599 
L 357.66074 76.056688 
L 360.530305 76.066369 
L 362.880646 75.429749 
L 364.788569 74.701132 
L 366.678471 73.829102 
L 368.079793 72.808767 
L 369.736701 72.085373 
L 371.754336 71.036932 
L 373.409755 69.69709 
L 374.692849 68.319236 
L 375.76359 66.724299 
L 376.191962 65.386208 
L 376.929566 64.330132 
L 377.624807 62.566174 
L 378.058386 61.075213 
L 378.652895 59.46288 
L 378.55725 57.791581 
L 378.366916 56.9504 
L 378.76564 56.390995 
L 379.157087 55.398375 
L 379.286246 54.199101 
L 379.341475 53.154063 
L 379.86308 52.395997 
L 380.770624 50.826395 
L 381.036891 48.993967 
L 381.201534 47.637229 
L 381.210777 46.577875 
L 381.662731 45.49377 
L 381.775249 43.808507 
L 381.706216 42.717545 
L 382.043385 41.072598 
L 381.931353 39.332786 
L 382.135702 37.753466 
L 381.878101 36.120989 
L 381.479743 34.977682 
L 381.22537 34.247037 
L 381.59106 33.741148 
L 382.0777 32.474052 
L 382.356134 30.878149 
L 382.521404 29.021913 
L 382.261079 27.346618 
L 381.95088 25.90971 
L 381.661443 24.884816 
" style="fill: #00bfbf; stroke: #000000; stroke-linejoin: miter"/>
   </g>
   <g id="matplotlib.axis_1">
    <g id="xtick_1">
     <g id="line2d_1">
      <path d="M 82.8 320.4 
L 82.8 43.2 
" clip-path="url(#ped6c24fb56)" style="fill: none; stroke-dasharray: 2.96,1.28; stroke-dashoffset: 0; stroke: #b0b0b0; stroke-width: 0.8"/>
     </g>
     <g id="line2d_2">
      <defs>
       <path id="m9a34afc7ab" d="M 0 0 
L 0 3.5 
" style="stroke: #000000; stroke-width: 0.8"/>
      </defs>
      <g>
       <use xlink:href="#m9a34afc7ab" x="82.8" y="320.4" style="stroke: #000000; stroke-width: 0.8"/>
      </g>
     </g>
     <g id="text_1">
      <!-- 0 -->
      <g transform="translate(79.61875 334.998438) scale(0.1 -0.1)">
       <defs>
        <path id="DejaVuSans-30" d="M 2034 4250 
Q 1547 4250 1301 3770 
Q 1056 3291 1056 2328 
Q 1056 1369 1301 889 
Q 1547 409 2034 409 
Q 2525 409 2770 889 
Q 3016 1369 3016 2328 
Q 3016 3291 2770 3770 
Q 2525 4250 2034 4250 
z
M 2034 4750 
Q 2819 4750 3233 4129 
Q 3647 3509 3647 2328 
Q 3647 1150 3233 529 
Q 2819 -91 2034 -91 
Q 1250 -91 836 529 
Q 422 1150 422 2328 
Q 422 3509 836 4129 
Q 1250 4750 2034 4750 
z
" transform="scale(0.015625)"/>
       </defs>
       <use xlink:href="#DejaVuSans-30"/>
      </g>
     </g>
    </g>
    <g id="xtick_2">
     <g id="line2d_3">
      <path d="M 110.52 320.4 
L 110.52 43.2 
" clip-path="url(#ped6c24fb56)" style="fill: none; stroke-dasharray: 2.96,1.28; stroke-dashoffset: 0; stroke: #b0b0b0; stroke-width: 0.8"/>
     </g>
     <g id="line2d_4">
      <g>
       <use xlink:href="#m9a34afc7ab" x="110.52" y="320.4" style="stroke: #000000; stroke-width: 0.8"/>
      </g>
     </g>
     <g id="text_2">
      <!-- 1 -->
      <g transform="translate(107.33875 334.998438) scale(0.1 -0.1)">
       <defs>
        <path id="DejaVuSans-31" d="M 794 531 
L 1825 531 
L 1825 4091 
L 703 3866 
L 703 4441 
L 1819 4666 
L 2450 4666 
L 2450 531 
L 3481 531 
L 3481 0 
L 794 0 
L 794 531 
z
" transform="scale(0.015625)"/>
       </defs>
       <use xlink:href="#DejaVuSans-31"/>
      </g>
     </g>
    </g>
    <g id="xtick_3">
     <g id="line2d_5">
      <path d="M 138.24 320.4 
L 138.24 43.2 
" clip-path="url(#ped6c24fb56)" style="fill: none; stroke-dasharray: 2.96,1.28; stroke-dashoffset: 0; stroke: #b0b0b0; stroke-width: 0.8"/>
     </g>
     <g id="line2d_6">
      <g>
       <use xlink:href="#m9a34afc7ab" x="138.24" y="320.4" style="stroke: #000000; stroke-width: 0.8"/>
      </g>
     </g>
     <g id="text_3">
      <!-- 2 -->
      <g transform="translate(135.05875 334.998438) scale(0.1 -0.1)">
       <defs>
        <path id="DejaVuSans-32" d="M 1228 531 
L 3431 531 
L 3431 0 
L 469 0 
L 469 531 
Q 828 903 1448 1529 
Q 2069 2156 2228 2338 
Q 2531 2678 2651 2914 
Q 2772 3150 2772 3378 
Q 2772 3750 2511 3984 
Q 2250 4219 1831 4219 
Q 1534 4219 1204 4116 
Q 875 4013 500 3803 
L 500 4441 
Q 881 4594 1212 4672 
Q 1544 4750 1819 4750 
Q 2544 4750 2975 4387 
Q 3406 4025 3406 3419 
Q 3406 3131 3298 2873 
Q 3191 2616 2906 2266 
Q 2828 2175 2409 1742 
Q 1991 1309 1228 531 
z
" transform="scale(0.015625)"/>
       </defs>
       <use xlink:href="#DejaVuSans-32"/>
      </g>
     </g>
    </g>
    <g id="xtick_4">
     <g id="line2d_7">
      <path d="M 165.96 320.4 
L 165.96 43.2 
" clip-path="url(#ped6c24fb56)" style="fill: none; stroke-dasharray: 2.96,1.28; stroke-dashoffset: 0; stroke: #b0b0b0; stroke-width: 0.8"/>
     </g>
     <g id="line2d_8">
      <g>
       <use xlink:href="#m9a34afc7ab" x="165.96" y="320.4" style="stroke: #000000; stroke-width: 0.8"/>
      </g>
     </g>
     <g id="text_4">
      <!-- 3 -->
      <g transform="translate(162.77875 334.998438) scale(0.1 -0.1)">
       <defs>
        <path id="DejaVuSans-33" d="M 2597 2516 
Q 3050 2419 3304 2112 
Q 3559 1806 3559 1356 
Q 3559 666 3084 287 
Q 2609 -91 1734 -91 
Q 1441 -91 1130 -33 
Q 819 25 488 141 
L 488 750 
Q 750 597 1062 519 
Q 1375 441 1716 441 
Q 2309 441 2620 675 
Q 2931 909 2931 1356 
Q 2931 1769 2642 2001 
Q 2353 2234 1838 2234 
L 1294 2234 
L 1294 2753 
L 1863 2753 
Q 2328 2753 2575 2939 
Q 2822 3125 2822 3475 
Q 2822 3834 2567 4026 
Q 2313 4219 1838 4219 
Q 1578 4219 1281 4162 
Q 984 4106 628 3988 
L 628 4550 
Q 988 4650 1302 4700 
Q 1616 4750 1894 4750 
Q 2613 4750 3031 4423 
Q 3450 4097 3450 3541 
Q 3450 3153 3228 2886 
Q 3006 2619 2597 2516 
z
" transform="scale(0.015625)"/>
       </defs>
       <use xlink:href="#DejaVuSans-33"/>
      </g>
     </g>
    </g>
    <g id="xtick_5">
     <g id="line2d_9">
      <path d="M 193.68 320.4 
L 193.68 43.2 
" clip-path="url(#ped6c24fb56)" style="fill: none; stroke-dasharray: 2.96,1.28; stroke-dashoffset: 0; stroke: #b0b0b0; stroke-width: 0.8"/>
     </g>
     <g id="line2d_10">
      <g>
       <use xlink:href="#m9a34afc7ab" x="193.68" y="320.4" style="stroke: #000000; stroke-width: 0.8"/>
      </g>
     </g>
     <g id="text_5">
      <!-- 4 -->
      <g transform="translate(190.49875 334.998438) scale(0.1 -0.1)">
       <defs>
        <path id="DejaVuSans-34" d="M 2419 4116 
L 825 1625 
L 2419 1625 
L 2419 4116 
z
M 2253 4666 
L 3047 4666 
L 3047 1625 
L 3713 1625 
L 3713 1100 
L 3047 1100 
L 3047 0 
L 2419 0 
L 2419 1100 
L 313 1100 
L 313 1709 
L 2253 4666 
z
" transform="scale(0.015625)"/>
       </defs>
       <use xlink:href="#DejaVuSans-34"/>
      </g>
     </g>
    </g>
    <g id="xtick_6">
     <g id="line2d_11">
      <path d="M 221.4 320.4 
L 221.4 43.2 
" clip-path="url(#ped6c24fb56)" style="fill: none; stroke-dasharray: 2.96,1.28; stroke-dashoffset: 0; stroke: #b0b0b0; stroke-width: 0.8"/>
     </g>
     <g id="line2d_12">
      <g>
       <use xlink:href="#m9a34afc7ab" x="221.4" y="320.4" style="stroke: #000000; stroke-width: 0.8"/>
      </g>
     </g>
     <g id="text_6">
      <!-- 5 -->
      <g transform="translate(218.21875 334.998438) scale(0.1 -0.1)">
       <defs>
        <path id="DejaVuSans-35" d="M 691 4666 
L 3169 4666 
L 3169 4134 
L 1269 4134 
L 1269 2991 
Q 1406 3038 1543 3061 
Q 1681 3084 1819 3084 
Q 2600 3084 3056 2656 
Q 3513 2228 3513 1497 
Q 3513 744 3044 326 
Q 2575 -91 1722 -91 
Q 1428 -91 1123 -41 
Q 819 9 494 109 
L 494 744 
Q 775 591 1075 516 
Q 1375 441 1709 441 
Q 2250 441 2565 725 
Q 2881 1009 2881 1497 
Q 2881 1984 2565 2268 
Q 2250 2553 1709 2553 
Q 1456 2553 1204 2497 
Q 953 2441 691 2322 
L 691 4666 
z
" transform="scale(0.015625)"/>
       </defs>
       <use xlink:href="#DejaVuSans-35"/>
      </g>
     </g>
    </g>
    <g id="xtick_7">
     <g id="line2d_13">
      <path d="M 249.12 320.4 
L 249.12 43.2 
" clip-path="url(#ped6c24fb56)" style="fill: none; stroke-dasharray: 2.96,1.28; stroke-dashoffset: 0; stroke: #b0b0b0; stroke-width: 0.8"/>
     </g>
     <g id="line2d_14">
      <g>
       <use xlink:href="#m9a34afc7ab" x="249.12" y="320.4" style="stroke: #000000; stroke-width: 0.8"/>
      </g>
     </g>
     <g id="text_7">
      <!-- 6 -->
      <g transform="translate(245.93875 334.998438) scale(0.1 -0.1)">
       <defs>
        <path id="DejaVuSans-36" d="M 2113 2584 
Q 1688 2584 1439 2293 
Q 1191 2003 1191 1497 
Q 1191 994 1439 701 
Q 1688 409 2113 409 
Q 2538 409 2786 701 
Q 3034 994 3034 1497 
Q 3034 2003 2786 2293 
Q 2538 2584 2113 2584 
z
M 3366 4563 
L 3366 3988 
Q 3128 4100 2886 4159 
Q 2644 4219 2406 4219 
Q 1781 4219 1451 3797 
Q 1122 3375 1075 2522 
Q 1259 2794 1537 2939 
Q 1816 3084 2150 3084 
Q 2853 3084 3261 2657 
Q 3669 2231 3669 1497 
Q 3669 778 3244 343 
Q 2819 -91 2113 -91 
Q 1303 -91 875 529 
Q 447 1150 447 2328 
Q 447 3434 972 4092 
Q 1497 4750 2381 4750 
Q 2619 4750 2861 4703 
Q 3103 4656 3366 4563 
z
" transform="scale(0.015625)"/>
       </defs>
       <use xlink:href="#DejaVuSans-36"/>
      </g>
     </g>
    </g>
    <g id="xtick_8">
     <g id="line2d_15">
      <path d="M 276.84 320.4 
L 276.84 43.2 
" clip-path="url(#ped6c24fb56)" style="fill: none; stroke-dasharray: 2.96,1.28; stroke-dashoffset: 0; stroke: #b0b0b0; stroke-width: 0.8"/>
     </g>
     <g id="line2d_16">
      <g>
       <use xlink:href="#m9a34afc7ab" x="276.84" y="320.4" style="stroke: #000000; stroke-width: 0.8"/>
      </g>
     </g>
     <g id="text_8">
      <!-- 7 -->
      <g transform="translate(273.65875 334.998438) scale(0.1 -0.1)">
       <defs>
        <path id="DejaVuSans-37" d="M 525 4666 
L 3525 4666 
L 3525 4397 
L 1831 0 
L 1172 0 
L 2766 4134 
L 525 4134 
L 525 4666 
z
" transform="scale(0.015625)"/>
       </defs>
       <use xlink:href="#DejaVuSans-37"/>
      </g>
     </g>
    </g>
    <g id="xtick_9">
     <g id="line2d_17">
      <path d="M 304.56 320.4 
L 304.56 43.2 
" clip-path="url(#ped6c24fb56)" style="fill: none; stroke-dasharray: 2.96,1.28; stroke-dashoffset: 0; stroke: #b0b0b0; stroke-width: 0.8"/>
     </g>
     <g id="line2d_18">
      <g>
       <use xlink:href="#m9a34afc7ab" x="304.56" y="320.4" style="stroke: #000000; stroke-width: 0.8"/>
      </g>
     </g>
     <g id="text_9">
      <!-- 8 -->
      <g transform="translate(301.37875 334.998438) scale(0.1 -0.1)">
       <defs>
        <path id="DejaVuSans-38" d="M 2034 2216 
Q 1584 2216 1326 1975 
Q 1069 1734 1069 1313 
Q 1069 891 1326 650 
Q 1584 409 2034 409 
Q 2484 409 2743 651 
Q 3003 894 3003 1313 
Q 3003 1734 2745 1975 
Q 2488 2216 2034 2216 
z
M 1403 2484 
Q 997 2584 770 2862 
Q 544 3141 544 3541 
Q 544 4100 942 4425 
Q 1341 4750 2034 4750 
Q 2731 4750 3128 4425 
Q 3525 4100 3525 3541 
Q 3525 3141 3298 2862 
Q 3072 2584 2669 2484 
Q 3125 2378 3379 2068 
Q 3634 1759 3634 1313 
Q 3634 634 3220 271 
Q 2806 -91 2034 -91 
Q 1263 -91 848 271 
Q 434 634 434 1313 
Q 434 1759 690 2068 
Q 947 2378 1403 2484 
z
M 1172 3481 
Q 1172 3119 1398 2916 
Q 1625 2713 2034 2713 
Q 2441 2713 2670 2916 
Q 2900 3119 2900 3481 
Q 2900 3844 2670 4047 
Q 2441 4250 2034 4250 
Q 1625 4250 1398 4047 
Q 1172 3844 1172 3481 
z
" transform="scale(0.015625)"/>
       </defs>
       <use xlink:href="#DejaVuSans-38"/>
      </g>
     </g>
    </g>
    <g id="xtick_10">
     <g id="line2d_19">
      <path d="M 332.28 320.4 
L 332.28 43.2 
" clip-path="url(#ped6c24fb56)" style="fill: none; stroke-dasharray: 2.96,1.28; stroke-dashoffset: 0; stroke: #b0b0b0; stroke-width: 0.8"/>
     </g>
     <g id="line2d_20">
      <g>
       <use xlink:href="#m9a34afc7ab" x="332.28" y="320.4" style="stroke: #000000; stroke-width: 0.8"/>
      </g>
     </g>
     <g id="text_10">
      <!-- 9 -->
      <g transform="translate(329.09875 334.998438) scale(0.1 -0.1)">
       <defs>
        <path id="DejaVuSans-39" d="M 703 97 
L 703 672 
Q 941 559 1184 500 
Q 1428 441 1663 441 
Q 2288 441 2617 861 
Q 2947 1281 2994 2138 
Q 2813 1869 2534 1725 
Q 2256 1581 1919 1581 
Q 1219 1581 811 2004 
Q 403 2428 403 3163 
Q 403 3881 828 4315 
Q 1253 4750 1959 4750 
Q 2769 4750 3195 4129 
Q 3622 3509 3622 2328 
Q 3622 1225 3098 567 
Q 2575 -91 1691 -91 
Q 1453 -91 1209 -44 
Q 966 3 703 97 
z
M 1959 2075 
Q 2384 2075 2632 2365 
Q 2881 2656 2881 3163 
Q 2881 3666 2632 3958 
Q 2384 4250 1959 4250 
Q 1534 4250 1286 3958 
Q 1038 3666 1038 3163 
Q 1038 2656 1286 2365 
Q 1534 2075 1959 2075 
z
" transform="scale(0.015625)"/>
       </defs>
       <use xlink:href="#DejaVuSans-39"/>
      </g>
     </g>
    </g>
    <g id="xtick_11">
     <g id="line2d_21">
      <path d="M 360 320.4 
L 360 43.2 
" clip-path="url(#ped6c24fb56)" style="fill: none; stroke-dasharray: 2.96,1.28; stroke-dashoffset: 0; stroke: #b0b0b0; stroke-width: 0.8"/>
     </g>
     <g id="line2d_22">
      <g>
       <use xlink:href="#m9a34afc7ab" x="360" y="320.4" style="stroke: #000000; stroke-width: 0.8"/>
      </g>
     </g>
     <g id="text_11">
      <!-- 10 -->
      <g transform="translate(353.6375 334.998438) scale(0.1 -0.1)">
       <use xlink:href="#DejaVuSans-31"/>
       <use xlink:href="#DejaVuSans-30" x="63.623047"/>
      </g>
     </g>
    </g>
    <g id="text_12">
     <!-- X (m) -->
     <g transform="translate(207.614062 348.676562) scale(0.1 -0.1)">
      <defs>
       <path id="DejaVuSans-58" d="M 403 4666 
L 1081 4666 
L 2241 2931 
L 3406 4666 
L 4084 4666 
L 2584 2425 
L 4184 0 
L 3506 0 
L 2194 1984 
L 872 0 
L 191 0 
L 1856 2491 
L 403 4666 
z
" transform="scale(0.015625)"/>
       <path id="DejaVuSans-20" transform="scale(0.015625)"/>
       <path id="DejaVuSans-28" d="M 1984 4856 
Q 1566 4138 1362 3434 
Q 1159 2731 1159 2009 
Q 1159 1288 1364 580 
Q 1569 -128 1984 -844 
L 1484 -844 
Q 1016 -109 783 600 
Q 550 1309 550 2009 
Q 550 2706 781 3412 
Q 1013 4119 1484 4856 
L 1984 4856 
z
" transform="scale(0.015625)"/>
       <path id="DejaVuSans-6d" d="M 3328 2828 
Q 3544 3216 3844 3400 
Q 4144 3584 4550 3584 
Q 5097 3584 5394 3201 
Q 5691 2819 5691 2113 
L 5691 0 
L 5113 0 
L 5113 2094 
Q 5113 2597 4934 2840 
Q 4756 3084 4391 3084 
Q 3944 3084 3684 2787 
Q 3425 2491 3425 1978 
L 3425 0 
L 2847 0 
L 2847 2094 
Q 2847 2600 2669 2842 
Q 2491 3084 2119 3084 
Q 1678 3084 1418 2786 
Q 1159 2488 1159 1978 
L 1159 0 
L 581 0 
L 581 3500 
L 1159 3500 
L 1159 2956 
Q 1356 3278 1631 3431 
Q 1906 3584 2284 3584 
Q 2666 3584 2933 3390 
Q 3200 3197 3328 2828 
z
" transform="scale(0.015625)"/>
       <path id="DejaVuSans-29" d="M 513 4856 
L 1013 4856 
Q 1481 4119 1714 3412 
Q 1947 2706 1947 2009 
Q 1947 1309 1714 600 
Q 1481 -109 1013 -844 
L 513 -844 
Q 928 -128 1133 580 
Q 1338 1288 1338 2009 
Q 1338 2731 1133 3434 
Q 928 4138 513 4856 
z
" transform="scale(0.015625)"/>
      </defs>
      <use xlink:href="#DejaVuSans-58"/>
      <use xlink:href="#DejaVuSans-20" x="68.505859"/>
      <use xlink:href="#DejaVuSans-28" x="100.292969"/>
      <use xlink:href="#DejaVuSans-6d" x="139.306641"/>
      <use xlink:href="#DejaVuSans-29" x="236.71875"/>
     </g>
    </g>
   </g>
   <g id="matplotlib.axis_2">
    <g id="ytick_1">
     <g id="line2d_23">
      <path d="M 82.8 320.4 
L 360 320.4 
" clip-path="url(#ped6c24fb56)" style="fill: none; stroke-dasharray: 2.96,1.28; stroke-dashoffset: 0; stroke: #b0b0b0; stroke-width: 0.8"/>
     </g>
     <g id="line2d_24">
      <defs>
       <path id="m915c64bb1f" d="M 0 0 
L -3.5 0 
" style="stroke: #000000; stroke-width: 0.8"/>
      </defs>
      <g>
       <use xlink:href="#m915c64bb1f" x="82.8" y="320.4" style="stroke: #000000; stroke-width: 0.8"/>
      </g>
     </g>
     <g id="text_13">
      <!-- 0 -->
      <g transform="translate(69.4375 324.199219) scale(0.1 -0.1)">
       <use xlink:href="#DejaVuSans-30"/>
      </g>
     </g>
    </g>
    <g id="ytick_2">
     <g id="line2d_25">
      <path d="M 82.8 292.68 
L 360 292.68 
" clip-path="url(#ped6c24fb56)" style="fill: none; stroke-dasharray: 2.96,1.28; stroke-dashoffset: 0; stroke: #b0b0b0; stroke-width: 0.8"/>
     </g>
     <g id="line2d_26">
      <g>
       <use xlink:href="#m915c64bb1f" x="82.8" y="292.68" style="stroke: #000000; stroke-width: 0.8"/>
      </g>
     </g>
     <g id="text_14">
      <!-- 1 -->
      <g transform="translate(69.4375 296.479219) scale(0.1 -0.1)">
       <use xlink:href="#DejaVuSans-31"/>
      </g>
     </g>
    </g>
    <g id="ytick_3">
     <g id="line2d_27">
      <path d="M 82.8 264.96 
L 360 264.96 
" clip-path="url(#ped6c24fb56)" style="fill: none; stroke-dasharray: 2.96,1.28; stroke-dashoffset: 0; stroke: #b0b0b0; stroke-width: 0.8"/>
     </g>
     <g id="line2d_28">
      <g>
       <use xlink:href="#m915c64bb1f" x="82.8" y="264.96" style="stroke: #000000; stroke-width: 0.8"/>
      </g>
     </g>
     <g id="text_15">
      <!-- 2 -->
      <g transform="translate(69.4375 268.759219) scale(0.1 -0.1)">
       <use xlink:href="#DejaVuSans-32"/>
      </g>
     </g>
    </g>
    <g id="ytick_4">
     <g id="line2d_29">
      <path d="M 82.8 237.24 
L 360 237.24 
" clip-path="url(#ped6c24fb56)" style="fill: none; stroke-dasharray: 2.96,1.28; stroke-dashoffset: 0; stroke: #b0b0b0; stroke-width: 0.8"/>
     </g>
     <g id="line2d_30">
      <g>
       <use xlink:href="#m915c64bb1f" x="82.8" y="237.24" style="stroke: #000000; stroke-width: 0.8"/>
      </g>
     </g>
     <g id="text_16">
      <!-- 3 -->
      <g transform="translate(69.4375 241.039219) scale(0.1 -0.1)">
       <use xlink:href="#DejaVuSans-33"/>
      </g>
     </g>
    </g>
    <g id="ytick_5">
     <g id="line2d_31">
      <path d="M 82.8 209.52 
L 360 209.52 
" clip-path="url(#ped6c24fb56)" style="fill: none; stroke-dasharray: 2.96,1.28; stroke-dashoffset: 0; stroke: #b0b0b0; stroke-width: 0.8"/>
     </g>
     <g id="line2d_32">
      <g>
       <use xlink:href="#m915c64bb1f" x="82.8" y="209.52" style="stroke: #000000; stroke-width: 0.8"/>
      </g>
     </g>
     <g id="text_17">
      <!-- 4 -->
      <g transform="translate(69.4375 213.319219) scale(0.1 -0.1)">
       <use xlink:href="#DejaVuSans-34"/>
      </g>
     </g>
    </g>
    <g id="ytick_6">
     <g id="line2d_33">
      <path d="M 82.8 181.8 
L 360 181.8 
" clip-path="url(#ped6c24fb56)" style="fill: none; stroke-dasharray: 2.96,1.28; stroke-dashoffset: 0; stroke: #b0b0b0; stroke-width: 0.8"/>
     </g>
     <g id="line2d_34">
      <g>
       <use xlink:href="#m915c64bb1f" x="82.8" y="181.8" style="stroke: #000000; stroke-width: 0.8"/>
      </g>
     </g>
     <g id="text_18">
      <!-- 5 -->
      <g transform="translate(69.4375 185.599219) scale(0.1 -0.1)">
       <use xlink:href="#DejaVuSans-35"/>
      </g>
     </g>
    </g>
    <g id="ytick_7">
     <g id="line2d_35">
      <path d="M 82.8 154.08 
L 360 154.08 
" clip-path="url(#ped6c24fb56)" style="fill: none; stroke-dasharray: 2.96,1.28; stroke-dashoffset: 0; stroke: #b0b0b0; stroke-width: 0.8"/>
     </g>
     <g id="line2d_36">
      <g>
       <use xlink:href="#m915c64bb1f" x="82.8" y="154.08" style="stroke: #000000; stroke-width: 0.8"/>
      </g>
     </g>
     <g id="text_19">
      <!-- 6 -->
      <g transform="translate(69.4375 157.879219) scale(0.1 -0.1)">
       <use xlink:href="#DejaVuSans-36"/>
      </g>
     </g>
    </g>
    <g id="ytick_8">
     <g id="line2d_37">
      <path d="M 82.8 126.36 
L 360 126.36 
" clip-path="url(#ped6c24fb56)" style="fill: none; stroke-dasharray: 2.96,1.28; stroke-dashoffset: 0; stroke: #b0b0b0; stroke-width: 0.8"/>
     </g>
     <g id="line2d_38">
      <g>
       <use xlink:href="#m915c64bb1f" x="82.8" y="126.36" style="stroke: #000000; stroke-width: 0.8"/>
      </g>
     </g>
     <g id="text_20">
      <!-- 7 -->
      <g transform="translate(69.4375 130.159219) scale(0.1 -0.1)">
       <use xlink:href="#DejaVuSans-37"/>
      </g>
     </g>
    </g>
    <g id="ytick_9">
     <g id="line2d_39">
      <path d="M 82.8 98.64 
L 360 98.64 
" clip-path="url(#ped6c24fb56)" style="fill: none; stroke-dasharray: 2.96,1.28; stroke-dashoffset: 0; stroke: #b0b0b0; stroke-width: 0.8"/>
     </g>
     <g id="line2d_40">
      <g>
       <use xlink:href="#m915c64bb1f" x="82.8" y="98.64" style="stroke: #000000; stroke-width: 0.8"/>
      </g>
     </g>
     <g id="text_21">
      <!-- 8 -->
      <g transform="translate(69.4375 102.439219) scale(0.1 -0.1)">
       <use xlink:href="#DejaVuSans-38"/>
      </g>
     </g>
    </g>
    <g id="ytick_10">
     <g id="line2d_41">
      <path d="M 82.8 70.92 
L 360 70.92 
" clip-path="url(#ped6c24fb56)" style="fill: none; stroke-dasharray: 2.96,1.28; stroke-dashoffset: 0; stroke: #b0b0b0; stroke-width: 0.8"/>
     </g>
     <g id="line2d_42">
      <g>
       <use xlink:href="#m915c64bb1f" x="82.8" y="70.92" style="stroke: #000000; stroke-width: 0.8"/>
      </g>
     </g>
     <g id="text_22">
      <!-- 9 -->
      <g transform="translate(69.4375 74.719219) scale(0.1 -0.1)">
       <use xlink:href="#DejaVuSans-39"/>
      </g>
     </g>
    </g>
    <g id="ytick_11">
     <g id="line2d_43">
      <path d="M 82.8 43.2 
L 360 43.2 
" clip-path="url(#ped6c24fb56)" style="fill: none; stroke-dasharray: 2.96,1.28; stroke-dashoffset: 0; stroke: #b0b0b0; stroke-width: 0.8"/>
     </g>
     <g id="line2d_44">
      <g>
       <use xlink:href="#m915c64bb1f" x="82.8" y="43.2" style="stroke: #000000; stroke-width: 0.8"/>
      </g>
     </g>
     <g id="text_23">
      <!-- 10 -->
      <g transform="translate(63.075 46.999219) scale(0.1 -0.1)">
       <use xlink:href="#DejaVuSans-31"/>
       <use xlink:href="#DejaVuSans-30" x="63.623047"/>
      </g>
     </g>
    </g>
    <g id="text_24">
     <!-- Y (m) -->
     <g transform="translate(56.995312 195.214844) rotate(-90) scale(0.1 -0.1)">
      <defs>
       <path id="DejaVuSans-59" d="M -13 4666 
L 666 4666 
L 1959 2747 
L 3244 4666 
L 3922 4666 
L 2272 2222 
L 2272 0 
L 1638 0 
L 1638 2222 
L -13 4666 
z
" transform="scale(0.015625)"/>
      </defs>
      <use xlink:href="#DejaVuSans-59"/>
      <use xlink:href="#DejaVuSans-20" x="61.083984"/>
      <use xlink:href="#DejaVuSans-28" x="92.871094"/>
      <use xlink:href="#DejaVuSans-6d" x="131.884766"/>
      <use xlink:href="#DejaVuSans-29" x="229.296875"/>
     </g>
    </g>
   </g>
   <g id="patch_9">
    <path d="M 82.8 320.4 
L 82.8 43.2 
" style="fill: none; stroke: #000000; stroke-width: 0.8; stroke-linejoin: miter; stroke-linecap: square"/>
   </g>
   <g id="patch_10">
    <path d="M 360 320.4 
L 360 43.2 
" style="fill: none; stroke: #000000; stroke-width: 0.8; stroke-linejoin: miter; stroke-linecap: square"/>
   </g>
   <g id="patch_11">
    <path d="M 82.8 320.4 
L 360 320.4 
" style="fill: none; stroke: #000000; stroke-width: 0.8; stroke-linejoin: miter; stroke-linecap: square"/>
   </g>
   <g id="patch_12">
    <path d="M 82.8 43.2 
L 360 43.2 
" style="fill: none; stroke: #000000; stroke-width: 0.8; stroke-linejoin: miter; stroke-linecap: square"/>
   </g>
  </g>
 </g>
 <defs>
  <clipPath id="ped6c24fb56">
   <rect x="82.8" y="43.2" width="277.2" height="277.2"/>
  </clipPath>
 </defs>
</svg>
