<?xml version="1.0" encoding="utf-8" standalone="no"?>
<!DOCTYPE svg PUBLIC "-//W3C//DTD SVG 1.1//EN"
  "http://www.w3.org/Graphics/SVG/1.1/DTD/svg11.dtd">
<svg xmlns:xlink="http://www.w3.org/1999/xlink" width="432pt" height="360pt" viewBox="0 0 432 360" xmlns="http://www.w3.org/2000/svg" version="1.1">
 <metadata>
  <rdf:RDF xmlns:dc="http://purl.org/dc/elements/1.1/" xmlns:cc="http://creativecommons.org/ns#" xmlns:rdf="http://www.w3.org/1999/02/22-rdf-syntax-ns#">
   <cc:Work>
    <dc:type rdf:resource="http://purl.org/dc/dcmitype/StillImage"/>
    <dc:date>2024-11-11T11:22:06.186468</dc:date>
    <dc:format>image/svg+xml</dc:format>
    <dc:creator>
     <cc:Agent>
      <dc:title>Matplotlib v3.9.1, https://matplotlib.org/</dc:title>
     </cc:Agent>
    </dc:creator>
   </cc:Work>
  </rdf:RDF>
 </metadata>
 <defs>
  <style type="text/css">*{stroke-linejoin: round; stroke-linecap: butt}</style>
 </defs>
 <g id="figure_1">
  <g id="patch_1">
   <path d="M 0 360 
L 432 360 
L 432 0 
L 0 0 
L 0 360 
z
" style="fill: none"/>
  </g>
  <g id="axes_1">
   <g id="patch_2">
    <path d="M 82.8 320.4 
L 360 320.4 
L 360 43.2 
L 82.8 43.2 
L 82.8 320.4 
z
" style="fill: none"/>
   </g>
   <g id="patch_3">
    <path d="M 55.342667 307.636444 
L 55.519868 306.486795 
L 55.85792 304.861676 
L 56.043568 303.039865 
L 56.165452 301.770995 
L 56.779612 301.257112 
L 57.932761 301.017029 
L 59.003811 300.504803 
L 59.687575 299.741742 
L 60.063871 299.107659 
L 60.458524 298.793686 
L 61.172659 298.686106 
L 62.077134 298.414045 
L 63.228646 297.57695 
L 64.987501 296.516737 
L 67.325716 295.802265 
L 69.647575 295.493008 
L 71.547485 295.19058 
L 73.393143 294.797065 
L 75.496768 294.603882 
L 77.974017 294.597516 
L 80.599294 294.603763 
L 83.306909 294.999417 
L 85.771618 296.238057 
L 87.632936 297.899703 
L 89.153275 299.274024 
L 91.021244 300.323686 
L 93.101463 301.443204 
L 94.654822 302.640842 
L 95.694723 303.459258 
L 96.93836 304.045536 
L 98.472865 304.829334 
L 99.67311 305.725619 
L 100.307738 306.310549 
L 100.824509 306.504745 
L 101.708386 306.762581 
L 102.987719 307.549692 
L 104.664729 308.847501 
L 106.42663 310.432267 
L 107.714311 311.929071 
L 108.34365 312.978871 
L 108.815672 313.591826 
L 109.665551 314.297663 
L 110.648101 315.500548 
L 111.465699 316.85324 
L 112.351607 317.993406 
L 113.472012 319.264597 
L 114.382032 320.790821 
L 114.688876 321.755016 
L 114.62804 321.828767 
L 114.731515 321.869596 
L 115.114125 322.871555 
L 115.795239 324.344893 
L 116.503641 325.411185 
L 116.943049 326.172512 
L 117.185339 327.058923 
L 117.414918 327.896088 
L 117.405377 328.365041 
L 116.919687 328.893039 
L 116.384259 329.845162 
L 116.359915 331.043262 
L 116.582543 332.316167 
L 116.218841 333.597429 
L 115.255151 334.650602 
L 114.195455 335.305774 
L 113.16123 335.851488 
L 112.2339 336.430161 
L 111.522844 336.673966 
L 110.882185 336.269546 
L 109.759965 335.792031 
L 108.166799 335.650705 
L 107.166823 335.748478 
L 106.984593 335.833789 
L 106.570878 336.074996 
L 105.247117 336.600328 
L 103.488375 337.052291 
L 101.540223 337.026299 
L 99.53475 336.810647 
L 97.99531 337.109646 
L 96.932067 338.089439 
L 95.692615 339.207296 
L 93.957088 339.976743 
L 92.104949 340.454641 
L 90.167345 340.954101 
L 87.801937 341.560962 
L 85.242183 342.156366 
L 83.125246 342.741876 
L 81.015033 343.477048 
L 78.310512 344.025223 
L 75.414585 343.928823 
L 73.197985 343.178933 
L 71.450844 341.993622 
L 69.524652 340.712839 
L 67.181099 339.820526 
L 64.783918 339.389566 
L 62.813652 338.920056 
L 61.503827 337.919616 
L 60.354191 336.590453 
L 58.740275 335.242181 
L 56.72341 333.970816 
L 54.912838 332.77482 
L 53.536832 331.580726 
L 52.511232 330.409404 
L 52.099321 329.249203 
L 52.450839 328.207567 
L 52.881705 327.489722 
L 52.810497 327.078616 
L 52.539489 326.83511 
L 52.491237 326.520738 
L 52.606339 326.040382 
L 52.576258 325.450591 
L 52.640894 324.987624 
L 53.032626 324.666769 
L 53.276329 323.932992 
L 53.066155 322.631971 
L 52.729985 321.216309 
L 52.777282 320.14933 
L 53.143355 319.365289 
L 53.371225 318.497295 
L 53.293162 317.365205 
L 53.289879 316.121233 
L 53.824813 315.058735 
L 54.530361 314.216287 
L 54.910184 313.370157 
L 54.922562 312.141139 
L 55.121223 310.655856 
L 55.472298 309.328436 
L 55.457467 308.412202 
L 55.342667 307.636444 
" style="fill: #ff0000; stroke: #000000; stroke-width: 0.5; stroke-linejoin: miter"/>
   </g>
   <g id="patch_4">
    <path d="M -221.857333 307.636444 
L -221.680132 306.486795 
L -221.34208 304.861676 
L -221.156432 303.039865 
L -221.034548 301.770995 
L -220.420388 301.257112 
L -219.267239 301.017029 
L -218.196189 300.504803 
L -217.512425 299.741742 
L -217.136129 299.107659 
L -216.741476 298.793686 
L -216.027341 298.686106 
L -215.122866 298.414045 
L -213.971354 297.57695 
L -212.212499 296.516737 
L -209.874284 295.802265 
L -207.552425 295.493008 
L -205.652515 295.19058 
L -203.806857 294.797065 
L -201.703232 294.603882 
L -199.225983 294.597516 
L -196.600706 294.603763 
L -193.893091 294.999417 
L -191.428382 296.238057 
L -189.567064 297.899703 
L -188.046725 299.274024 
L -186.178756 300.323686 
L -184.098537 301.443204 
L -182.545178 302.640842 
L -181.505277 303.459258 
L -180.26164 304.045536 
L -178.727135 304.829334 
L -177.52689 305.725619 
L -176.892262 306.310549 
L -176.375491 306.504745 
L -175.491614 306.762581 
L -174.212281 307.549692 
L -172.535271 308.847501 
L -170.77337 310.432267 
L -169.485689 311.929071 
L -168.85635 312.978871 
L -168.384328 313.591826 
L -167.534449 314.297663 
L -166.551899 315.500548 
L -165.734301 316.85324 
L -164.848393 317.993406 
L -163.727988 319.264597 
L -162.817968 320.790821 
L -162.511124 321.755016 
L -162.57196 321.828767 
L -162.468485 321.869596 
L -162.085875 322.871555 
L -161.404761 324.344893 
L -160.696359 325.411185 
L -160.256951 326.172512 
L -160.014661 327.058923 
L -159.785082 327.896088 
L -159.794623 328.365041 
L -160.280313 328.893039 
L -160.815741 329.845162 
L -160.840085 331.043262 
L -160.617457 332.316167 
L -160.981159 333.597429 
L -161.944849 334.650602 
L -163.004545 335.305774 
L -164.03877 335.851488 
L -164.9661 336.430161 
L -165.677156 336.673966 
L -166.317815 336.269546 
L -167.440035 335.792031 
L -169.033201 335.650705 
L -170.033177 335.748478 
L -170.215407 335.833789 
L -170.629122 336.074996 
L -171.952883 336.600328 
L -173.711625 337.052291 
L -175.659777 337.026299 
L -177.66525 336.810647 
L -179.20469 337.109646 
L -180.267933 338.089439 
L -181.507385 339.207296 
L -183.242912 339.976743 
L -185.095051 340.454641 
L -187.032655 340.954101 
L -189.398063 341.560962 
L -191.957817 342.156366 
L -194.074754 342.741876 
L -196.184967 343.477048 
L -198.889488 344.025223 
L -201.785415 343.928823 
L -204.002015 343.178933 
L -205.749156 341.993622 
L -207.675348 340.712839 
L -210.018901 339.820526 
L -212.416082 339.389566 
L -214.386348 338.920056 
L -215.696173 337.919616 
L -216.845809 336.590453 
L -218.459725 335.242181 
L -220.47659 333.970816 
L -222.287162 332.77482 
L -223.663168 331.580726 
L -224.688768 330.409404 
L -225.100679 329.249203 
L -224.749161 328.207567 
L -224.318295 327.489722 
L -224.389503 327.078616 
L -224.660511 326.83511 
L -224.708763 326.520738 
L -224.593661 326.040382 
L -224.623742 325.450591 
L -224.559106 324.987624 
L -224.167374 324.666769 
L -223.923671 323.932992 
L -224.133845 322.631971 
L -224.470015 321.216309 
L -224.422718 320.14933 
L -224.056645 319.365289 
L -223.828775 318.497295 
L -223.906838 317.365205 
L -223.910121 316.121233 
L -223.375187 315.058735 
L -222.669639 314.216287 
L -222.289816 313.370157 
L -222.277438 312.141139 
L -222.078777 310.655856 
L -221.727702 309.328436 
L -221.742533 308.412202 
L -221.857333 307.636444 
" style="fill: #ff0000; stroke: #000000; stroke-width: 0.5; stroke-linejoin: miter"/>
   </g>
   <g id="patch_5">
    <path d="M 333.411151 307.977696 
L 333.588352 306.828047 
L 333.926404 305.202928 
L 334.112053 303.381117 
L 334.233936 302.112247 
L 334.848096 301.598365 
L 336.001246 301.358282 
L 337.072295 300.846056 
L 337.75606 300.082994 
L 338.132355 299.448911 
L 338.527008 299.134939 
L 339.241144 299.027359 
L 340.145619 298.755298 
L 341.29713 297.918203 
L 343.055985 296.85799 
L 345.3942 296.143517 
L 347.716059 295.83426 
L 349.615969 295.531833 
L 351.461627 295.138318 
L 353.565252 294.945135 
L 356.042501 294.938768 
L 358.667778 294.945016 
L 361.375394 295.34067 
L 363.840102 296.57931 
L 365.70142 298.240956 
L 367.221759 299.615277 
L 369.089728 300.664939 
L 371.169947 301.784457 
L 372.723306 302.982095 
L 373.763208 303.80051 
L 375.006845 304.386789 
L 376.541349 305.170586 
L 377.741595 306.066871 
L 378.376222 306.651802 
L 378.892994 306.845998 
L 379.776871 307.103833 
L 381.056204 307.890944 
L 382.733213 309.188753 
L 384.495114 310.773519 
L 385.782796 312.270324 
L 386.412134 313.320124 
L 386.884156 313.933078 
L 387.734035 314.638916 
L 388.716586 315.8418 
L 389.534183 317.194493 
L 390.420091 318.334658 
L 391.540496 319.60585 
L 392.450517 321.132074 
L 392.757361 322.096269 
L 392.696525 322.170019 
L 392.799999 322.210849 
L 393.182609 323.212808 
L 393.863723 324.686145 
L 394.572126 325.752438 
L 395.011533 326.513764 
L 395.253823 327.400176 
L 395.483402 328.23734 
L 395.473861 328.706293 
L 394.988172 329.234292 
L 394.452743 330.186414 
L 394.4284 331.384515 
L 394.651027 332.65742 
L 394.287326 333.938682 
L 393.323635 334.991855 
L 392.263939 335.647027 
L 391.229714 336.19274 
L 390.302384 336.771414 
L 389.591328 337.015218 
L 388.950669 336.610799 
L 387.828449 336.133283 
L 386.235284 335.991957 
L 385.235307 336.08973 
L 385.053077 336.175041 
L 384.639362 336.416249 
L 383.315601 336.941581 
L 381.55686 337.393544 
L 379.608707 337.367551 
L 377.603234 337.1519 
L 376.063794 337.450899 
L 375.000551 338.430691 
L 373.761099 339.548549 
L 372.025572 340.317996 
L 370.173433 340.795894 
L 368.235829 341.295354 
L 365.870421 341.902215 
L 363.310668 342.497618 
L 361.19373 343.083129 
L 359.083517 343.8183 
L 356.378996 344.366476 
L 353.483069 344.270076 
L 351.26647 343.520185 
L 349.519328 342.334874 
L 347.593136 341.054091 
L 345.249583 340.161778 
L 342.852402 339.730819 
L 340.882136 339.261308 
L 339.572312 338.260869 
L 338.422676 336.931705 
L 336.808759 335.583434 
L 334.791894 334.312068 
L 332.981322 333.116072 
L 331.605316 331.921979 
L 330.579716 330.750656 
L 330.167805 329.590456 
L 330.519323 328.548819 
L 330.950189 327.830974 
L 330.878981 327.419868 
L 330.607973 327.176363 
L 330.559721 326.86199 
L 330.674823 326.381635 
L 330.644743 325.791843 
L 330.709378 325.328877 
L 331.10111 325.008022 
L 331.344813 324.274245 
L 331.134639 322.973224 
L 330.79847 321.557561 
L 330.845767 320.490583 
L 331.21184 319.706541 
L 331.43971 318.838548 
L 331.361646 317.706458 
L 331.358363 316.462486 
L 331.893298 315.399988 
L 332.598845 314.557539 
L 332.978668 313.711409 
L 332.991046 312.482391 
L 333.189707 310.997108 
L 333.540783 309.669688 
L 333.525952 308.753455 
L 333.411151 307.977696 
" style="fill: #00bfbf; stroke: #000000; stroke-width: 0.5; stroke-linejoin: miter"/>
   </g>
   <g id="patch_6">
    <path d="M 56.211151 30.777696 
L 56.388352 29.628047 
L 56.726404 28.002928 
L 56.912053 26.181117 
L 57.033936 24.912247 
L 57.648096 24.398365 
L 58.801246 24.158282 
L 59.872295 23.646056 
L 60.55606 22.882994 
L 60.932355 22.248911 
L 61.327008 21.934939 
L 62.041144 21.827359 
L 62.945619 21.555298 
L 64.09713 20.718203 
L 65.855985 19.65799 
L 68.1942 18.943517 
L 70.516059 18.63426 
L 72.415969 18.331833 
L 74.261627 17.938318 
L 76.365252 17.745135 
L 78.842501 17.738768 
L 81.467778 17.745016 
L 84.175394 18.14067 
L 86.640102 19.37931 
L 88.50142 21.040956 
L 90.021759 22.415277 
L 91.889728 23.464939 
L 93.969947 24.584457 
L 95.523306 25.782095 
L 96.563208 26.60051 
L 97.806845 27.186789 
L 99.341349 27.970586 
L 100.541595 28.866871 
L 101.176222 29.451802 
L 101.692994 29.645998 
L 102.576871 29.903833 
L 103.856204 30.690944 
L 105.533213 31.988753 
L 107.295114 33.573519 
L 108.582796 35.070324 
L 109.212134 36.120124 
L 109.684156 36.733078 
L 110.534035 37.438916 
L 111.516586 38.6418 
L 112.334183 39.994493 
L 113.220091 41.134658 
L 114.340496 42.40585 
L 115.250517 43.932074 
L 115.557361 44.896269 
L 115.496525 44.970019 
L 115.599999 45.010849 
L 115.982609 46.012808 
L 116.663723 47.486145 
L 117.372126 48.552438 
L 117.811533 49.313764 
L 118.053823 50.200176 
L 118.283402 51.03734 
L 118.273861 51.506293 
L 117.788172 52.034292 
L 117.252743 52.986414 
L 117.2284 54.184515 
L 117.451027 55.45742 
L 117.087326 56.738682 
L 116.123635 57.791855 
L 115.063939 58.447027 
L 114.029714 58.99274 
L 113.102384 59.571414 
L 112.391328 59.815218 
L 111.750669 59.410799 
L 110.628449 58.933283 
L 109.035284 58.791957 
L 108.035307 58.88973 
L 107.853077 58.975041 
L 107.439362 59.216249 
L 106.115601 59.741581 
L 104.35686 60.193544 
L 102.408707 60.167551 
L 100.403234 59.9519 
L 98.863794 60.250899 
L 97.800551 61.230691 
L 96.561099 62.348549 
L 94.825572 63.117996 
L 92.973433 63.595894 
L 91.035829 64.095354 
L 88.670421 64.702215 
L 86.110668 65.297618 
L 83.99373 65.883129 
L 81.883517 66.6183 
L 79.178996 67.166476 
L 76.283069 67.070076 
L 74.06647 66.320185 
L 72.319328 65.134874 
L 70.393136 63.854091 
L 68.049583 62.961778 
L 65.652402 62.530819 
L 63.682136 62.061308 
L 62.372312 61.060869 
L 61.222676 59.731705 
L 59.608759 58.383434 
L 57.591894 57.112068 
L 55.781322 55.916072 
L 54.405316 54.721979 
L 53.379716 53.550656 
L 52.967805 52.390456 
L 53.319323 51.348819 
L 53.750189 50.630974 
L 53.678981 50.219868 
L 53.407973 49.976363 
L 53.359721 49.66199 
L 53.474823 49.181635 
L 53.444743 48.591843 
L 53.509378 48.128877 
L 53.90111 47.808022 
L 54.144813 47.074245 
L 53.934639 45.773224 
L 53.59847 44.357561 
L 53.645767 43.290583 
L 54.01184 42.506541 
L 54.23971 41.638548 
L 54.161646 40.506458 
L 54.158363 39.262486 
L 54.693298 38.199988 
L 55.398845 37.357539 
L 55.778668 36.511409 
L 55.791046 35.282391 
L 55.989707 33.797108 
L 56.340783 32.469688 
L 56.325952 31.553455 
L 56.211151 30.777696 
" style="fill: #00bfbf; stroke: #000000; stroke-width: 0.5; stroke-linejoin: miter"/>
   </g>
   <g id="patch_7">
    <path d="M 56.211151 585.177696 
L 56.388352 584.028047 
L 56.726404 582.402928 
L 56.912053 580.581117 
L 57.033936 579.312247 
L 57.648096 578.798365 
L 58.801246 578.558282 
L 59.872295 578.046056 
L 60.55606 577.282994 
L 60.932355 576.648911 
L 61.327008 576.334939 
L 62.041144 576.227359 
L 62.945619 575.955298 
L 64.09713 575.118203 
L 65.855985 574.05799 
L 68.1942 573.343517 
L 70.516059 573.03426 
L 72.415969 572.731833 
L 74.261627 572.338318 
L 76.365252 572.145135 
L 78.842501 572.138768 
L 81.467778 572.145016 
L 84.175394 572.54067 
L 86.640102 573.77931 
L 88.50142 575.440956 
L 90.021759 576.815277 
L 91.889728 577.864939 
L 93.969947 578.984457 
L 95.523306 580.182095 
L 96.563208 581.00051 
L 97.806845 581.586789 
L 99.341349 582.370586 
L 100.541595 583.266871 
L 101.176222 583.851802 
L 101.692994 584.045998 
L 102.576871 584.303833 
L 103.856204 585.090944 
L 105.533213 586.388753 
L 107.295114 587.973519 
L 108.582796 589.470324 
L 109.212134 590.520124 
L 109.684156 591.133078 
L 110.534035 591.838916 
L 111.516586 593.0418 
L 112.334183 594.394493 
L 113.220091 595.534658 
L 114.340496 596.80585 
L 115.250517 598.332074 
L 115.557361 599.296269 
L 115.496525 599.370019 
L 115.599999 599.410849 
L 115.982609 600.412808 
L 116.663723 601.886145 
L 117.372126 602.952438 
L 117.811533 603.713764 
L 118.053823 604.600176 
L 118.283402 605.43734 
L 118.273861 605.906293 
L 117.788172 606.434292 
L 117.252743 607.386414 
L 117.2284 608.584515 
L 117.451027 609.85742 
L 117.087326 611.138682 
L 116.123635 612.191855 
L 115.063939 612.847027 
L 114.029714 613.39274 
L 113.102384 613.971414 
L 112.391328 614.215218 
L 111.750669 613.810799 
L 110.628449 613.333283 
L 109.035284 613.191957 
L 108.035307 613.28973 
L 107.853077 613.375041 
L 107.439362 613.616249 
L 106.115601 614.141581 
L 104.35686 614.593544 
L 102.408707 614.567551 
L 100.403234 614.3519 
L 98.863794 614.650899 
L 97.800551 615.630691 
L 96.561099 616.748549 
L 94.825572 617.517996 
L 92.973433 617.995894 
L 91.035829 618.495354 
L 88.670421 619.102215 
L 86.110668 619.697618 
L 83.99373 620.283129 
L 81.883517 621.0183 
L 79.178996 621.566476 
L 76.283069 621.470076 
L 74.06647 620.720185 
L 72.319328 619.534874 
L 70.393136 618.254091 
L 68.049583 617.361778 
L 65.652402 616.930819 
L 63.682136 616.461308 
L 62.372312 615.460869 
L 61.222676 614.131705 
L 59.608759 612.783434 
L 57.591894 611.512068 
L 55.781322 610.316072 
L 54.405316 609.121979 
L 53.379716 607.950656 
L 52.967805 606.790456 
L 53.319323 605.748819 
L 53.750189 605.030974 
L 53.678981 604.619868 
L 53.407973 604.376363 
L 53.359721 604.06199 
L 53.474823 603.581635 
L 53.444743 602.991843 
L 53.509378 602.528877 
L 53.90111 602.208022 
L 54.144813 601.474245 
L 53.934639 600.173224 
L 53.59847 598.757561 
L 53.645767 597.690583 
L 54.01184 596.906541 
L 54.23971 596.038548 
L 54.161646 594.906458 
L 54.158363 593.662486 
L 54.693298 592.599988 
L 55.398845 591.757539 
L 55.778668 590.911409 
L 55.791046 589.682391 
L 55.989707 588.197108 
L 56.340783 586.869688 
L 56.325952 585.953455 
L 56.211151 585.177696 
" style="fill: #00bfbf; stroke: #000000; stroke-width: 0.5; stroke-linejoin: miter"/>
   </g>
   <g id="patch_8">
    <path d="M 333.411151 30.777696 
L 333.588352 29.628047 
L 333.926404 28.002928 
L 334.112053 26.181117 
L 334.233936 24.912247 
L 334.848096 24.398365 
L 336.001246 24.158282 
L 337.072295 23.646056 
L 337.75606 22.882994 
L 338.132355 22.248911 
L 338.527008 21.934939 
L 339.241144 21.827359 
L 340.145619 21.555298 
L 341.29713 20.718203 
L 343.055985 19.65799 
L 345.3942 18.943517 
L 347.716059 18.63426 
L 349.615969 18.331833 
L 351.461627 17.938318 
L 353.565252 17.745135 
L 356.042501 17.738768 
L 358.667778 17.745016 
L 361.375394 18.14067 
L 363.840102 19.37931 
L 365.70142 21.040956 
L 367.221759 22.415277 
L 369.089728 23.464939 
L 371.169947 24.584457 
L 372.723306 25.782095 
L 373.763208 26.60051 
L 375.006845 27.186789 
L 376.541349 27.970586 
L 377.741595 28.866871 
L 378.376222 29.451802 
L 378.892994 29.645998 
L 379.776871 29.903833 
L 381.056204 30.690944 
L 382.733213 31.988753 
L 384.495114 33.573519 
L 385.782796 35.070324 
L 386.412134 36.120124 
L 386.884156 36.733078 
L 387.734035 37.438916 
L 388.716586 38.6418 
L 389.534183 39.994493 
L 390.420091 41.134658 
L 391.540496 42.40585 
L 392.450517 43.932074 
L 392.757361 44.896269 
L 392.696525 44.970019 
L 392.799999 45.010849 
L 393.182609 46.012808 
L 393.863723 47.486145 
L 394.572126 48.552438 
L 395.011533 49.313764 
L 395.253823 50.200176 
L 395.483402 51.03734 
L 395.473861 51.506293 
L 394.988172 52.034292 
L 394.452743 52.986414 
L 394.4284 54.184515 
L 394.651027 55.45742 
L 394.287326 56.738682 
L 393.323635 57.791855 
L 392.263939 58.447027 
L 391.229714 58.99274 
L 390.302384 59.571414 
L 389.591328 59.815218 
L 388.950669 59.410799 
L 387.828449 58.933283 
L 386.235284 58.791957 
L 385.235307 58.88973 
L 385.053077 58.975041 
L 384.639362 59.216249 
L 383.315601 59.741581 
L 381.55686 60.193544 
L 379.608707 60.167551 
L 377.603234 59.9519 
L 376.063794 60.250899 
L 375.000551 61.230691 
L 373.761099 62.348549 
L 372.025572 63.117996 
L 370.173433 63.595894 
L 368.235829 64.095354 
L 365.870421 64.702215 
L 363.310668 65.297618 
L 361.19373 65.883129 
L 359.083517 66.6183 
L 356.378996 67.166476 
L 353.483069 67.070076 
L 351.26647 66.320185 
L 349.519328 65.134874 
L 347.593136 63.854091 
L 345.249583 62.961778 
L 342.852402 62.530819 
L 340.882136 62.061308 
L 339.572312 61.060869 
L 338.422676 59.731705 
L 336.808759 58.383434 
L 334.791894 57.112068 
L 332.981322 55.916072 
L 331.605316 54.721979 
L 330.579716 53.550656 
L 330.167805 52.390456 
L 330.519323 51.348819 
L 330.950189 50.630974 
L 330.878981 50.219868 
L 330.607973 49.976363 
L 330.559721 49.66199 
L 330.674823 49.181635 
L 330.644743 48.591843 
L 330.709378 48.128877 
L 331.10111 47.808022 
L 331.344813 47.074245 
L 331.134639 45.773224 
L 330.79847 44.357561 
L 330.845767 43.290583 
L 331.21184 42.506541 
L 331.43971 41.638548 
L 331.361646 40.506458 
L 331.358363 39.262486 
L 331.893298 38.199988 
L 332.598845 37.357539 
L 332.978668 36.511409 
L 332.991046 35.282391 
L 333.189707 33.797108 
L 333.540783 32.469688 
L 333.525952 31.553455 
L 333.411151 30.777696 
" style="fill: #00bfbf; stroke: #000000; stroke-width: 0.5; stroke-linejoin: miter"/>
   </g>
   <g id="matplotlib.axis_1">
    <g id="xtick_1">
     <g id="line2d_1">
      <path d="M 82.8 320.4 
L 82.8 43.2 
" clip-path="url(#p04783bb542)" style="fill: none; stroke-dasharray: 2.96,1.28; stroke-dashoffset: 0; stroke: #b0b0b0; stroke-width: 0.8"/>
     </g>
     <g id="line2d_2">
      <defs>
       <path id="m902d36275a" d="M 0 0 
L 0 3.5 
" style="stroke: #000000; stroke-width: 0.8"/>
      </defs>
      <g>
       <use xlink:href="#m902d36275a" x="82.8" y="320.4" style="stroke: #000000; stroke-width: 0.8"/>
      </g>
     </g>
     <g id="text_1">
      <!-- 0 -->
      <g transform="translate(79.61875 334.998438) scale(0.1 -0.1)">
       <defs>
        <path id="DejaVuSans-30" d="M 2034 4250 
Q 1547 4250 1301 3770 
Q 1056 3291 1056 2328 
Q 1056 1369 1301 889 
Q 1547 409 2034 409 
Q 2525 409 2770 889 
Q 3016 1369 3016 2328 
Q 3016 3291 2770 3770 
Q 2525 4250 2034 4250 
z
M 2034 4750 
Q 2819 4750 3233 4129 
Q 3647 3509 3647 2328 
Q 3647 1150 3233 529 
Q 2819 -91 2034 -91 
Q 1250 -91 836 529 
Q 422 1150 422 2328 
Q 422 3509 836 4129 
Q 1250 4750 2034 4750 
z
" transform="scale(0.015625)"/>
       </defs>
       <use xlink:href="#DejaVuSans-30"/>
      </g>
     </g>
    </g>
    <g id="xtick_2">
     <g id="line2d_3">
      <path d="M 110.52 320.4 
L 110.52 43.2 
" clip-path="url(#p04783bb542)" style="fill: none; stroke-dasharray: 2.96,1.28; stroke-dashoffset: 0; stroke: #b0b0b0; stroke-width: 0.8"/>
     </g>
     <g id="line2d_4">
      <g>
       <use xlink:href="#m902d36275a" x="110.52" y="320.4" style="stroke: #000000; stroke-width: 0.8"/>
      </g>
     </g>
     <g id="text_2">
      <!-- 1 -->
      <g transform="translate(107.33875 334.998438) scale(0.1 -0.1)">
       <defs>
        <path id="DejaVuSans-31" d="M 794 531 
L 1825 531 
L 1825 4091 
L 703 3866 
L 703 4441 
L 1819 4666 
L 2450 4666 
L 2450 531 
L 3481 531 
L 3481 0 
L 794 0 
L 794 531 
z
" transform="scale(0.015625)"/>
       </defs>
       <use xlink:href="#DejaVuSans-31"/>
      </g>
     </g>
    </g>
    <g id="xtick_3">
     <g id="line2d_5">
      <path d="M 138.24 320.4 
L 138.24 43.2 
" clip-path="url(#p04783bb542)" style="fill: none; stroke-dasharray: 2.96,1.28; stroke-dashoffset: 0; stroke: #b0b0b0; stroke-width: 0.8"/>
     </g>
     <g id="line2d_6">
      <g>
       <use xlink:href="#m902d36275a" x="138.24" y="320.4" style="stroke: #000000; stroke-width: 0.8"/>
      </g>
     </g>
     <g id="text_3">
      <!-- 2 -->
      <g transform="translate(135.05875 334.998438) scale(0.1 -0.1)">
       <defs>
        <path id="DejaVuSans-32" d="M 1228 531 
L 3431 531 
L 3431 0 
L 469 0 
L 469 531 
Q 828 903 1448 1529 
Q 2069 2156 2228 2338 
Q 2531 2678 2651 2914 
Q 2772 3150 2772 3378 
Q 2772 3750 2511 3984 
Q 2250 4219 1831 4219 
Q 1534 4219 1204 4116 
Q 875 4013 500 3803 
L 500 4441 
Q 881 4594 1212 4672 
Q 1544 4750 1819 4750 
Q 2544 4750 2975 4387 
Q 3406 4025 3406 3419 
Q 3406 3131 3298 2873 
Q 3191 2616 2906 2266 
Q 2828 2175 2409 1742 
Q 1991 1309 1228 531 
z
" transform="scale(0.015625)"/>
       </defs>
       <use xlink:href="#DejaVuSans-32"/>
      </g>
     </g>
    </g>
    <g id="xtick_4">
     <g id="line2d_7">
      <path d="M 165.96 320.4 
L 165.96 43.2 
" clip-path="url(#p04783bb542)" style="fill: none; stroke-dasharray: 2.96,1.28; stroke-dashoffset: 0; stroke: #b0b0b0; stroke-width: 0.8"/>
     </g>
     <g id="line2d_8">
      <g>
       <use xlink:href="#m902d36275a" x="165.96" y="320.4" style="stroke: #000000; stroke-width: 0.8"/>
      </g>
     </g>
     <g id="text_4">
      <!-- 3 -->
      <g transform="translate(162.77875 334.998438) scale(0.1 -0.1)">
       <defs>
        <path id="DejaVuSans-33" d="M 2597 2516 
Q 3050 2419 3304 2112 
Q 3559 1806 3559 1356 
Q 3559 666 3084 287 
Q 2609 -91 1734 -91 
Q 1441 -91 1130 -33 
Q 819 25 488 141 
L 488 750 
Q 750 597 1062 519 
Q 1375 441 1716 441 
Q 2309 441 2620 675 
Q 2931 909 2931 1356 
Q 2931 1769 2642 2001 
Q 2353 2234 1838 2234 
L 1294 2234 
L 1294 2753 
L 1863 2753 
Q 2328 2753 2575 2939 
Q 2822 3125 2822 3475 
Q 2822 3834 2567 4026 
Q 2313 4219 1838 4219 
Q 1578 4219 1281 4162 
Q 984 4106 628 3988 
L 628 4550 
Q 988 4650 1302 4700 
Q 1616 4750 1894 4750 
Q 2613 4750 3031 4423 
Q 3450 4097 3450 3541 
Q 3450 3153 3228 2886 
Q 3006 2619 2597 2516 
z
" transform="scale(0.015625)"/>
       </defs>
       <use xlink:href="#DejaVuSans-33"/>
      </g>
     </g>
    </g>
    <g id="xtick_5">
     <g id="line2d_9">
      <path d="M 193.68 320.4 
L 193.68 43.2 
" clip-path="url(#p04783bb542)" style="fill: none; stroke-dasharray: 2.96,1.28; stroke-dashoffset: 0; stroke: #b0b0b0; stroke-width: 0.8"/>
     </g>
     <g id="line2d_10">
      <g>
       <use xlink:href="#m902d36275a" x="193.68" y="320.4" style="stroke: #000000; stroke-width: 0.8"/>
      </g>
     </g>
     <g id="text_5">
      <!-- 4 -->
      <g transform="translate(190.49875 334.998438) scale(0.1 -0.1)">
       <defs>
        <path id="DejaVuSans-34" d="M 2419 4116 
L 825 1625 
L 2419 1625 
L 2419 4116 
z
M 2253 4666 
L 3047 4666 
L 3047 1625 
L 3713 1625 
L 3713 1100 
L 3047 1100 
L 3047 0 
L 2419 0 
L 2419 1100 
L 313 1100 
L 313 1709 
L 2253 4666 
z
" transform="scale(0.015625)"/>
       </defs>
       <use xlink:href="#DejaVuSans-34"/>
      </g>
     </g>
    </g>
    <g id="xtick_6">
     <g id="line2d_11">
      <path d="M 221.4 320.4 
L 221.4 43.2 
" clip-path="url(#p04783bb542)" style="fill: none; stroke-dasharray: 2.96,1.28; stroke-dashoffset: 0; stroke: #b0b0b0; stroke-width: 0.8"/>
     </g>
     <g id="line2d_12">
      <g>
       <use xlink:href="#m902d36275a" x="221.4" y="320.4" style="stroke: #000000; stroke-width: 0.8"/>
      </g>
     </g>
     <g id="text_6">
      <!-- 5 -->
      <g transform="translate(218.21875 334.998438) scale(0.1 -0.1)">
       <defs>
        <path id="DejaVuSans-35" d="M 691 4666 
L 3169 4666 
L 3169 4134 
L 1269 4134 
L 1269 2991 
Q 1406 3038 1543 3061 
Q 1681 3084 1819 3084 
Q 2600 3084 3056 2656 
Q 3513 2228 3513 1497 
Q 3513 744 3044 326 
Q 2575 -91 1722 -91 
Q 1428 -91 1123 -41 
Q 819 9 494 109 
L 494 744 
Q 775 591 1075 516 
Q 1375 441 1709 441 
Q 2250 441 2565 725 
Q 2881 1009 2881 1497 
Q 2881 1984 2565 2268 
Q 2250 2553 1709 2553 
Q 1456 2553 1204 2497 
Q 953 2441 691 2322 
L 691 4666 
z
" transform="scale(0.015625)"/>
       </defs>
       <use xlink:href="#DejaVuSans-35"/>
      </g>
     </g>
    </g>
    <g id="xtick_7">
     <g id="line2d_13">
      <path d="M 249.12 320.4 
L 249.12 43.2 
" clip-path="url(#p04783bb542)" style="fill: none; stroke-dasharray: 2.96,1.28; stroke-dashoffset: 0; stroke: #b0b0b0; stroke-width: 0.8"/>
     </g>
     <g id="line2d_14">
      <g>
       <use xlink:href="#m902d36275a" x="249.12" y="320.4" style="stroke: #000000; stroke-width: 0.8"/>
      </g>
     </g>
     <g id="text_7">
      <!-- 6 -->
      <g transform="translate(245.93875 334.998438) scale(0.1 -0.1)">
       <defs>
        <path id="DejaVuSans-36" d="M 2113 2584 
Q 1688 2584 1439 2293 
Q 1191 2003 1191 1497 
Q 1191 994 1439 701 
Q 1688 409 2113 409 
Q 2538 409 2786 701 
Q 3034 994 3034 1497 
Q 3034 2003 2786 2293 
Q 2538 2584 2113 2584 
z
M 3366 4563 
L 3366 3988 
Q 3128 4100 2886 4159 
Q 2644 4219 2406 4219 
Q 1781 4219 1451 3797 
Q 1122 3375 1075 2522 
Q 1259 2794 1537 2939 
Q 1816 3084 2150 3084 
Q 2853 3084 3261 2657 
Q 3669 2231 3669 1497 
Q 3669 778 3244 343 
Q 2819 -91 2113 -91 
Q 1303 -91 875 529 
Q 447 1150 447 2328 
Q 447 3434 972 4092 
Q 1497 4750 2381 4750 
Q 2619 4750 2861 4703 
Q 3103 4656 3366 4563 
z
" transform="scale(0.015625)"/>
       </defs>
       <use xlink:href="#DejaVuSans-36"/>
      </g>
     </g>
    </g>
    <g id="xtick_8">
     <g id="line2d_15">
      <path d="M 276.84 320.4 
L 276.84 43.2 
" clip-path="url(#p04783bb542)" style="fill: none; stroke-dasharray: 2.96,1.28; stroke-dashoffset: 0; stroke: #b0b0b0; stroke-width: 0.8"/>
     </g>
     <g id="line2d_16">
      <g>
       <use xlink:href="#m902d36275a" x="276.84" y="320.4" style="stroke: #000000; stroke-width: 0.8"/>
      </g>
     </g>
     <g id="text_8">
      <!-- 7 -->
      <g transform="translate(273.65875 334.998438) scale(0.1 -0.1)">
       <defs>
        <path id="DejaVuSans-37" d="M 525 4666 
L 3525 4666 
L 3525 4397 
L 1831 0 
L 1172 0 
L 2766 4134 
L 525 4134 
L 525 4666 
z
" transform="scale(0.015625)"/>
       </defs>
       <use xlink:href="#DejaVuSans-37"/>
      </g>
     </g>
    </g>
    <g id="xtick_9">
     <g id="line2d_17">
      <path d="M 304.56 320.4 
L 304.56 43.2 
" clip-path="url(#p04783bb542)" style="fill: none; stroke-dasharray: 2.96,1.28; stroke-dashoffset: 0; stroke: #b0b0b0; stroke-width: 0.8"/>
     </g>
     <g id="line2d_18">
      <g>
       <use xlink:href="#m902d36275a" x="304.56" y="320.4" style="stroke: #000000; stroke-width: 0.8"/>
      </g>
     </g>
     <g id="text_9">
      <!-- 8 -->
      <g transform="translate(301.37875 334.998438) scale(0.1 -0.1)">
       <defs>
        <path id="DejaVuSans-38" d="M 2034 2216 
Q 1584 2216 1326 1975 
Q 1069 1734 1069 1313 
Q 1069 891 1326 650 
Q 1584 409 2034 409 
Q 2484 409 2743 651 
Q 3003 894 3003 1313 
Q 3003 1734 2745 1975 
Q 2488 2216 2034 2216 
z
M 1403 2484 
Q 997 2584 770 2862 
Q 544 3141 544 3541 
Q 544 4100 942 4425 
Q 1341 4750 2034 4750 
Q 2731 4750 3128 4425 
Q 3525 4100 3525 3541 
Q 3525 3141 3298 2862 
Q 3072 2584 2669 2484 
Q 3125 2378 3379 2068 
Q 3634 1759 3634 1313 
Q 3634 634 3220 271 
Q 2806 -91 2034 -91 
Q 1263 -91 848 271 
Q 434 634 434 1313 
Q 434 1759 690 2068 
Q 947 2378 1403 2484 
z
M 1172 3481 
Q 1172 3119 1398 2916 
Q 1625 2713 2034 2713 
Q 2441 2713 2670 2916 
Q 2900 3119 2900 3481 
Q 2900 3844 2670 4047 
Q 2441 4250 2034 4250 
Q 1625 4250 1398 4047 
Q 1172 3844 1172 3481 
z
" transform="scale(0.015625)"/>
       </defs>
       <use xlink:href="#DejaVuSans-38"/>
      </g>
     </g>
    </g>
    <g id="xtick_10">
     <g id="line2d_19">
      <path d="M 332.28 320.4 
L 332.28 43.2 
" clip-path="url(#p04783bb542)" style="fill: none; stroke-dasharray: 2.96,1.28; stroke-dashoffset: 0; stroke: #b0b0b0; stroke-width: 0.8"/>
     </g>
     <g id="line2d_20">
      <g>
       <use xlink:href="#m902d36275a" x="332.28" y="320.4" style="stroke: #000000; stroke-width: 0.8"/>
      </g>
     </g>
     <g id="text_10">
      <!-- 9 -->
      <g transform="translate(329.09875 334.998438) scale(0.1 -0.1)">
       <defs>
        <path id="DejaVuSans-39" d="M 703 97 
L 703 672 
Q 941 559 1184 500 
Q 1428 441 1663 441 
Q 2288 441 2617 861 
Q 2947 1281 2994 2138 
Q 2813 1869 2534 1725 
Q 2256 1581 1919 1581 
Q 1219 1581 811 2004 
Q 403 2428 403 3163 
Q 403 3881 828 4315 
Q 1253 4750 1959 4750 
Q 2769 4750 3195 4129 
Q 3622 3509 3622 2328 
Q 3622 1225 3098 567 
Q 2575 -91 1691 -91 
Q 1453 -91 1209 -44 
Q 966 3 703 97 
z
M 1959 2075 
Q 2384 2075 2632 2365 
Q 2881 2656 2881 3163 
Q 2881 3666 2632 3958 
Q 2384 4250 1959 4250 
Q 1534 4250 1286 3958 
Q 1038 3666 1038 3163 
Q 1038 2656 1286 2365 
Q 1534 2075 1959 2075 
z
" transform="scale(0.015625)"/>
       </defs>
       <use xlink:href="#DejaVuSans-39"/>
      </g>
     </g>
    </g>
    <g id="xtick_11">
     <g id="line2d_21">
      <path d="M 360 320.4 
L 360 43.2 
" clip-path="url(#p04783bb542)" style="fill: none; stroke-dasharray: 2.96,1.28; stroke-dashoffset: 0; stroke: #b0b0b0; stroke-width: 0.8"/>
     </g>
     <g id="line2d_22">
      <g>
       <use xlink:href="#m902d36275a" x="360" y="320.4" style="stroke: #000000; stroke-width: 0.8"/>
      </g>
     </g>
     <g id="text_11">
      <!-- 10 -->
      <g transform="translate(353.6375 334.998438) scale(0.1 -0.1)">
       <use xlink:href="#DejaVuSans-31"/>
       <use xlink:href="#DejaVuSans-30" x="63.623047"/>
      </g>
     </g>
    </g>
    <g id="text_12">
     <!-- X (m) -->
     <g transform="translate(207.614062 348.676562) scale(0.1 -0.1)">
      <defs>
       <path id="DejaVuSans-58" d="M 403 4666 
L 1081 4666 
L 2241 2931 
L 3406 4666 
L 4084 4666 
L 2584 2425 
L 4184 0 
L 3506 0 
L 2194 1984 
L 872 0 
L 191 0 
L 1856 2491 
L 403 4666 
z
" transform="scale(0.015625)"/>
       <path id="DejaVuSans-20" transform="scale(0.015625)"/>
       <path id="DejaVuSans-28" d="M 1984 4856 
Q 1566 4138 1362 3434 
Q 1159 2731 1159 2009 
Q 1159 1288 1364 580 
Q 1569 -128 1984 -844 
L 1484 -844 
Q 1016 -109 783 600 
Q 550 1309 550 2009 
Q 550 2706 781 3412 
Q 1013 4119 1484 4856 
L 1984 4856 
z
" transform="scale(0.015625)"/>
       <path id="DejaVuSans-6d" d="M 3328 2828 
Q 3544 3216 3844 3400 
Q 4144 3584 4550 3584 
Q 5097 3584 5394 3201 
Q 5691 2819 5691 2113 
L 5691 0 
L 5113 0 
L 5113 2094 
Q 5113 2597 4934 2840 
Q 4756 3084 4391 3084 
Q 3944 3084 3684 2787 
Q 3425 2491 3425 1978 
L 3425 0 
L 2847 0 
L 2847 2094 
Q 2847 2600 2669 2842 
Q 2491 3084 2119 3084 
Q 1678 3084 1418 2786 
Q 1159 2488 1159 1978 
L 1159 0 
L 581 0 
L 581 3500 
L 1159 3500 
L 1159 2956 
Q 1356 3278 1631 3431 
Q 1906 3584 2284 3584 
Q 2666 3584 2933 3390 
Q 3200 3197 3328 2828 
z
" transform="scale(0.015625)"/>
       <path id="DejaVuSans-29" d="M 513 4856 
L 1013 4856 
Q 1481 4119 1714 3412 
Q 1947 2706 1947 2009 
Q 1947 1309 1714 600 
Q 1481 -109 1013 -844 
L 513 -844 
Q 928 -128 1133 580 
Q 1338 1288 1338 2009 
Q 1338 2731 1133 3434 
Q 928 4138 513 4856 
z
" transform="scale(0.015625)"/>
      </defs>
      <use xlink:href="#DejaVuSans-58"/>
      <use xlink:href="#DejaVuSans-20" x="68.505859"/>
      <use xlink:href="#DejaVuSans-28" x="100.292969"/>
      <use xlink:href="#DejaVuSans-6d" x="139.306641"/>
      <use xlink:href="#DejaVuSans-29" x="236.71875"/>
     </g>
    </g>
   </g>
   <g id="matplotlib.axis_2">
    <g id="ytick_1">
     <g id="line2d_23">
      <path d="M 82.8 320.4 
L 360 320.4 
" clip-path="url(#p04783bb542)" style="fill: none; stroke-dasharray: 2.96,1.28; stroke-dashoffset: 0; stroke: #b0b0b0; stroke-width: 0.8"/>
     </g>
     <g id="line2d_24">
      <defs>
       <path id="m60b0dc00fc" d="M 0 0 
L -3.5 0 
" style="stroke: #000000; stroke-width: 0.8"/>
      </defs>
      <g>
       <use xlink:href="#m60b0dc00fc" x="82.8" y="320.4" style="stroke: #000000; stroke-width: 0.8"/>
      </g>
     </g>
     <g id="text_13">
      <!-- 0 -->
      <g transform="translate(69.4375 324.199219) scale(0.1 -0.1)">
       <use xlink:href="#DejaVuSans-30"/>
      </g>
     </g>
    </g>
    <g id="ytick_2">
     <g id="line2d_25">
      <path d="M 82.8 292.68 
L 360 292.68 
" clip-path="url(#p04783bb542)" style="fill: none; stroke-dasharray: 2.96,1.28; stroke-dashoffset: 0; stroke: #b0b0b0; stroke-width: 0.8"/>
     </g>
     <g id="line2d_26">
      <g>
       <use xlink:href="#m60b0dc00fc" x="82.8" y="292.68" style="stroke: #000000; stroke-width: 0.8"/>
      </g>
     </g>
     <g id="text_14">
      <!-- 1 -->
      <g transform="translate(69.4375 296.479219) scale(0.1 -0.1)">
       <use xlink:href="#DejaVuSans-31"/>
      </g>
     </g>
    </g>
    <g id="ytick_3">
     <g id="line2d_27">
      <path d="M 82.8 264.96 
L 360 264.96 
" clip-path="url(#p04783bb542)" style="fill: none; stroke-dasharray: 2.96,1.28; stroke-dashoffset: 0; stroke: #b0b0b0; stroke-width: 0.8"/>
     </g>
     <g id="line2d_28">
      <g>
       <use xlink:href="#m60b0dc00fc" x="82.8" y="264.96" style="stroke: #000000; stroke-width: 0.8"/>
      </g>
     </g>
     <g id="text_15">
      <!-- 2 -->
      <g transform="translate(69.4375 268.759219) scale(0.1 -0.1)">
       <use xlink:href="#DejaVuSans-32"/>
      </g>
     </g>
    </g>
    <g id="ytick_4">
     <g id="line2d_29">
      <path d="M 82.8 237.24 
L 360 237.24 
" clip-path="url(#p04783bb542)" style="fill: none; stroke-dasharray: 2.96,1.28; stroke-dashoffset: 0; stroke: #b0b0b0; stroke-width: 0.8"/>
     </g>
     <g id="line2d_30">
      <g>
       <use xlink:href="#m60b0dc00fc" x="82.8" y="237.24" style="stroke: #000000; stroke-width: 0.8"/>
      </g>
     </g>
     <g id="text_16">
      <!-- 3 -->
      <g transform="translate(69.4375 241.039219) scale(0.1 -0.1)">
       <use xlink:href="#DejaVuSans-33"/>
      </g>
     </g>
    </g>
    <g id="ytick_5">
     <g id="line2d_31">
      <path d="M 82.8 209.52 
L 360 209.52 
" clip-path="url(#p04783bb542)" style="fill: none; stroke-dasharray: 2.96,1.28; stroke-dashoffset: 0; stroke: #b0b0b0; stroke-width: 0.8"/>
     </g>
     <g id="line2d_32">
      <g>
       <use xlink:href="#m60b0dc00fc" x="82.8" y="209.52" style="stroke: #000000; stroke-width: 0.8"/>
      </g>
     </g>
     <g id="text_17">
      <!-- 4 -->
      <g transform="translate(69.4375 213.319219) scale(0.1 -0.1)">
       <use xlink:href="#DejaVuSans-34"/>
      </g>
     </g>
    </g>
    <g id="ytick_6">
     <g id="line2d_33">
      <path d="M 82.8 181.8 
L 360 181.8 
" clip-path="url(#p04783bb542)" style="fill: none; stroke-dasharray: 2.96,1.28; stroke-dashoffset: 0; stroke: #b0b0b0; stroke-width: 0.8"/>
     </g>
     <g id="line2d_34">
      <g>
       <use xlink:href="#m60b0dc00fc" x="82.8" y="181.8" style="stroke: #000000; stroke-width: 0.8"/>
      </g>
     </g>
     <g id="text_18">
      <!-- 5 -->
      <g transform="translate(69.4375 185.599219) scale(0.1 -0.1)">
       <use xlink:href="#DejaVuSans-35"/>
      </g>
     </g>
    </g>
    <g id="ytick_7">
     <g id="line2d_35">
      <path d="M 82.8 154.08 
L 360 154.08 
" clip-path="url(#p04783bb542)" style="fill: none; stroke-dasharray: 2.96,1.28; stroke-dashoffset: 0; stroke: #b0b0b0; stroke-width: 0.8"/>
     </g>
     <g id="line2d_36">
      <g>
       <use xlink:href="#m60b0dc00fc" x="82.8" y="154.08" style="stroke: #000000; stroke-width: 0.8"/>
      </g>
     </g>
     <g id="text_19">
      <!-- 6 -->
      <g transform="translate(69.4375 157.879219) scale(0.1 -0.1)">
       <use xlink:href="#DejaVuSans-36"/>
      </g>
     </g>
    </g>
    <g id="ytick_8">
     <g id="line2d_37">
      <path d="M 82.8 126.36 
L 360 126.36 
" clip-path="url(#p04783bb542)" style="fill: none; stroke-dasharray: 2.96,1.28; stroke-dashoffset: 0; stroke: #b0b0b0; stroke-width: 0.8"/>
     </g>
     <g id="line2d_38">
      <g>
       <use xlink:href="#m60b0dc00fc" x="82.8" y="126.36" style="stroke: #000000; stroke-width: 0.8"/>
      </g>
     </g>
     <g id="text_20">
      <!-- 7 -->
      <g transform="translate(69.4375 130.159219) scale(0.1 -0.1)">
       <use xlink:href="#DejaVuSans-37"/>
      </g>
     </g>
    </g>
    <g id="ytick_9">
     <g id="line2d_39">
      <path d="M 82.8 98.64 
L 360 98.64 
" clip-path="url(#p04783bb542)" style="fill: none; stroke-dasharray: 2.96,1.28; stroke-dashoffset: 0; stroke: #b0b0b0; stroke-width: 0.8"/>
     </g>
     <g id="line2d_40">
      <g>
       <use xlink:href="#m60b0dc00fc" x="82.8" y="98.64" style="stroke: #000000; stroke-width: 0.8"/>
      </g>
     </g>
     <g id="text_21">
      <!-- 8 -->
      <g transform="translate(69.4375 102.439219) scale(0.1 -0.1)">
       <use xlink:href="#DejaVuSans-38"/>
      </g>
     </g>
    </g>
    <g id="ytick_10">
     <g id="line2d_41">
      <path d="M 82.8 70.92 
L 360 70.92 
" clip-path="url(#p04783bb542)" style="fill: none; stroke-dasharray: 2.96,1.28; stroke-dashoffset: 0; stroke: #b0b0b0; stroke-width: 0.8"/>
     </g>
     <g id="line2d_42">
      <g>
       <use xlink:href="#m60b0dc00fc" x="82.8" y="70.92" style="stroke: #000000; stroke-width: 0.8"/>
      </g>
     </g>
     <g id="text_22">
      <!-- 9 -->
      <g transform="translate(69.4375 74.719219) scale(0.1 -0.1)">
       <use xlink:href="#DejaVuSans-39"/>
      </g>
     </g>
    </g>
    <g id="ytick_11">
     <g id="line2d_43">
      <path d="M 82.8 43.2 
L 360 43.2 
" clip-path="url(#p04783bb542)" style="fill: none; stroke-dasharray: 2.96,1.28; stroke-dashoffset: 0; stroke: #b0b0b0; stroke-width: 0.8"/>
     </g>
     <g id="line2d_44">
      <g>
       <use xlink:href="#m60b0dc00fc" x="82.8" y="43.2" style="stroke: #000000; stroke-width: 0.8"/>
      </g>
     </g>
     <g id="text_23">
      <!-- 10 -->
      <g transform="translate(63.075 46.999219) scale(0.1 -0.1)">
       <use xlink:href="#DejaVuSans-31"/>
       <use xlink:href="#DejaVuSans-30" x="63.623047"/>
      </g>
     </g>
    </g>
    <g id="text_24">
     <!-- Y (m) -->
     <g transform="translate(56.995312 195.214844) rotate(-90) scale(0.1 -0.1)">
      <defs>
       <path id="DejaVuSans-59" d="M -13 4666 
L 666 4666 
L 1959 2747 
L 3244 4666 
L 3922 4666 
L 2272 2222 
L 2272 0 
L 1638 0 
L 1638 2222 
L -13 4666 
z
" transform="scale(0.015625)"/>
      </defs>
      <use xlink:href="#DejaVuSans-59"/>
      <use xlink:href="#DejaVuSans-20" x="61.083984"/>
      <use xlink:href="#DejaVuSans-28" x="92.871094"/>
      <use xlink:href="#DejaVuSans-6d" x="131.884766"/>
      <use xlink:href="#DejaVuSans-29" x="229.296875"/>
     </g>
    </g>
   </g>
   <g id="patch_9">
    <path d="M 82.8 320.4 
L 82.8 43.2 
" style="fill: none; stroke: #000000; stroke-width: 0.8; stroke-linejoin: miter; stroke-linecap: square"/>
   </g>
   <g id="patch_10">
    <path d="M 360 320.4 
L 360 43.2 
" style="fill: none; stroke: #000000; stroke-width: 0.8; stroke-linejoin: miter; stroke-linecap: square"/>
   </g>
   <g id="patch_11">
    <path d="M 82.8 320.4 
L 360 320.4 
" style="fill: none; stroke: #000000; stroke-width: 0.8; stroke-linejoin: miter; stroke-linecap: square"/>
   </g>
   <g id="patch_12">
    <path d="M 82.8 43.2 
L 360 43.2 
" style="fill: none; stroke: #000000; stroke-width: 0.8; stroke-linejoin: miter; stroke-linecap: square"/>
   </g>
  </g>
 </g>
 <defs>
  <clipPath id="p04783bb542">
   <rect x="82.8" y="43.2" width="277.2" height="277.2"/>
  </clipPath>
 </defs>
</svg>
